<?xml version="1.0" encoding="UTF-8" standalone="no"?>
<!-- Created with Inkscape (http://www.inkscape.org/) -->

<svg
   xmlns:dc="http://purl.org/dc/elements/1.1/"
   xmlns:cc="http://creativecommons.org/ns#"
   xmlns:rdf="http://www.w3.org/1999/02/22-rdf-syntax-ns#"
   xmlns:svg="http://www.w3.org/2000/svg"
   xmlns="http://www.w3.org/2000/svg"
   xmlns:sodipodi="http://sodipodi.sourceforge.net/DTD/sodipodi-0.dtd"
   xmlns:inkscape="http://www.inkscape.org/namespaces/inkscape"
   id="svg4847"
   version="1.1"
   inkscape:version="0.91 r13725"
   xml:space="preserve"
   width="1000"
   height="1000"
   viewBox="0 0 1000 1000"
   sodipodi:docname="12311-NOBOK7ll.svg"><metadata
     id="metadata4853"><rdf:RDF><cc:Work
         rdf:about=""><dc:format>image/svg+xml</dc:format><dc:type
           rdf:resource="http://purl.org/dc/dcmitype/StillImage" /><dc:title></dc:title></cc:Work></rdf:RDF></metadata><defs
     id="defs4851"><clipPath
       clipPathUnits="userSpaceOnUse"
       id="clipPath4865"><path
         d="m 1474.5,4827.63 c 0,0 -472.42,-409.31 -610.266,-835.38 0,0 -118.722,-354.03 285.426,-354.03 0,0 -218.972,-41.51 -301.297,125.32 0,0 82.235,-289.02 425.287,-289.02 l -139.38,-11.76 -2.95,-54.88 -971.715,-92.18 969.995,60.13 1051.11,5.49 28.2,75.18 c 0,0 141.5,28.22 269.95,172.33 l 5397.79,-0.72 -5069.48,1472.85 c 0,0 -831.4,163.25 -1332.67,-273.33 z"
         id="path4867"
         inkscape:connector-curvature="0" /></clipPath><linearGradient
       x1="0"
       y1="0"
       x2="1"
       y2="0"
       gradientUnits="userSpaceOnUse"
       gradientTransform="matrix(7717.05,0,0,-7717.05,159.604,4223.27)"
       spreadMethod="pad"
       id="linearGradient4869"><stop
         style="stop-opacity:1;stop-color:#182a47"
         offset="0"
         id="stop4871" /><stop
         style="stop-opacity:1;stop-color:#2b54aa"
         offset="0.206061"
         id="stop4873" /><stop
         style="stop-opacity:1;stop-color:#447ec9"
         offset="0.393939"
         id="stop4875" /><stop
         style="stop-opacity:1;stop-color:#65bee7"
         offset="0.539394"
         id="stop4877" /><stop
         style="stop-opacity:1;stop-color:#7dd5ee"
         offset="0.666667"
         id="stop4879" /><stop
         style="stop-opacity:1;stop-color:#a0e0f4"
         offset="0.830303"
         id="stop4881" /><stop
         style="stop-opacity:1;stop-color:#cfeff6"
         offset="1"
         id="stop4883" /></linearGradient><clipPath
       clipPathUnits="userSpaceOnUse"
       id="clipPath4891"><path
         d="m 7876.65,3628.11 -5370.44,-49.42 c 0,0 -101.65,-114.34 -226.97,-144.11 l -13.7,-79.62 -1751.829,-231.44 7362.939,504.59 z"
         id="path4893"
         inkscape:connector-curvature="0" /></clipPath><linearGradient
       x1="0"
       y1="0"
       x2="1"
       y2="0"
       gradientUnits="userSpaceOnUse"
       gradientTransform="matrix(7362.94,0,0,-7362.94,513.711,3375.81)"
       spreadMethod="pad"
       id="linearGradient4895"><stop
         style="stop-opacity:1;stop-color:#182a47"
         offset="0"
         id="stop4897" /><stop
         style="stop-opacity:1;stop-color:#2b54aa"
         offset="0.206061"
         id="stop4899" /><stop
         style="stop-opacity:1;stop-color:#447ec9"
         offset="0.393939"
         id="stop4901" /><stop
         style="stop-opacity:1;stop-color:#65bee7"
         offset="0.539394"
         id="stop4903" /><stop
         style="stop-opacity:1;stop-color:#7dd5ee"
         offset="0.666667"
         id="stop4905" /><stop
         style="stop-opacity:1;stop-color:#a0e0f4"
         offset="0.830303"
         id="stop4907" /><stop
         style="stop-opacity:1;stop-color:#cfeff6"
         offset="1"
         id="stop4909" /></linearGradient></defs><sodipodi:namedview
     pagecolor="#ffffff"
     bordercolor="#666666"
     borderopacity="1"
     objecttolerance="10"
     gridtolerance="10"
     guidetolerance="10"
     inkscape:pageopacity="0"
     inkscape:pageshadow="2"
     inkscape:window-width="1920"
     inkscape:window-height="986"
     id="namedview4849"
     showgrid="false"
     inkscape:zoom="0.82"
     inkscape:cx="448.17073"
     inkscape:cy="500"
     inkscape:window-x="0"
     inkscape:window-y="1"
     inkscape:window-maximized="1"
     inkscape:current-layer="g4857" /><g
     id="g4855"
     inkscape:groupmode="layer"
     inkscape:label="ink_ext_XXXXXX"
     transform="matrix(1.25,0,0,-1.25,0,1000)"><g
       id="g4857"
       transform="matrix(0.10012195,0,0,0.1,-0.97560976,0)"><path
         d="m 0,0 8000,0 0,8000 L 0,8000 0,0 Z"
         style="fill:#edecec;fill-opacity:1;fill-rule:nonzero;stroke:none"
         id="path4859"
         inkscape:connector-curvature="0" /><g
         id="g4861"><g
           id="g4863"
           clip-path="url(#clipPath4865)"><path
             d="m 1474.5,4827.63 c 0,0 -472.42,-409.31 -610.266,-835.38 0,0 -118.722,-354.03 285.426,-354.03 0,0 -218.972,-41.51 -301.297,125.32 0,0 82.235,-289.02 425.287,-289.02 l -139.38,-11.76 -2.95,-54.88 -971.715,-92.18 969.995,60.13 1051.11,5.49 28.2,75.18 c 0,0 141.5,28.22 269.95,172.33 l 5397.79,-0.72 -5069.48,1472.85 c 0,0 -831.4,163.25 -1332.67,-273.33"
             style="fill:url(#linearGradient4869);fill-opacity:1;fill-rule:nonzero;stroke:none"
             id="path4885"
             inkscape:connector-curvature="0" /></g></g><g
         id="g4887"><g
           id="g4889"
           clip-path="url(#clipPath4891)"><path
             d="m 7876.65,3628.11 -5370.44,-49.42 c 0,0 -101.65,-114.34 -226.97,-144.11 l -13.7,-79.62 -1751.829,-231.44 7362.939,504.59"
             style="fill:url(#linearGradient4895);fill-opacity:1;fill-rule:nonzero;stroke:none"
             id="path4911"
             inkscape:connector-curvature="0" /></g></g><path
         d="m 2833.18,287.012 c 0,-6.383 0.97,-11.793 2.97,-16.262 1.98,-4.461 4.69,-7.859 8.11,-10.109 3.44,-2.282 7.21,-3.399 11.3,-3.399 4.12,0 7.88,1.059 11.31,3.207 3.4,2.192 6.14,5.473 8.19,9.903 2,4.457 3.02,10.007 3.02,16.66 0,6.258 -1.02,11.629 -3.02,16.148 -2.05,4.5 -4.8,7.942 -8.27,10.309 -3.49,2.39 -7.29,3.562 -11.41,3.562 -4.31,0 -8.15,-1.191 -11.53,-3.64 -3.39,-2.469 -6.02,-5.95 -7.87,-10.52 -1.88,-4.539 -2.8,-9.82 -2.8,-15.859 m 46.2,-34.492 0,2.332 c -3.14,-3.641 -6.25,-6.571 -9.33,-8.84 -3.07,-2.282 -6.39,-3.992 -9.98,-5.18 -3.6,-1.18 -7.5,-1.762 -11.75,-1.762 -5.62,0 -10.82,1.2 -15.63,3.582 -4.77,2.399 -8.92,5.789 -12.41,10.188 -3.53,4.41 -6.16,9.629 -7.97,15.601 -1.81,5.95 -2.72,12.391 -2.72,19.348 0,14.68 3.61,26.133 10.78,34.332 7.15,8.199 16.6,12.309 28.3,12.309 6.77,0 12.48,-1.168 17.13,-3.489 4.64,-2.339 9.16,-5.89 13.58,-10.73 l 0,34.687 c 0,4.832 0.98,8.473 2.89,10.942 1.91,2.469 4.65,3.711 8.21,3.711 3.55,0 6.3,-1.16 8.24,-3.422 1.91,-2.238 2.88,-5.598 2.88,-10.027 l 0,-103.582 c 0,-4.469 -1.05,-7.829 -3.11,-10.071 -2.06,-2.25 -4.74,-3.379 -8.01,-3.379 -3.22,0 -5.87,1.149 -7.95,3.489 -2.1,2.312 -3.15,5.671 -3.15,9.961"
         style="fill:#454955;fill-opacity:1;fill-rule:nonzero;stroke:none"
         id="path4913"
         inkscape:connector-curvature="0" /><path
         d="m 2944.78,294.398 42.58,0 c -0.56,8.043 -2.74,14.043 -6.5,18.024 -3.76,4 -8.68,6.008 -14.82,6.008 -5.86,0 -10.67,-2.02 -14.42,-6.078 -3.75,-4.032 -6.04,-10.043 -6.84,-17.954 m 45.95,-13.32 -45.95,0 c 0.05,-5.348 1.13,-10.047 3.22,-14.117 2.11,-4.063 4.88,-7.152 8.35,-9.199 3.48,-2.071 7.3,-3.102 11.49,-3.102 2.82,0 5.37,0.352 7.71,0.961 2.31,0.66 4.56,1.75 6.75,3.121 2.18,1.418 4.17,2.93 6.03,4.528 1.82,1.582 4.2,3.761 7.13,6.519 1.2,1.031 2.92,1.59 5.16,1.59 2.41,0 4.35,-0.699 5.83,-2.008 1.52,-1.308 2.27,-3.172 2.27,-5.582 0,-2.117 -0.85,-4.609 -2.49,-7.457 -1.69,-2.82 -4.19,-5.582 -7.55,-8.184 -3.34,-2.578 -7.55,-4.769 -12.65,-6.5 -5.07,-1.707 -10.91,-2.578 -17.51,-2.578 -15.09,0 -26.82,4.309 -35.19,12.91 -8.38,8.622 -12.56,20.282 -12.56,35.032 0,6.937 1.04,13.41 3.1,19.34 2.07,5.918 5.06,11.019 9.03,15.25 3.97,4.23 8.84,7.5 14.63,9.8 5.8,2.227 12.22,3.368 19.28,3.368 9.18,0 17.05,-1.938 23.61,-5.809 6.58,-3.879 11.49,-8.879 14.77,-15.012 3.26,-6.148 4.9,-12.41 4.9,-18.758 0,-5.902 -1.71,-9.75 -5.09,-11.519 -3.37,-1.731 -8.13,-2.594 -14.27,-2.594"
         style="fill:#454955;fill-opacity:1;fill-rule:nonzero;stroke:none"
         id="path4915"
         inkscape:connector-curvature="0" /><path
         d="m 3105.51,269.789 c 0,-6.457 -1.57,-12.019 -4.73,-16.641 -3.14,-4.609 -7.8,-8.089 -13.95,-10.507 -6.18,-2.371 -13.71,-3.559 -22.5,-3.559 -8.47,0 -15.71,1.297 -21.71,3.867 -6.05,2.582 -10.47,5.821 -13.35,9.711 -2.85,3.828 -4.29,7.738 -4.29,11.621 0,2.59 0.91,4.809 2.73,6.641 1.85,1.828 4.16,2.769 6.98,2.769 2.48,0 4.36,-0.621 5.68,-1.82 1.33,-1.211 2.61,-2.891 3.8,-5.07 2.4,-4.199 5.29,-7.321 8.63,-9.379 3.38,-2.063 7.96,-3.109 13.75,-3.109 4.69,0 8.57,1.046 11.57,3.156 3,2.082 4.5,4.48 4.5,7.172 0,4.148 -1.58,7.16 -4.7,9.05 -3.13,1.872 -8.26,3.688 -15.42,5.399 -8.1,2.031 -14.66,4.121 -19.76,6.32 -5.05,2.231 -9.12,5.129 -12.16,8.75 -3.05,3.602 -4.55,8.059 -4.55,13.352 0,4.66 1.38,9.136 4.19,13.34 2.8,4.168 6.98,7.5 12.42,10.019 5.49,2.5 12.12,3.738 19.86,3.738 6.06,0 11.51,-0.629 16.38,-1.898 4.84,-1.289 8.88,-2.961 12.15,-5.09 3.23,-2.152 5.69,-4.449 7.39,-7.051 1.69,-2.609 2.54,-5.109 2.54,-7.57 0,-2.691 -0.89,-4.918 -2.73,-6.59 -1.77,-1.758 -4.36,-2.59 -7.68,-2.59 -2.42,0 -4.47,0.668 -6.15,2.032 -1.69,1.39 -3.63,3.468 -5.82,6.179 -1.78,2.321 -3.84,4.168 -6.29,5.539 -2.42,1.371 -5.67,2.059 -9.79,2.059 -4.27,0 -7.78,-0.91 -10.6,-2.738 -2.81,-1.801 -4.21,-4.032 -4.21,-6.719 0,-2.492 1.04,-4.5 3.1,-6.082 2.06,-1.57 4.84,-2.86 8.35,-3.918 3.47,-1.024 8.3,-2.301 14.44,-3.77 7.31,-1.793 13.25,-3.902 17.88,-6.363 4.6,-2.488 8.1,-5.387 10.48,-8.75 2.39,-3.34 3.57,-7.18 3.57,-11.5"
         style="fill:#454955;fill-opacity:1;fill-rule:nonzero;stroke:none"
         id="path4917"
         inkscape:connector-curvature="0" /><path
         d="m 3148.9,321.281 0,-67.91 c 0,-4.723 -1.14,-8.262 -3.38,-10.68 -2.24,-2.41 -5.06,-3.621 -8.5,-3.621 -3.45,0 -6.27,1.25 -8.39,3.711 -2.17,2.469 -3.23,6 -3.23,10.59 l 0,67.199 c 0,4.649 1.06,8.16 3.23,10.5 2.12,2.352 4.94,3.539 8.39,3.539 3.44,0 6.26,-1.187 8.5,-3.539 2.24,-2.34 3.38,-5.64 3.38,-9.789 m -11.62,24.239 c -3.28,0 -6.07,1.011 -8.4,3.019 -2.32,2 -3.48,4.84 -3.48,8.5 0,3.332 1.18,6.09 3.58,8.231 2.36,2.152 5.12,3.222 8.3,3.222 3.01,0 5.72,-0.953 8.07,-2.902 2.36,-1.969 3.55,-4.82 3.55,-8.551 0,-3.578 -1.16,-6.43 -3.44,-8.469 -2.31,-2.039 -5.04,-3.05 -8.18,-3.05"
         style="fill:#454955;fill-opacity:1;fill-rule:nonzero;stroke:none"
         id="path4919"
         inkscape:connector-curvature="0" /><path
         d="m 3191.46,287.629 c 0,-9.539 2.09,-16.758 6.25,-21.598 4.17,-4.902 9.56,-7.332 16.13,-7.332 3.9,0 7.6,1.043 11.06,3.141 3.47,2.09 6.31,5.25 8.49,9.469 2.17,4.222 3.28,9.32 3.28,15.371 0,9.57 -2.13,17.019 -6.34,22.379 -4.21,5.32 -9.77,7.98 -16.66,7.98 -6.71,0 -12.08,-2.527 -16.12,-7.668 -4.06,-5.09 -6.09,-12.351 -6.09,-21.742 m 68.07,29.75 0,-68.199 c 0,-7.828 -0.82,-14.52 -2.47,-20.16 -1.68,-5.641 -4.35,-10.27 -8.02,-13.93 -3.66,-3.668 -8.48,-6.41 -14.42,-8.211 -5.94,-1.727 -13.32,-2.617 -22.13,-2.617 -8.1,0 -15.33,1.109 -21.7,3.367 -6.38,2.281 -11.25,5.191 -14.72,8.773 -3.44,3.598 -5.14,7.278 -5.14,11.078 0,2.852 0.97,5.192 2.93,7.008 1.93,1.801 4.28,2.723 7.05,2.723 3.4,0 6.43,-1.539 9.01,-4.559 1.27,-1.574 2.57,-3.132 3.92,-4.703 1.35,-1.57 2.87,-2.929 4.47,-4.047 1.63,-1.121 3.6,-1.953 5.9,-2.5 2.28,-0.543 4.94,-0.832 7.91,-0.832 6.07,0 10.82,0.832 14.18,2.551 3.36,1.68 5.68,4.059 7.05,7.09 1.35,3.07 2.13,6.301 2.35,9.801 0.25,3.429 0.41,9 0.54,16.718 -3.63,-5.058 -7.81,-8.898 -12.55,-11.539 -4.72,-2.632 -10.36,-3.949 -16.9,-3.949 -7.83,0 -14.71,1.996 -20.61,6.02 -5.9,4.008 -10.39,9.617 -13.55,16.867 -3.14,7.242 -4.73,15.582 -4.73,25.051 0,7.039 0.96,13.402 2.89,19.09 1.92,5.679 4.67,10.472 8.22,14.382 3.56,3.918 7.66,6.86 12.31,8.809 4.63,1.961 9.75,2.961 15.31,2.961 6.63,0 12.41,-1.274 17.31,-3.832 4.84,-2.527 9.37,-6.559 13.61,-12 l 0,3.18 c 0,4.062 0.99,7.218 2.99,9.472 1.99,2.238 4.57,3.367 7.73,3.367 4.53,0 7.52,-1.5 9.03,-4.449 1.48,-2.941 2.23,-7.191 2.23,-12.781"
         style="fill:#454955;fill-opacity:1;fill-rule:nonzero;stroke:none"
         id="path4921"
         inkscape:connector-curvature="0" /><path
         d="m 3304.66,321.609 0,-2.839 c 4.12,5.449 8.61,9.46 13.52,12 4.92,2.531 10.56,3.839 16.91,3.839 6.21,0 11.73,-1.347 16.64,-4.07 4.83,-2.68 8.48,-6.5 10.89,-11.437 1.57,-2.872 2.56,-5.961 3.01,-9.282 0.46,-3.359 0.69,-7.578 0.69,-12.75 l 0,-43.699 c 0,-4.711 -1.08,-8.262 -3.21,-10.68 -2.14,-2.402 -4.98,-3.609 -8.38,-3.609 -3.53,0 -6.36,1.238 -8.53,3.699 -2.19,2.469 -3.26,6 -3.26,10.59 l 0,39.149 c 0,7.742 -1.08,13.66 -3.23,17.789 -2.18,4.089 -6.44,6.14 -12.87,6.14 -4.21,0 -8,-1.258 -11.44,-3.75 -3.46,-2.469 -5.99,-5.91 -7.61,-10.277 -1.1,-3.512 -1.7,-10.063 -1.7,-19.633 l 0,-29.418 c 0,-4.781 -1.1,-8.312 -3.31,-10.73 -2.21,-2.371 -5.08,-3.559 -8.57,-3.559 -3.38,0 -6.14,1.238 -8.34,3.699 -2.17,2.469 -3.25,6 -3.25,10.59 l 0,67.91 c 0,4.457 0.96,7.789 2.91,10.008 1.94,2.203 4.61,3.32 8.01,3.32 2.07,0 3.93,-0.507 5.59,-1.461 1.64,-0.988 2.99,-2.468 4,-4.386 1,-1.973 1.53,-4.313 1.53,-7.153"
         style="fill:#454955;fill-opacity:1;fill-rule:nonzero;stroke:none"
         id="path4923"
         inkscape:connector-curvature="0" /><path
         d="m 3409.35,294.398 42.59,0 c -0.6,8.043 -2.73,14.043 -6.5,18.024 -3.73,4 -8.71,6.008 -14.83,6.008 -5.86,0 -10.66,-2.02 -14.43,-6.078 -3.75,-4.032 -6.03,-10.043 -6.83,-17.954 m 45.95,-13.32 -45.95,0 c 0.06,-5.348 1.13,-10.047 3.22,-14.117 2.09,-4.063 4.9,-7.152 8.34,-9.199 3.48,-2.071 7.32,-3.102 11.51,-3.102 2.8,0 5.38,0.352 7.69,0.961 2.31,0.66 4.57,1.75 6.77,3.121 2.17,1.418 4.19,2.93 6.02,4.528 1.83,1.582 4.2,3.761 7.13,6.519 1.21,1.031 2.93,1.59 5.15,1.59 2.43,0 4.36,-0.699 5.87,-2.008 1.48,-1.308 2.24,-3.172 2.24,-5.582 0,-2.117 -0.82,-4.609 -2.5,-7.457 -1.66,-2.82 -4.18,-5.582 -7.54,-8.184 -3.35,-2.578 -7.57,-4.769 -12.64,-6.5 -5.09,-1.707 -10.93,-2.578 -17.5,-2.578 -15.11,0 -26.83,4.309 -35.19,12.91 -8.41,8.622 -12.6,20.282 -12.6,35.032 0,6.937 1.06,13.41 3.11,19.34 2.07,5.918 5.08,11.019 9.06,15.25 3.95,4.23 8.81,7.5 14.61,9.8 5.8,2.227 12.22,3.368 19.28,3.368 9.18,0 17.05,-1.938 23.63,-5.809 6.55,-3.879 11.47,-8.879 14.76,-15.012 3.27,-6.148 4.89,-12.41 4.89,-18.758 0,-5.902 -1.72,-9.75 -5.06,-11.519 -3.4,-1.731 -8.15,-2.594 -14.3,-2.594"
         style="fill:#454955;fill-opacity:1;fill-rule:nonzero;stroke:none"
         id="path4925"
         inkscape:connector-curvature="0" /><path
         d="m 3512.63,287.012 c 0,-6.383 0.96,-11.793 2.95,-16.262 1.99,-4.461 4.66,-7.859 8.15,-10.109 3.43,-2.282 7.18,-3.399 11.25,-3.399 4.15,0 7.91,1.059 11.34,3.207 3.38,2.192 6.12,5.473 8.15,9.903 2.05,4.457 3.08,10.007 3.08,16.66 0,6.258 -1.03,11.629 -3.08,16.148 -2.03,4.5 -4.77,7.942 -8.27,10.309 -3.46,2.39 -7.26,3.562 -11.39,3.562 -4.29,0 -8.15,-1.191 -11.54,-3.64 -3.4,-2.469 -5.99,-5.95 -7.86,-10.52 -1.87,-4.539 -2.78,-9.82 -2.78,-15.859 m 46.19,-34.492 0,2.332 c -3.16,-3.641 -6.27,-6.571 -9.35,-8.84 -3.05,-2.282 -6.41,-3.992 -9.96,-5.18 -3.6,-1.18 -7.52,-1.762 -11.76,-1.762 -5.63,0 -10.81,1.2 -15.61,3.582 -4.78,2.399 -8.94,5.789 -12.44,10.188 -3.49,4.41 -6.14,9.629 -7.95,15.601 -1.81,5.95 -2.72,12.391 -2.72,19.348 0,14.68 3.6,26.133 10.75,34.332 7.17,8.199 16.62,12.309 28.32,12.309 6.78,0 12.48,-1.168 17.11,-3.489 4.64,-2.339 9.19,-5.89 13.61,-10.73 l 0,34.687 c 0,4.832 0.96,8.473 2.89,10.942 1.93,2.469 4.65,3.711 8.22,3.711 3.54,0 6.25,-1.16 8.21,-3.422 1.93,-2.238 2.87,-5.598 2.87,-10.027 l 0,-103.582 c 0,-4.469 -1.02,-7.829 -3.08,-10.071 -2.08,-2.25 -4.74,-3.379 -8,-3.379 -3.22,0 -5.88,1.149 -7.97,3.489 -2.09,2.312 -3.14,5.671 -3.14,9.961"
         style="fill:#454955;fill-opacity:1;fill-rule:nonzero;stroke:none"
         id="path4927"
         inkscape:connector-curvature="0" /><path
         d="m 3671.46,286.34 c 0,-9.379 2.13,-16.551 6.4,-21.551 4.3,-5.047 9.88,-7.547 16.82,-7.547 5.92,0 11.01,2.547 15.28,7.719 4.27,5.109 6.4,12.469 6.4,22.051 0,6.199 -0.88,11.519 -2.67,16 -1.76,4.5 -4.29,7.918 -7.57,10.379 -3.24,2.449 -7.07,3.648 -11.44,3.648 -4.49,0 -8.44,-1.199 -11.96,-3.648 -3.49,-2.461 -6.24,-5.969 -8.26,-10.61 -2,-4.601 -3,-10.09 -3,-16.441 m -1.12,69.762 0,-35.891 c 4.42,4.609 8.93,8.129 13.5,10.559 4.59,2.441 10.26,3.652 17.07,3.652 7.77,0 14.61,-1.84 20.49,-5.551 5.89,-3.691 10.45,-9.07 13.67,-16.082 3.26,-7.008 4.87,-15.359 4.87,-25.008 0,-7.133 -0.89,-13.621 -2.7,-19.582 -1.82,-5.937 -4.44,-11.07 -7.86,-15.418 -3.45,-4.34 -7.61,-7.722 -12.51,-10.14 -4.93,-2.379 -10.34,-3.559 -16.25,-3.559 -3.61,0 -7.02,0.438 -10.18,1.297 -3.18,0.863 -5.9,1.98 -8.14,3.391 -2.23,1.41 -4.16,2.851 -5.74,4.351 -1.57,1.481 -3.62,3.719 -6.22,6.719 l 0,-2.32 c 0,-4.438 -1.05,-7.77 -3.2,-10.059 -2.11,-2.25 -4.8,-3.379 -8.09,-3.379 -3.31,0 -5.97,1.129 -7.96,3.379 -1.96,2.289 -2.96,5.621 -2.96,10.059 l 0,102.562 c 0,4.727 0.96,8.359 2.9,10.82 1.93,2.407 4.6,3.649 8.02,3.649 3.62,0 6.43,-1.16 8.37,-3.512 1.96,-2.32 2.92,-5.641 2.92,-9.937"
         style="fill:#454955;fill-opacity:1;fill-rule:nonzero;stroke:none"
         id="path4929"
         inkscape:connector-curvature="0" /><path
         d="m 3778.17,236.148 2.13,5.274 -28.9,72.789 c -1.79,4.18 -2.68,7.219 -2.68,9.109 0,2 0.54,3.891 1.54,5.602 1.05,1.726 2.48,3.098 4.26,4.117 1.81,1.02 3.71,1.57 5.65,1.57 3.39,0 5.95,-1.078 7.65,-3.207 1.72,-2.191 3.26,-5.242 4.57,-9.281 l 19.89,-57.84 18.84,53.789 c 1.49,4.379 2.84,7.75 4.02,10.262 1.23,2.449 2.5,4.109 3.87,4.969 1.33,0.859 3.24,1.308 5.69,1.308 1.77,0 3.49,-0.488 5.13,-1.429 1.63,-0.938 2.88,-2.231 3.77,-3.809 0.88,-1.652 1.35,-3.32 1.35,-5.101 -0.24,-1.09 -0.59,-2.629 -1.11,-4.641 -0.53,-2.02 -1.16,-4.039 -1.9,-6.117 l -30.62,-80.18 c -2.66,-7.09 -5.22,-12.594 -7.78,-16.602 -2.5,-4.019 -5.85,-7.101 -10,-9.261 -4.16,-2.16 -9.78,-3.219 -16.84,-3.219 -6.87,0 -12.05,0.73 -15.48,2.219 -3.44,1.48 -5.16,4.211 -5.16,8.16 0,2.691 0.82,4.793 2.47,6.25 1.62,1.473 4.03,2.223 7.26,2.223 1.25,0 2.48,-0.211 3.69,-0.543 1.5,-0.368 2.79,-0.52 3.89,-0.52 2.69,0 4.78,0.422 6.36,1.231 1.54,0.8 2.95,2.171 4.17,4.179 1.23,1.961 2.65,4.871 4.27,8.699"
         style="fill:#454955;fill-opacity:1;fill-rule:nonzero;stroke:none"
         id="path4931"
         inkscape:connector-curvature="0" /><path
         d="m 4212.87,332.551 5.62,0 0,7.031 c 0,7.348 0.9,13.199 2.81,17.52 1.81,4.32 5,7.507 9.43,9.457 4.45,1.98 10.54,2.992 18.28,2.992 13.71,0 20.58,-3.36 20.58,-10.082 0,-2.199 -0.72,-4.059 -2.16,-5.61 -1.42,-1.539 -3.13,-2.308 -5.08,-2.308 -0.96,0 -2.5,0.16 -4.75,0.508 -2.22,0.363 -4.1,0.523 -5.67,0.523 -4.24,0 -6.96,-1.242 -8.13,-3.742 -1.24,-2.5 -1.8,-6.09 -1.8,-10.719 l 0,-5.57 5.71,0 c 8.97,0 13.43,-2.742 13.43,-8.102 0,-3.859 -1.16,-6.308 -3.57,-7.32 -2.38,-1.027 -5.64,-1.539 -9.86,-1.539 l -5.71,0 0,-62.219 c 0,-4.652 -1.15,-8.191 -3.37,-10.652 -2.2,-2.43 -5.08,-3.637 -8.56,-3.637 -3.3,0 -6.06,1.207 -8.29,3.637 -2.23,2.461 -3.29,6 -3.29,10.652 l 0,62.219 -6.47,0 c -3.48,0 -6.19,0.762 -8.09,2.371 -1.91,1.559 -2.86,3.609 -2.86,6.148 0,5.59 3.94,8.442 11.8,8.442"
         style="fill:#454955;fill-opacity:1;fill-rule:nonzero;stroke:none"
         id="path4933"
         inkscape:connector-curvature="0" /><path
         d="m 4296.77,272.992 0,-19.621 c 0,-4.793 -1.1,-8.312 -3.33,-10.73 -2.29,-2.379 -5.09,-3.559 -8.55,-3.559 -3.34,0 -6.15,1.199 -8.34,3.609 -2.17,2.418 -3.28,5.969 -3.28,10.68 l 0,65.399 c 0,10.55 3.84,15.839 11.45,15.839 3.9,0 6.73,-1.238 8.45,-3.699 1.71,-2.469 2.63,-6.121 2.83,-10.961 2.85,4.84 5.7,8.492 8.64,10.961 2.98,2.461 6.94,3.699 11.85,3.699 4.91,0 9.72,-1.238 14.35,-3.699 4.68,-2.469 6.99,-5.758 6.99,-9.84 0,-2.871 -0.98,-5.211 -3,-7.101 -1.95,-1.828 -4.09,-2.758 -6.39,-2.758 -0.83,0 -2.94,0.508 -6.26,1.578 -3.28,1.082 -6.18,1.59 -8.71,1.59 -3.45,0 -6.26,-0.91 -8.43,-2.731 -2.14,-1.789 -3.9,-4.468 -5.07,-8.058 -1.23,-3.539 -2.05,-7.781 -2.54,-12.668 -0.43,-4.891 -0.66,-10.902 -0.66,-17.93"
         style="fill:#454955;fill-opacity:1;fill-rule:nonzero;stroke:none"
         id="path4935"
         inkscape:connector-curvature="0" /><path
         d="m 4365.87,294.398 42.61,0 c -0.58,8.043 -2.72,14.043 -6.51,18.024 -3.77,4 -8.7,6.008 -14.84,6.008 -5.84,0 -10.67,-2.02 -14.42,-6.078 -3.73,-4.032 -6.04,-10.043 -6.84,-17.954 m 45.96,-13.32 -45.96,0 c 0.07,-5.348 1.11,-10.047 3.23,-14.117 2.08,-4.063 4.86,-7.152 8.34,-9.199 3.49,-2.071 7.33,-3.102 11.5,-3.102 2.8,0 5.4,0.352 7.71,0.961 2.31,0.66 4.55,1.75 6.73,3.121 2.19,1.418 4.21,2.93 6.06,4.528 1.81,1.582 4.19,3.761 7.1,6.519 1.21,1.031 2.97,1.59 5.22,1.59 2.36,0 4.3,-0.699 5.78,-2.008 1.52,-1.308 2.26,-3.172 2.26,-5.582 0,-2.117 -0.82,-4.609 -2.48,-7.457 -1.69,-2.82 -4.17,-5.582 -7.5,-8.184 -3.38,-2.578 -7.58,-4.769 -12.7,-6.5 -5.06,-1.707 -10.91,-2.578 -17.5,-2.578 -15.1,0 -26.81,4.309 -35.19,12.91 -8.36,8.622 -12.57,20.282 -12.57,35.032 0,6.937 1.04,13.41 3.1,19.34 2.07,5.918 5.08,11.019 9.01,15.25 3.99,4.23 8.87,7.5 14.67,9.8 5.78,2.227 12.21,3.368 19.28,3.368 9.15,0 17.02,-1.938 23.59,-5.809 6.59,-3.879 11.53,-8.879 14.77,-15.012 3.25,-6.148 4.9,-12.41 4.9,-18.758 0,-5.902 -1.67,-9.75 -5.07,-11.519 -3.4,-1.731 -8.16,-2.594 -14.28,-2.594"
         style="fill:#454955;fill-opacity:1;fill-rule:nonzero;stroke:none"
         id="path4937"
         inkscape:connector-curvature="0" /><path
         d="m 4470.61,294.398 42.59,0 c -0.6,8.043 -2.77,14.043 -6.5,18.024 -3.78,4 -8.7,6.008 -14.83,6.008 -5.87,0 -10.67,-2.02 -14.45,-6.078 -3.75,-4.032 -6.04,-10.043 -6.81,-17.954 m 45.94,-13.32 -45.94,0 c 0.03,-5.348 1.12,-10.047 3.22,-14.117 2.09,-4.063 4.86,-7.152 8.33,-9.199 3.48,-2.071 7.31,-3.102 11.5,-3.102 2.8,0 5.38,0.352 7.67,0.961 2.33,0.66 4.6,1.75 6.78,3.121 2.19,1.418 4.19,2.93 6.01,4.528 1.86,1.582 4.24,3.761 7.16,6.519 1.2,1.031 2.91,1.59 5.17,1.59 2.4,0 4.32,-0.699 5.83,-2.008 1.5,-1.308 2.25,-3.172 2.25,-5.582 0,-2.117 -0.84,-4.609 -2.5,-7.457 -1.65,-2.82 -4.18,-5.582 -7.53,-8.184 -3.35,-2.578 -7.56,-4.769 -12.63,-6.5 -5.1,-1.707 -10.92,-2.578 -17.53,-2.578 -15.07,0 -26.81,4.309 -35.2,12.91 -8.37,8.622 -12.54,20.282 -12.54,35.032 0,6.937 1.04,13.41 3.08,19.34 2.07,5.918 5.09,11.019 9.02,15.25 3.98,4.23 8.86,7.5 14.65,9.8 5.79,2.227 12.23,3.368 19.26,3.368 9.22,0 17.07,-1.938 23.63,-5.809 6.57,-3.879 11.49,-8.879 14.76,-15.012 3.3,-6.148 4.91,-12.41 4.91,-18.758 0,-5.902 -1.68,-9.75 -5.09,-11.519 -3.36,-1.731 -8.12,-2.594 -14.27,-2.594"
         style="fill:#454955;fill-opacity:1;fill-rule:nonzero;stroke:none"
         id="path4939"
         inkscape:connector-curvature="0" /><path
         d="m 4621.09,287.281 c 0,6.188 -0.93,11.508 -2.85,15.93 -1.88,4.461 -4.52,7.891 -7.87,10.258 -3.35,2.39 -7.04,3.57 -11.12,3.57 -6.5,0 -11.95,-2.527 -16.41,-7.668 -4.42,-5.09 -6.67,-12.601 -6.67,-22.531 0,-9.348 2.2,-16.621 6.63,-21.82 4.44,-5.211 9.91,-7.778 16.45,-7.778 3.88,0 7.53,1.129 10.81,3.399 3.36,2.257 6.01,5.66 8.01,10.179 2.02,4.539 3.02,10.02 3.02,16.461 m -46.05,34.141 0,-2.832 c 4.46,5.441 9.03,9.473 13.8,12 4.75,2.558 10.15,3.832 16.16,3.832 7.23,0 13.89,-1.84 19.94,-5.582 6.11,-3.77 10.92,-9.18 14.46,-16.36 3.52,-7.148 5.29,-15.64 5.29,-25.468 0,-7.211 -1.04,-13.84 -3.09,-19.922 -2.02,-6.039 -4.81,-11.129 -8.4,-15.219 -3.52,-4.121 -7.7,-7.269 -12.57,-9.5 -4.85,-2.18 -10.06,-3.289 -15.63,-3.289 -6.71,0 -12.33,1.359 -16.91,4.047 -4.55,2.68 -8.9,6.633 -13.05,11.883 l 0,-35.282 c 0,-10.351 -3.74,-15.468 -11.25,-15.468 -4.43,0 -7.33,1.32 -8.77,3.988 -1.44,2.672 -2.16,6.531 -2.16,11.648 l 0,101.383 c 0,4.457 1,7.789 2.92,10.008 1.94,2.203 4.59,3.32 8.01,3.32 3.3,0 6.05,-1.129 8.13,-3.429 2.1,-2.27 3.12,-5.532 3.12,-9.758"
         style="fill:#454955;fill-opacity:1;fill-rule:nonzero;stroke:none"
         id="path4941"
         inkscape:connector-curvature="0" /><path
         d="m 4686.98,321.281 0,-67.91 c 0,-4.723 -1.08,-8.262 -3.37,-10.68 -2.19,-2.41 -5.02,-3.621 -8.48,-3.621 -3.46,0 -6.22,1.25 -8.38,3.711 -2.17,2.469 -3.22,6 -3.22,10.59 l 0,67.199 c 0,4.649 1.05,8.16 3.22,10.5 2.16,2.352 4.92,3.539 8.38,3.539 3.46,0 6.29,-1.187 8.48,-3.539 2.29,-2.34 3.37,-5.64 3.37,-9.789 m -11.56,24.239 c -3.28,0 -6.09,1.011 -8.4,3.019 -2.31,2 -3.49,4.84 -3.49,8.5 0,3.332 1.18,6.09 3.55,8.231 2.36,2.152 5.16,3.222 8.34,3.222 3.02,0 5.68,-0.953 8.05,-2.902 2.37,-1.969 3.51,-4.82 3.51,-8.551 0,-3.578 -1.1,-6.43 -3.4,-8.469 -2.3,-2.039 -5.03,-3.05 -8.16,-3.05"
         style="fill:#454955;fill-opacity:1;fill-rule:nonzero;stroke:none"
         id="path4943"
         inkscape:connector-curvature="0" /><path
         d="m 4769.77,249.859 -20.72,34.082 -12.73,-12.062 0,-18.699 c 0,-4.532 -1.2,-7.989 -3.57,-10.45 -2.4,-2.441 -5.14,-3.66 -8.21,-3.66 -3.62,0 -6.45,1.219 -8.55,3.629 -2.05,2.41 -3.07,5.949 -3.07,10.66 l 0,100.18 c 0,5.203 0.95,9.199 3.01,11.91 2,2.731 4.88,4.102 8.61,4.102 3.62,0 6.46,-1.242 8.58,-3.711 2.13,-2.469 3.2,-6.121 3.2,-10.942 l 0,-56.957 26.41,27.688 c 3.28,3.473 5.74,5.793 7.48,7.09 1.73,1.261 3.8,1.89 6.3,1.89 2.89,0 5.35,-0.929 7.29,-2.82 1.95,-1.859 2.96,-4.199 2.96,-7 0,-3.457 -3.21,-8.047 -9.57,-13.758 l -12.48,-11.461 24.1,-37.859 c 1.79,-2.77 3.04,-4.961 3.81,-6.402 0.77,-1.45 1.17,-2.879 1.17,-4.168 0,-3.762 -1.03,-6.672 -3.08,-8.84 -2.02,-2.141 -4.73,-3.231 -8,-3.231 -2.87,0 -5.09,0.758 -6.63,2.352 -1.57,1.527 -3.66,4.348 -6.31,8.437"
         style="fill:#454955;fill-opacity:1;fill-rule:nonzero;stroke:none"
         id="path4945"
         inkscape:connector-curvature="0" /><path
         d="m 4827.89,239.07 c -3.59,0 -6.65,1.141 -9.21,3.461 -2.58,2.289 -3.89,5.52 -3.89,9.641 0,3.508 1.24,6.508 3.68,9.039 2.5,2.519 5.55,3.758 9.16,3.758 3.6,0 6.65,-1.227 9.24,-3.727 2.53,-2.5 3.81,-5.512 3.81,-9.07 0,-4.09 -1.28,-7.301 -3.81,-9.602 -2.59,-2.359 -5.56,-3.5 -8.98,-3.5"
         style="fill:#454955;fill-opacity:1;fill-rule:nonzero;stroke:none"
         id="path4947"
         inkscape:connector-curvature="0" /><path
         d="m 4951.71,268.18 c 0,-2.93 -0.91,-6.071 -2.65,-9.399 -1.74,-3.32 -4.41,-6.492 -7.98,-9.5 -3.61,-3.019 -8.14,-5.429 -13.54,-7.281 -5.49,-1.828 -11.61,-2.711 -18.48,-2.711 -14.46,0 -25.8,4.18 -33.96,12.652 -8.12,8.469 -12.19,19.821 -12.19,34.039 0,9.641 1.82,18.141 5.58,25.551 3.7,7.418 9.12,13.149 16.18,17.149 7.03,4.05 15.49,6.09 25.3,6.09 6.07,0 11.62,-0.891 16.72,-2.661 5.07,-1.8 9.4,-4.07 12.88,-6.89 3.54,-2.821 6.26,-5.809 8.14,-9 1.83,-3.168 2.79,-6.149 2.79,-8.93 0,-2.789 -1.08,-5.18 -3.18,-7.109 -2.07,-1.969 -4.61,-2.91 -7.58,-2.91 -1.96,0 -3.62,0.48 -4.88,1.48 -1.27,1.031 -2.74,2.641 -4.35,4.84 -2.82,4.371 -5.85,7.672 -8.97,9.859 -3.13,2.16 -7.11,3.25 -11.91,3.25 -6.93,0 -12.57,-2.73 -16.81,-8.129 -4.22,-5.41 -6.36,-12.832 -6.36,-22.23 0,-4.43 0.54,-8.508 1.64,-12.192 1.1,-3.699 2.68,-6.859 4.72,-9.457 2.05,-2.632 4.57,-4.582 7.49,-5.949 2.94,-1.351 6.15,-2 9.66,-2 4.68,0 8.71,1.059 12.08,3.238 3.35,2.2 6.29,5.512 8.92,9.989 1.43,2.621 2.99,4.722 4.65,6.179 1.67,1.504 3.69,2.262 6.07,2.262 2.88,0 5.29,-1.101 7.17,-3.258 1.88,-2.203 2.85,-4.531 2.85,-6.972"
         style="fill:#454955;fill-opacity:1;fill-rule:nonzero;stroke:none"
         id="path4949"
         inkscape:connector-curvature="0" /><path
         d="m 5036.55,286.84 c 0,9.582 -2.14,17.051 -6.34,22.359 -4.2,5.352 -9.87,8.012 -17,8.012 -4.59,0 -8.64,-1.172 -12.14,-3.57 -3.46,-2.379 -6.2,-5.903 -8.07,-10.539 -1.93,-4.61 -2.86,-10.051 -2.86,-16.262 0,-6.141 0.93,-11.5 2.79,-16.09 1.87,-4.59 4.55,-8.109 8.03,-10.539 3.45,-2.449 7.52,-3.652 12.25,-3.652 7.13,0 12.8,2.671 17,8.043 4.2,5.359 6.34,12.777 6.34,22.238 m 23.56,0 c 0,-6.988 -1.11,-13.449 -3.27,-19.36 -2.19,-5.929 -5.35,-10.992 -9.47,-15.199 -4.12,-4.25 -9.08,-7.519 -14.8,-9.82 -5.72,-2.25 -12.2,-3.391 -19.36,-3.391 -7.11,0 -13.49,1.149 -19.2,3.45 -5.64,2.3 -10.57,5.57 -14.74,9.839 -4.14,4.289 -7.31,9.34 -9.46,15.153 -2.14,5.82 -3.21,12.297 -3.21,19.328 0,7.109 1.07,13.609 3.24,19.57 2.17,5.879 5.31,10.918 9.38,15.102 4.07,4.168 8.98,7.41 14.79,9.668 5.82,2.312 12.19,3.429 19.2,3.429 7.13,0 13.58,-1.16 19.36,-3.468 5.78,-2.27 10.74,-5.551 14.88,-9.821 4.15,-4.211 7.3,-9.289 9.43,-15.14 2.12,-5.848 3.23,-12.278 3.23,-19.34"
         style="fill:#454955;fill-opacity:1;fill-rule:nonzero;stroke:none"
         id="path4951"
         inkscape:connector-curvature="0" /><path
         d="m 5156.77,285.109 0,-31.207 c 0,-4.953 -1.15,-8.652 -3.37,-11.121 -2.25,-2.461 -5.22,-3.711 -8.88,-3.711 -3.53,0 -6.42,1.25 -8.65,3.711 -2.19,2.469 -3.3,6.168 -3.3,11.121 l 0,37.43 c 0,5.898 -0.21,10.469 -0.62,13.77 -0.37,3.257 -1.47,5.918 -3.24,8.019 -1.79,2.09 -4.61,3.129 -8.45,3.129 -7.68,0 -12.76,-2.641 -15.16,-7.891 -2.45,-5.277 -3.7,-12.859 -3.7,-22.73 l 0,-31.727 c 0,-4.914 -1.1,-8.593 -3.29,-11.05 -2.23,-2.532 -5.12,-3.782 -8.76,-3.782 -3.51,0 -6.47,1.25 -8.73,3.782 -2.27,2.457 -3.38,6.136 -3.38,11.05 l 0,67.168 c 0,4.41 0.99,7.801 3.04,10.071 2.03,2.308 4.72,3.468 8.06,3.468 3.23,0 5.9,-1.078 8.06,-3.207 2.13,-2.183 3.2,-5.14 3.2,-8.941 l 0,-2.25 c 4.07,4.859 8.45,8.48 13.08,10.758 4.66,2.281 9.82,3.453 15.5,3.453 5.9,0 10.98,-1.172 15.21,-3.512 4.27,-2.371 7.76,-5.91 10.51,-10.699 3.97,4.848 8.19,8.379 12.72,10.73 4.53,2.309 9.58,3.481 15.11,3.481 6.39,0 11.94,-1.242 16.55,-3.774 4.68,-2.546 8.13,-6.117 10.43,-10.847 2.01,-4.238 3.02,-10.922 3.02,-20.039 l 0,-45.86 c 0,-4.953 -1.13,-8.652 -3.38,-11.121 -2.22,-2.461 -5.16,-3.711 -8.84,-3.711 -3.53,0 -6.46,1.25 -8.75,3.782 -2.26,2.457 -3.39,6.136 -3.39,11.05 l 0,39.477 c 0,5.043 -0.21,9.101 -0.62,12.152 -0.49,3.008 -1.62,5.571 -3.51,7.641 -1.86,2.058 -4.76,3.078 -8.6,3.078 -3.09,0 -6.03,-0.898 -8.84,-2.75 -2.74,-1.84 -4.93,-4.289 -6.48,-7.379 -1.71,-3.961 -2.55,-10.961 -2.55,-21.012"
         style="fill:#454955;fill-opacity:1;fill-rule:nonzero;stroke:none"
         id="path4953"
         inkscape:connector-curvature="0" /><path
         d="m 4027.8,395.18 c -0.51,1.492 -1.04,2.992 -1.53,4.5 7.92,0.711 13.22,10.172 9.36,17.172 -3.52,7.91 -15.69,8.886 -20.4,1.64 -5.03,-6.402 -1.1,-16.543 6.59,-18.582 0.46,-1.629 0.92,-3.25 1.42,-4.879 -11.82,-0.742 -23.9,-3.39 -33.81,-10.133 1,-2.886 2.04,-5.769 3.04,-8.636 20.01,8.769 42.51,6.84 63.61,4.75 0.7,2.777 1.39,5.57 2.08,8.359 -9.52,4.301 -20.01,5.891 -30.36,5.809"
         style="fill:#454955;fill-opacity:1;fill-rule:nonzero;stroke:none"
         id="path4955"
         inkscape:connector-curvature="0" /><path
         d="m 4146.86,362.84 c -3.19,-1.61 -3.77,-5.391 -3.62,-8.621 -3.49,-3.41 -1.85,-8.578 -2.24,-12.887 -0.79,-2.402 -3.67,-2.66 -5.66,-3.602 -2.79,4.219 -5.74,8.301 -9.41,11.739 l 0.01,0.203 c -4.05,3.789 -8.39,7.18 -13,10.187 -3.72,-3.949 -7.59,-7.839 -11.16,-11.98 7.05,-7.77 13.56,-16.047 19.33,-24.848 3.94,-6.66 7.16,-13.742 9.93,-20.98 5.95,3.008 11.83,6.219 17.79,9.328 -3.14,7.281 -6.75,14.359 -10.56,21.32 2.63,1.403 6.17,2.801 6.59,6.231 0.32,3.808 -0.56,7.922 1.77,11.261 4.56,-3.019 11.55,0.391 11.61,5.989 0.64,5.742 -6.65,9.949 -11.38,6.66"
         style="fill:#454955;fill-opacity:1;fill-rule:nonzero;stroke:none"
         id="path4957"
         inkscape:connector-curvature="0" /><path
         d="m 4100.16,314.66 c -1.42,-9.668 -10.69,-17.871 -20.56,-17.238 -5.75,-0.492 -11.27,2.23 -15.15,6.269 -2.78,3.461 -5.07,7.481 -5.48,12.02 -1.3,9.828 5.58,19.937 15.23,22.32 4.21,1.18 8.63,0.52 12.82,-0.461 9.06,-3.199 15.01,-13.422 13.14,-22.91 m -87.03,-20.398 c -3.85,-5.66 -9.45,-10.043 -15.87,-12.512 -12.07,-4.48 -26.78,-1.43 -35.45,8.211 -6.06,6.641 -9.67,15.648 -9.01,24.699 0.45,11.34 7.45,21.852 17.38,27.192 7.58,4.109 16.72,4.808 24.96,2.507 3.48,-0.867 6.67,-2.5 9.64,-4.48 6.1,-4.34 10.72,-10.731 12.73,-17.957 2.81,-9.223 1.03,-19.641 -4.38,-27.66 m 101.51,25.398 c -7.75,12.852 -16.14,25.621 -27.56,35.57 -13.18,11.602 -30.29,19.43 -48.06,19.34 -22.46,0.282 -45.18,-3.379 -65.84,-12.379 -19.48,-8.562 -36.43,-23.8 -45.01,-43.531 -8.26,-17.719 -8.16,-38.14 -4.43,-57 20.65,-5.172 41.64,-9.769 62.97,-10.781 21,-0.649 42.15,-1.149 63.04,1.801 28.66,3.761 56.76,12.871 81.78,27.5 0,0 -3.42,18.871 -16.89,39.48"
         style="fill:#454955;fill-opacity:1;fill-rule:nonzero;stroke:none"
         id="path4959"
         inkscape:connector-curvature="0" /><path
         d="m 3928.45,348.402 c -8.4,-5.05 -15.28,-12.23 -21.05,-20.062 -1.68,3.09 -2.19,6.812 -4.38,9.609 -1.23,1.66 -3.49,0.981 -5.23,1.012 -2.23,-0.25 -4.4,0.371 -6.47,1 2.41,3.48 1.8,8.769 -1.99,11 -4.01,2.898 -10.23,0.41 -11.29,-4.391 -1.68,-5.238 3.88,-10.5 9.03,-9.121 2.71,-4 7.67,-3.367 11.85,-3.527 1.89,-3.274 3.32,-6.852 5.74,-9.84 -4.49,-8.871 -7.03,-18.801 -7.23,-28.762 5.76,-2.39 11.53,-4.851 17.31,-7.257 0.29,6.269 1.03,12.507 2.01,18.707 1.92,13.441 9.71,25.16 18.93,34.832 -2.27,2.386 -4.81,4.5 -7.23,6.8"
         style="fill:#454955;fill-opacity:1;fill-rule:nonzero;stroke:none"
         id="path4961"
         inkscape:connector-curvature="0" /><path
         d="m 4063.46,246.781 c -21.32,-4.652 -43.25,-6 -65.02,-5.039 -14.7,0.727 -29.43,2.11 -43.78,5.278 -10.2,2.082 -20.18,5.011 -30.18,7.871 1.57,-12.821 6.76,-25.071 14.16,-35.602 8.73,-12.25 20.36,-23.527 34.9,-28.039 11.31,-3.039 24.83,-6.93 48.09,-6.539 19.24,0.359 38.15,2.809 55.04,9.949 10.87,4.699 21.1,11.07 29.84,19.059 7.59,7.152 13.55,16.07 17.6,25.64 4,9.043 7.59,25.231 7.18,33.551 -20.79,-11.832 -44.12,-22.16 -67.83,-26.129"
         style="fill:#454955;fill-opacity:1;fill-rule:nonzero;stroke:none"
         id="path4963"
         inkscape:connector-curvature="0" /><path
         d="m 2508.15,4986.58 c 0,0 -306.84,-216.59 -473.29,-447.22 0,0 -517.41,-128.35 -840.29,-62.18 0,0 506.11,785.51 1313.58,509.4"
         style="fill:#edecec;fill-opacity:1;fill-rule:nonzero;stroke:none"
         id="path4965"
         inkscape:connector-curvature="0" /><path
         d="m 1353.38,4050.69 212.31,209.31 220.28,0 -249.04,-223.12 -165.17,10.88 159.6,10.08 189.29,188.76 -131.76,-6.4 -235.51,-189.51"
         style="fill:#edecec;fill-opacity:1;fill-rule:nonzero;stroke:none"
         id="path4967"
         inkscape:connector-curvature="0" /><path
         d="m 1040.1,4058.19 68.86,201.81 -103.09,0 -81.245,-196.9 92.165,-3.14 -67.235,16.03 67.235,171.19 64.4,-1.75 -41.09,-187.24"
         style="fill:#edecec;fill-opacity:1;fill-rule:nonzero;stroke:none"
         id="path4969"
         inkscape:connector-curvature="0" /><path
         d="m 881.586,3839.39 c 0,0 0.969,-44.7 28.184,-72.88 0,0 514.34,-49.97 838.6,58.12 0,0 505.18,169.18 914.03,195.02 0,0 367.34,13.31 634.38,-17.11 769.53,-40.49 4579.87,-374.43 4579.87,-374.43 l -4850.04,501.98 c 0,0 -404.15,54.04 -946.93,-110.44 0,0 -446.44,-185.63 -700.21,-195.02 0,0 -441.24,-3.36 -497.884,14.76"
         style="fill:#edecec;fill-opacity:1;fill-rule:nonzero;stroke:none"
         id="path4971"
         inkscape:connector-curvature="0" /><path
         d="m 2400.46,4625.73 c 0,0 346.83,412.07 899.48,276.72 L 7876.65,3628.11 3297.61,4863.19 c 0,0 -439.29,151.66 -897.15,-237.46"
         style="fill:#edecec;fill-opacity:1;fill-rule:nonzero;stroke:none"
         id="path4973"
         inkscape:connector-curvature="0" /><path
         d="m 6490,3919.89 -310,66.45 0,-149.41 310,-39.15 0,122.11"
         style="fill:#edecec;fill-opacity:1;fill-rule:nonzero;stroke:none"
         id="path4975"
         inkscape:connector-curvature="0" /><path
         d="m 6020,4022.57 -690,146.97 0,-224.65 690,-86.6 0,164.28"
         style="fill:#edecec;fill-opacity:1;fill-rule:nonzero;stroke:none"
         id="path4977"
         inkscape:connector-curvature="0" /><path
         d="m 3760,4143.02 1250,-157.79 0,252.76 -1250,267.77 0,-362.74"
         style="fill:#edecec;fill-opacity:1;fill-rule:nonzero;stroke:none"
         id="path4979"
         inkscape:connector-curvature="0" /><path
         d="m 7010,3809.16 -100,22.15 0,-85.73 100,-13.06 0,76.64"
         style="fill:#edecec;fill-opacity:1;fill-rule:nonzero;stroke:none"
         id="path4981"
         inkscape:connector-curvature="0" /><path
         d="m 6800,3853.46 -200,44.28 0,-113.01 200,-26.11 0,94.84"
         style="fill:#edecec;fill-opacity:1;fill-rule:nonzero;stroke:none"
         id="path4983"
         inkscape:connector-curvature="0" /><path
         d="m 3370,4588.3 -192.84,42.28 c 0,0 -305.38,101.03 -601.44,-338.36 l 794.28,-100.55 0,396.63"
         style="fill:#edecec;fill-opacity:1;fill-rule:nonzero;stroke:none"
         id="path4985"
         inkscape:connector-curvature="0" /><path
         d="m 7090,3793.06 0,-70.02 786.65,-94.93 -786.65,164.95"
         style="fill:#edecec;fill-opacity:1;fill-rule:nonzero;stroke:none"
         id="path4987"
         inkscape:connector-curvature="0" /><path
         d="m 2677.2,3442.42 c 0,-15.26 -8.73,-27.63 -19.49,-27.63 -10.77,0 -19.5,12.37 -19.5,27.63 0,15.26 8.73,27.63 19.5,27.63 10.76,0 19.49,-12.37 19.49,-27.63"
         style="fill:#f0eedd;fill-opacity:1;fill-rule:nonzero;stroke:none"
         id="path4989"
         inkscape:connector-curvature="0" /><path
         d="m 2638.91,3332 c -43.02,0 -77.89,49.44 -77.89,110.42 0,60.98 34.87,110.4 77.89,110.4 0.79,0 1.56,-0.13 2.35,-0.15 -6.75,2.58 -13.82,4.1 -21.15,4.1 -44.55,0 -80.67,-51.2 -80.67,-114.35 0,-63.16 36.12,-114.35 80.67,-114.35 7.33,0 14.4,1.5 21.15,4.1 -0.79,-0.03 -1.56,-0.17 -2.35,-0.17"
         style="fill:#f0eedd;fill-opacity:1;fill-rule:nonzero;stroke:none"
         id="path4991"
         inkscape:connector-curvature="0" /><path
         d="m 1398.67,3481.57 c 694.04,75.2 659.86,319.56 1388.1,346.42 -631.9,-49.88 -711.79,-318.22 -1388.1,-346.42"
         style="fill:#edecec;fill-opacity:1;fill-rule:nonzero;stroke:none"
         id="path4993"
         inkscape:connector-curvature="0" /></g></g></svg>