<?xml version="1.0" encoding="UTF-8" standalone="no"?>
<!-- Created with Inkscape (http://www.inkscape.org/) -->

<svg
   xmlns:dc="http://purl.org/dc/elements/1.1/"
   xmlns:cc="http://creativecommons.org/ns#"
   xmlns:rdf="http://www.w3.org/1999/02/22-rdf-syntax-ns#"
   xmlns:svg="http://www.w3.org/2000/svg"
   xmlns="http://www.w3.org/2000/svg"
   xmlns:sodipodi="http://sodipodi.sourceforge.net/DTD/sodipodi-0.dtd"
   xmlns:inkscape="http://www.inkscape.org/namespaces/inkscape"
   width="744.09448819"
   height="1052.3622047"
   id="svg2"
   inkscape:label="Pozadí"
   version="1.1"
   inkscape:version="0.48.4 r9939"
   sodipodi:docname="3.zlý panáček_krok2.svg">
  <defs
     id="defs4812">
    <inkscape:path-effect
       effect="skeletal"
       id="path-effect4467"
       is_visible="true"
       pattern="m -43.80313,330.57272 c 0,-2.76 2.24,-5 5,-5 2.76,0 4.999999,2.24 4.999999,5 0,2.76 -2.239999,5 -4.999999,5 -2.76,0 -5,-2.24 -5,-5 z"
       copytype="single_stretched"
       prop_scale="1"
       scale_y_rel="false"
       spacing="0"
       normal_offset="0"
       tang_offset="0"
       prop_units="false"
       vertical_pattern="false"
       fuse_tolerance="0" />
    <inkscape:path-effect
       effect="skeletal"
       id="path-effect4463"
       is_visible="true"
       pattern="m -43.80313,330.57272 c 0,-2.76 2.24,-5 5,-5 2.76,0 4.999999,2.24 4.999999,5 0,2.76 -2.239999,5 -4.999999,5 -2.76,0 -5,-2.24 -5,-5 z"
       copytype="single_stretched"
       prop_scale="1"
       scale_y_rel="false"
       spacing="0"
       normal_offset="0"
       tang_offset="0"
       prop_units="false"
       vertical_pattern="false"
       fuse_tolerance="0" />
    <inkscape:path-effect
       effect="skeletal"
       id="path-effect4459"
       is_visible="true"
       pattern="m -43.80313,330.57272 c 0,-2.76 2.24,-5 5,-5 2.76,0 4.999999,2.24 4.999999,5 0,2.76 -2.239999,5 -4.999999,5 -2.76,0 -5,-2.24 -5,-5 z"
       copytype="single_stretched"
       prop_scale="1"
       scale_y_rel="false"
       spacing="0"
       normal_offset="0"
       tang_offset="0"
       prop_units="false"
       vertical_pattern="false"
       fuse_tolerance="0" />
    <inkscape:path-effect
       effect="skeletal"
       id="path-effect4455"
       is_visible="true"
       pattern="m -43.80313,330.57272 c 0,-2.76 2.24,-5 5,-5 2.76,0 4.999999,2.24 4.999999,5 0,2.76 -2.239999,5 -4.999999,5 -2.76,0 -5,-2.24 -5,-5 z"
       copytype="single_stretched"
       prop_scale="1"
       scale_y_rel="false"
       spacing="0"
       normal_offset="0"
       tang_offset="0"
       prop_units="false"
       vertical_pattern="false"
       fuse_tolerance="0" />
    <inkscape:path-effect
       effect="skeletal"
       id="path-effect4447"
       is_visible="true"
       pattern="m -43.80313,330.57272 c 0,-2.76 2.24,-5 5,-5 2.76,0 4.999999,2.24 4.999999,5 0,2.76 -2.239999,5 -4.999999,5 -2.76,0 -5,-2.24 -5,-5 z"
       copytype="single_stretched"
       prop_scale="1"
       scale_y_rel="false"
       spacing="0"
       normal_offset="0"
       tang_offset="0"
       prop_units="false"
       vertical_pattern="false"
       fuse_tolerance="0" />
    <inkscape:path-effect
       effect="skeletal"
       id="path-effect4443"
       is_visible="true"
       pattern="m -43.80313,330.57272 c 0,-2.76 2.24,-5 5,-5 2.76,0 4.999999,2.24 4.999999,5 0,2.76 -2.239999,5 -4.999999,5 -2.76,0 -5,-2.24 -5,-5 z"
       copytype="single_stretched"
       prop_scale="1"
       scale_y_rel="false"
       spacing="0"
       normal_offset="0"
       tang_offset="0"
       prop_units="false"
       vertical_pattern="false"
       fuse_tolerance="0" />
    <inkscape:path-effect
       effect="skeletal"
       id="path-effect4439"
       is_visible="true"
       pattern="m -43.80313,330.57272 c 0,-2.76 2.24,-5 5,-5 2.76,0 4.999999,2.24 4.999999,5 0,2.76 -2.239999,5 -4.999999,5 -2.76,0 -5,-2.24 -5,-5 z"
       copytype="single_stretched"
       prop_scale="1"
       scale_y_rel="false"
       spacing="0"
       normal_offset="0"
       tang_offset="0"
       prop_units="false"
       vertical_pattern="false"
       fuse_tolerance="0" />
  </defs>
  <sodipodi:namedview
     id="base"
     pagecolor="#ffffff"
     bordercolor="#666666"
     borderopacity="1.0"
     inkscape:pageopacity="0.0"
     inkscape:pageshadow="2"
     inkscape:zoom="0.62240929"
     inkscape:cx="372.04724"
     inkscape:cy="526.18109"
     inkscape:document-units="px"
     inkscape:current-layer="layer1"
     showgrid="false"
     inkscape:window-width="1440"
     inkscape:window-height="850"
     inkscape:window-x="-8"
     inkscape:window-y="-8"
     inkscape:window-maximized="1" />
  <metadata
     id="metadata4815">
    <rdf:RDF>
      <cc:Work
         rdf:about="">
        <dc:format>image/svg+xml</dc:format>
        <dc:type
           rdf:resource="http://purl.org/dc/dcmitype/StillImage" />
        <dc:title />
      </cc:Work>
    </rdf:RDF>
  </metadata>
  <g
     inkscape:label="Vrstva 1"
     inkscape:groupmode="layer"
     id="layer1">
    <path
       style="fill:none;stroke:#000000;stroke-width:5;stroke-linecap:round;stroke-linejoin:round;stroke-miterlimit:4;stroke-opacity:1;stroke-dasharray:none"
       d="m 420.52601,509.93803 -15.92637,45.7321 9.22951,43.4176"
       id="path4500"
       inkscape:connector-curvature="0"
       sodipodi:nodetypes="ccc" />
    <path
       style="fill:none;stroke:#000000;stroke-width:5;stroke-linecap:round;stroke-linejoin:round;stroke-miterlimit:4;stroke-opacity:1;stroke-dasharray:none"
       d="m 347.4391,551.75578 7.93651,13.01501 0,34.31694"
       id="path4502"
       inkscape:connector-curvature="0"
       sodipodi:nodetypes="ccc" />
    <path
       style="fill:none;stroke:#000000;stroke-width:0.99999994px;stroke-linecap:butt;stroke-linejoin:miter;stroke-opacity:1"
       d="m 354.79876,587.76076 c -41.58895,57.97198 87.03252,31.74266 57.68442,4.03161"
       id="path4506"
       inkscape:connector-curvature="0"
       sodipodi:nodetypes="cc" />
    <path
       sodipodi:nodetypes="ccc"
       inkscape:connector-curvature="0"
       id="path4508"
       d="m 355.17366,586.76788 c -5.0742,-0.92589 -15.58514,6.18352 -15.7397,15.30184 -3.78198,57.65418 120.83586,12.66926 72.39937,-13.73302"
       style="fill:none;stroke:#000000;stroke-width:5;stroke-linecap:butt;stroke-linejoin:miter;stroke-miterlimit:4;stroke-opacity:1;stroke-dasharray:none" />
    <path
       style="fill:none;stroke:#000000;stroke-width:0.99999994px;stroke-linecap:butt;stroke-linejoin:miter;stroke-opacity:1"
       d="m 197.3782,262.37932 13.82734,8.3723 2.51406,-35.5823 42.73903,14.65154 3.7711,-54.42003"
       id="path4965"
       inkscape:connector-curvature="0" />
    <path
       style="fill:none;stroke:#000000;stroke-width:0.99999994px;stroke-linecap:butt;stroke-linejoin:miter;stroke-opacity:1"
       d="m 256.45862,201.1724 38.77528,29.39214 32.08991,-62.79232"
       id="path4967"
       inkscape:connector-curvature="0" />
    <path
       style="fill:none;stroke:#000000;stroke-width:0.99999994px;stroke-linecap:butt;stroke-linejoin:miter;stroke-opacity:1"
       d="m 311.76798,196.65668 40.22496,32.65202 7.5422,-28.88447"
       id="path4969"
       inkscape:connector-curvature="0"
       sodipodi:nodetypes="ccc" />
    <path
       style="fill:none;stroke:#000000;stroke-width:0.99999994px;stroke-linecap:butt;stroke-linejoin:miter;stroke-opacity:1"
       d="m 357.23276,205.4476 29.23193,30.14032 33.4079,-20.78642"
       id="path4971"
       inkscape:connector-curvature="0" />
    <path
       style="fill:none;stroke:#000000;stroke-width:0.99999994px;stroke-linecap:butt;stroke-linejoin:miter;stroke-opacity:1"
       d="m 399.98197,225.54115 22.4586,47.23483 28.36873,-14.17045 10.63826,46.05396 21.27656,-12.98959"
       id="path4973"
       inkscape:connector-curvature="0" />
    <path
       style="fill:none;stroke:#000000;stroke-width:0.99999994px;stroke-linecap:butt;stroke-linejoin:miter;stroke-opacity:1"
       d="m 473.92491,293.35687 7.54217,48.97803 21.36952,-18.8377"
       id="path4975"
       inkscape:connector-curvature="0" />
    <path
       style="fill:none;stroke:#000000;stroke-width:6.24999952;stroke-linecap:butt;stroke-linejoin:miter;stroke-miterlimit:4;stroke-opacity:1;stroke-dasharray:none"
       d="m 491.52334,328.52058 10.05623,43.95463 17.59843,-25.11693 31.42577,2.51168 -12.57031,-37.67538 50.28122,-21.3494 -33.93983,-40.1871 30.16875,-79.11834 -64.10857,12.55848 13.82734,-37.6754 -26.39763,5.02338 -20.11249,-87.909262 -31.42578,52.745562 -7.54217,-37.675402 -11.31328,-26.372774 -7.54218,10.046772 -16.3414,-50.233858 -45.25311,25.116929 -13.82732,-23.861088 -12.5703,25.11693 -51.53825,-16.326011 20.11249,62.792341 -36.45391,-43.954631 1.25705,32.652003 -40.22499,-30.14032 -10.05624,43.954633 -20.11249,-20.093546 -10.05624,22.60525 -3.7711,23.861072 -21.36952,-3.76754 17.59844,41.44294 -23.88358,-7.53508 c 0,0 12.5703,15.07017 13.82734,20.09355 1.25703,5.02339 -22.62656,18.83769 -22.62656,18.83769 l 20.11249,33.90786 -20.11249,11.30264 43.99607,32.65199"
       id="path4977"
       inkscape:connector-curvature="0"
       sodipodi:nodetypes="ccccccccccccccccccccccccccccccccscccc" />
    <path
       style="fill:none;stroke:#000000;stroke-width:5;stroke-linecap:butt;stroke-linejoin:miter;stroke-miterlimit:4;stroke-opacity:1;stroke-dasharray:none"
       d="m 198.15219,262.40167 -5.68924,41.07886 16.55047,31.0029"
       id="path3051"
       inkscape:connector-curvature="0"
       sodipodi:nodetypes="ccc" />
    <path
       style="fill:none;stroke:#000000;stroke-width:5;stroke-linecap:butt;stroke-linejoin:miter;stroke-miterlimit:4;stroke-opacity:1;stroke-dasharray:none"
       d="m 211.08224,330.34971 -21.90487,32.40391 -10.16167,55.43767 50.68581,7.234 20.6881,-24.80234"
       id="path3053"
       inkscape:connector-curvature="0"
       sodipodi:nodetypes="ccccc" />
    <path
       style="fill:none;stroke:#000000;stroke-width:5;stroke-linecap:butt;stroke-linejoin:miter;stroke-miterlimit:4;stroke-opacity:1;stroke-dasharray:none"
       d="m 219.35748,423.87514 2.06881,34.61993 62.06425,26.86917 -61.80565,-26.61082 16.29185,43.14571 0,24.80231 20.68811,24.80235 109.64686,0 97.23403,-78.5407 31.03214,-124.01163"
       id="path3055"
       inkscape:connector-curvature="0"
       sodipodi:nodetypes="cccccccccc" />
    <path
       style="fill:none;stroke:#000000;stroke-width:5;stroke-linecap:round;stroke-linejoin:round;stroke-miterlimit:4;stroke-opacity:1;stroke-dasharray:none"
       d="m 314.52267,823.29594 0,31.5196 c 41.08946,4.41653 88.90271,5.47334 131.36938,0.25838 l -4.13762,-220.89571 -20.68808,-38.49527"
       id="path3059"
       inkscape:connector-curvature="0"
       sodipodi:nodetypes="ccccc" />
    <path
       style="fill:none;stroke:#000000;stroke-width:5;stroke-linecap:round;stroke-linejoin:round;stroke-miterlimit:4;stroke-opacity:1;stroke-dasharray:none"
       d="m 378.65577,653.81338 c 18.42933,-20.14165 31.42993,-10.45326 44.47939,-1.03342 l 0,56.83867 -44.47939,-2.06687 z"
       id="path3061"
       inkscape:connector-curvature="0"
       sodipodi:nodetypes="ccccc" />
    <path
       style="fill:none;stroke:#000000;stroke-width:5;stroke-linecap:round;stroke-linejoin:round;stroke-miterlimit:4;stroke-opacity:1;stroke-dasharray:none"
       d="m 316.07109,854.50555 13.54809,42.58888 -19.67579,106.50727 c 0.44588,1.8619 0.004,2.947 -0.70211,3.8007 -1.54666,0.8347 -1.79358,2.3803 -0.84599,4.5794 l 43.71744,11.6998 c 1.91003,-1.1036 1.34349,-2.8549 1.37483,-4.4498 -0.21084,-1.1085 -0.14092,-2.276 1.14287,-3.6991 l 34.93582,-110.05893 37.13131,-16.31109 17.57453,-33.7418"
       id="path3063"
       inkscape:connector-curvature="0"
       sodipodi:nodetypes="ccccccccccc" />
    <path
       style="fill:none;stroke:#000000;stroke-width:5;stroke-linecap:butt;stroke-linejoin:miter;stroke-miterlimit:4;stroke-opacity:1;stroke-dasharray:none"
       d="m 351.90761,1021.2835 -3.97839,19.3387 -5.73897,4.9903 -16.33795,-3.9972 c -3.93225,-3.6767 -13.64602,-4.4976 -18.47248,-4.5193 l -29.13273,-7.1276 c -17.93458,-23.8072 22.58582,-20.3089 31.03172,-19.1144"
       id="path3067"
       inkscape:connector-curvature="0"
       sodipodi:nodetypes="ccccccc" />
    <path
       style="fill:none;stroke:#000000;stroke-width:5;stroke-linecap:butt;stroke-linejoin:miter;stroke-miterlimit:4;stroke-opacity:1;stroke-dasharray:none"
       d="m 382.9841,707.21617 -1.82858,42.7486 -108.25229,76.36292 -14.26297,-0.36537 -14.26298,1.46148 -5.48575,3.28836 1.46287,19.73014 4.75431,3.65372 24.13734,-2.55762 4.75433,-1.46149 130.92676,-86.59334 8.77721,-9.86507 2.28573,-44.21009"
       id="path3069"
       inkscape:connector-curvature="0"
       sodipodi:nodetypes="ccccccccccccc" />
    <path
       style="fill:none;stroke:#000000;stroke-width:1.00020003;stroke-linecap:butt;stroke-linejoin:miter;stroke-miterlimit:4;stroke-opacity:1;stroke-dasharray:none"
       d="m 239.62297,835.82739 7.31434,-0.36538"
       id="path3071"
       inkscape:connector-curvature="0" />
    <path
       style="fill:none;stroke:#000000;stroke-width:1.00020003;stroke-linecap:butt;stroke-linejoin:miter;stroke-miterlimit:4;stroke-opacity:1;stroke-dasharray:none"
       d="m 239.62297,841.30797 7.31434,0"
       id="path3073"
       inkscape:connector-curvature="0" />
    <path
       style="fill:none;stroke:#000000;stroke-width:1.00020003;stroke-linecap:butt;stroke-linejoin:miter;stroke-miterlimit:4;stroke-opacity:1;stroke-dasharray:none"
       d="m 240.15773,847.5193 6.97622,0"
       id="path3075"
       inkscape:connector-curvature="0" />
    <path
       style="fill:none;stroke:#000000;stroke-width:5;stroke-linecap:round;stroke-linejoin:round;stroke-miterlimit:4;stroke-opacity:1;stroke-dasharray:none"
       d="m 312.45388,797.97689 9.30964,-149.33067 18.87788,-52.18821"
       id="path3077"
       inkscape:connector-curvature="0"
       sodipodi:nodetypes="ccc" />
    <path
       style="fill:none;stroke:#000000;stroke-width:2.5;stroke-linecap:butt;stroke-linejoin:miter;stroke-miterlimit:4;stroke-opacity:1;stroke-dasharray:none"
       d="m 255.56163,351.01832 -1.0344,-17.56831 49.65141,-12.40118 z"
       id="path3083"
       inkscape:connector-curvature="0"
       sodipodi:nodetypes="cccc" />
    <path
       style="fill:none;stroke:#000000;stroke-width:2.5;stroke-linecap:butt;stroke-linejoin:miter;stroke-miterlimit:4;stroke-opacity:1;stroke-dasharray:none"
       d="m 397.27505,315.88168 28.96331,-18.60173 14.48167,22.73547 -47.58261,76.47382 -20.68809,-4.13371"
       id="path3085"
       inkscape:connector-curvature="0" />
    <path
       style="fill:none;stroke:#000000;stroke-width:0.99999994px;stroke-linecap:butt;stroke-linejoin:miter;stroke-opacity:1"
       d="m 259.18204,332.41657 1.03441,16.01815"
       id="path3087"
       inkscape:connector-curvature="0" />
    <path
       style="fill:#000000;fill-opacity:1;fill-rule:nonzero;stroke:#020000;stroke-width:2.20000005;stroke-linecap:round;stroke-linejoin:round;stroke-miterlimit:4;stroke-opacity:1;stroke-dasharray:none"
       d="m 255.66918,342.00408 c -0.20377,-4.11029 -0.23853,-7.6866 -0.0772,-7.94738 0.16134,-0.26076 0.86619,-0.58353 1.56636,-0.71726 1.42911,-0.27293 1.47889,-0.0444 2.11959,9.72744 0.30212,4.60799 0.28279,4.71546 -0.99923,5.55468 -0.71902,0.47068 -1.51695,0.85578 -1.77317,0.85578 -0.2562,0 -0.63256,-3.36295 -0.83633,-7.47326 z"
       id="path3089"
       inkscape:connector-curvature="0" />
    <path
       style="fill:none;stroke:#000000;stroke-width:0.49999997;stroke-linecap:round;stroke-linejoin:miter;stroke-miterlimit:4;stroke-opacity:1;stroke-dasharray:none"
       d="m 373.21447,849.94879 c 31.78568,3.24284 42.87183,2.53705 53.35003,1.71528"
       id="path3865"
       inkscape:connector-curvature="0"
       sodipodi:nodetypes="cc" />
    <path
       style="fill:none;stroke:#000000;stroke-width:0.99999994px;stroke-linecap:butt;stroke-linejoin:miter;stroke-opacity:1"
       d="m 283.02976,1011.2026 c 2.70216,0.1818 2.98358,3.2234 3.66697,5.7871"
       id="path3883"
       inkscape:connector-curvature="0"
       sodipodi:nodetypes="cc" />
    <path
       style="fill:none;stroke:#000000;stroke-width:0.99999994px;stroke-linecap:butt;stroke-linejoin:miter;stroke-opacity:1"
       d="m 292.64102,1010.0059 c 2.70216,0.1818 2.98362,3.2232 3.66698,5.7869"
       id="path3883-1"
       inkscape:connector-curvature="0"
       sodipodi:nodetypes="cc" />
    <path
       style="fill:none;stroke:#000000;stroke-width:0.99999994;stroke-linecap:butt;stroke-linejoin:miter;stroke-miterlimit:4;stroke-opacity:1;stroke-dasharray:none"
       d="m 287.80979,1010.5166 c 2.70215,0.1818 2.98361,3.2233 3.66699,5.787"
       id="path3883-7"
       inkscape:connector-curvature="0"
       sodipodi:nodetypes="cc" />
    <path
       style="fill:#f4b581;fill-opacity:0.76078431;fill-rule:nonzero;stroke:#020000;stroke-width:2.5;stroke-linecap:round;stroke-linejoin:round;stroke-miterlimit:4;stroke-opacity:1;stroke-dasharray:none"
       d="m 250.616,536.89087 -9.47641,-11.33445 0,-12.09729 0,-12.09726 -6.72362,-17.91935 c -3.698,-9.85563 -8.80175,-19.74081 -8.80175,-19.93511 0,-0.1943 14.29701,6.56412 29.23124,12.9868 l 27.15312,11.67756 1.37394,-2.61767 c 0.7557,-1.43968 1.18252,-2.80891 0.94854,-3.04267 -0.234,-0.23379 -13.64419,-6.14561 -29.80043,-13.1374 l -29.37499,-12.71239 -0.66366,-4.08117 c -0.36501,-2.24466 -0.90833,-8.78544 -1.20737,-14.53506 l -0.54373,-10.45386 4.29094,0.46038 c 4.26645,0.45777 4.32898,0.4142 10.95843,-7.63117 3.66711,-4.45035 8.50253,-10.29026 10.74537,-12.97757 l 4.07786,-4.88606 -2.41594,-1.95447 -2.41595,-1.95449 -9.82383,11.81086 c -7.823,9.40531 -6.51623,12.54327 -8.20922,12.157 -1.16929,-0.2668 -15.05989,-2.59656 -26.2961,-4.16124 -16.78284,-2.33709 -22.92194,-2.30645 -22.91588,-3.65398 0.004,-0.90219 4.53427,-13.40012 7.01921,-26.75721 l 4.51809,-24.28561 10.72455,-15.82445 c 10.67645,-15.75351 10.71474,-15.83229 8.53953,-17.56833 -1.20175,-0.95911 -5.25579,-7.57771 -9.00897,-14.70802 l -6.82398,-12.96416 2.53895,-17.94014 c 1.39641,-9.86708 2.74073,-18.14178 2.9874,-18.38821 0.24666,-0.24645 2.60071,0.81204 5.23123,2.35217 2.63052,1.54014 4.95892,2.62424 5.17425,2.40912 0.21534,-0.21513 0.89676,-7.57705 1.5143,-16.35984 0.61752,-8.78275 1.54437,-16.38984 2.05963,-16.90462 0.5595,-0.55898 9.11907,1.79272 21.25182,5.83879 13.8372,4.61448 20.4445,6.38231 20.72106,5.54412 0.22333,-0.67685 1.01274,-10.89748 1.75425,-22.71254 l 1.3482,-21.48195 17.06767,12.94583 c 9.38723,7.12019 17.41369,12.95046 17.83657,12.95612 0.4229,0.006 3.99099,-6.38402 7.92908,-14.19934 3.9381,-7.81531 7.86525,-15.13975 8.72702,-16.27653 1.54219,-2.03437 1.62083,-2.01645 5.00098,1.13878 3.92608,3.66486 34.6773,28.31398 35.32333,28.31398 0.23427,0 1.74079,-4.95589 3.3478,-11.01311 l 2.92183,-11.01311 13.75607,14.11341 c 7.56583,7.76236 14.05796,14.1134 14.42696,14.1134 0.36899,0 3.63703,-1.87153 7.26229,-4.15895 l 6.59144,-4.15894 3.45551,7.51759 c 7.51535,16.34985 17.48968,37.51197 17.88887,37.95403 0.23192,0.25683 6.45057,-2.51618 13.81921,-6.16224 8.38562,-4.14928 13.74203,-6.25694 14.31846,-5.6341 0.50651,0.54729 3.14861,10.64474 5.87131,22.43875 2.72269,11.79403 5.24509,21.44368 5.60533,21.44368 0.36026,0 3.19358,-1.60159 6.29631,-3.55909 l 5.64128,-3.55911 0.69661,2.78402 c 0.38311,1.53122 1.96101,11.15482 3.50641,21.38579 1.54542,10.23095 3.19265,19.02595 3.66054,19.54444 0.4881,0.54091 2.95296,-0.99328 5.78324,-3.59971 l 4.93258,-4.5424 1.3585,6.11775 c 0.9648,4.34484 1.05339,6.88545 0.30565,8.76686 -0.57909,1.457 -7.37118,27.99398 -15.09355,58.97104 -7.72239,30.97709 -13.23337,60.89455 -13.77062,62.92739 -0.86108,3.25812 -7.86054,5.33873 -49.79518,39.20291 l -47.57148,38.41621 -53.64187,0 -53.64186,0 z m 167.75518,-177.7833 24.1743,-38.75366 -2.13828,-3.61699 c -1.17604,-1.98935 -4.73677,-7.67528 -7.9127,-12.63538 l -5.77446,-9.01836 -14.86922,9.53508 c -13.31824,8.5405 -17.06764,11.83635 -13.06586,11.48538 0.73102,-0.0641 6.59514,-3.4995 13.03137,-7.63417 6.43625,-4.13467 12.74176,-9.03152 13.56525,-9.09563 0.82501,-0.0643 3.90028,5.66687 7.29816,10.97092 l 6.16659,9.62602 -22.94261,36.87835 c -12.61846,20.28308 -23.1107,37.06053 -23.31611,37.28323 -0.20543,0.22269 -4.22529,-0.35898 -8.93306,-1.29259 -10.38206,-2.0589 -11.14559,-2.07799 -11.14559,-0.27876 0,0.96129 3.24408,2.08676 10.08547,3.499 5.54697,1.14502 10.42677,2.0187 10.84395,1.94153 0.4172,-0.0773 11.63694,-17.57949 24.9328,-38.89397 z M 279.6543,338.04027 c 21.30716,-13.16202 27.86768,-18.26514 23.3668,-18.17593 -1.74628,0.0345 -49.52594,12.04465 -49.84372,12.52889 -0.69756,1.0629 0.71759,20.51375 1.49246,20.51375 0.50473,0 11.74772,-6.69001 24.98446,-14.86671 z"
       id="path3796"
       inkscape:connector-curvature="0"
       sodipodi:nodetypes="ccccssscssscsscssscccscscscssscssssssscscscssssscssscscssssscsssscssssscccccscsscscscscscssscsscss" />
    <path
       style="fill:#f4b581;fill-opacity:0.76078431;fill-rule:nonzero;stroke:#020000;stroke-width:5;stroke-linecap:round;stroke-linejoin:round;stroke-miterlimit:4;stroke-opacity:1;stroke-dasharray:none"
       d="m 361.71438,620.95913 c -6.55392,-1.18798 -11.22554,-4.02748 -13.49475,-8.20238 -1.30905,-2.4084 -1.1282,-8.53132 0.36574,-12.38328 0.64165,-1.65446 1.72274,-3.97968 2.40241,-5.16716 l 1.23578,-2.15908 0.006,3.48784 c 0.008,3.89313 1.00565,5.55467 3.33871,5.55467 2.77802,0 2.87496,-0.69063 2.86257,-20.39604 l -0.0113,-18.09923 -2.57462,-4.12551 c -1.41606,-2.269 -2.57465,-4.30358 -2.57465,-4.52124 0,-0.21768 3.66569,-0.39784 8.14594,-0.40035 l 8.14595,-0.005 21.9811,-17.76933 c 12.08959,-9.77314 24.14793,-19.76319 24.25635,-19.66018 0.10839,0.10308 -4.7105,10.37855 -8.16881,20.29463 l -6.28785,18.02919 4.71674,22.15879 c 2.59422,12.18735 4.93447,22.5652 5.20052,23.06189 0.54356,1.01469 2.63527,1.6977 3.81457,1.24559 1.86903,-0.71655 0.30657,2.72856 -2.68815,5.92714 -8.91089,9.51751 -34.30179,16.09599 -50.6724,13.12863 l 0,0 z"
       id="path3798"
       inkscape:connector-curvature="0"
       sodipodi:nodetypes="csssccssccsccscscscssccc" />
    <path
       style="fill:#f4b581;fill-opacity:0.76078431;fill-rule:nonzero;stroke:#020000;stroke-width:3;stroke-linecap:round;stroke-linejoin:round;stroke-miterlimit:4;stroke-opacity:1;stroke-dasharray:none"
       d="m 244.47952,849.68479 c -1.23605,-1.3645 -1.07638,-1.63865 0.95423,-1.63865 0.99563,0 1.81022,-0.23251 1.81022,-0.51672 0,-0.28418 -0.93097,-0.5167 -2.06882,-0.5167 l -2.06879,0 0,-2.58358 0,-2.58358 1.81018,0 c 2.42669,0 2.32055,-0.92885 -0.12929,-1.13141 -1.88262,-0.15567 -1.94416,-0.22478 -2.09855,-2.35641 l -0.15903,-2.19605 2.09854,0 c 1.40632,0 2.09854,-0.22776 2.09854,-0.69048 0,-0.47487 -0.68642,-0.67656 -2.19811,-0.64589 -1.99856,0.0405 -2.1981,-0.0699 -2.1981,-1.21824 0,-0.86501 0.50226,-1.55588 1.59442,-2.19314 2.29395,-1.33847 13.75519,-2.40489 22.7141,-2.11343 l 7.24083,0.23558 55.08202,-38.87324 c 30.29513,-21.38028 55.12051,-38.89818 55.16749,-38.92867 0.047,-0.0305 0.47903,-9.12377 0.96006,-20.2073 0.48103,-11.08354 0.94634,-20.2289 1.03404,-20.323 0.15633,-0.16781 26.26123,0.97318 26.47602,1.15721 0.0602,0.0515 -0.36591,9.03437 -0.94687,19.96179 l -1.05631,19.86802 -1.71817,2.06915 c -5.44162,6.55327 -6.05461,6.98364 -71.64102,50.29723 -40.26084,26.58847 -65.69447,43.07288 -66.97769,43.41052 -2.05597,0.54099 -20.78091,2.66192 -23.50116,2.66192 -0.78255,0 -1.80801,-0.42523 -2.27878,-0.94493 z"
       id="path3806"
       inkscape:connector-curvature="0" />
    <path
       style="fill:#093d00;fill-opacity:1;fill-rule:nonzero;stroke:#000200;stroke-width:5;stroke-linecap:round;stroke-linejoin:round;stroke-miterlimit:4;stroke-opacity:1;stroke-dasharray:none"
       d="m 396.74825,705.2724 c -6.82707,-0.36113 -12.93654,-0.67672 -13.57657,-0.7013 l -1.1637,-0.0448 0,-25.02154 0,-25.02154 3.4911,-2.90737 c 6.72323,-5.59904 12.96608,-7.47349 19.02737,-5.71308 3.79825,1.10314 6.12922,2.26713 11.22897,5.60723 l 4.00832,2.62526 0,25.9906 0,25.99059 -5.30132,-0.0737 c -2.91573,-0.0406 -10.88712,-0.36922 -17.71417,-0.73035 z"
       id="path3812"
       inkscape:connector-curvature="0" />
    <path
       style="fill:#093d00;fill-opacity:1;fill-rule:nonzero;stroke:#000200;stroke-width:3;stroke-linecap:round;stroke-linejoin:round;stroke-miterlimit:4;stroke-opacity:1;stroke-dasharray:none"
       d="m 352.59358,854.67755 c -8.11462,-0.44512 -25.28927,-1.73181 -31.67863,-2.37329 l -3.23253,-0.32453 0,-13.51756 0,-13.51757 44.0915,-29.09795 c 45.02466,-29.71379 45.34525,-29.94605 52.16329,-37.78923 l 2.89978,-3.33577 0.86137,-17.82667 c 0.47375,-9.80467 0.99971,-19.27994 1.16878,-21.05614 l 0.30745,-3.22947 2.52575,0 c 1.83614,0 2.80817,-0.28216 3.56015,-1.03342 1.00985,-1.00891 1.03425,-1.71752 1.02736,-29.84031 -0.004,-15.84379 -0.14965,-29.33862 -0.32393,-29.98854 -0.40338,-1.50442 -10.66374,-8.39995 -15.54314,-10.44587 -5.11259,-2.14367 -9.6881,-2.83002 -13.93765,-2.09068 -6.30839,1.09752 -13.03744,5.0455 -18.44637,10.82265 l -2.42768,2.59295 0,27.80978 c 0,30.34481 -0.0228,30.10659 2.90172,30.10659 l 1.29146,0 -0.30239,5.55467 c -0.49692,9.12811 -1.30184,27.61566 -1.30337,29.93606 l -8.6e-4,2.1626 -30.83994,21.75525 c -16.96197,11.96538 -31.13198,22.74226 -31.26543,22.60895 -0.13347,-0.13334 1.93018,-33.28183 4.36236,-72.32367 l 4.42215,-70.98514 6.31028,-17.42667 5.94457,-18.5228 1.95473,4.34339 c 2.99276,6.64985 10.03493,11.70735 18.68179,14.1067 4.8208,1.33768 16.86136,1.60592 23.73674,0.5288 11.59322,-1.8162 22.62274,-5.82291 30.87313,-11.21533 4.92333,-3.21788 9.8182,-7.81055 11.20708,-10.51518 l 0.93537,-1.8215 7.05081,13.12077 7.05081,13.12076 2.04996,108.44696 c 1.12746,59.64582 1.98045,108.52531 1.89551,108.62109 -0.27347,0.30834 -6.92725,2.00342 -17.27315,2.84757 -11.83515,0.96564 -59.54687,0.51318 -72.69829,-0.20825 z m 60.51265,-5.13332 c 8.83062,-0.52292 20.40089,-1.87966 22.18915,-2.60192 1.53306,-0.6192 0.0901,-0.61697 -3.34556,0.005 -7.36281,1.33327 -18.18763,2.12412 -33.17685,2.42383 -9.02113,0.18038 -16.31396,0.47042 -16.20626,0.6445 0.2702,0.43677 20.46622,0.12491 30.53952,-0.4716 l 0,3e-5 z"
       id="path3822"
       inkscape:connector-curvature="0"
       sodipodi:nodetypes="cscccsscsscssscssscsscsccscscccssssscccscscccscscccc" />
    <path
       style="fill:#321500;fill-opacity:0.69411765;fill-rule:nonzero;stroke:#000200;stroke-width:3;stroke-linecap:round;stroke-linejoin:round;stroke-miterlimit:4;stroke-opacity:1;stroke-dasharray:none"
       d="m 278.89183,1025.2291 c -1.5481,-2.6319 -2.14196,-4.3887 -2.01422,-5.9578 0.17344,-2.1314 2.52178,-3.8626 6.666,-4.9144 l 1.69096,-0.4293 0.25586,0.8704 c 0.14069,0.4787 0.32251,1.1992 0.40395,1.6015 0.14603,0.7204 0.15625,0.7288 0.71666,0.5936 0.31273,-0.076 0.58331,-0.1978 0.60137,-0.2716 0.0187,-0.075 -0.12296,-0.7484 -0.31349,-1.4987 -0.19045,-0.7505 -0.26157,-1.4121 -0.15796,-1.4703 0.31943,-0.1796 3.04376,-0.4077 3.2403,-0.2715 0.10206,0.07 0.34479,0.7681 0.53968,1.5499 l 0.35425,1.4215 0.58943,-0.1424 0.58947,-0.1423 -0.31991,-1.3852 c -0.17595,-0.762 -0.31046,-1.424 -0.29893,-1.471 0.0115,-0.048 0.59923,-0.1121 1.30605,-0.1446 2.44907,-0.1124 2.21518,-0.234 2.61234,1.3596 l 0.35278,1.4152 0.58972,-0.1423 0.58975,-0.1425 -0.28094,-1.2112 c -0.15454,-0.6662 -0.23435,-1.2396 -0.17741,-1.2741 0.36793,-0.223 5.8031,0.054 10.11001,0.5161 2.85559,0.3065 3.1661,0.3783 22.26943,5.1869 10.65512,2.683 19.37351,4.8867 19.37358,4.8992 5.8e-4,0.1543 -2.65138,13.082 -2.87259,14.0031 l -0.3021,1.2558 -1.81005,1.5657 -1.81013,1.5659 -7.08396,-1.7332 c -6.60677,-1.6164 -7.13727,-1.7718 -7.87871,-2.2947 -2.99841,-2.1184 -9.95909,-3.8184 -16.69554,-4.0743 -1.6323,-0.064 -2.65252,-0.2893 -15.7259,-3.4876 l -13.98026,-3.4205 -1.13071,-1.9222 0,0 z"
       id="path3828"
       inkscape:connector-curvature="0"
       sodipodi:nodetypes="cccccccccccccccccsccccsccccccccsccccccc" />
    <path
       style="fill:#9f0000;fill-opacity:1;fill-rule:nonzero;stroke:#000200;stroke-width:6.25;stroke-linecap:round;stroke-linejoin:round;stroke-miterlimit:4;stroke-opacity:1;stroke-dasharray:none"
       d="m 499.73097,346.65344 -3.71108,-16.24164 3.78112,-3.3406 c 2.07961,-1.83732 3.2804,-3.35995 2.6684,-3.38362 -0.61198,-0.0235 -2.17434,1.08602 -3.47191,2.46593 -1.29759,1.3799 -2.89155,2.31222 -3.54213,2.07182 -0.65059,-0.24042 -2.57934,-0.0552 -4.28611,0.41148 -2.51177,0.68684 -3.04538,1.33288 -2.79973,3.38977 0.37391,3.131 -4.56355,8.39627 -5.87918,6.26952 -0.44655,-0.72185 -2.08344,-9.31299 -3.63752,-19.09138 -1.55411,-9.77839 -3.06006,-18.75932 -3.34656,-19.95764 -0.40239,-1.6829 0.34982,-2.692 3.30517,-4.43407 2.10436,-1.24043 3.5751,-2.50611 3.26831,-2.81262 -0.3068,-0.30652 -1.69633,0.18796 -3.08784,1.09885 -1.39151,0.91091 -3.29383,1.36336 -4.22738,1.00545 -1.11231,-0.42644 -1.69734,-0.11214 -1.69734,0.91179 0,1.46503 -7.99554,6.92606 -10.14054,6.92606 -0.53881,0 -3.39078,-9.95263 -6.33768,-22.11691 l -5.35799,-22.11692 -14.01185,6.68357 c -7.7065,3.67596 -14.18863,6.50692 -14.40472,6.29102 -0.48652,-0.48606 -15.30255,-31.36497 -18.55585,-38.67327 l -2.37848,-5.3431 8.75622,-5.36467 c 4.81591,-2.95057 8.51669,-5.60396 8.22395,-5.89642 -0.29272,-0.29246 -4.29047,1.85202 -8.88386,4.76556 -4.59336,2.91352 -8.54205,5.2973 -8.7748,5.2973 -0.23278,0 -3.51138,1.93444 -7.2858,4.29875 l -6.86257,4.29877 -13.94276,-13.858 c -12.1454,-12.07159 -13.89176,-14.22434 -13.5472,-16.69993 0.92735,-6.66294 -1.13314,-1.91978 -4.37713,10.07596 -1.92133,7.10483 -3.84033,12.91788 -4.26441,12.91788 -0.97712,0 -35.28181,-27.55887 -36.52408,-29.34182 -0.61951,-0.88914 1.36296,-5.62934 6.03085,-14.42019 3.82456,-7.20257 6.80001,-13.5205 6.61212,-14.0398 -0.18791,-0.51932 -7.09114,12.08282 -15.34052,28.00475 -8.24937,15.92193 -15.47538,29.62844 -16.05781,30.45892 -0.86591,1.23474 -4.17732,-0.83044 -18.1681,-11.33073 l -17.10921,-12.84067 0.4543,-3.88773 c 0.3164,-2.70756 0.10093,-3.66955 -0.70975,-3.16898 -0.64024,0.39531 -1.16404,1.88134 -1.16404,3.30232 0,1.45923 -0.45018,2.30561 -1.03441,1.94489 -1.27859,-0.78948 -1.36772,0.77875 -0.12047,2.11853 0.53029,0.56959 0.33073,8.79108 -0.47534,19.5835 -0.76414,10.23096 -1.40817,19.8806 -1.4312,21.44368 -0.028,1.90136 -0.59082,2.84192 -1.70053,2.84192 -0.91228,0 -10.28126,-2.838 -20.82,-6.30669 -13.91188,-4.57894 -19.36976,-5.96976 -19.92217,-5.07679 -0.41848,0.67649 -1.07687,5.95597 -1.46308,11.73224 -0.38621,5.77624 -0.97717,12.92379 -1.31324,15.88343 l -0.61104,5.38117 -3.22462,-1.66592 c -1.77353,-0.91626 -4.50045,-2.60826 -6.05979,-3.76005 -2.59064,-1.9135 -2.69694,-2.24675 -1.23235,-3.8636 1.48341,-1.63759 0.17229,-2.83349 -17.5943,-16.0482 -10.55843,-7.85335 -19.19714,-14.55826 -19.19714,-14.89984 0,-0.3416 3.92753,-2.806 8.72784,-5.47645 l 8.72785,-4.85536 -9.76225,-16.46352 c -5.36923,-9.05493 -9.76142,-16.8399 -9.7604,-17.29995 8.7e-4,-0.46003 2.08622,-2.152 4.63379,-3.75997 7.08167,-4.46971 14.71333,-11.74097 15.46553,-14.73519 0.49145,-1.95622 -0.18324,-4.20609 -2.4811,-8.27386 -1.73586,-3.07285 -2.80459,-5.58701 -2.37497,-5.58701 0.42961,0 4.41971,1.2106 8.86688,2.69025 4.44717,1.47966 8.30001,2.47622 8.56188,2.21461 0.26186,-0.26162 -3.25877,-9.18622 -7.82364,-19.83243 -4.56486,-10.64623 -8.29975,-19.84426 -8.29975,-20.4401 0,-1.047 2.39665,-0.90071 12.98096,0.79229 l 4.18855,0.66998 2.17476,-13.79186 c 1.66576,-10.563886 3.05399,-15.714259 5.9314,-22.005576 l 3.75665,-8.213718 10.27608,10.227896 c 5.65185,5.625333 10.46541,10.019068 10.6968,9.763863 0.2314,-0.255216 2.60706,-9.991819 5.27924,-21.636918 2.6722,-11.645086 5.01621,-21.330407 5.20892,-21.522942 0.19271,-0.192525 9.39264,6.428744 20.4443,14.713949 11.05165,8.285211 20.42867,15.064 20.8378,15.064 0.40914,0 0.41675,-6.394335 0.017,-14.209658 l -0.72694,-14.209661 14.23429,17.051602 c 7.82885,9.378376 14.7636,17.164329 15.41058,17.302121 0.64696,0.137792 2.29534,-0.615799 3.66305,-1.674637 l 2.48671,-1.92519 -8.43455,-26.373096 c -4.63898,-14.505207 -8.43453,-26.833189 -8.43453,-27.395514 0,-0.562316 10.01726,2.176987 22.26058,6.08735 12.24334,3.910379 22.84349,7.109769 23.55591,7.109769 0.7124,0 3.65305,-4.737389 6.53472,-10.527536 l 5.23941,-10.527537 5.97211,10.537702 5.97213,10.537723 5.31575,-3.006692 c 2.92365,-1.653686 12.89949,-7.217346 22.16855,-12.363691 l 16.85279,-9.357005 0.98556,2.589749 c 0.54204,1.424356 4.3486,13.029 8.45905,25.788112 4.11043,12.759099 7.81526,23.198372 8.23297,23.198372 0.41772,0 2.34402,-2.073256 4.28067,-4.607235 l 3.52117,-4.607217 4.27959,10.032737 c 3.30169,7.740252 5.2354,14.873525 8.46276,31.218048 2.30078,11.65192 4.51646,22.0157 4.92377,23.03062 0.55618,1.38586 4.57097,-4.60699 16.12397,-24.06797 8.46089,-14.252324 15.5175,-25.778713 15.68138,-25.614212 0.1639,0.164493 4.36794,18.203268 9.34232,40.086152 4.97436,21.88289 9.31949,40.07184 9.65581,40.41989 0.33633,0.34806 5.40782,-0.28567 11.26998,-1.40828 5.86214,-1.12259 10.84956,-1.85017 11.08314,-1.61679 0.23358,0.23335 -2.56792,8.51804 -6.22553,18.41041 -3.65764,9.89238 -6.52434,18.11189 -6.37049,18.26561 0.15384,0.15371 14.33495,-2.49804 31.51356,-5.89277 17.17861,-3.39475 31.40467,-6.17226 31.61346,-6.17226 0.20881,0 -6.02548,16.7713 -13.85397,37.26954 l -14.23362,37.26954 14.52171,17.2439 c 7.98694,9.48416 15.17403,18.00266 15.97129,18.93 1.30988,1.52359 -0.72356,2.60845 -21.09816,11.25605 -12.40123,5.26346 -23.32912,9.96762 -24.2842,10.45365 -1.55886,0.79332 -1.16212,2.59804 3.87902,17.64479 3.08853,9.2186 5.61549,17.17989 5.61549,17.69177 0,0.51657 -2.87667,0.66419 -6.46501,0.33176 -3.55578,-0.3294 -9.7234,-0.86335 -13.70585,-1.18653 l -7.24085,-0.58761 -3.4589,5.15438 c -1.90238,2.8349 -4.95954,7.26307 -6.79365,9.84038 l -3.33478,4.68599 -3.71109,-16.24164 0,0 z"
       id="path3830"
       inkscape:connector-curvature="0" />
    <path
       style="fill:none;stroke:#000000;stroke-width:5;stroke-linecap:round;stroke-linejoin:round;stroke-miterlimit:4;stroke-opacity:1;stroke-dasharray:none"
       d="m 424.73348,890.68234 -5.28465,7.94666 33.67397,112.6731 c 2.3332,2.8861 3.93636,6.3401 3.01334,8.6581 l -46.57928,1.1361 c -4.8288,-1.6826 -2.8324,-5.6403 -3.60266,-8.6758 l -28.64961,-67.99292"
       id="path3839"
       inkscape:connector-curvature="0"
       sodipodi:nodetypes="ccccccc" />
    <path
       style="fill:none;stroke:#000000;stroke-width:5;stroke-linecap:butt;stroke-linejoin:miter;stroke-miterlimit:4;stroke-opacity:1;stroke-dasharray:none"
       d="m 456.11572,1019.6992 1.44935,19.6903 -4.15955,6.3669 -16.80865,0.6125 c -4.78626,-2.4642 -14.35542,-0.6035 -19.00465,0.6926 l -29.97209,1.092 c -23.75008,-18.0101 16.18726,-25.701 24.6386,-26.8563"
       id="path3067-8"
       inkscape:connector-curvature="0"
       sodipodi:nodetypes="ccccccc" />
    <path
       style="fill:none;stroke:#000000;stroke-width:0.99999994px;stroke-linecap:butt;stroke-linejoin:miter;stroke-opacity:1"
       d="m 387.10085,1028.7948 c 2.64923,-0.5624 3.74991,2.287 5.1069,4.567"
       id="path3883-8"
       inkscape:connector-curvature="0"
       sodipodi:nodetypes="cc" />
    <path
       style="fill:none;stroke:#000000;stroke-width:0.99999994px;stroke-linecap:butt;stroke-linejoin:miter;stroke-opacity:1"
       d="m 396.02087,1025.021 c 2.64923,-0.5624 3.74989,2.2867 5.10685,4.5667"
       id="path3883-1-2"
       inkscape:connector-curvature="0"
       sodipodi:nodetypes="cc" />
    <path
       style="fill:none;stroke:#000000;stroke-width:0.99999994;stroke-linecap:butt;stroke-linejoin:miter;stroke-miterlimit:4;stroke-opacity:1;stroke-dasharray:none"
       d="m 391.51232,1026.8306 c 2.64922,-0.5624 3.7499,2.2868 5.10689,4.5668"
       id="path3883-7-4"
       inkscape:connector-curvature="0"
       sodipodi:nodetypes="cc" />
    <path
       style="fill:#321500;fill-opacity:0.69411765;fill-rule:nonzero;stroke:#000200;stroke-width:3;stroke-linecap:round;stroke-linejoin:round;stroke-miterlimit:4;stroke-opacity:1;stroke-dasharray:none"
       d="m 386.94723,1043.4181 c -2.2075,-2.1096 -3.25818,-3.6377 -3.56344,-5.182 -0.41472,-2.0979 1.37214,-4.4042 5.07211,-6.5468 l 1.50965,-0.8745 0.48365,0.7675 c 0.26597,0.4222 0.63749,1.0658 0.82561,1.4306 0.33705,0.6532 0.34918,0.6585 0.85143,0.3755 0.28013,-0.1584 0.50721,-0.3494 0.50444,-0.4254 -0.003,-0.077 -0.3225,-0.6864 -0.71052,-1.3563 -0.38801,-0.67 -0.63696,-1.2871 -0.55316,-1.3713 0.2583,-0.26 2.81702,-1.2228 3.04325,-1.1454 0.11728,0.039 0.5413,0.6449 0.94212,1.3438 l 0.72867,1.2709 0.52822,-0.2978 0.52827,-0.2977 -0.68574,-1.2454 c -0.3772,-0.6851 -0.68723,-1.2852 -0.68897,-1.3336 -0.002,-0.049 0.54591,-0.2714 1.21704,-0.4955 2.32547,-0.7764 2.06727,-0.8296 2.88419,0.5952 l 0.72555,1.2652 0.52851,-0.2978 0.5285,-0.298 -0.60078,-1.0885 c -0.33045,-0.5988 -0.56369,-1.1287 -0.51833,-1.1774 0.29312,-0.315 5.59762,-1.5315 9.8672,-2.2621 2.83086,-0.4843 3.14918,-0.4999 22.83969,-1.0864 10.98287,-0.3261 19.97174,-0.585 19.97522,-0.573 0.0427,0.1483 1.0188,13.3091 1.05731,14.2556 l 0.052,1.2905 -1.31415,2.0002 -1.31417,2.0004 -7.28807,0.2655 c -6.79712,0.2477 -7.34989,0.2429 -8.20588,-0.058 -3.46265,-1.2198 -10.62307,-0.956 -17.17371,0.6359 -1.58783,0.3839 -2.63081,0.4455 -16.0808,0.9357 l -14.38308,0.524 -1.61229,-1.5409 0,0 z"
       id="path3828-5"
       inkscape:connector-curvature="0"
       sodipodi:nodetypes="cccccccccccccccccsccccsccccccccsccccccc" />
    <path
       style="fill:#321500;fill-opacity:1;fill-rule:nonzero;stroke:#000000;stroke-width:5;stroke-linecap:round;stroke-linejoin:round;stroke-miterlimit:4;stroke-opacity:1;stroke-dasharray:none"
       d="m 329.63142,1015.592 c -13.37259,-3.7085 -18.38878,-5.773 -18.15872,-7.4735 0.17483,-1.2922 4.80458,-26.77418 10.28833,-56.62663 l 9.97046,-54.27717 -6.03378,-19.33152 c -3.31858,-10.63234 -5.76304,-19.60227 -5.43213,-19.93317 0.3309,-0.33091 8.53831,0.15586 18.23869,1.08171 18.56996,1.7724 94.23235,0.92035 99.26748,-1.11787 2.22132,-0.89919 1.10895,2.43824 -4.73116,14.1949 l -7.63527,15.37048 -18.89344,8.27236 -18.89345,8.27235 -2.4727,8.29607 c -9.74516,32.69558 -34.5382,107.84979 -35.66005,108.09499 -0.75772,0.1655 -9.69213,-2.0048 -19.85426,-4.823 z"
       id="path3871"
       inkscape:connector-curvature="0" />
    <path
       style="fill:#321500;fill-opacity:1;fill-rule:nonzero;stroke:#000000;stroke-width:5;stroke-linecap:round;stroke-linejoin:round;stroke-miterlimit:4;stroke-opacity:1;stroke-dasharray:none"
       d="m 409.56275,1018.5289 c -0.66275,-0.685 -1.205,-2.2889 -1.205,-3.5642 0,-1.2754 -6.48774,-17.69805 -14.4172,-36.49491 l -14.4172,-34.1761 5.81843,-18.55835 5.81843,-18.55836 11.41043,-5.118 c 15.97789,-7.16669 15.42416,-7.03387 15.45231,-3.70637 0.0233,2.75326 31.8173,110.30929 34.48362,116.65469 1.05835,2.5187 0.0335,2.8129 -9.8354,2.8231 -6.05927,0.01 -15.71633,0.4463 -21.46014,0.9777 -5.74381,0.5315 -10.98553,0.4059 -11.64828,-0.2792 l 0,0 z"
       id="path3873"
       inkscape:connector-curvature="0" />
  </g>
</svg>
