<?xml version="1.0" encoding="UTF-8" standalone="no"?>
<!-- Created with Inkscape (http://www.inkscape.org/) -->

<svg
   xmlns:dc="http://purl.org/dc/elements/1.1/"
   xmlns:cc="http://creativecommons.org/ns#"
   xmlns:rdf="http://www.w3.org/1999/02/22-rdf-syntax-ns#"
   xmlns:svg="http://www.w3.org/2000/svg"
   xmlns="http://www.w3.org/2000/svg"
   xmlns:sodipodi="http://sodipodi.sourceforge.net/DTD/sodipodi-0.dtd"
   xmlns:inkscape="http://www.inkscape.org/namespaces/inkscape"
   width="744.09448819"
   height="1052.3622047"
   id="svg2"
   inkscape:label="Pozadí"
   version="1.1"
   inkscape:version="0.48.4 r9939"
   sodipodi:docname="4.zlý panáček_mrtvý.svg">
  <defs
     id="defs4812">
    <inkscape:path-effect
       effect="skeletal"
       id="path-effect4467"
       is_visible="true"
       pattern="m -43.80313,330.57272 c 0,-2.76 2.24,-5 5,-5 2.76,0 4.999999,2.24 4.999999,5 0,2.76 -2.239999,5 -4.999999,5 -2.76,0 -5,-2.24 -5,-5 z"
       copytype="single_stretched"
       prop_scale="1"
       scale_y_rel="false"
       spacing="0"
       normal_offset="0"
       tang_offset="0"
       prop_units="false"
       vertical_pattern="false"
       fuse_tolerance="0" />
    <inkscape:path-effect
       effect="skeletal"
       id="path-effect4463"
       is_visible="true"
       pattern="m -43.80313,330.57272 c 0,-2.76 2.24,-5 5,-5 2.76,0 4.999999,2.24 4.999999,5 0,2.76 -2.239999,5 -4.999999,5 -2.76,0 -5,-2.24 -5,-5 z"
       copytype="single_stretched"
       prop_scale="1"
       scale_y_rel="false"
       spacing="0"
       normal_offset="0"
       tang_offset="0"
       prop_units="false"
       vertical_pattern="false"
       fuse_tolerance="0" />
    <inkscape:path-effect
       effect="skeletal"
       id="path-effect4459"
       is_visible="true"
       pattern="m -43.80313,330.57272 c 0,-2.76 2.24,-5 5,-5 2.76,0 4.999999,2.24 4.999999,5 0,2.76 -2.239999,5 -4.999999,5 -2.76,0 -5,-2.24 -5,-5 z"
       copytype="single_stretched"
       prop_scale="1"
       scale_y_rel="false"
       spacing="0"
       normal_offset="0"
       tang_offset="0"
       prop_units="false"
       vertical_pattern="false"
       fuse_tolerance="0" />
    <inkscape:path-effect
       effect="skeletal"
       id="path-effect4455"
       is_visible="true"
       pattern="m -43.80313,330.57272 c 0,-2.76 2.24,-5 5,-5 2.76,0 4.999999,2.24 4.999999,5 0,2.76 -2.239999,5 -4.999999,5 -2.76,0 -5,-2.24 -5,-5 z"
       copytype="single_stretched"
       prop_scale="1"
       scale_y_rel="false"
       spacing="0"
       normal_offset="0"
       tang_offset="0"
       prop_units="false"
       vertical_pattern="false"
       fuse_tolerance="0" />
    <inkscape:path-effect
       effect="skeletal"
       id="path-effect4447"
       is_visible="true"
       pattern="m -43.80313,330.57272 c 0,-2.76 2.24,-5 5,-5 2.76,0 4.999999,2.24 4.999999,5 0,2.76 -2.239999,5 -4.999999,5 -2.76,0 -5,-2.24 -5,-5 z"
       copytype="single_stretched"
       prop_scale="1"
       scale_y_rel="false"
       spacing="0"
       normal_offset="0"
       tang_offset="0"
       prop_units="false"
       vertical_pattern="false"
       fuse_tolerance="0" />
    <inkscape:path-effect
       effect="skeletal"
       id="path-effect4443"
       is_visible="true"
       pattern="m -43.80313,330.57272 c 0,-2.76 2.24,-5 5,-5 2.76,0 4.999999,2.24 4.999999,5 0,2.76 -2.239999,5 -4.999999,5 -2.76,0 -5,-2.24 -5,-5 z"
       copytype="single_stretched"
       prop_scale="1"
       scale_y_rel="false"
       spacing="0"
       normal_offset="0"
       tang_offset="0"
       prop_units="false"
       vertical_pattern="false"
       fuse_tolerance="0" />
    <inkscape:path-effect
       effect="skeletal"
       id="path-effect4439"
       is_visible="true"
       pattern="m -43.80313,330.57272 c 0,-2.76 2.24,-5 5,-5 2.76,0 4.999999,2.24 4.999999,5 0,2.76 -2.239999,5 -4.999999,5 -2.76,0 -5,-2.24 -5,-5 z"
       copytype="single_stretched"
       prop_scale="1"
       scale_y_rel="false"
       spacing="0"
       normal_offset="0"
       tang_offset="0"
       prop_units="false"
       vertical_pattern="false"
       fuse_tolerance="0" />
  </defs>
  <sodipodi:namedview
     id="base"
     pagecolor="#ffffff"
     bordercolor="#666666"
     borderopacity="1.0"
     inkscape:pageopacity="0.0"
     inkscape:pageshadow="2"
     inkscape:zoom="0.62240929"
     inkscape:cx="372.04724"
     inkscape:cy="526.18109"
     inkscape:document-units="px"
     inkscape:current-layer="layer1"
     showgrid="false"
     inkscape:window-width="1440"
     inkscape:window-height="850"
     inkscape:window-x="-8"
     inkscape:window-y="-8"
     inkscape:window-maximized="1" />
  <metadata
     id="metadata4815">
    <rdf:RDF>
      <cc:Work
         rdf:about="">
        <dc:format>image/svg+xml</dc:format>
        <dc:type
           rdf:resource="http://purl.org/dc/dcmitype/StillImage" />
        <dc:title></dc:title>
      </cc:Work>
    </rdf:RDF>
  </metadata>
  <g
     inkscape:label="Vrstva 1"
     inkscape:groupmode="layer"
     id="layer1">
    <path
       style="fill:none;stroke:#000000;stroke-width:0.99999994px;stroke-linecap:butt;stroke-linejoin:miter;stroke-opacity:1"
       d="m 498.10563,596.66984 -8.06,14.01168 35.62975,1.7152 -13.68907,43.05696 54.49093,2.54932"
       id="path4965"
       inkscape:connector-curvature="0" />
    <path
       style="fill:none;stroke:#000000;stroke-width:0.99999994px;stroke-linecap:butt;stroke-linejoin:miter;stroke-opacity:1"
       d="m 560.62252,654.36232 -28.51488,39.42488 63.4964,30.6732"
       id="path4967"
       inkscape:connector-curvature="0" />
    <path
       style="fill:none;stroke:#000000;stroke-width:0.99999994px;stroke-linecap:butt;stroke-linejoin:miter;stroke-opacity:1"
       d="m 566.37788,709.55646 -31.74142,40.94733 29.0464,6.89232"
       id="path4969"
       inkscape:connector-curvature="0"
       sodipodi:nodetypes="ccc" />
    <path
       style="fill:none;stroke:#000000;stroke-width:0.99999994px;stroke-linecap:butt;stroke-linejoin:miter;stroke-opacity:1"
       d="m 558.6091,755.207 -29.47696,29.90073 21.53064,32.93318"
       id="path4971"
       inkscape:connector-curvature="0" />
    <path
       style="fill:none;stroke:#000000;stroke-width:0.99999994px;stroke-linecap:butt;stroke-linejoin:miter;stroke-opacity:1"
       d="m 539.47962,798.39622 -46.71912,23.51259 14.80329,28.0437 -45.80372,11.66872 13.46363,20.97981"
       id="path4973"
       inkscape:connector-curvature="0" />
    <path
       style="fill:none;stroke:#000000;stroke-width:0.99999994px;stroke-linecap:butt;stroke-linejoin:miter;stroke-opacity:1"
       d="m 473.33975,873.84189 -48.7965,8.63901 19.31235,20.94155"
       id="path4975"
       inkscape:connector-curvature="0" />
    <path
       style="fill:none;stroke:#000000;stroke-width:5;stroke-linecap:butt;stroke-linejoin:miter;stroke-miterlimit:4;stroke-opacity:1;stroke-dasharray:none"
       d="m 498.10065,597.44414 -41.19615,-4.76627 -30.62381,17.2418"
       id="path3051"
       inkscape:connector-curvature="0"
       sodipodi:nodetypes="ccc" />
    <path
       style="fill:none;stroke:#000000;stroke-width:5;stroke-linecap:butt;stroke-linejoin:miter;stroke-miterlimit:4;stroke-opacity:1;stroke-dasharray:none"
       d="m 430.45978,611.89524 -32.88716,-21.17243 -55.65168,-8.91546 -6.09512,50.83534 25.2602,20.12649"
       id="path3053"
       inkscape:connector-curvature="0"
       sodipodi:nodetypes="ccccc" />
    <path
       style="fill:none;stroke:#000000;stroke-width:5;stroke-linecap:butt;stroke-linejoin:miter;stroke-miterlimit:4;stroke-opacity:1;stroke-dasharray:none"
       d="m 337.14352,622.26649 -34.5648,2.84493 -25.4701,62.6514 25.21761,-62.38707 -42.76937,17.25565 -24.79607,0.5564 -24.332,21.23931 2.45975,109.61926 80.70222,95.44763 124.67658,28.24233"
       id="path3055"
       inkscape:connector-curvature="0"
       sodipodi:nodetypes="cccccccccc" />
    <path
       style="fill:none;stroke:#000000;stroke-width:2.5;stroke-linecap:butt;stroke-linejoin:miter;stroke-miterlimit:4;stroke-opacity:1;stroke-dasharray:none"
       d="m 449.1011,797.71663 19.24679,28.53872 -22.40487,14.98806 -77.52202,-45.85507 3.66857,-20.77562"
       id="path3085"
       inkscape:connector-curvature="0" />
    <path
       style="fill:none;stroke:#000000;stroke-width:2.5;stroke-linecap:round;stroke-linejoin:round;stroke-miterlimit:4;stroke-opacity:1;stroke-dasharray:none"
       d="m 430.44074,650.74455 -13.56173,48.35354"
       id="path3803"
       inkscape:connector-curvature="0" />
    <path
       style="fill:none;stroke:#000000;stroke-width:2.5;stroke-linecap:butt;stroke-linejoin:miter;stroke-miterlimit:4;stroke-opacity:1;stroke-dasharray:none"
       d="m 406.3985,656.35525 36.15476,39.07893"
       id="path3805"
       inkscape:connector-curvature="0" />
    <path
       style="fill:#f4b581;fill-opacity:0.76078431;fill-rule:nonzero;stroke:#000000;stroke-width:2.5;stroke-linecap:round;stroke-linejoin:round;stroke-miterlimit:4;stroke-opacity:1;stroke-dasharray:none"
       d="m 224.22022,655.54407 11.25391,-9.7696 11.99907,-0.26925 11.99907,-0.26924 18.60047,-7.51967 c 10.23025,-4.13581 18.8641,-7.52558 19.18632,-7.53281 0.32223,-0.007 -4.57157,12.73214 -10.8751,28.30972 l -11.46095,28.32285 2.25037,0.82619 c 2.17876,0.79991 2.26524,0.78629 2.71753,-0.42773 0.97572,-2.619 24.22272,-59.6202 24.37087,-59.75692 0.0856,-0.0789 5.38787,-0.55143 11.78294,-1.04998 6.39508,-0.49856 13.12185,-1.09115 14.94837,-1.31688 l 3.32095,-0.41041 -0.35818,3.6223 c -0.19699,1.99226 -0.37092,4.05225 -0.38652,4.57776 -0.0173,0.58152 5.04745,5.00565 12.94093,11.30413 l 12.96927,10.34866 1.29024,-1.5699 c 0.70963,-0.86345 1.2857,-1.7722 1.28015,-2.01945 -0.008,-0.3536 -21.27525,-17.63319 -23.24285,-18.88471 -0.51029,-0.32457 4.8363,-46.39142 5.45996,-47.0437 0.20105,-0.21029 11.98108,1.4602 26.17785,3.71221 l 25.81229,4.09454 16.24122,10.38732 c 8.93268,5.71303 16.36751,10.38448 16.52186,10.38102 0.15436,-0.003 0.7998,-0.89006 1.43434,-1.9702 0.93916,-1.59872 3.5125,-3.2941 13.83889,-9.11737 6.97685,-3.9344 13.0978,-7.16911 13.60208,-7.18825 1.18707,-0.045 35.5992,3.87961 35.87206,4.09114 0.11386,0.0883 -0.66743,1.6756 -1.73622,3.5274 -3.54298,6.13862 -3.72986,8.12777 -0.86213,9.17632 0.85601,0.31298 7.95735,0.96572 15.78074,1.45052 7.8234,0.4848 14.43161,1.07497 14.68492,1.31147 0.25331,0.23651 -1.11638,5.93864 -3.04375,12.6714 -5.54906,19.38408 -7.06919,25.18034 -7.03252,26.81482 0.0695,3.0981 2.91303,3.46263 36.04125,4.62033 3.67477,0.12843 6.68372,0.33707 6.68656,0.46366 0.003,0.12658 -3.66682,5.35583 -8.15479,11.62056 -9.42765,13.15999 -12.52788,17.86139 -13.62468,20.66139 -1.2766,3.259 -0.0491,4.25681 13.46863,10.94815 6.58386,3.25906 13.05284,6.51561 14.3755,7.23677 l 2.40484,1.31123 -5.64517,7.05599 c -6.46534,8.08112 -17.38224,22.44768 -20.29104,26.70286 -4.18871,6.12751 -3.52901,6.86905 9.10433,10.23403 3.45817,0.92111 6.61527,1.78079 7.01576,1.91041 0.41351,0.13382 -4.57893,5.69479 -11.55275,12.86838 -6.75453,6.948 -12.58595,13.28498 -12.95871,14.08219 -0.89724,1.91889 -0.5643,2.77746 3.46767,8.94236 1.88265,2.87858 3.34333,5.30397 3.24595,5.38974 -0.0974,0.0858 -8.01508,4.08342 -17.59489,8.88365 -22.89294,11.47115 -25.23537,12.79822 -25.4269,14.40523 -0.20665,1.7339 1.33932,5.42963 7.00413,16.74368 2.63036,5.2535 4.60902,9.71714 4.39703,9.91921 -0.21198,0.20208 -4.32526,1.40327 -9.14061,2.66933 -14.69304,3.86309 -27.8125,7.76513 -30.52641,9.07927 -2.51088,1.21582 -2.56619,1.29991 -2.15312,3.27337 0.4538,2.168 1.84584,4.98477 3.71837,7.52405 0.63646,0.86308 1.06694,1.63833 0.95661,1.72277 -0.11032,0.0845 -7.35492,1.52495 -16.09912,3.20112 -17.68615,3.39025 -23.18097,4.73972 -26.11611,6.41383 -0.0985,0.0562 0.0834,0.56861 0.40429,1.13872 0.32088,0.5701 0.91454,1.87065 1.31924,2.89011 0.4047,1.01945 1.61399,2.5449 2.68728,3.3899 l 1.95147,1.53635 -7.17651,1.79489 -7.17651,1.79488 -60.28315,-13.60549 c -47.44915,-10.70895 -60.554,-13.85604 -61.55534,-14.78238 -0.6997,-0.64729 -18.75396,-21.8646 -40.12057,-47.14956 l -38.84839,-45.97267 -1.19828,-53.98121 -1.19828,-53.9812 11.25391,-9.7696 z m 182.09924,163.59544 c 21.46333,12.68437 39.30706,23.05614 39.65272,23.04838 0.48635,-0.0109 17.91877,-11.37375 22.98559,-14.98252 0.84394,-0.60108 -0.11626,-2.248 -8.69642,-14.91578 -5.3048,-7.83205 -9.75651,-14.49327 -9.89268,-14.80272 -0.14296,-0.32491 -0.61668,-0.19425 -1.1212,0.30925 -0.78829,0.7867 0.013,2.1843 8.20146,14.30464 4.99133,7.38801 9.0804,13.56047 9.08684,13.71658 0.006,0.1561 -4.63139,3.38778 -10.30629,7.18148 L 445.91147,839.89648 408.301,817.6797 c -20.68576,-12.21923 -37.82768,-22.41085 -38.09318,-22.64806 -0.26549,-0.2372 0.29634,-4.81287 1.24849,-10.16813 1.48446,-8.34904 1.60939,-9.78049 0.87659,-10.04299 -0.47003,-0.16837 -0.97944,-0.17558 -1.132,-0.016 -0.23315,0.24386 -4.10762,21.0094 -3.95667,21.20608 0.028,0.0365 17.6119,10.44457 39.07523,23.12893 l 0,0 z m 7.83485,-152.73057 c 5.23427,5.64227 8.11331,9.17081 7.96707,9.76442 -0.12594,0.51123 -1.60919,5.88536 -3.29611,11.94248 -2.34433,8.41771 -2.90679,11.16626 -2.3868,11.66344 0.37418,0.35775 0.84168,0.48169 1.03889,0.27543 0.19722,-0.20628 1.75336,-5.32122 3.45811,-11.36654 1.70476,-6.04534 3.17118,-11.06643 3.25873,-11.15799 0.0876,-0.0916 4.06726,4.08451 8.84379,9.28021 7.52462,8.18489 8.7905,9.33595 9.4773,8.61763 0.6868,-0.71833 -0.28795,-1.99307 -7.29771,-9.5436 -4.44971,-4.79299 -8.57618,-9.32498 -9.16993,-10.0711 -1.06817,-1.34228 -1.04574,-1.47824 2.13188,-12.92418 1.76628,-6.36221 3.20063,-11.90575 3.18744,-12.31899 -0.0133,-0.41324 -0.45658,-0.65793 -0.98534,-0.54374 -0.67452,0.14567 -1.41356,1.82769 -2.47674,5.63702 -3.88579,13.92264 -4.69581,16.57883 -5.052,16.56628 -0.21027,-0.007 -3.78557,-3.74427 -7.94509,-8.30414 -5.72844,-6.27977 -7.73405,-8.14193 -8.26888,-7.6774 -0.38836,0.3373 -0.70038,0.77361 -0.69339,0.96956 0.007,0.19595 3.70096,4.332 8.20878,9.19121 l 0,0 z"
       id="path3807"
       inkscape:connector-curvature="0" />
    <path
       style="fill:none;stroke:#000000;stroke-width:5;stroke-linecap:round;stroke-linejoin:round;stroke-miterlimit:4;stroke-opacity:1;stroke-dasharray:none"
       d="m 252.22089,819.45967 -27.76168,-7.27952 -19.43466,4.1486"
       id="path4500-1"
       inkscape:connector-curvature="0"
       sodipodi:nodetypes="ccc" />
    <path
       style="fill:none;stroke:#000000;stroke-width:5;stroke-linecap:round;stroke-linejoin:round;stroke-miterlimit:4;stroke-opacity:1;stroke-dasharray:none"
       d="m 223.26568,787.90718 -3.00185,2.70745 -15.37836,0.0799"
       id="path4502-7"
       inkscape:connector-curvature="0"
       sodipodi:nodetypes="ccc" />
    <path
       style="fill:none;stroke:#000000;stroke-width:0.99999994px;stroke-linecap:butt;stroke-linejoin:miter;stroke-opacity:1"
       d="m 209.96002,790.41519 c -26.0778,-18.10344 -14.01768,38.24116 -1.66942,25.30631"
       id="path4506-4"
       inkscape:connector-curvature="0"
       sodipodi:nodetypes="cc" />
    <path
       sodipodi:nodetypes="ccc"
       inkscape:connector-curvature="0"
       id="path4508-0"
       d="m 210.40585,790.57729 c 0.40284,-2.2274 -2.80809,-6.82031 -6.89463,-6.86686 -25.84542,-1.52431 -5.38993,53.02086 6.32642,31.71804"
       style="fill:none;stroke:#000000;stroke-width:5;stroke-linecap:butt;stroke-linejoin:miter;stroke-miterlimit:4;stroke-opacity:1;stroke-dasharray:none" />
    <path
       style="fill:none;stroke:#000000;stroke-width:5;stroke-linecap:round;stroke-linejoin:round;stroke-miterlimit:4;stroke-opacity:1;stroke-dasharray:none"
       d="m 180.41678,801.03124 c 9.06989,8.0351 4.75918,13.75895 0.56894,19.50359 l -25.47098,0.13235 0.8204,-19.51081 z"
       id="path3061-4"
       inkscape:connector-curvature="0"
       sodipodi:nodetypes="ccccc" />
    <path
       style="fill:none;stroke:#000000;stroke-width:5;stroke-linecap:round;stroke-linejoin:round;stroke-miterlimit:4;stroke-opacity:1;stroke-dasharray:none"
       d="m 89.966123,774.8693 -20.306115,13.12822 -48.387974,3.72096 c -0.75456,0.39969 -1.275468,0.33534 -1.726723,0.1328 -0.540318,-0.56081 -1.238049,-0.49044 -2.080521,0.15998 l -0.0081,19.84681 c 0.698776,0.68432 1.391465,0.24603 2.085581,0.0788 0.455534,-0.21481 0.969126,-0.31737 1.733717,0.0655 l 48.987435,1.84961 12.114655,13.54628 7.885154,2.22722"
       id="path3063-8"
       inkscape:connector-curvature="0"
       sodipodi:nodetypes="ccccccccccc" />
    <path
       style="fill:none;stroke:#000000;stroke-width:5;stroke-linecap:butt;stroke-linejoin:miter;stroke-miterlimit:4;stroke-opacity:1;stroke-dasharray:none"
       d="m 17.528589,811.63335 -8.8398579,0.3667 -2.7938976,-1.91011 -0.040038,-7.37617 c 1.1705454,-2.06437 0.4704212,-6.28424 -0.045229,-8.33985 l -0.071365,-13.15268 c 8.3980715,-10.16477 11.2862525,7.44604 11.6859715,11.1663"
       id="path3067-82"
       inkscape:connector-curvature="0"
       sodipodi:nodetypes="ccccccc" />
    <path
       style="fill:none;stroke:#000000;stroke-width:5;stroke-linecap:round;stroke-linejoin:round;stroke-miterlimit:4;stroke-opacity:1;stroke-dasharray:none"
       d="m 90.2347,773.49934 92.36226,2.57034 23.4319,8.15719"
       id="path3077-7"
       inkscape:connector-curvature="0"
       sodipodi:nodetypes="ccc" />
    <path
       style="fill:none;stroke:#000000;stroke-width:0.99999994px;stroke-linecap:butt;stroke-linejoin:miter;stroke-opacity:1"
       d="m 14.416499,781.25772 c 0.212894,1.16928 -1.076602,1.61251 -2.11677,2.17622"
       id="path3883-15"
       inkscape:connector-curvature="0"
       sodipodi:nodetypes="cc" />
    <path
       style="fill:none;stroke:#000000;stroke-width:0.99999994px;stroke-linecap:butt;stroke-linejoin:miter;stroke-opacity:1"
       d="m 15.98255,785.21914 c 0.212847,1.16928 -1.076602,1.61251 -2.11677,2.17621"
       id="path3883-1-27"
       inkscape:connector-curvature="0"
       sodipodi:nodetypes="cc" />
    <path
       style="fill:none;stroke:#000000;stroke-width:0.99999994;stroke-linecap:butt;stroke-linejoin:miter;stroke-miterlimit:4;stroke-opacity:1;stroke-dasharray:none"
       d="m 15.234864,783.21821 c 0.212846,1.16926 -1.076602,1.6125 -2.11677,2.17622"
       id="path3883-7-6"
       inkscape:connector-curvature="0"
       sodipodi:nodetypes="cc" />
    <path
       style="fill:#093d00;fill-opacity:1;fill-rule:nonzero;stroke:#000200;stroke-width:5;stroke-linecap:round;stroke-linejoin:round;stroke-miterlimit:4;stroke-opacity:1;stroke-dasharray:none"
       d="m 157.39963,809.08534 c 0.14559,-2.99478 0.27248,-5.67476 0.28197,-5.9555 l 0.0173,-0.51043 11.21284,-0.0583 11.21284,-0.0583 1.31119,1.52422 c 2.52508,2.93537 3.37993,5.66874 2.60546,8.33096 -0.48531,1.66825 -1.00138,2.69319 -2.48604,4.93741 l -1.16692,1.76392 -11.6471,0.0605 -11.6471,0.0605 0.0204,-2.32501 c 0.0112,-1.27876 0.13955,-4.7753 0.28514,-7.77008 z"
       id="path3812-2"
       inkscape:connector-curvature="0" />
    <path
       style="fill:#321500;fill-opacity:0.69411765;fill-rule:nonzero;stroke:#000200;stroke-width:3;stroke-linecap:round;stroke-linejoin:round;stroke-miterlimit:4;stroke-opacity:1;stroke-dasharray:none"
       d="m 7.8686655,780.99089 c 0.9757011,-0.93885 1.6747454,-1.37854 2.3707225,-1.49127 0.945509,-0.15314 1.953628,0.66151 2.861777,2.31257 l 0.370643,0.67366 -0.350564,0.20153 c -0.192815,0.11083 -0.486275,0.2649 -0.652251,0.34238 -0.297303,0.13884 -0.299827,0.14408 -0.180082,0.36809 0.06687,0.12498 0.149436,0.2271 0.183489,0.22692 0.03449,-1.8e-4 0.311951,-0.13201 0.617428,-0.29296 0.305567,-0.16093 0.585422,-0.26163 0.622017,-0.22376 0.112758,0.11679 0.508395,1.25148 0.470565,1.3496 -0.01945,0.0509 -0.296414,0.22847 -0.615036,0.39462 l -0.579425,0.30207 0.125998,0.23561 0.126039,0.2356 0.567378,-0.28359 c 0.312089,-0.15598 0.585207,-0.28369 0.606945,-0.2838 0.02196,-1.2e-4 0.113932,0.24299 0.204952,0.54023 0.31534,1.02992 0.342788,0.91747 -0.306796,1.25612 l -0.576823,0.30077 0.126039,0.23572 0.126087,0.23573 0.495996,-0.2485 c 0.272802,-0.13668 0.513389,-0.23168 0.53456,-0.21113 0.137,0.13277 0.607839,2.47455 0.875683,4.35599 0.177647,1.24744 0.180016,1.38721 0.168232,10.02622 -0.007,4.81863 -0.01635,8.76227 -0.02178,8.76364 -0.067,0.0166 -5.975502,0.26501 -6.4000437,0.26899 l -0.5787926,0.005 -0.8775928,-0.60332 -0.8776883,-0.60333 -0.017364,-3.19823 c -0.01617,-2.98278 -0.00627,-3.22503 0.1402945,-3.59613 0.5946945,-1.50116 0.5763462,-4.64342 -0.045349,-7.53651 -0.1503011,-0.70114 -0.162957,-1.15923 -0.1949815,-7.06151 l -0.03425,-6.31174 0.7125892,-0.6857 0,0 z"
       id="path3828-2"
       inkscape:connector-curvature="0" />
    <path
       style="fill:none;stroke:#000000;stroke-width:6.25;stroke-linecap:butt;stroke-linejoin:miter;stroke-miterlimit:4;stroke-opacity:1;stroke-dasharray:none"
       d="m 430.44332,892.90119 -36.55152,10.04163 33.73986,3.21332 27.31321,9.63996 35.34652,-3.21332 38.55983,8.0333 36.95318,-16.0666 49.80646,-17.67326 -17.67326,-24.0999 25.70655,3.21332 12.85328,-9.63996 24.0999,-11.24661 -30.52654,-20.88658 30.52654,-1.60666 33.73986,-14.45994 -33.73986,-17.67326 19.27992,-8.0333 11.24662,-12.85328 -14.45994,-12.85327 32.13319,-11.24662 27.31322,-20.88658 -40.16649,-12.85328 32.13319,-35.34652 -59.44641,11.24662 54.62643,-36.95317 -32.13319,-4.81998 24.09989,-40.1665 -25.70655,3.21332 0,-35.34651 -53.01978,20.88657 -3.21332,-25.70655 -35.34651,14.45993 -3.21332,-32.13319 -25.70656,17.67326 -8.0333,-22.49324 -33.73986,27.31322 -19.27991,-9.63996 -11.24662,35.34651"
       id="path3860"
       inkscape:connector-curvature="0"
       sodipodi:nodetypes="cccccccccccccccccccccccccccccccccccccc" />
    <path
       style="fill:#9f0000;fill-opacity:1;fill-rule:nonzero;stroke:#000000;stroke-width:6.25;stroke-linecap:round;stroke-linejoin:round;stroke-miterlimit:4;stroke-opacity:1;stroke-dasharray:none"
       d="m 508.59479,913.41394 -18.07311,-3.84638 -17.57621,1.6157 -17.57622,1.6157 -13.53329,-4.78557 c -12.76843,-4.5151 -13.93194,-4.82106 -20.58665,-5.41352 -11.06295,-0.98492 -11.06726,-1.08628 -0.17137,-4.03363 l 9.59119,-2.59443 -0.13548,-1.71825 c -0.0745,-0.94504 0.21646,-2.01033 0.64661,-2.36732 0.7868,-0.65299 2.1738,0.61924 9.85328,9.03801 1.28074,1.40403 2.45448,2.4265 2.60832,2.27216 0.15384,-0.15434 -3.83171,-4.7373 -8.85677,-10.18435 -7.90342,-8.5671 -8.98936,-9.96399 -8.04633,-10.35029 1.12761,-0.46191 42.97975,-7.93803 43.1554,-7.70892 0.0544,0.0709 1.18674,1.86647 2.51633,3.99007 1.3296,2.12359 2.54526,3.73327 2.70147,3.57706 0.15621,-0.15621 -0.75283,-1.92575 -2.02009,-3.93231 -2.28877,-3.62402 -2.29584,-3.65229 -1.06192,-4.24867 1.17338,-0.56713 1.14779,-0.60282 -0.46194,-0.64439 -1.52528,-0.0394 -2.08349,-0.64276 -5.31881,-5.74909 -1.98807,-3.13779 -3.47457,-5.84518 -3.30331,-6.01644 0.17125,-0.17125 10.18148,-2.82438 22.24496,-5.89583 12.06347,-3.07146 22.15437,-5.66563 22.4242,-5.76482 0.26984,-0.0992 -2.80971,-6.41262 -6.84345,-14.02982 -4.03373,-7.6172 -7.33405,-13.94311 -7.33405,-14.05757 0,-0.22592 44.12513,-22.36452 44.57541,-22.36452 0.15069,0 2.95389,4.08989 6.22934,9.08865 3.27546,4.99875 6.10814,9.08864 6.29486,9.08864 0.45541,0 0.35155,-0.17309 -5.91386,-9.85607 -3.00219,-4.63978 -5.38342,-8.79357 -5.29162,-9.23065 0.0918,-0.43708 -0.16381,-0.79653 -0.56804,-0.79879 -0.64086,-0.003 -7.89562,-10.50508 -8.68887,-12.57741 -0.17853,-0.46641 5.24903,-6.30638 13.83714,-14.88855 l 14.13089,-14.12113 2.63183,0.56131 c 1.44752,0.30873 2.63184,0.3891 2.63184,0.1786 0,-0.21049 -5.18942,-1.59199 -11.53204,-3.07 -14.43612,-3.36403 -15.73388,-3.72479 -15.73388,-4.37392 0,-0.28955 6.6865,-9.16026 14.85888,-19.71269 8.17238,-10.55244 14.91419,-19.26068 14.98178,-19.35165 0.0676,-0.091 4.94782,2.17384 10.84493,5.03291 15.78764,7.65425 18.95861,9.07684 18.95861,8.50537 0,-0.28348 -0.53162,-0.68415 -1.18138,-0.89038 -0.64976,-0.20622 -7.35973,-3.3876 -14.91105,-7.06973 -7.55132,-3.68212 -20.75916,-10.06677 -29.35077,-14.1881 -8.5916,-4.12132 -15.9738,-7.83725 -16.40486,-8.25762 -0.66261,-0.64615 1.04091,-3.2962 11.02028,-17.14345 6.49222,-9.00854 12.29252,-16.92361 12.88954,-17.58904 0.94489,-1.05314 1.57768,-1.18336 4.88485,-1.00522 2.67544,0.1441 3.37925,0.0567 2.37923,-0.29562 -0.78105,-0.27514 -2.40806,-0.52574 -3.61558,-0.55688 l -2.19548,-0.0566 0.93048,-1.4201 c 1.21332,-1.85174 0.43018,-1.83717 -1.0625,0.0198 l -1.15742,1.43987 -19.59738,-0.88493 c -10.77856,-0.48671 -20.95033,-1.0266 -22.60393,-1.19976 -2.75805,-0.28882 -2.9771,-0.41685 -2.65025,-1.54902 0.19596,-0.67879 3.14653,-10.07075 6.5568,-20.871 3.41028,-10.80026 6.2005,-19.89926 6.2005,-20.22 0,-0.36965 -6.34282,-0.85853 -17.32522,-1.33533 -9.52887,-0.41371 -17.32522,-0.96483 -17.32522,-1.22473 0,-0.25989 1.21418,-2.63853 2.69819,-5.28586 2.34016,-4.17465 2.90224,-4.81516 4.23601,-4.82714 1.50144,-0.0135 1.63135,-0.30613 5.49072,-12.36869 2.17409,-6.79517 4.40446,-13.82467 4.95636,-15.6211 0.55191,-1.79642 1.2156,-3.26623 1.47487,-3.26623 0.25928,0 4.31122,1.92311 9.00432,4.27358 l 8.53292,4.27358 15.65251,-12.65217 c 8.60888,-6.95869 15.84292,-12.72326 16.07564,-12.81015 0.23273,-0.0869 2.12261,4.61635 4.19973,10.45165 2.07713,5.83531 3.88878,10.72182 4.02588,10.85893 0.13711,0.13711 5.69974,-3.49557 12.3614,-8.07261 l 12.11212,-8.3219 0.36369,1.88126 c 0.20003,1.03469 0.93904,7.88828 1.64225,15.23019 0.7032,7.34192 1.34252,13.42621 1.42068,13.52066 0.0782,0.0944 8.00136,-3.04584 17.60709,-6.9784 9.60572,-3.93256 17.55161,-7.06346 17.65752,-6.95755 0.10591,0.10591 0.90303,5.84738 1.77137,12.75881 l 1.57879,12.56625 25.84583,-10.17699 c 14.2152,-5.59734 26.03753,-10.17956 26.27185,-10.18272 0.23431,-0.003 0.42603,7.67439 0.42603,17.0612 l 0,17.06695 1.84613,-0.31145 c 4.01833,-0.67791 20.46157,-2.61544 20.64444,-2.43257 0.10706,0.10706 -4.91807,8.7149 -11.16693,19.12854 -6.24888,10.41363 -11.23687,19.05859 -11.08445,19.21102 0.15242,0.15242 6.4236,1.19203 13.93595,2.31025 7.51235,1.1182 13.65882,2.19172 13.65882,2.38556 0,0.19386 -10.54424,7.47028 -23.43165,16.16984 -12.88741,8.69956 -23.53246,15.89698 -23.65567,15.99426 -0.12321,0.0973 0.21745,1.33284 0.75703,2.74571 0.74917,1.96167 1.27204,2.56661 2.21216,2.55939 0.67711,-0.005 11.95388,-2.04203 25.05948,-4.52629 13.10561,-2.48426 23.8938,-4.45142 23.97375,-4.37146 0.08,0.0799 -6.35902,7.29133 -14.30884,16.02529 l -14.45421,15.87991 10.07785,3.22452 c 5.54281,1.77349 14.23163,4.54621 19.30849,6.1616 5.07686,1.61539 9.2197,3.10568 9.20632,3.31175 -0.0134,0.20607 -4.93403,4.10476 -10.93477,8.66376 l -10.91044,8.28907 -17.60924,6.14682 c -9.68508,3.38075 -17.81281,6.32136 -18.06161,6.53469 -0.24879,0.21334 2.94643,3.40659 7.1005,7.09611 4.15408,3.68953 7.63283,6.9083 7.73056,7.15282 0.0977,0.24452 -1.85538,2.69698 -4.34025,5.4499 l -4.51795,5.0053 -11.70462,4.82834 c -6.43755,2.65559 -11.70564,4.97697 -11.70688,5.15863 -10e-4,0.18165 5.55744,3.22299 12.35262,6.75851 6.79518,3.53553 14.23166,7.44892 16.52552,8.69643 l 4.17066,2.26821 -13.68156,5.86133 -13.68156,5.86135 -19.40749,1.01706 -19.4075,1.01707 16.56529,11.33064 c 9.1109,6.23185 16.37277,11.52207 16.13749,11.75604 -0.23528,0.23396 -4.61489,2.37227 -9.73246,4.75179 -6.83874,3.17981 -10.75285,5.41824 -14.76904,8.44623 -3.0054,2.26591 -5.74705,4.28729 -6.09254,4.49194 -0.3455,0.20466 -7.50235,-0.49403 -15.90411,-1.55263 -8.40176,-1.05861 -15.35484,-1.84583 -15.45128,-1.74939 -0.0965,0.0964 4.09477,5.98022 9.3138,13.07506 6.71923,9.13424 9.28077,13.02851 8.77528,13.34092 -0.39263,0.24265 -10.3357,3.83079 -22.09571,7.97363 -14.63694,5.15632 -27.32135,10.1062 -40.2105,15.69147 -10.35575,4.48747 -19.30238,8.12743 -19.8814,8.0888 -0.57901,-0.0386 -9.18565,-1.80111 -19.12585,-3.91663 z"
       id="path3864"
       inkscape:connector-curvature="0" />
    <path
       style="fill:none;stroke:#000000;stroke-width:5;stroke-linecap:round;stroke-linejoin:round;stroke-miterlimit:4;stroke-opacity:1;stroke-dasharray:none"
       d="m 156.25569,802.75568 -26.77671,-0.33275 -65.755475,-5.32387 -8.134698,-3.9929 -7.456806,0 -1.355783,10.64774 6.778915,3.32742 6.778915,-0.66548 75.923842,8.65129 19.65886,1.99645"
       id="path3866"
       inkscape:connector-curvature="0"
       sodipodi:nodetypes="cccccccccc" />
    <path
       style="fill:none;stroke:#000000;stroke-width:1px;stroke-linecap:butt;stroke-linejoin:miter;stroke-opacity:1"
       d="m 48.403316,796.34453 4.036811,0.3731"
       id="path3868"
       inkscape:connector-curvature="0"
       sodipodi:nodetypes="cc" />
    <path
       style="fill:none;stroke:#000000;stroke-width:1px;stroke-linecap:butt;stroke-linejoin:miter;stroke-opacity:1"
       d="m 48.283481,798.57973 4.305558,0.51093"
       id="path3870"
       inkscape:connector-curvature="0"
       sodipodi:nodetypes="cc" />
    <path
       style="fill:none;stroke:#000000;stroke-width:1px;stroke-linecap:butt;stroke-linejoin:miter;stroke-opacity:1"
       d="m 47.564469,801.40313 4.01625,0.32438"
       id="path3872"
       inkscape:connector-curvature="0"
       sodipodi:nodetypes="cc" />
    <path
       style="fill:none;stroke:#000000;stroke-width:5;stroke-linecap:round;stroke-linejoin:round;stroke-miterlimit:4;stroke-opacity:1;stroke-dasharray:none"
       d="m 204.90837,820.3435 -15.33894,8.47022 -99.223718,2.11756 c -0.761278,-6.88935 -1.572804,-13.79515 -1.677696,-20.46971"
       id="path3874"
       inkscape:connector-curvature="0"
       sodipodi:nodetypes="cccc" />
    <path
       style="fill:none;stroke:#000000;stroke-width:5;stroke-linecap:round;stroke-linejoin:round;stroke-miterlimit:4;stroke-opacity:1;stroke-dasharray:none"
       d="m 88.597818,799.00156 c -0.07381,-8.40525 0.625371,-16.81051 1.677696,-25.21576"
       id="path3876"
       inkscape:connector-curvature="0"
       sodipodi:nodetypes="cc" />
    <path
       style="fill:#093d00;fill-opacity:1;fill-rule:nonzero;stroke:#000000;stroke-width:5;stroke-linecap:round;stroke-linejoin:round;stroke-miterlimit:4;stroke-opacity:1;stroke-dasharray:none"
       d="m 91.089443,825.04918 c -0.304529,-2.45872 -0.649799,-6.58796 -0.767267,-9.17608 -0.189535,-4.17592 -0.0024,-4.68196 1.662082,-4.49497 1.031613,0.11589 13.739372,1.49549 28.239452,3.06576 36.99359,4.00618 34.5126,3.59485 34.5126,5.72199 0,1.71807 0.77983,1.82461 13.35628,1.82461 l 13.35629,0 2.05068,-2.8272 c 4.6829,-6.45615 4.35502,-12.40697 -0.95897,-17.40491 l -2.82927,-2.661 -16.08256,1.1068 c -20.69696,1.42437 -31.90558,1.29358 -54.90925,-0.64073 l -18.694325,-1.57194 0.257695,-6.58795 c 0.141732,-3.62338 0.496331,-8.81139 0.787996,-11.52892 l 0.530301,-4.94096 7.840154,0.0733 c 4.312089,0.0403 24.880749,0.59251 45.708149,1.22715 37.74691,1.15021 37.8916,1.16235 45.25161,3.79724 l 7.38363,2.64334 -3.24371,3.00321 c -3.95051,3.65762 -4.71815,6.36353 -4.11545,14.50695 0.52262,7.06162 3.57743,14.91031 7.04964,18.11258 1.27557,1.17641 2.31923,2.4568 2.31923,2.84532 0,0.38851 -2.37846,1.97104 -5.28547,3.51672 l -5.28545,2.81033 -43.36772,1.0282 c -23.85225,0.5655 -45.80783,1.02671 -48.79019,1.0249 l -5.422468,-0.004 -0.553689,-4.4704 z"
       id="path3878"
       inkscape:connector-curvature="0" />
    <path
       style="fill:#321500;fill-opacity:1;fill-rule:nonzero;stroke:#000000;stroke-width:5;stroke-linecap:round;stroke-linejoin:round;stroke-miterlimit:4;stroke-opacity:1;stroke-dasharray:none"
       d="m 84.699739,827.0239 c -0.819893,-0.21727 -4.18351,-3.50026 -7.474706,-7.29552 l -5.983993,-6.90047 -14.095669,-0.60406 c -7.752618,-0.33223 -19.596113,-0.86607 -26.318879,-1.1863 l -12.223217,-0.58225 0,-8.82002 0,-8.82002 3.115725,-0.0177 c 1.713643,-0.01 13.353193,-0.84029 25.865663,-1.8456 l 22.749942,-1.82781 8.72769,-5.76107 c 4.800229,-3.16859 8.872219,-5.6192 9.048865,-5.44578 0.176646,0.17341 0.07758,4.65519 -0.22016,9.95951 l -0.541334,9.64421 -2.976315,-0.0255 c -8.91748,-0.0764 -20.785125,-1.85516 -24.375973,-3.65355 -3.826694,-1.9165 -12.082143,-2.72216 -12.930539,-1.26191 -0.225553,0.38822 -0.69417,3.26886 -1.04137,6.40142 l -0.631274,5.69557 3.414025,1.59823 c 1.942378,0.90931 5.708761,1.59824 8.737511,1.59824 4.566572,0 29.309891,2.59476 29.685435,3.11303 0.07212,0.0995 0.409234,3.88667 0.749151,8.41589 0.639496,8.52098 0.585628,8.64613 -3.280578,7.62154 z"
       id="path3880"
       inkscape:connector-curvature="0" />
    <path
       style="fill:#f4b581;fill-opacity:0.76078431;fill-rule:nonzero;stroke:#000000;stroke-width:3.00000024;stroke-linecap:round;stroke-linejoin:round;stroke-miterlimit:4;stroke-opacity:1;stroke-dasharray:none"
       d="m 144.48517,814.48726 c -5.07995,-0.52838 -26.09035,-2.88304 -46.68978,-5.23256 l -37.453504,-4.27187 -3.219985,0.31886 -3.219984,0.31885 -2.753934,-1.34399 c -2.701327,-1.31833 -2.753935,-1.35419 -2.753935,-1.87723 0,-0.29327 0.0572,-0.56328 0.127105,-0.6 0.06991,-0.0367 0.737207,-0.0121 1.482888,0.0548 1.223262,0.10968 1.846639,0.003 1.569714,-0.26901 -0.05633,-0.0553 -0.585084,-0.13596 -1.175011,-0.17924 -1.900216,-0.13942 -1.869404,-0.12146 -1.750775,-1.02066 0.215558,-1.6339 0.01306,-1.50436 1.987591,-1.27154 1.312831,0.15479 1.770907,0.15806 1.862274,0.0133 0.153797,-0.24368 -0.35247,-0.37987 -1.962754,-0.52801 -0.685386,-0.063 -1.325886,-0.16301 -1.423334,-0.22213 -0.105222,-0.0638 -0.140011,-0.43119 -0.08566,-0.90454 l 0.09151,-0.79704 1.46006,0.11041 c 0.803033,0.0607 1.52679,0.11997 1.608348,0.13164 0.08156,0.0117 0.181085,-0.066 0.22117,-0.17262 0.09415,-0.25042 -0.247246,-0.33753 -1.852346,-0.47265 -1.429127,-0.1203 -1.43213,-0.12335 -1.207494,-1.22597 l 0.10592,-0.51991 2.852835,0 2.852835,0 4.116737,1.99725 4.116737,1.99724 32.962473,2.65599 32.962469,2.65599 12.70085,0.17594 c 6.98546,0.0968 12.71104,0.19267 12.72351,0.21311 0.0125,0.0204 -0.0733,2.13345 -0.19049,4.69557 -0.11724,2.56211 -0.21844,5.08887 -0.22489,5.61501 -0.01,0.80398 -0.0591,0.95337 -0.3083,0.93618 -0.16312,-0.0113 -4.4529,-0.45277 -9.53285,-0.98116 z"
       id="path3886"
       inkscape:connector-curvature="0" />
    <path
       style="fill:#f4b581;fill-opacity:0.76078431000000002;fill-rule:nonzero;stroke:#000000;stroke-width:2.5;stroke-linecap:round;stroke-linejoin:round;stroke-miterlimit:4;stroke-opacity:1;stroke-dasharray:none"
       d="m 200.38597,814.65224 c -3.08565,-3.50548 -5.32972,-10.64814 -5.35495,-17.04426 -0.0223,-5.64851 1.34778,-8.89734 4.21175,-9.98737 1.27814,-0.48647 1.87462,-0.4952 3.80943,-0.0558 2.16854,0.49249 2.23354,0.54158 1.1886,0.8975 -1.11751,0.38065 -1.70343,1.59505 -1.43702,2.97841 0.29494,1.53149 1.74231,1.76692 10.17405,1.65486 l 8.0333,-0.10675 1.44341,-1.10433 1.44341,-1.10433 10.078,11.94227 c 5.5429,6.56824 10.04472,11.9706 10.00404,12.00524 -0.0407,0.0346 -4.44497,-1.07637 -9.7873,-2.46891 l -9.71335,-2.5319 -9.36574,1.98268 c -11.50239,2.43501 -11.90939,2.56168 -12.22112,3.80372 -0.13431,0.53513 -0.38999,0.97296 -0.56818,0.97296 -0.17819,0 -1.05044,-0.8253 -1.93833,-1.834 z"
       id="path3888"
       inkscape:connector-curvature="0" />
  </g>
</svg>
