<?xml version="1.0" encoding="UTF-8" standalone="no"?>
<!-- Created with Inkscape (http://www.inkscape.org/) -->

<svg
   xmlns:dc="http://purl.org/dc/elements/1.1/"
   xmlns:cc="http://creativecommons.org/ns#"
   xmlns:rdf="http://www.w3.org/1999/02/22-rdf-syntax-ns#"
   xmlns:svg="http://www.w3.org/2000/svg"
   xmlns="http://www.w3.org/2000/svg"
   xmlns:sodipodi="http://sodipodi.sourceforge.net/DTD/sodipodi-0.dtd"
   xmlns:inkscape="http://www.inkscape.org/namespaces/inkscape"
   width="1600"
   height="1600"
   viewBox="0 0 1600 1600"
   id="svg4406"
   version="1.1"
   inkscape:version="0.91 r13725"
   sodipodi:docname="vlak5.svg"
   inkscape:export-filename="/Users/zdenek/dev/ste/ios/ste/gfx/appstoreicon.png"
   inkscape:export-xdpi="57.599998"
   inkscape:export-ydpi="57.599998">
  <defs
     id="defs4408">
    <clipPath
       clipPathUnits="userSpaceOnUse"
       id="clipPath4891">
      <path
         d="m 7876.65,3628.11 -5370.44,-49.42 c 0,0 -101.65,-114.34 -226.97,-144.11 l -13.7,-79.62 -1751.829,-231.44 7362.939,504.59 z"
         id="path4893"
         inkscape:connector-curvature="0" />
    </clipPath>
    <linearGradient
       x1="0"
       y1="0"
       x2="1"
       y2="0"
       gradientUnits="userSpaceOnUse"
       gradientTransform="matrix(7362.94,0,0,-7362.94,513.711,3375.81)"
       spreadMethod="pad"
       id="linearGradient4895">
      <stop
         style="stop-opacity:1;stop-color:#182a47"
         offset="0"
         id="stop4897" />
      <stop
         style="stop-opacity:1;stop-color:#2b54aa"
         offset="0.206061"
         id="stop4899" />
      <stop
         style="stop-opacity:1;stop-color:#447ec9"
         offset="0.393939"
         id="stop4901" />
      <stop
         style="stop-opacity:1;stop-color:#65bee7"
         offset="0.539394"
         id="stop4903" />
      <stop
         style="stop-opacity:1;stop-color:#7dd5ee"
         offset="0.666667"
         id="stop4905" />
      <stop
         style="stop-opacity:1;stop-color:#a0e0f4"
         offset="0.830303"
         id="stop4907" />
      <stop
         style="stop-opacity:1;stop-color:#cfeff6"
         offset="1"
         id="stop4909" />
    </linearGradient>
    <clipPath
       clipPathUnits="userSpaceOnUse"
       id="clipPath4865">
      <path
         d="m 1474.5,4827.63 c 0,0 -472.42,-409.31 -610.266,-835.38 0,0 -118.722,-354.03 285.426,-354.03 0,0 -218.972,-41.51 -301.297,125.32 0,0 82.235,-289.02 425.287,-289.02 l -139.38,-11.76 -2.95,-54.88 -971.715,-92.18 969.995,60.13 1051.11,5.49 28.2,75.18 c 0,0 141.5,28.22 269.95,172.33 l 5397.79,-0.72 -5069.48,1472.85 c 0,0 -831.4,163.25 -1332.67,-273.33 z"
         id="path4867"
         inkscape:connector-curvature="0" />
    </clipPath>
    <linearGradient
       x1="0"
       y1="0"
       x2="1"
       y2="0"
       gradientUnits="userSpaceOnUse"
       gradientTransform="matrix(7717.05,0,0,-7717.05,159.604,4223.27)"
       spreadMethod="pad"
       id="linearGradient4869">
      <stop
         style="stop-opacity:1;stop-color:#182a47"
         offset="0"
         id="stop4871" />
      <stop
         style="stop-opacity:1;stop-color:#2b54aa"
         offset="0.206061"
         id="stop4873" />
      <stop
         style="stop-opacity:1;stop-color:#447ec9"
         offset="0.393939"
         id="stop4875" />
      <stop
         style="stop-opacity:1;stop-color:#65bee7"
         offset="0.539394"
         id="stop4877" />
      <stop
         style="stop-opacity:1;stop-color:#7dd5ee"
         offset="0.666667"
         id="stop4879" />
      <stop
         style="stop-opacity:1;stop-color:#a0e0f4"
         offset="0.830303"
         id="stop4881" />
      <stop
         style="stop-opacity:1;stop-color:#cfeff6"
         offset="1"
         id="stop4883" />
    </linearGradient>
  </defs>
  <sodipodi:namedview
     id="base"
     pagecolor="#ffffff"
     bordercolor="#666666"
     borderopacity="1.0"
     inkscape:pageopacity="0.0"
     inkscape:pageshadow="2"
     inkscape:zoom="0.49497475"
     inkscape:cx="534.22368"
     inkscape:cy="912.29381"
     inkscape:document-units="px"
     inkscape:current-layer="layer2"
     showgrid="false"
     units="px"
     inkscape:window-width="1920"
     inkscape:window-height="986"
     inkscape:window-x="0"
     inkscape:window-y="1"
     inkscape:window-maximized="1"
     showguides="false" />
  <metadata
     id="metadata4411">
    <rdf:RDF>
      <cc:Work
         rdf:about="">
        <dc:format>image/svg+xml</dc:format>
        <dc:type
           rdf:resource="http://purl.org/dc/dcmitype/StillImage" />
        <dc:title></dc:title>
      </cc:Work>
    </rdf:RDF>
  </metadata>
  <g
     inkscape:groupmode="layer"
     id="layer2"
     inkscape:label="backround"
     style="display:inline"
     transform="translate(0,520)">
    <rect
       style="color:#000000;clip-rule:nonzero;display:inline;overflow:visible;visibility:visible;opacity:1;isolation:auto;mix-blend-mode:normal;color-interpolation:sRGB;color-interpolation-filters:linearRGB;solid-color:#000000;solid-opacity:1;fill:#000000;fill-opacity:1;fill-rule:nonzero;stroke:none;stroke-width:0.043;stroke-linecap:round;stroke-linejoin:round;stroke-miterlimit:4;stroke-dasharray:none;stroke-dashoffset:0;stroke-opacity:1;color-rendering:auto;image-rendering:auto;shape-rendering:auto;text-rendering:auto;enable-background:accumulate"
       id="rect5131"
       width="1597.8323"
       height="1595.1791"
       x="2.4995685"
       y="-518.03918" />
    <flowRoot
       xml:space="preserve"
       id="flowRoot5244"
       style="font-style:normal;font-weight:normal;font-size:40px;line-height:125%;font-family:Sans;letter-spacing:0px;word-spacing:0px;fill:#000000;fill-opacity:1;stroke:none;stroke-width:1px;stroke-linecap:butt;stroke-linejoin:miter;stroke-opacity:1"><flowRegion
         id="flowRegion5246"><rect
           id="rect5248"
           width="721.42859"
           height="251.42857"
           x="1108.5714"
           y="160" /></flowRegion><flowPara
         id="flowPara5250" /></flowRoot>    <flowRoot
       xml:space="preserve"
       id="flowRoot5252"
       style="font-style:normal;font-weight:normal;font-size:40px;line-height:125%;font-family:Sans;letter-spacing:0px;word-spacing:0px;fill:#000000;fill-opacity:1;stroke:none;stroke-width:1px;stroke-linecap:butt;stroke-linejoin:miter;stroke-opacity:1"
       transform="matrix(1.2462793,0,0,1.5102041,-1336.7084,29.01065)"><flowRegion
         id="flowRegion5254"><rect
           id="rect5256"
           width="655.71429"
           height="252.85715"
           x="1115.7142"
           y="157.14285" /></flowRegion><flowPara
         id="flowPara5258"
         style="font-style:normal;font-variant:normal;font-weight:normal;font-stretch:normal;font-size:180px;font-family:Phosphate;-inkscape-font-specification:Phosphate;fill:#f50f0f;fill-opacity:1">Stop</flowPara></flowRoot>    <flowRoot
       xml:space="preserve"
       id="flowRoot5260"
       style="font-style:normal;font-variant:normal;font-weight:normal;font-stretch:normal;font-size:40px;line-height:125%;font-family:Phosphate;-inkscape-font-specification:Phosphate;letter-spacing:0px;word-spacing:0px;fill:#381ace;fill-opacity:1;stroke:none;stroke-width:1px;stroke-linecap:butt;stroke-linejoin:miter;stroke-opacity:1"
       transform="translate(-1066.7947,-55.708473)"><flowRegion
         id="flowRegion5262"><rect
           id="rect5264"
           width="284.28571"
           height="210"
           x="1582.8572"
           y="535.71429"
           style="font-style:normal;font-variant:normal;font-weight:normal;font-stretch:normal;font-family:Phosphate;-inkscape-font-specification:Phosphate;fill:#381ace;fill-opacity:1" /></flowRegion><flowPara
         id="flowPara5266"
         style="font-style:normal;font-variant:normal;font-weight:normal;font-stretch:normal;font-size:180px;font-family:Phosphate;-inkscape-font-specification:Phosphate;fill:#381ace;fill-opacity:1">THE</flowPara></flowRoot>    <flowRoot
       xml:space="preserve"
       id="flowRoot5268"
       style="font-style:normal;font-weight:normal;font-size:40px;line-height:125%;font-family:Sans;letter-spacing:0px;word-spacing:0px;fill:#000000;fill-opacity:1;stroke:none;stroke-width:1px;stroke-linecap:butt;stroke-linejoin:miter;stroke-opacity:1"
       transform="matrix(1.1061011,0,0,1.3469388,-219.85517,-454.90951)"><flowRegion
         id="flowRegion5270"><rect
           id="rect5272"
           width="924.28571"
           height="247.14285"
           x="888.57141"
           y="772.85712" /></flowRegion><flowPara
         id="flowPara5274"
         style="font-style:normal;font-variant:normal;font-weight:normal;font-stretch:normal;font-size:200px;font-family:Phosphate;-inkscape-font-specification:Phosphate;fill:#edf117;fill-opacity:1">Express</flowPara></flowRoot>  </g>
  <g
     inkscape:label="Vrstva 1"
     inkscape:groupmode="layer"
     id="layer1"
     transform="translate(0,547.63784)"
     style="display:inline">
    <g
       style="display:inline;stroke:#000000;stroke-opacity:1"
       id="g4861"
       transform="matrix(0.20279224,0,0,-0.22316914,-30.265517,871.87779)">
      <g
         style="stroke:#000000;stroke-opacity:1"
         clip-path="url(#clipPath4865)"
         id="g4863">
        <path
           sodipodi:nodetypes="ccsccccccccccccc"
           inkscape:connector-curvature="0"
           id="path4885"
           style="fill:url(#linearGradient4869);fill-opacity:1;fill-rule:nonzero;stroke:#000000;stroke-opacity:1"
           d="m 1474.5,4827.63 c 0,0 -472.42,-409.31 -610.266,-835.38 0,0 -29.0776,-86.7096 -9.46497,-174.3045 20.01719,-89.4017 90.75407,-179.7255 294.89097,-179.7255 0,0 -218.972,-41.51 -301.297,125.32 0,0 82.235,-289.02 425.287,-289.02 l -139.38,-11.76 -2.95,-54.88 -971.715,-92.18 969.995,60.13 1051.11,5.49 28.2,75.18 c 0,0 141.5,28.22 269.95,172.33 l 5397.79,-0.72 -5069.48,1472.85 c 0,0 -831.4,163.25 -1332.67,-273.33" />
      </g>
    </g>
    <g
       style="display:inline;stroke:#000000;stroke-opacity:1"
       id="g4887"
       transform="matrix(0.20279224,0,0,-0.22316914,-30.265517,871.87779)">
      <g
         style="stroke:#000000;stroke-opacity:1"
         clip-path="url(#clipPath4891)"
         id="g4889">
        <path
           inkscape:connector-curvature="0"
           id="path4911"
           style="fill:url(#linearGradient4895);fill-opacity:1;fill-rule:nonzero;stroke:#000000;stroke-opacity:1"
           d="m 7876.65,3628.11 -5370.44,-49.42 c 0,0 -101.65,-114.34 -226.97,-144.11 l -13.7,-79.62 -1751.829,-231.44 7362.939,504.59" />
      </g>
    </g>
    <path
       inkscape:connector-curvature="0"
       id="path4965"
       style="display:inline;fill:#edecec;fill-opacity:1;fill-rule:nonzero;stroke:#000000;stroke-width:0.21273685;stroke-opacity:1"
       d="m 478.36778,-240.97303 c 0,0 -62.2247,48.3363 -95.9795,99.8057 0,0 -104.9267,28.6438 -170.4043,13.8766 0,0 102.6352,-175.3015 266.3838,-113.6823" />
    <path
       inkscape:connector-curvature="0"
       id="path4967"
       style="display:inline;fill:#000000;fill-opacity:1;fill-rule:nonzero;stroke:#000000;stroke-width:0.21273685;stroke-opacity:1"
       d="m 244.18938,-32.11123 43.0549,-46.7116 44.671,0 -50.5033,49.7935 -33.4952,-2.4281 32.3656,-2.2495 38.3865,-42.1254 -26.7198,1.4283 -47.7597,42.2928" />
    <path
       inkscape:connector-curvature="0"
       id="path4969"
       style="display:inline;fill:#050000;fill-opacity:1;fill-rule:nonzero;stroke:#000000;stroke-width:0.21273685;stroke-opacity:1"
       d="m 180.65868,-33.78493 13.9643,-45.0379 -20.9059,0 -16.4758,43.942 18.6903,0.7008 -13.6347,-3.5773 13.6347,-38.2044 13.0598,0.3906 -8.3327,41.7862" />
    <path
       inkscape:connector-curvature="0"
       id="path4971"
       style="display:inline;fill:#000000;fill-opacity:1;fill-rule:nonzero;stroke:#000000;stroke-width:0.21273685;stroke-opacity:1"
       d="m 148.51328,15.04447 c 0,0 0.1965,9.9756 5.7155,16.2645 0,0 104.3041,11.1517 170.0615,-12.9705 0,0 102.4466,-37.7558 185.3582,-43.5225 0,0 74.4938,-2.9705 128.6474,3.8184 156.0547,9.0362 928.76212,83.5613 928.76212,83.5613 L 583.50748,-49.83083 c 0,0 -81.9585,-12.0601 -192.0301,24.6468 0,0 -90.5345,41.4268 -141.9971,43.5225 0,0 -89.4801,0.7498 -100.967,-3.294" />
    <path
       inkscape:connector-curvature="0"
       id="path4973"
       style="display:inline;fill:#000000;fill-opacity:1;fill-rule:nonzero;stroke:#000000;stroke-width:0.21273685;stroke-opacity:1"
       d="m 456.52908,-160.44233 c 0,0 70.3345,-91.9614 182.4076,-61.7554 L 1567.058,62.19567 638.46418,-213.43613 c 0,0 -89.0846,-33.8458 -181.9351,52.9938" />
    <path
       inkscape:connector-curvature="0"
       id="path4975"
       style="display:inline;fill:#edecec;fill-opacity:1;fill-rule:nonzero;stroke:#000000;stroke-width:0.21273685;stroke-opacity:1"
       d="m 1285.8562,-2.9206304 -62.8656,-14.8296996 0,33.3438 62.8656,8.737 0,-27.2511004" />
    <path
       inkscape:connector-curvature="0"
       id="path4977"
       style="display:inline;fill:#edecec;fill-opacity:1;fill-rule:nonzero;stroke:#000000;stroke-width:0.21273685;stroke-opacity:1"
       d="m 1190.5438,-25.83563 -139.9267,-32.7993 0,50.1349996 139.9267,19.3265004 0,-36.6622" />
    <path
       inkscape:connector-curvature="0"
       id="path4979"
       style="display:inline;fill:#edecec;fill-opacity:1;fill-rule:nonzero;stroke:#000000;stroke-width:0.21273685;stroke-opacity:1"
       d="m 732.23328,-52.71653 253.4903,35.214 0,-56.4082 -253.4903,-59.7581 0,80.9523" />
    <path
       inkscape:connector-curvature="0"
       id="path4981"
       style="display:inline;fill:#edecec;fill-opacity:1;fill-rule:nonzero;stroke:#000000;stroke-width:0.21273685;stroke-opacity:1"
       d="m 1391.3082,21.79077 -20.2792,-4.9431 0,19.1322 20.2792,2.9146 0,-17.1037" />
    <path
       inkscape:connector-curvature="0"
       id="path4983"
       style="display:inline;fill:#edecec;fill-opacity:1;fill-rule:nonzero;stroke:#000000;stroke-width:0.21273685;stroke-opacity:1"
       d="m 1348.7218,11.90437 -40.5584,-9.8819004 0,25.2204004 40.5584,5.8269 0,-21.1654" />
    <path
       inkscape:connector-curvature="0"
       id="path4985"
       style="display:inline;fill:#edecec;fill-opacity:1;fill-rule:nonzero;stroke:#000000;stroke-width:0.21273685;stroke-opacity:1"
       d="m 653.14428,-152.08923 -39.1064,-9.4356 c 0,0 -61.9287,-22.5467 -121.9674,75.5115 l 161.0738,22.4398 0,-88.5157" />
    <path
       inkscape:connector-curvature="0"
       id="path4987"
       style="display:inline;fill:#edecec;fill-opacity:1;fill-rule:nonzero;stroke:#000000;stroke-width:0.21273685;stroke-opacity:1"
       d="m 1407.5315,25.38377 0,15.6263 159.5265,21.1856 -159.5265,-36.8119" />
    <path
       inkscape:connector-curvature="0"
       id="path4989"
       style="display:inline;fill:#f0eedd;fill-opacity:1;fill-rule:nonzero;stroke:#000000;stroke-width:0.21273685;stroke-opacity:1"
       d="m 512.64988,103.63577 c 0,3.4056 -1.7704,6.1663 -3.9525,6.1663 -2.184,0 -3.9544,-2.7607 -3.9544,-6.1663 0,-3.4055 1.7704,-6.166 3.9544,-6.166 2.1821,0 3.9525,2.7605 3.9525,6.166" />
    <path
       inkscape:connector-curvature="0"
       id="path4991"
       style="display:inline;fill:#f0eedd;fill-opacity:1;fill-rule:nonzero;stroke:#000000;stroke-width:0.21273685;stroke-opacity:1"
       d="m 504.88498,128.27817 c -8.7242,0 -15.7955,-11.0335 -15.7955,-24.6424 0,-13.6088 7.0713,-24.6378 15.7955,-24.6378 0.1602,0 0.3163,0.029 0.4765,0.034 -1.3688,-0.5758 -2.8026,-0.915 -4.289,-0.915 -9.0344,0 -16.3593,11.4262 -16.3593,25.5195 0,14.0953 7.3249,25.5193 16.3593,25.5193 1.4864,0 2.9202,-0.3348 4.289,-0.915 -0.1602,0 -0.3164,0.037 -0.4765,0.037" />
    <path
       inkscape:connector-curvature="0"
       id="path4993"
       style="display:inline;fill:#000000;fill-opacity:0;fill-rule:nonzero;stroke:#000000;stroke-width:0.21273685;stroke-opacity:1"
       d="m 253.37388,94.89887 c 140.7459,-16.7824 133.8145,-71.316 281.4959,-77.3103 -128.1444,11.1317 -144.3455,71.0169 -281.4959,77.3103" />
    <path
       style="color:#000000;clip-rule:nonzero;display:inline;overflow:visible;visibility:visible;opacity:1;isolation:auto;mix-blend-mode:normal;color-interpolation:sRGB;color-interpolation-filters:linearRGB;solid-color:#000000;solid-opacity:1;fill:#000000;fill-opacity:0;fill-rule:nonzero;stroke:#000000;stroke-width:0.00788348;stroke-linecap:round;stroke-linejoin:round;stroke-miterlimit:4;stroke-dasharray:none;stroke-dashoffset:0;stroke-opacity:1;color-rendering:auto;image-rendering:auto;shape-rendering:auto;text-rendering:auto;enable-background:accumulate"
       d="m -29.938417,188.66257 0,-129.2266 92.4699,0 92.469997,0 1.8862,2.5501 c 3.4004,4.5967 8.6212,10.2211 13.2468,14.271 2.1736,1.903 6.994,5.4889 9.6063,7.1461 9.9252,6.2962 20.9239,10.3395 33.4474,12.2957 1.6811,0.2626 4.0352,0.5377 5.2313,0.6115 1.226,0.075 2.0261,0.1946 1.8339,0.2726 -0.7158,0.291 -5.872,0.8325 -16.2881,1.7109 -2.3348,0.1967 -4.2827,0.3994 -4.3286,0.4499 -0.046,0.05 -0.1613,1.6407 -0.2561,3.5336 -0.2853,5.6876 -0.5666,7.7289 -1.1738,8.5163 -0.2708,0.351 -0.8063,0.441 -5.2791,0.8866 -5.6218,0.5601 -27.8493,2.8655 -60.345,6.2591 -12.104,1.264 -32.932197,3.4279 -46.284897,4.8087 -37.8189,3.9108 -51.7847,5.4224 -61.393,6.6458 -2.0653,0.2629 -6.2703,0.7393 -9.3443,1.0587 -8.771,0.9109 -11.9634,1.2938 -10.8289,1.2992 0.5764,0 1.8218,-0.052 2.7677,-0.1196 0.9458,-0.07 1.7561,-0.061 1.8005,0.02 0.045,0.079 0.8173,0.1446 1.7174,0.1446 1.2005,0 1.7043,-0.075 1.891,-0.2805 0.2842,-0.3132 3.6589,-0.584 15.6645,-1.2574 22.4204,-1.2576 85.811597,-5.4716 149.508897,-9.9391 l 18.0773,-1.268 18.5139,-0.1517 c 10.1827,-0.084 24.2319,-0.2052 31.2205,-0.2696 l 12.7065,-0.1178 0,14.5154 0,14.5153 -0.655,0.1143 c -0.3602,0.062 -27.4958,4.0124 -60.3013,8.7766 -100.332597,14.5706 -116.656297,16.969 -117.925197,17.3272 -0.4159,0.1178 -1.6994,0.3692 -2.8522,0.5597 -2.4776,0.4094 -1.9279,0.4654 2.0086,0.2046 1.5851,-0.1053 4.9647,-0.2835 7.5104,-0.3969 5.2178,-0.2323 13.917497,-0.8189 26.897597,-1.8139 20.9524,-1.6063 35.1028,-2.6845 51.874,-3.9528 9.8465,-0.7446 23.0115,-1.7416 29.2556,-2.2154 6.2441,-0.4739 22.828,-1.7243 36.8532,-2.7789 14.0252,-1.0544 25.913,-1.9653 26.4173,-2.0241 l 0.917,-0.1071 0,78.3265 0,78.3266 -144.2691,0 -144.269097,0 0,-129.2265 z"
       id="path5106"
       inkscape:connector-curvature="0" />
    <path
       style="color:#000000;clip-rule:nonzero;display:inline;overflow:visible;visibility:visible;opacity:1;isolation:auto;mix-blend-mode:normal;color-interpolation:sRGB;color-interpolation-filters:linearRGB;solid-color:#000000;solid-opacity:1;fill:#000000;fill-opacity:0;fill-rule:nonzero;stroke:#000000;stroke-width:0.03153389;stroke-linecap:round;stroke-linejoin:round;stroke-miterlimit:4;stroke-dasharray:none;stroke-dashoffset:0;stroke-opacity:1;color-rendering:auto;image-rendering:auto;shape-rendering:auto;text-rendering:auto;enable-background:accumulate"
       d="m 1549.2275,59.88327 c -3.0739,-0.3842 -33.884,-4.4923 -68.4666,-9.1291 -34.5827,-4.6367 -64.6067,-8.6356 -66.7201,-8.886 -6.6866,-0.7927 -6.2878,-0.2282 -6.2878,-8.9007 0,-6.9743 0.1149,-7.6592 1.2226,-7.2877 1.0974,0.368 28.9941,6.7762 117.8955,27.0817 27.2914,6.2334 33.905,7.9861 29.6921,7.8689 -0.9605,-0.027 -4.2617,-0.3629 -7.3357,-0.7471 z"
       id="path5108"
       inkscape:connector-curvature="0" />
    <path
       style="color:#000000;clip-rule:nonzero;display:inline;overflow:visible;visibility:visible;opacity:1;isolation:auto;mix-blend-mode:normal;color-interpolation:sRGB;color-interpolation-filters:linearRGB;solid-color:#000000;solid-opacity:1;fill:#000000;fill-opacity:0;fill-rule:nonzero;stroke:#000000;stroke-width:0.03153389;stroke-linecap:round;stroke-linejoin:round;stroke-miterlimit:4;stroke-dasharray:none;stroke-dashoffset:0;stroke-opacity:1;color-rendering:auto;image-rendering:auto;shape-rendering:auto;text-rendering:auto;enable-background:accumulate"
       d="m 1514.2956,55.87427 c -21.9024,-2.5924 -40.1535,-4.9514 -40.5581,-5.2424 -0.4046,-0.2908 -12.5085,-2.1287 -26.8977,-4.0838 -14.389,-1.9551 -29.1486,-3.979 -32.799,-4.4973 l -6.6371,-0.9423 -0.1991,-7.8675 c -0.1454,-5.741 0.028,-7.8675 0.6419,-7.8675 0.4625,0 9.9837,2.1053 21.1583,4.6783 19.9294,4.5891 43.733,9.9475 44.1893,9.9475 0.1271,0 0.231,-1.1944 0.231,-2.6543 0,-2.5481 0.077,-2.6268 1.9213,-1.9702 1.0567,0.3762 19.8413,5.9512 41.7437,12.3886 21.9024,6.4375 40.1211,12.0004 40.4861,12.3621 0.9784,0.9695 0.093,0.8824 -43.2806,-4.2512 z"
       id="path5110"
       inkscape:connector-curvature="0" />
    <path
       style="color:#000000;clip-rule:nonzero;display:inline;overflow:visible;visibility:visible;opacity:1;isolation:auto;mix-blend-mode:normal;color-interpolation:sRGB;color-interpolation-filters:linearRGB;solid-color:#000000;solid-opacity:1;fill:#000000;fill-opacity:0;fill-rule:nonzero;stroke:#000000;stroke-width:0.03153389;stroke-linecap:round;stroke-linejoin:round;stroke-miterlimit:4;stroke-dasharray:none;stroke-dashoffset:0;stroke-opacity:1;color-rendering:auto;image-rendering:auto;shape-rendering:auto;text-rendering:auto;enable-background:accumulate"
       d="m 1549.2275,59.88327 c -3.0739,-0.3842 -33.884,-4.4923 -68.4666,-9.1291 -34.5827,-4.6367 -64.6067,-8.6356 -66.7201,-8.886 -6.6866,-0.7927 -6.2878,-0.2282 -6.2878,-8.9007 0,-6.9743 0.1149,-7.6592 1.2226,-7.2877 1.0974,0.368 28.9941,6.7762 117.8955,27.0817 27.2914,6.2334 33.905,7.9861 29.6921,7.8689 -0.9605,-0.027 -4.2617,-0.3629 -7.3357,-0.7471 z"
       id="path5112"
       inkscape:connector-curvature="0" />
    <path
       style="color:#000000;clip-rule:nonzero;display:inline;overflow:visible;visibility:visible;opacity:1;isolation:auto;mix-blend-mode:normal;color-interpolation:sRGB;color-interpolation-filters:linearRGB;solid-color:#000000;solid-opacity:1;fill:#000000;fill-opacity:1;fill-rule:nonzero;stroke:#000000;stroke-width:0.03153389;stroke-linecap:round;stroke-linejoin:round;stroke-miterlimit:4;stroke-dasharray:none;stroke-dashoffset:0;stroke-opacity:1;color-rendering:auto;image-rendering:auto;shape-rendering:auto;text-rendering:auto;enable-background:accumulate"
       d="m 1549.2275,59.88327 c -3.0739,-0.3842 -33.884,-4.4923 -68.4666,-9.1291 -34.5827,-4.6367 -64.6067,-8.6356 -66.7201,-8.886 -6.6866,-0.7927 -6.2878,-0.2282 -6.2878,-8.9007 0,-6.9743 0.1149,-7.6592 1.2226,-7.2877 1.0974,0.368 28.9941,6.7762 117.8955,27.0817 27.2914,6.2334 33.905,7.9861 29.6921,7.8689 -0.9605,-0.027 -4.2617,-0.3629 -7.3357,-0.7471 z"
       id="path5114"
       inkscape:connector-curvature="0" />
    <g
       style="display:inline"
       transform="matrix(1.6476545,-0.12281722,-0.13545424,-1.6054949,-344.84492,276.92517)"
       id="g4256">
      <path
         inkscape:connector-curvature="0"
         id="path4258"
         style="fill:#3667b8;fill-opacity:1;fill-rule:nonzero;stroke:none;stroke-width:0.10006095;stroke-opacity:1"
         d="m 282.6879,28.7012 c 0,-0.6383 0.0971,-1.1793 0.29736,-1.6262 0.19824,-0.4461 0.46957,-0.7859 0.81199,-1.0109 0.34442,-0.2282 0.72188,-0.3399 1.13138,-0.3399 0.4125,0 0.78896,0.1059 1.13238,0.3207 0.34041,0.2192 0.61474,0.5473 0.81999,0.9903 0.20025,0.4457 0.30237,1.0007 0.30237,1.666 0,0.6258 -0.10212,1.1629 -0.30237,1.6148 -0.20525,0.45 -0.48058,0.7942 -0.828,1.0309 -0.34943,0.239 -0.72989,0.3562 -1.1424,0.3562 -0.43152,0 -0.81599,-0.1191 -1.1544,-0.364 -0.33942,-0.2469 -0.60274,-0.595 -0.78796,-1.052 -0.18823,-0.4539 -0.28034,-0.982 -0.28034,-1.5859 m 4.62563,-3.4492 0,0.2332 c -0.31438,-0.3641 -0.62576,-0.6571 -0.93414,-0.884 -0.30737,-0.2282 -0.63978,-0.3992 -0.99921,-0.518 -0.36044,-0.118 -0.75092,-0.1762 -1.17644,-0.1762 -0.56268,0 -1.08332,0.12 -1.5649,0.3582 -0.47758,0.2399 -0.89309,0.5789 -1.24252,1.0188 -0.35343,0.441 -0.61675,0.9629 -0.79797,1.5601 -0.18122,0.595 -0.27233,1.2391 -0.27233,1.9348 0,1.468 0.36144,2.6133 1.07931,3.4332 0.71588,0.8199 1.66203,1.2309 2.83346,1.2309 0.67782,0 1.24952,-0.1168 1.71508,-0.3489 0.46457,-0.2339 0.91712,-0.589 1.35966,-1.073 l 0,3.4687 c 0,0.4832 0.0981,0.8473 0.28935,1.0942 0.19124,0.2469 0.46557,0.3711 0.822,0.3711 0.35544,0 0.63077,-0.116 0.82501,-0.3422 0.19123,-0.2238 0.28835,-0.5598 0.28835,-1.0027 l 0,-10.3582 c 0,-0.4469 -0.10513,-0.7829 -0.31138,-1.0071 -0.20625,-0.225 -0.47458,-0.3379 -0.80198,-0.3379 -0.32239,0 -0.58771,0.1149 -0.79597,0.3489 -0.21025,0.2312 -0.31538,0.5671 -0.31538,0.9961" />
      <path
         inkscape:connector-curvature="0"
         id="path4260"
         style="fill:#3667b8;fill-opacity:1;fill-rule:nonzero;stroke:none;stroke-width:0.10006095;stroke-opacity:1"
         d="m 293.86151,29.4398 4.26319,0 c -0.0561,0.8043 -0.27434,1.4043 -0.65079,1.8024 -0.37646,0.4 -0.86906,0.6008 -1.48381,0.6008 -0.58672,0 -1.0683,-0.202 -1.44376,-0.6078 -0.37546,-0.4032 -0.60474,-1.0043 -0.68483,-1.7954 m 4.6006,-1.332 -4.6006,0 c 0.005,-0.5348 0.11313,-1.0047 0.32239,-1.4117 0.21126,-0.4063 0.48859,-0.7152 0.83602,-0.9199 0.34842,-0.2071 0.73089,-0.3102 1.1504,-0.3102 0.28234,0 0.53765,0.0352 0.77194,0.0961 0.23128,0.066 0.45655,0.175 0.67582,0.3121 0.21827,0.1418 0.41751,0.293 0.60374,0.4528 0.18222,0.1582 0.42051,0.3761 0.71387,0.6519 0.12014,0.1031 0.29235,0.159 0.51663,0.159 0.24129,0 0.43553,-0.0699 0.58371,-0.2008 0.15218,-0.1308 0.22727,-0.3172 0.22727,-0.5582 0,-0.2117 -0.0851,-0.4609 -0.2493,-0.7457 -0.16921,-0.282 -0.41951,-0.5582 -0.75592,-0.8184 -0.33441,-0.2578 -0.75592,-0.4769 -1.26654,-0.65 -0.50762,-0.1707 -1.09233,-0.2578 -1.75314,-0.2578 -1.51084,0 -2.68527,0.4309 -3.52329,1.291 -0.83902,0.8622 -1.25753,2.0282 -1.25753,3.5032 0,0.6937 0.10412,1.341 0.31038,1.934 0.20725,0.5918 0.50661,1.1019 0.9041,1.525 0.39748,0.423 0.88508,0.75 1.46478,0.98 0.58071,0.2227 1.22349,0.3368 1.93035,0.3368 0.91912,0 1.70708,-0.1938 2.36388,-0.5809 0.6588,-0.3879 1.1504,-0.8879 1.4788,-1.5012 0.3264,-0.6148 0.4906,-1.241 0.4906,-1.8758 0,-0.5902 -0.17121,-0.975 -0.50962,-1.1519 -0.33741,-0.1731 -0.81399,-0.2594 -1.42874,-0.2594" />
      <path
         inkscape:connector-curvature="0"
         id="path4262"
         style="fill:#3667b8;fill-opacity:1;fill-rule:nonzero;stroke:none;stroke-width:0.10006095;stroke-opacity:1"
         d="m 309.95411,26.9789 c 0,-0.6457 -0.15719,-1.2019 -0.47358,-1.6641 -0.31438,-0.4609 -0.78095,-0.8089 -1.3967,-1.0507 -0.61875,-0.2371 -1.37267,-0.3559 -2.25274,-0.3559 -0.84804,0 -1.57292,0.1297 -2.17365,0.3867 -0.60574,0.2582 -1.04828,0.5821 -1.33663,0.9711 -0.28535,0.3828 -0.42952,0.7738 -0.42952,1.1621 0,0.259 0.0911,0.4809 0.27333,0.6641 0.18523,0.1828 0.41651,0.2769 0.69885,0.2769 0.2483,0 0.43653,-0.0621 0.56869,-0.182 0.13317,-0.1211 0.26132,-0.2891 0.38047,-0.507 0.24029,-0.4199 0.52964,-0.7321 0.86405,-0.9379 0.33841,-0.2063 0.79697,-0.3109 1.37668,-0.3109 0.46957,0 0.85804,0.1046 1.15841,0.3156 0.30036,0.2082 0.45055,0.448 0.45055,0.7172 0,0.4148 -0.1582,0.716 -0.47058,0.905 -0.31338,0.1872 -0.827,0.3688 -1.54388,0.5399 -0.81099,0.2031 -1.46779,0.4121 -1.97841,0.632 -0.50561,0.2231 -0.91311,0.5129 -1.21748,0.875 -0.30537,0.3602 -0.45556,0.8059 -0.45556,1.3352 0,0.466 0.13817,0.9136 0.41952,1.334 0.28034,0.4168 0.69885,0.75 1.24351,1.0019 0.54967,0.25 1.21348,0.3738 1.98842,0.3738 0.60674,0 1.15241,-0.0629 1.64,-0.1898 0.48459,-0.1289 0.88908,-0.2961 1.21648,-0.509 0.3234,-0.2152 0.5697,-0.4449 0.7399,-0.7051 0.16921,-0.2609 0.25431,-0.5109 0.25431,-0.757 0,-0.2691 -0.0891,-0.4918 -0.27333,-0.659 -0.17722,-0.1758 -0.43653,-0.259 -0.76894,-0.259 -0.24229,0 -0.44754,0.0668 -0.61575,0.2032 -0.1692,0.139 -0.36344,0.3468 -0.58271,0.6179 -0.17821,0.2321 -0.38447,0.4168 -0.62976,0.5539 -0.2423,0.1371 -0.5677,0.2059 -0.9802,0.2059 -0.42752,0 -0.77895,-0.091 -1.06129,-0.2738 -0.28134,-0.1801 -0.42151,-0.4032 -0.42151,-0.6719 0,-0.2492 0.10412,-0.45 0.31037,-0.6082 0.20626,-0.157 0.48459,-0.286 0.83602,-0.3918 0.34743,-0.1024 0.83101,-0.2301 1.44576,-0.377 0.73189,-0.1793 1.32662,-0.3902 1.79018,-0.6363 0.46056,-0.2488 0.81099,-0.5387 1.04928,-0.875 0.23929,-0.334 0.35744,-0.718 0.35744,-1.15" />
      <path
         inkscape:connector-curvature="0"
         id="path4264"
         style="fill:#3667b8;fill-opacity:1;fill-rule:nonzero;stroke:none;stroke-width:0.10006095;stroke-opacity:1"
         d="m 314.2984,32.1281 0,-6.791 c 0,-0.4723 -0.11414,-0.8262 -0.33841,-1.068 -0.22428,-0.241 -0.50662,-0.3621 -0.85104,-0.3621 -0.34542,0 -0.62776,0.125 -0.84002,0.3711 -0.21727,0.2469 -0.3234,0.6 -0.3234,1.059 l 0,6.7199 c 0,0.4649 0.10613,0.816 0.3234,1.05 0.21226,0.2352 0.4946,0.3539 0.84002,0.3539 0.34442,0 0.62676,-0.1187 0.85104,-0.3539 0.22427,-0.234 0.33841,-0.564 0.33841,-0.9789 m -1.16342,2.4239 c -0.3284,0 -0.60774,0.1011 -0.84102,0.3019 -0.23229,0.2 -0.34843,0.484 -0.34843,0.85 0,0.3332 0.11815,0.609 0.35844,0.8231 0.23629,0.2152 0.51262,0.3222 0.83101,0.3222 0.30137,0 0.5727,-0.0953 0.80799,-0.2902 0.23628,-0.1969 0.35543,-0.482 0.35543,-0.8551 0,-0.3578 -0.11614,-0.643 -0.34442,-0.8469 -0.23128,-0.2039 -0.50462,-0.305 -0.819,-0.305" />
      <path
         inkscape:connector-curvature="0"
         id="path4266"
         style="fill:#3667b8;fill-opacity:1;fill-rule:nonzero;stroke:none;stroke-width:0.10006095;stroke-opacity:1"
         d="m 318.55959,28.7629 c 0,-0.9539 0.20925,-1.6758 0.62576,-2.1598 0.41751,-0.4902 0.95717,-0.7332 1.61497,-0.7332 0.39047,0 0.76092,0.1043 1.10735,0.3141 0.34742,0.209 0.63177,0.525 0.85003,0.9469 0.21727,0.4222 0.3284,0.932 0.3284,1.5371 0,0.957 -0.21326,1.7019 -0.63477,2.2379 -0.42151,0.532 -0.97819,0.798 -1.66803,0.798 -0.67182,0 -1.20948,-0.2527 -1.61397,-0.7668 -0.40649,-0.509 -0.60974,-1.2351 -0.60974,-2.1742 m 6.8153,2.975 0,-6.8199 c 0,-0.7828 -0.0821,-1.452 -0.2473,-2.016 -0.16821,-0.5641 -0.43553,-1.027 -0.80298,-1.393 -0.36645,-0.3668 -0.84903,-0.641 -1.44376,-0.8211 -0.59472,-0.1727 -1.33362,-0.2617 -2.2157,-0.2617 -0.81098,0 -1.53487,0.1109 -2.17264,0.3367 -0.63878,0.2281 -1.12637,0.5191 -1.4738,0.8773 -0.34442,0.3598 -0.51462,0.7278 -0.51462,1.1078 0,0.2852 0.0971,0.5192 0.29335,0.7008 0.19324,0.1801 0.42852,0.2723 0.70586,0.2723 0.34042,0 0.64379,-0.1539 0.9021,-0.4559 0.12716,-0.1574 0.25731,-0.3132 0.39248,-0.4703 0.13516,-0.157 0.28735,-0.2929 0.44754,-0.4047 0.1632,-0.1121 0.36044,-0.1953 0.59072,-0.25 0.22828,-0.0543 0.49461,-0.0832 0.79197,-0.0832 0.60774,0 1.08332,0.0832 1.41973,0.2551 0.33641,0.168 0.56869,0.4059 0.70586,0.709 0.13516,0.307 0.21326,0.6301 0.23528,0.9801 0.025,0.3429 0.041,0.9 0.0541,1.6718 -0.36344,-0.5058 -0.78195,-0.8898 -1.25653,-1.1539 -0.47258,-0.2632 -1.03726,-0.3949 -1.69206,-0.3949 -0.78396,0 -1.4728,0.1996 -2.06352,0.602 -0.59071,0.4008 -1.04026,0.9617 -1.35665,1.6867 -0.31438,0.7242 -0.47357,1.5582 -0.47357,2.5051 0,0.7039 0.0961,1.3402 0.28935,1.909 0.19223,0.5679 0.46757,1.0472 0.823,1.4382 0.35643,0.3918 0.76693,0.686 1.2325,0.8809 0.46357,0.1961 0.97619,0.2961 1.53287,0.2961 0.66381,0 1.24251,-0.1274 1.73311,-0.3832 0.48459,-0.2527 0.93814,-0.6559 1.36266,-1.2 l 0,0.318 c 0,0.4062 0.0991,0.7218 0.29936,0.9472 0.19925,0.2238 0.45756,0.3367 0.77395,0.3367 0.45355,0 0.75291,-0.15 0.9041,-0.4449 0.14818,-0.2941 0.22327,-0.7191 0.22327,-1.2781" />
      <path
         inkscape:connector-curvature="0"
         id="path4268"
         style="fill:#3667b8;fill-opacity:1;fill-rule:nonzero;stroke:none;stroke-width:0.10006095;stroke-opacity:1"
         d="m 329.89339,32.1609 0,-0.2839 c 0.41251,0.5449 0.86205,0.946 1.35365,1.2 0.4926,0.2531 1.05729,0.3839 1.69306,0.3839 0.62176,0 1.17443,-0.1347 1.66603,-0.407 0.48359,-0.268 0.84904,-0.65 1.09033,-1.1437 0.15719,-0.2872 0.25631,-0.5961 0.30137,-0.9282 0.046,-0.3359 0.0691,-0.7578 0.0691,-1.275 l 0,-4.3699 c 0,-0.4711 -0.10813,-0.8262 -0.32139,-1.068 -0.21426,-0.2402 -0.49861,-0.3609 -0.83902,-0.3609 -0.35343,0 -0.63678,0.1238 -0.85404,0.3699 -0.21927,0.2469 -0.3264,0.6 -0.3264,1.059 l 0,3.9149 c 0,0.7742 -0.10813,1.366 -0.32339,1.7789 -0.21827,0.4089 -0.64479,0.614 -1.28857,0.614 -0.42152,0 -0.80098,-0.1258 -1.1454,-0.375 -0.34642,-0.2469 -0.59973,-0.591 -0.76192,-1.0277 -0.11014,-0.3512 -0.17021,-1.0063 -0.17021,-1.9633 l 0,-2.9418 c 0,-0.4781 -0.11014,-0.8312 -0.33141,-1.073 -0.22127,-0.2371 -0.50862,-0.3559 -0.85804,-0.3559 -0.33841,0 -0.61475,0.1238 -0.83502,0.3699 -0.21726,0.2469 -0.32539,0.6 -0.32539,1.059 l 0,6.791 c 0,0.4457 0.0961,0.7789 0.29135,1.0008 0.19424,0.2203 0.46156,0.332 0.80198,0.332 0.20725,0 0.39348,-0.0507 0.55968,-0.1461 0.1642,-0.0988 0.29936,-0.2468 0.40049,-0.4386 0.10012,-0.1973 0.15318,-0.4313 0.15318,-0.7153" />
      <path
         inkscape:connector-curvature="0"
         id="path4270"
         style="fill:#3667b8;fill-opacity:1;fill-rule:nonzero;stroke:none;stroke-width:0.10006095;stroke-opacity:1"
         d="m 340.37516,29.4398 4.26419,0 c -0.0601,0.8043 -0.27333,1.4043 -0.65079,1.8024 -0.37345,0.4 -0.87206,0.6008 -1.48481,0.6008 -0.58671,0 -1.0673,-0.202 -1.44476,-0.6078 -0.37545,-0.4032 -0.60373,-1.0043 -0.68383,-1.7954 m 4.6006,-1.332 -4.6006,0 c 0.006,-0.5348 0.11314,-1.0047 0.32239,-1.4117 0.20926,-0.4063 0.4906,-0.7152 0.83502,-0.9199 0.34842,-0.2071 0.73289,-0.3102 1.1524,-0.3102 0.28035,0 0.53866,0.0352 0.76994,0.0961 0.23128,0.066 0.45756,0.175 0.67783,0.3121 0.21726,0.1418 0.41951,0.293 0.60273,0.4528 0.18322,0.1582 0.42051,0.3761 0.71387,0.6519 0.12115,0.1031 0.29336,0.159 0.51563,0.159 0.2433,0 0.43653,-0.0699 0.58771,-0.2008 0.14819,-0.1308 0.22428,-0.3172 0.22428,-0.5582 0,-0.2117 -0.0821,-0.4609 -0.25031,-0.7457 -0.1662,-0.282 -0.41851,-0.5582 -0.75492,-0.8184 -0.3354,-0.2578 -0.75792,-0.4769 -1.26554,-0.65 -0.50962,-0.1707 -1.09433,-0.2578 -1.75213,-0.2578 -1.51284,0 -2.68627,0.4309 -3.52329,1.291 -0.84203,0.8622 -1.26154,2.0282 -1.26154,3.5032 0,0.6937 0.10613,1.341 0.31138,1.934 0.20725,0.5918 0.50862,1.1019 0.9071,1.525 0.39549,0.423 0.88208,0.75 1.46279,0.98 0.5807,0.2227 1.22349,0.3368 1.93035,0.3368 0.91912,0 1.70708,-0.1938 2.36588,-0.5809 0.6558,-0.3879 1.1484,-0.8879 1.4778,-1.5012 0.3274,-0.6148 0.4896,-1.241 0.4896,-1.8758 0,-0.5902 -0.17221,-0.975 -0.50662,-1.1519 -0.34042,-0.1731 -0.816,-0.2594 -1.43175,-0.2594" />
      <path
         inkscape:connector-curvature="0"
         id="path4272"
         style="fill:#3667b8;fill-opacity:1;fill-rule:nonzero;stroke:none;stroke-width:0.10006095;stroke-opacity:1"
         d="m 350.71576,28.7012 c 0,-0.6383 0.0961,-1.1793 0.29536,-1.6262 0.19924,-0.4461 0.46656,-0.7859 0.81599,-1.0109 0.34342,-0.2282 0.71887,-0.3399 1.12637,-0.3399 0.41551,0 0.79197,0.1059 1.13538,0.3207 0.33842,0.2192 0.61275,0.5473 0.816,0.9903 0.20525,0.4457 0.30837,1.0007 0.30837,1.666 0,0.6258 -0.10312,1.1629 -0.30837,1.6148 -0.20325,0.45 -0.47758,0.7942 -0.82801,1.0309 -0.34642,0.239 -0.72689,0.3562 -1.14039,0.3562 -0.42952,0 -0.81599,-0.1191 -1.15541,-0.364 -0.34041,-0.2469 -0.59973,-0.595 -0.78696,-1.052 -0.18722,-0.4539 -0.27833,-0.982 -0.27833,-1.5859 m 4.62463,-3.4492 0,0.2332 c -0.31639,-0.3641 -0.62777,-0.6571 -0.93614,-0.884 -0.30537,-0.2282 -0.64178,-0.3992 -0.99722,-0.518 -0.36044,-0.118 -0.75291,-0.1762 -1.17743,-0.1762 -0.56369,0 -1.08232,0.12 -1.5629,0.3582 -0.47859,0.2399 -0.89509,0.5789 -1.24552,1.0188 -0.34943,0.441 -0.61475,0.9629 -0.79597,1.5601 -0.18122,0.595 -0.27233,1.2391 -0.27233,1.9348 0,1.468 0.36044,2.6133 1.07631,3.4332 0.71787,0.8199 1.66403,1.2309 2.83545,1.2309 0.67883,0 1.24952,-0.1168 1.71309,-0.3489 0.46456,-0.2339 0.92012,-0.589 1.36266,-1.073 l 0,3.4687 c 0,0.4832 0.0961,0.8473 0.28935,1.0942 0.19324,0.2469 0.46557,0.3711 0.823,0.3711 0.35443,0 0.62577,-0.116 0.822,-0.3422 0.19324,-0.2238 0.28735,-0.5598 0.28735,-1.0027 l 0,-10.3582 c 0,-0.4469 -0.10212,-0.7829 -0.30837,-1.0071 -0.20825,-0.225 -0.47458,-0.3379 -0.80098,-0.3379 -0.32239,0 -0.58871,0.1149 -0.79797,0.3489 -0.20925,0.2312 -0.31438,0.5671 -0.31438,0.9961" />
      <path
         inkscape:connector-curvature="0"
         id="path4274"
         style="fill:#3667b8;fill-opacity:1;fill-rule:nonzero;stroke:none;stroke-width:0.10006095;stroke-opacity:1"
         d="m 366.61812,28.634 c 0,-0.9379 0.21326,-1.6551 0.64079,-2.1551 0.43052,-0.5047 0.9892,-0.7547 1.68405,-0.7547 0.59272,0 1.10234,0.2547 1.52986,0.7719 0.42752,0.5109 0.64078,1.2469 0.64078,2.2051 0,0.6199 -0.0881,1.1519 -0.26733,1.6 -0.17621,0.45 -0.42952,0.7918 -0.75792,1.0379 -0.32439,0.2449 -0.70786,0.3648 -1.14539,0.3648 -0.44955,0 -0.84503,-0.1199 -1.19746,-0.3648 -0.34943,-0.2461 -0.62476,-0.5969 -0.82701,-1.061 -0.20024,-0.4601 -0.30037,-1.009 -0.30037,-1.6441 m -0.11213,6.9762 0,-3.5891 c 0.44254,0.4609 0.89409,0.8129 1.35164,1.0559 0.45956,0.2441 1.02726,0.3652 1.70909,0.3652 0.77794,0 1.46278,-0.184 2.05149,-0.5551 0.58972,-0.3691 1.04628,-0.907 1.36867,-1.6082 0.3264,-0.7008 0.4876,-1.5359 0.4876,-2.5008 0,-0.7133 -0.0891,-1.3621 -0.27033,-1.9582 -0.18223,-0.5937 -0.44454,-1.107 -0.78696,-1.5418 -0.34542,-0.434 -0.76193,-0.7722 -1.25253,-1.014 -0.4936,-0.2379 -1.03526,-0.3559 -1.62698,-0.3559 -0.36144,0 -0.70286,0.0438 -1.01924,0.1297 -0.31839,0.0863 -0.59072,0.198 -0.81499,0.3391 -0.22328,0.141 -0.41651,0.2851 -0.5747,0.4351 -0.15719,0.1481 -0.36244,0.3719 -0.62276,0.6719 l 0,-0.232 c 0,-0.4438 -0.10513,-0.777 -0.32039,-1.0059 -0.21126,-0.225 -0.48059,-0.3379 -0.80999,-0.3379 -0.3314,0 -0.59773,0.1129 -0.79697,0.3379 -0.19624,0.2289 -0.29636,0.5621 -0.29636,1.0059 l 0,10.2562 c 0,0.4727 0.0961,0.8359 0.29035,1.082 0.19324,0.2407 0.46056,0.3649 0.80298,0.3649 0.36244,0 0.64379,-0.116 0.83802,-0.3512 0.19624,-0.232 0.29236,-0.5641 0.29236,-0.9937" />
      <path
         inkscape:connector-curvature="0"
         id="path4276"
         style="fill:#3667b8;fill-opacity:1;fill-rule:nonzero;stroke:none;stroke-width:0.10006095;stroke-opacity:1"
         d="m 377.30214,23.6148 0.21326,0.5274 -2.89353,7.2789 c -0.17921,0.418 -0.26832,0.7219 -0.26832,0.9109 0,0.2 0.0541,0.3891 0.15418,0.5602 0.10513,0.1726 0.24831,0.3098 0.42652,0.4117 0.18122,0.102 0.37146,0.157 0.56569,0.157 0.33942,0 0.59573,-0.1078 0.76594,-0.3207 0.17221,-0.2191 0.32639,-0.5242 0.45755,-0.9281 l 1.99143,-5.784 1.8863,5.3789 c 0.14918,0.4379 0.28434,0.775 0.40249,1.0262 0.12315,0.2449 0.2503,0.4109 0.38747,0.4969 0.13316,0.0859 0.32439,0.1308 0.56969,0.1308 0.17722,0 0.34943,-0.0488 0.51363,-0.1429 0.1632,-0.0938 0.28835,-0.2231 0.37746,-0.3809 0.0881,-0.1652 0.13516,-0.332 0.13516,-0.5101 -0.024,-0.109 -0.0591,-0.2629 -0.11113,-0.4641 -0.0531,-0.202 -0.11614,-0.4039 -0.19023,-0.6117 l -3.06574,-8.018 c -0.26632,-0.709 -0.52264,-1.2594 -0.77895,-1.6602 -0.2503,-0.4019 -0.58571,-0.7101 -1.00122,-0.9261 -0.4165,-0.216 -0.97919,-0.3219 -1.68605,-0.3219 -0.68784,0 -1.20647,0.073 -1.54989,0.2219 -0.34442,0.148 -0.51663,0.4211 -0.51663,0.816 0,0.2691 0.0821,0.4793 0.2473,0.625 0.1622,0.1473 0.40349,0.2223 0.72689,0.2223 0.12515,0 0.2483,-0.0211 0.36945,-0.0543 0.15018,-0.0368 0.27934,-0.052 0.38947,-0.052 0.26933,0 0.47859,0.0422 0.63678,0.1231 0.15419,0.08 0.29536,0.2171 0.41751,0.4179 0.12315,0.1961 0.26532,0.4871 0.42752,0.8699" />
      <path
         inkscape:connector-curvature="0"
         id="path4278"
         style="fill:#3667b8;fill-opacity:1;fill-rule:nonzero;stroke:none;stroke-width:0.10006095;stroke-opacity:1"
         d="m 420.82515,33.2551 0.56269,0 0,0.7031 c 0,0.7348 0.0901,1.3199 0.28134,1.752 0.18122,0.432 0.50061,0.7507 0.94415,0.9457 0.44554,0.198 1.05528,0.2992 1.83023,0.2992 1.37267,0 2.06051,-0.336 2.06051,-1.0082 0,-0.2199 -0.0721,-0.4059 -0.21627,-0.561 -0.14217,-0.1539 -0.31338,-0.2308 -0.50862,-0.2308 -0.0961,0 -0.2503,0.016 -0.47558,0.0508 -0.22227,0.0363 -0.4105,0.0523 -0.56769,0.0523 -0.42451,0 -0.69685,-0.1242 -0.81399,-0.3742 -0.12415,-0.25 -0.18022,-0.609 -0.18022,-1.0719 l 0,-0.557 0.5717,0 c 0.89809,0 1.34464,-0.2742 1.34464,-0.8102 0,-0.3859 -0.11615,-0.6308 -0.35744,-0.732 -0.23829,-0.1027 -0.56469,-0.1539 -0.9872,-0.1539 l -0.5717,0 0,-6.2219 c 0,-0.4652 -0.11514,-0.8191 -0.33741,-1.0652 -0.22027,-0.243 -0.50862,-0.3637 -0.85704,-0.3637 -0.33041,0 -0.60674,0.1207 -0.83001,0.3637 -0.22328,0.2461 -0.3294,0.6 -0.3294,1.0652 l 0,6.2219 -0.64779,0 c -0.34843,0 -0.61976,0.0762 -0.80999,0.2371 -0.19123,0.1559 -0.28635,0.3609 -0.28635,0.6148 0,0.559 0.39448,0.8442 1.18144,0.8442" />
      <path
         inkscape:connector-curvature="0"
         id="path4280"
         style="fill:#3667b8;fill-opacity:1;fill-rule:nonzero;stroke:none;stroke-width:0.10006095;stroke-opacity:1"
         d="m 429.22538,27.2992 0,-1.9621 c 0,-0.4793 -0.11013,-0.8312 -0.3334,-1.073 -0.22928,-0.2379 -0.50963,-0.3559 -0.85605,-0.3559 -0.3344,0 -0.61575,0.1199 -0.83501,0.3609 -0.21727,0.2418 -0.3284,0.5969 -0.3284,1.068 l 0,6.5399 c 0,1.055 0.38446,1.5839 1.14639,1.5839 0.39048,0 0.67382,-0.1238 0.84603,-0.3699 0.17121,-0.2469 0.26332,-0.6121 0.28335,-1.0961 0.28534,0.484 0.57069,0.8492 0.86505,1.0961 0.29836,0.2461 0.69485,0.3699 1.18645,0.3699 0.49159,0 0.97318,-0.1238 1.43675,-0.3699 0.46857,-0.2469 0.69985,-0.5758 0.69985,-0.984 0,-0.2871 -0.0981,-0.5211 -0.30037,-0.7101 -0.19524,-0.1828 -0.4095,-0.2758 -0.63978,-0.2758 -0.0831,0 -0.29436,0.0508 -0.62676,0.1578 -0.3284,0.1082 -0.61875,0.159 -0.87206,0.159 -0.34542,0 -0.62677,-0.091 -0.84403,-0.2731 -0.21426,-0.1789 -0.39048,-0.4468 -0.50762,-0.8058 -0.12315,-0.3539 -0.20525,-0.7781 -0.25431,-1.2668 -0.043,-0.4891 -0.0661,-1.0902 -0.0661,-1.793" />
      <path
         inkscape:connector-curvature="0"
         id="path4282"
         style="fill:#3667b8;fill-opacity:1;fill-rule:nonzero;stroke:none;stroke-width:0.10006095;stroke-opacity:1"
         d="m 436.14381,29.4398 4.26619,0 c -0.0581,0.8043 -0.27233,1.4043 -0.65179,1.8024 -0.37746,0.4 -0.87106,0.6008 -1.48581,0.6008 -0.58471,0 -1.0683,-0.202 -1.44376,-0.6078 -0.37345,-0.4032 -0.60473,-1.0043 -0.68483,-1.7954 m 4.6016,-1.332 -4.6016,0 c 0.007,-0.5348 0.11113,-1.0047 0.32339,-1.4117 0.20826,-0.4063 0.48659,-0.7152 0.83502,-0.9199 0.34942,-0.2071 0.73389,-0.3102 1.1514,-0.3102 0.28034,0 0.54066,0.0352 0.77194,0.0961 0.23128,0.066 0.45556,0.175 0.67382,0.3121 0.21927,0.1418 0.42152,0.293 0.60674,0.4528 0.18122,0.1582 0.41951,0.3761 0.71087,0.6519 0.12114,0.1031 0.29736,0.159 0.52263,0.159 0.23629,0 0.43053,-0.0699 0.57871,-0.2008 0.15218,-0.1308 0.22627,-0.3172 0.22627,-0.5582 0,-0.2117 -0.0821,-0.4609 -0.2483,-0.7457 -0.1692,-0.282 -0.41751,-0.5582 -0.75091,-0.8184 -0.33841,-0.2578 -0.75893,-0.4769 -1.27155,-0.65 -0.50662,-0.1707 -1.09233,-0.2578 -1.75214,-0.2578 -1.51184,0 -2.68427,0.4309 -3.52329,1.291 -0.83702,0.8622 -1.25853,2.0282 -1.25853,3.5032 0,0.6937 0.10413,1.341 0.31038,1.934 0.20725,0.5918 0.50862,1.1019 0.9021,1.525 0.39948,0.423 0.88808,0.75 1.46879,0.98 0.5787,0.2227 1.22248,0.3368 1.93035,0.3368 0.91611,0 1.70407,-0.1938 2.36187,-0.5809 0.65981,-0.3879 1.15441,-0.8879 1.47881,-1.5012 0.32539,-0.6148 0.49059,-1.241 0.49059,-1.8758 0,-0.5902 -0.1672,-0.975 -0.50762,-1.1519 -0.34041,-0.1731 -0.81699,-0.2594 -1.42974,-0.2594" />
      <path
         inkscape:connector-curvature="0"
         id="path4284"
         style="fill:#3667b8;fill-opacity:1;fill-rule:nonzero;stroke:none;stroke-width:0.10006095;stroke-opacity:1"
         d="m 446.63058,29.4398 4.26419,0 c -0.0601,0.8043 -0.27733,1.4043 -0.65079,1.8024 -0.37846,0.4 -0.87106,0.6008 -1.48481,0.6008 -0.58771,0 -1.0683,-0.202 -1.44676,-0.6078 -0.37546,-0.4032 -0.60473,-1.0043 -0.68183,-1.7954 m 4.5996,-1.332 -4.5996,0 c 0.003,-0.5348 0.11214,-1.0047 0.32239,-1.4117 0.20926,-0.4063 0.4866,-0.7152 0.83402,-0.9199 0.34842,-0.2071 0.73189,-0.3102 1.1514,-0.3102 0.28034,0 0.53866,0.0352 0.76794,0.0961 0.23328,0.066 0.46056,0.175 0.67882,0.3121 0.21927,0.1418 0.41952,0.293 0.60174,0.4528 0.18622,0.1582 0.42451,0.3761 0.71687,0.6519 0.12015,0.1031 0.29136,0.159 0.51763,0.159 0.24029,0 0.43253,-0.0699 0.58371,-0.2008 0.15018,-0.1308 0.22528,-0.3172 0.22528,-0.5582 0,-0.2117 -0.0841,-0.4609 -0.25031,-0.7457 -0.1652,-0.282 -0.41851,-0.5582 -0.75392,-0.8184 -0.33541,-0.2578 -0.75692,-0.4769 -1.26454,-0.65 -0.51062,-0.1707 -1.09333,-0.2578 -1.75513,-0.2578 -1.50884,0 -2.68427,0.4309 -3.5243,1.291 -0.83802,0.8622 -1.25553,2.0282 -1.25553,3.5032 0,0.6937 0.10413,1.341 0.30838,1.934 0.20725,0.5918 0.50962,1.1019 0.9031,1.525 0.39848,0.423 0.88708,0.75 1.46679,0.98 0.5797,0.2227 1.22449,0.3368 1.92834,0.3368 0.92313,0 1.70909,-0.1938 2.36589,-0.5809 0.6578,-0.3879 1.1504,-0.8879 1.4778,-1.5012 0.3304,-0.6148 0.49159,-1.241 0.49159,-1.8758 0,-0.5902 -0.1682,-0.975 -0.50962,-1.1519 -0.33641,-0.1731 -0.81299,-0.2594 -1.42874,-0.2594" />
      <path
         inkscape:connector-curvature="0"
         id="path4286"
         style="fill:#3667b8;fill-opacity:1;fill-rule:nonzero;stroke:none;stroke-width:0.10006095;stroke-opacity:1"
         d="m 461.69693,28.7281 c 0,0.6188 -0.0931,1.1508 -0.28535,1.593 -0.18822,0.4461 -0.45255,0.7891 -0.78796,1.0258 -0.3354,0.239 -0.70485,0.357 -1.11335,0.357 -0.65079,0 -1.19646,-0.2527 -1.643,-0.7668 -0.44254,-0.509 -0.66782,-1.2601 -0.66782,-2.2531 0,-0.9348 0.22027,-1.6621 0.66381,-2.182 0.44454,-0.5211 0.99221,-0.7778 1.64701,-0.7778 0.38847,0 0.75392,0.1129 1.08232,0.3399 0.33641,0.2257 0.60173,0.566 0.80197,1.0179 0.20225,0.4539 0.30237,1.002 0.30237,1.6461 m -4.61061,3.4141 0,-0.2832 c 0.44654,0.5441 0.9041,0.9473 1.38168,1.2 0.47558,0.2558 1.01624,0.3832 1.61797,0.3832 0.72388,0 1.39069,-0.184 1.99643,-0.5582 0.61175,-0.377 1.09333,-0.918 1.44777,-1.636 0.35242,-0.7148 0.52964,-1.564 0.52964,-2.5468 0,-0.7211 -0.10413,-1.384 -0.30938,-1.9922 -0.20224,-0.6039 -0.48158,-1.1129 -0.84102,-1.5219 -0.35243,-0.4121 -0.77094,-0.7269 -1.25853,-0.95 -0.4856,-0.218 -1.00723,-0.3289 -1.56491,-0.3289 -0.67182,0 -1.2345,0.1359 -1.69306,0.4047 -0.45556,0.268 -0.89109,0.6633 -1.30659,1.1883 l 0,-3.5282 c 0,-1.0351 -0.37446,-1.5468 -1.12638,-1.5468 -0.44354,0 -0.73389,0.132 -0.87807,0.3988 -0.14417,0.2672 -0.21626,0.6531 -0.21626,1.1648 l 0,10.1383 c 0,0.4457 0.10012,0.7789 0.29236,1.0008 0.19423,0.2203 0.45956,0.332 0.80197,0.332 0.33041,0 0.60574,-0.1129 0.814,-0.3429 0.21025,-0.227 0.31238,-0.5532 0.31238,-0.9758" />
      <path
         inkscape:connector-curvature="0"
         id="path4288"
         style="fill:#3667b8;fill-opacity:1;fill-rule:nonzero;stroke:none;stroke-width:0.10006095;stroke-opacity:1"
         d="m 468.29397,32.1281 0,-6.791 c 0,-0.4723 -0.10813,-0.8262 -0.33741,-1.068 -0.21927,-0.241 -0.50262,-0.3621 -0.84904,-0.3621 -0.34642,0 -0.62276,0.125 -0.83902,0.3711 -0.21726,0.2469 -0.32239,0.6 -0.32239,1.059 l 0,6.7199 c 0,0.4649 0.10513,0.816 0.32239,1.05 0.21626,0.2352 0.4926,0.3539 0.83902,0.3539 0.34642,0 0.62977,-0.1187 0.84904,-0.3539 0.22928,-0.234 0.33741,-0.564 0.33741,-0.9789 m -1.15741,2.4239 c -0.3284,0 -0.60974,0.1011 -0.84103,0.3019 -0.23128,0.2 -0.34942,0.484 -0.34942,0.85 0,0.3332 0.11814,0.609 0.35543,0.8231 0.23629,0.2152 0.51663,0.3222 0.83502,0.3222 0.30237,0 0.56869,-0.0953 0.80598,-0.2902 0.23729,-0.1969 0.35143,-0.482 0.35143,-0.8551 0,-0.3578 -0.11014,-0.643 -0.34042,-0.8469 -0.23028,-0.2039 -0.50361,-0.305 -0.81699,-0.305" />
      <path
         inkscape:connector-curvature="0"
         id="path4290"
         style="fill:#3667b8;fill-opacity:1;fill-rule:nonzero;stroke:none;stroke-width:0.10006095;stroke-opacity:1"
         d="m 476.58306,24.9859 -2.07452,3.4082 -1.27456,-1.2062 0,-1.8699 c 0,-0.4532 -0.12014,-0.7989 -0.35743,-1.045 -0.24029,-0.2441 -0.51463,-0.366 -0.822,-0.366 -0.36244,0 -0.64579,0.1219 -0.85604,0.3629 -0.20525,0.241 -0.30738,0.5949 -0.30738,1.066 l 0,10.018 c 0,0.5203 0.0951,0.9199 0.30137,1.191 0.20024,0.2731 0.48859,0.4102 0.86205,0.4102 0.36244,0 0.64679,-0.1242 0.85904,-0.3711 0.21326,-0.2469 0.32039,-0.6121 0.32039,-1.0942 l 0,-5.6957 2.64423,2.7688 c 0.3284,0.3473 0.5747,0.5793 0.74891,0.709 0.17321,0.1261 0.38046,0.189 0.63077,0.189 0.28935,0 0.53565,-0.0929 0.72988,-0.282 0.19524,-0.1859 0.29637,-0.4199 0.29637,-0.7 0,-0.3457 -0.3214,-0.8047 -0.95817,-1.3758 l -1.24952,-1.1461 2.41294,-3.7859 c 0.17921,-0.277 0.30437,-0.4961 0.38146,-0.6402 0.0771,-0.145 0.11714,-0.2879 0.11714,-0.4168 0,-0.3762 -0.10312,-0.6672 -0.30837,-0.884 -0.20225,-0.2141 -0.47358,-0.3231 -0.80098,-0.3231 -0.28735,0 -0.50962,0.0758 -0.66381,0.2352 -0.15719,0.1527 -0.36644,0.4348 -0.63177,0.8437" />
      <path
         inkscape:connector-curvature="0"
         id="path4292"
         style="fill:#3667b8;fill-opacity:1;fill-rule:nonzero;stroke:none;stroke-width:0.10006095;stroke-opacity:1"
         d="m 482.40215,23.907 c -0.35944,0 -0.66581,0.1141 -0.92212,0.3461 -0.25832,0.2289 -0.38948,0.552 -0.38948,0.9641 0,0.3508 0.12416,0.6508 0.36845,0.9039 0.25031,0.2519 0.55568,0.3758 0.91712,0.3758 0.36044,0 0.66581,-0.1227 0.92513,-0.3727 0.25331,-0.25 0.38146,-0.5512 0.38146,-0.907 0,-0.409 -0.12815,-0.7301 -0.38146,-0.9602 -0.25932,-0.2359 -0.55668,-0.35 -0.8991,-0.35" />
      <path
         inkscape:connector-curvature="0"
         id="path4294"
         style="fill:#3667b8;fill-opacity:1;fill-rule:nonzero;stroke:none;stroke-width:0.10006095;stroke-opacity:1"
         d="m 494.79925,26.818 c 0,-0.293 -0.0911,-0.6071 -0.26532,-0.9399 -0.17421,-0.332 -0.44154,-0.6492 -0.79898,-0.95 -0.36144,-0.3019 -0.81499,-0.5429 -1.35565,-0.7281 -0.54967,-0.1828 -1.16241,-0.2711 -1.85025,-0.2711 -1.44776,0 -2.58315,0.418 -3.40014,1.2652 -0.81299,0.8469 -1.22049,1.9821 -1.22049,3.4039 0,0.9641 0.18222,1.8141 0.55868,2.5551 0.37045,0.7418 0.91311,1.3149 1.61998,1.7149 0.70385,0.405 1.55088,0.609 2.53308,0.609 0.60774,0 1.16342,-0.0891 1.67404,-0.2661 0.50762,-0.18 0.94115,-0.407 1.28957,-0.689 0.35443,-0.2821 0.62676,-0.5809 0.81499,-0.9 0.18323,-0.3168 0.27934,-0.6149 0.27934,-0.893 0,-0.2789 -0.10813,-0.518 -0.31838,-0.7109 -0.20726,-0.1969 -0.46157,-0.291 -0.75893,-0.291 -0.19624,0 -0.36244,0.048 -0.48859,0.148 -0.12716,0.1031 -0.27434,0.2641 -0.43553,0.484 -0.28235,0.4371 -0.58572,0.7672 -0.8981,0.9859 -0.31338,0.216 -0.71187,0.325 -1.19245,0.325 -0.69385,0 -1.25853,-0.273 -1.68305,-0.8129 -0.42251,-0.541 -0.63678,-1.2832 -0.63678,-2.223 0,-0.443 0.0541,-0.8508 0.1642,-1.2192 0.11014,-0.3699 0.26833,-0.6859 0.47258,-0.9457 0.20525,-0.2632 0.45756,-0.4582 0.74991,-0.5949 0.29436,-0.1351 0.61575,-0.2 0.96718,-0.2 0.46857,0 0.87206,0.1059 1.20947,0.3238 0.33541,0.22 0.62977,0.5512 0.89309,0.9989 0.14318,0.2621 0.29937,0.4722 0.46557,0.6179 0.1672,0.1504 0.36945,0.2262 0.60774,0.2262 0.28835,0 0.52964,-0.1101 0.71787,-0.3258 0.18823,-0.2203 0.28535,-0.4531 0.28535,-0.6972" />
      <path
         inkscape:connector-curvature="0"
         id="path4296"
         style="fill:#3667b8;fill-opacity:1;fill-rule:nonzero;stroke:none;stroke-width:0.10006095;stroke-opacity:1"
         d="m 503.2936,28.684 c 0,0.9582 -0.21426,1.7051 -0.63478,2.2359 -0.42051,0.5352 -0.9882,0.8012 -1.70207,0.8012 -0.45956,0 -0.86505,-0.1172 -1.21548,-0.357 -0.34642,-0.2379 -0.62076,-0.5903 -0.80798,-1.0539 -0.19324,-0.461 -0.28635,-1.0051 -0.28635,-1.6262 0,-0.6141 0.0931,-1.15 0.27934,-1.609 0.18723,-0.459 0.45555,-0.8109 0.80398,-1.0539 0.34542,-0.2449 0.75291,-0.3652 1.22649,-0.3652 0.71387,0 1.28156,0.2671 1.70207,0.8043 0.42052,0.5359 0.63478,1.2777 0.63478,2.2238 m 2.35887,0 c 0,-0.6988 -0.11113,-1.3449 -0.3274,-1.936 -0.21927,-0.5929 -0.53565,-1.0992 -0.94815,-1.5199 -0.41251,-0.425 -0.90911,-0.7519 -1.48181,-0.982 -0.5727,-0.225 -1.22149,-0.3391 -1.93836,-0.3391 -0.71187,0 -1.35064,0.1149 -1.92234,0.345 -0.56469,0.23 -1.05829,0.557 -1.4758,0.9839 -0.4145,0.4289 -0.73189,0.934 -0.94715,1.5153 -0.21426,0.582 -0.32139,1.2297 -0.32139,1.9328 0,0.7109 0.10713,1.3609 0.32439,1.957 0.21727,0.5879 0.53165,1.0918 0.93915,1.5102 0.40749,0.4168 0.89909,0.741 1.4808,0.9668 0.58271,0.2312 1.22049,0.3429 1.92234,0.3429 0.71387,0 1.35966,-0.116 1.93836,-0.3468 0.57871,-0.227 1.07531,-0.5551 1.48982,-0.9821 0.4155,-0.4211 0.73089,-0.9289 0.94415,-1.514 0.21226,-0.5848 0.32339,-1.2278 0.32339,-1.934" />
      <path
         inkscape:connector-curvature="0"
         id="path4298"
         style="fill:#3667b8;fill-opacity:1;fill-rule:nonzero;stroke:none;stroke-width:0.10006095;stroke-opacity:1"
         d="m 515.33026,28.5109 0,-3.1207 c 0,-0.4953 -0.11514,-0.8652 -0.33741,-1.1121 -0.22528,-0.2461 -0.52264,-0.3711 -0.88909,-0.3711 -0.35343,0 -0.64278,0.125 -0.86605,0.3711 -0.21927,0.2469 -0.3304,0.6168 -0.3304,1.1121 l 0,3.743 c 0,0.5898 -0.021,1.0469 -0.0621,1.377 -0.037,0.3257 -0.14718,0.5918 -0.32439,0.8019 -0.17922,0.209 -0.46157,0.3129 -0.84603,0.3129 -0.76894,0 -1.27756,-0.2641 -1.51785,-0.7891 -0.2453,-0.5277 -0.37045,-1.2859 -0.37045,-2.273 l 0,-3.1727 c 0,-0.4914 -0.11014,-0.8593 -0.32941,-1.105 -0.22327,-0.2532 -0.51262,-0.3782 -0.87706,-0.3782 -0.35143,0 -0.64779,0.125 -0.87407,0.3782 -0.22727,0.2457 -0.33841,0.6136 -0.33841,1.105 l 0,6.7168 c 0,0.441 0.0991,0.7801 0.30437,1.0071 0.20325,0.2308 0.47258,0.3468 0.80698,0.3468 0.3234,0 0.59072,-0.1078 0.80699,-0.3207 0.21326,-0.2183 0.32039,-0.514 0.32039,-0.8941 l 0,-0.225 c 0.40749,0.4859 0.84603,0.848 1.30959,1.0758 0.46657,0.2281 0.9832,0.3453 1.55189,0.3453 0.59072,0 1.09934,-0.1172 1.52286,-0.3512 0.42752,-0.2371 0.77694,-0.591 1.05228,-1.0699 0.39748,0.4848 0.82,0.8379 1.27355,1.073 0.45355,0.2309 0.95917,0.3481 1.51284,0.3481 0.63978,0 1.19546,-0.1242 1.65702,-0.3774 0.46857,-0.2546 0.81399,-0.6117 1.04427,-1.0847 0.20125,-0.4238 0.30237,-1.0922 0.30237,-2.0039 l 0,-4.586 c 0,-0.4953 -0.11314,-0.8652 -0.33841,-1.1121 -0.22227,-0.2461 -0.51663,-0.3711 -0.88508,-0.3711 -0.35343,0 -0.64679,0.125 -0.87607,0.3782 -0.22627,0.2457 -0.33941,0.6136 -0.33941,1.105 l 0,3.9477 c 0,0.5043 -0.021,0.9101 -0.0621,1.2152 -0.0491,0.3008 -0.16219,0.5571 -0.35142,0.7641 -0.18623,0.2058 -0.47658,0.3078 -0.86105,0.3078 -0.30938,0 -0.60374,-0.0898 -0.88508,-0.275 -0.27433,-0.184 -0.4936,-0.4289 -0.64879,-0.7379 -0.17121,-0.3961 -0.25531,-1.0961 -0.25531,-2.1012" />
      <path
         inkscape:connector-curvature="0"
         id="path4300"
         style="fill:#3667b8;fill-opacity:1;fill-rule:nonzero;stroke:none;stroke-width:0.10006095;stroke-opacity:1"
         d="m 402.29558,39.518 c -0.0511,0.1492 -0.10413,0.2992 -0.15319,0.45 0.79297,0.0711 1.32362,1.0172 0.93715,1.7172 -0.35243,0.791 -1.57092,0.8886 -2.04249,0.164 -0.50362,-0.6402 -0.11014,-1.6543 0.6598,-1.8582 0.0461,-0.1629 0.0921,-0.325 0.14217,-0.4879 -1.18344,-0.0742 -2.39291,-0.339 -3.38512,-1.0133 0.10012,-0.2886 0.20425,-0.5769 0.30437,-0.8636 2.00344,0.8769 4.25619,0.684 6.36876,0.475 0.0701,0.2777 0.13917,0.557 0.20825,0.8359 -0.95316,0.4301 -2.00344,0.5891 -3.0397,0.5809" />
      <path
         inkscape:connector-curvature="0"
         id="path4302"
         style="fill:#3667b8;fill-opacity:1;fill-rule:nonzero;stroke:none;stroke-width:0.10006095;stroke-opacity:1"
         d="m 414.2161,36.284 c -0.31939,-0.161 -0.37746,-0.5391 -0.36244,-0.8621 -0.34943,-0.341 -0.18523,-0.8578 -0.22427,-1.2887 -0.0791,-0.2402 -0.36745,-0.266 -0.5667,-0.3602 -0.27934,0.4219 -0.5747,0.8301 -0.94214,1.1739 l 0.001,0.0203 c -0.4055,0.3789 -0.84002,0.718 -1.30159,1.0187 -0.37245,-0.3949 -0.75992,-0.7839 -1.11736,-1.198 0.70586,-0.777 1.35766,-1.6047 1.93536,-2.4848 0.39448,-0.666 0.71687,-1.3742 0.99421,-2.098 0.59573,0.3008 1.18444,0.6219 1.78117,0.9328 -0.31438,0.7281 -0.67582,1.4359 -1.05729,2.132 0.26332,0.1403 0.61775,0.2801 0.65981,0.6231 0.032,0.3808 -0.0561,0.7922 0.17721,1.1261 0.45656,-0.3019 1.15641,0.0391 1.16242,0.5989 0.0641,0.5742 -0.66581,0.9949 -1.13939,0.666" />
      <path
         inkscape:connector-curvature="0"
         id="path4304"
         style="fill:#3667b8;fill-opacity:1;fill-rule:nonzero;stroke:none;stroke-width:0.10006095;stroke-opacity:1"
         d="m 409.5404,31.466 c -0.14217,-0.9668 -1.0703,-1.7871 -2.0585,-1.7238 -0.5757,-0.0492 -1.12838,0.223 -1.51685,0.6269 -0.27834,0.3461 -0.50762,0.7481 -0.54867,1.202 -0.13016,0.9828 0.55868,1.9937 1.52486,2.232 0.42151,0.118 0.86405,0.052 1.28356,-0.0461 0.90711,-0.3199 1.50283,-1.3422 1.3156,-2.291 m -8.71361,-2.0398 c -0.38547,-0.566 -0.94615,-1.0043 -1.58893,-1.2512 -1.20848,-0.448 -2.68127,-0.143 -3.54933,0.8211 -0.60674,0.6641 -0.96818,1.5648 -0.9021,2.4699 0.0451,1.134 0.74591,2.1852 1.74012,2.7192 0.75893,0.4109 1.67404,0.4808 2.49905,0.2507 0.34842,-0.0867 0.66781,-0.25 0.96517,-0.448 0.61075,-0.434 1.07331,-1.0731 1.27456,-1.7957 0.28134,-0.9223 0.10312,-1.9641 -0.43854,-2.766 m 10.16338,2.5398 c -0.77594,1.2852 -1.61597,2.5621 -2.75936,3.557 -1.31961,1.1602 -3.03269,1.943 -4.81186,1.934 -2.24874,0.0282 -4.52351,-0.3379 -6.59203,-1.2379 -1.95038,-0.8562 -3.64744,-2.38 -4.50649,-4.3531 -0.82701,-1.7719 -0.81699,-3.814 -0.44354,-5.7 2.06752,-0.5172 4.16908,-0.9769 6.30468,-1.0781 2.10256,-0.0649 4.22014,-0.1149 6.31169,0.1801 2.86949,0.3761 5.68292,1.2871 8.18797,2.75 0,0 -0.34242,1.8871 -1.69106,3.948" />
      <path
         inkscape:connector-curvature="0"
         id="path4306"
         style="fill:#3667b8;fill-opacity:1;fill-rule:nonzero;stroke:none;stroke-width:0.10006095;stroke-opacity:1"
         d="m 392.34846,34.8402 c -0.84102,-0.505 -1.52986,-1.223 -2.10756,-2.0062 -0.16821,0.309 -0.21927,0.6812 -0.43854,0.9609 -0.12315,0.166 -0.34942,0.0981 -0.52363,0.1012 -0.22328,-0.025 -0.44054,0.0371 -0.64779,0.1 0.24129,0.348 0.18022,0.8769 -0.19925,1.1 -0.40148,0.2898 -1.02424,0.041 -1.13037,-0.4391 -0.16821,-0.5238 0.38847,-1.05 0.9041,-0.9121 0.27133,-0.4 0.76793,-0.3367 1.18644,-0.3527 0.18923,-0.3274 0.33241,-0.6852 0.5747,-0.984 -0.44954,-0.8871 -0.70385,-1.8801 -0.72388,-2.8762 0.5767,-0.239 1.15441,-0.4851 1.73311,-0.7257 0.029,0.6269 0.10313,1.2507 0.20125,1.8707 0.19223,1.3441 0.97218,2.516 1.89531,3.4832 -0.22728,0.2386 -0.48159,0.45 -0.72389,0.68" />
      <path
         inkscape:connector-curvature="0"
         id="path4308"
         style="fill:#3667b8;fill-opacity:1;fill-rule:nonzero;stroke:none;stroke-width:0.10006095;stroke-opacity:1"
         d="m 405.86593,24.6781 c -2.1346,-0.4652 -4.33028,-0.6 -6.50993,-0.5039 -1.47179,0.0727 -2.94659,0.211 -4.38334,0.5278 -1.02124,0.2082 -2.02046,0.5011 -3.02168,0.7871 0.15719,-1.2821 0.67682,-2.5071 1.41773,-3.5602 0.87406,-1.225 2.03848,-2.3527 3.49425,-2.8039 1.13238,-0.3039 2.48603,-0.693 4.81487,-0.6539 1.92634,0.0359 3.81965,0.2809 5.51071,0.9949 1.08833,0.4699 2.11257,1.107 2.98764,1.9059 0.75992,0.7152 1.35665,1.607 1.76215,2.564 0.40048,0.9043 0.75992,2.5231 0.71887,3.3551 -2.08153,-1.1832 -4.41738,-2.216 -6.79127,-2.6129" />
    </g>
    <path
       style="display:inline;fill:#000000;fill-opacity:1;stroke:none;stroke-width:1px;stroke-linecap:butt;stroke-linejoin:miter;stroke-opacity:1"
       d="m 1309.0458,64.23267 c 0.076,-0.2628 0.018,-0.7239 -0.1278,-1.0246 -0.242,-0.4981 -0.5564,-0.5541 -3.5335,-0.6313 -1.7974,-0.046 47.1398,-0.084 108.7493,-0.082 61.6096,0 109.4053,0.034 106.2127,0.073 -3.1924,0.037 -49.043,0.4958 -101.89,1.0173 -52.8471,0.5215 -99.1146,0.9882 -102.8169,1.0368 -6.3276,0.084 -6.7231,0.061 -6.5937,-0.3892 z"
       id="path4310"
       inkscape:connector-curvature="0" />
    <path
       style="color:#000000;clip-rule:nonzero;display:inline;overflow:visible;visibility:visible;opacity:1;isolation:auto;mix-blend-mode:normal;color-interpolation:sRGB;color-interpolation-filters:linearRGB;solid-color:#000000;solid-opacity:1;fill:#000000;fill-opacity:1;fill-rule:nonzero;stroke:#000000;stroke-width:0.07313691;stroke-linecap:round;stroke-linejoin:round;stroke-miterlimit:4;stroke-dasharray:none;stroke-dashoffset:0;stroke-opacity:1;color-rendering:auto;image-rendering:auto;shape-rendering:auto;text-rendering:auto;enable-background:accumulate"
       d="m 239.15978,-123.92743 c -8.4936,-0.5854 -25.4911,-2.9083 -26.1406,-3.5725 -0.9259,-0.9468 13.2471,-20.6198 25.0311,-34.7448 25.5927,-30.6768 57.3399,-56.3757 88.525,-71.6596 45.9799,-22.5347 94.3809,-25.786 143.4848,-9.6384 3.2662,1.0741 6.1884,2.2151 6.4939,2.5358 0.3055,0.3206 -1.8953,2.6046 -4.8905,5.0755 -35.7271,29.4744 -71.145,66.6262 -87.9216,92.2259 -1.6351,2.495 -2.458,2.7549 -23.3682,7.3842 -43.6932,9.673 -90.8018,14.4899 -121.2139,12.3939 z"
       id="path5057"
       inkscape:connector-curvature="0" />
    <path
       style="color:#000000;clip-rule:nonzero;display:inline;overflow:visible;visibility:visible;opacity:1;isolation:auto;mix-blend-mode:normal;color-interpolation:sRGB;color-interpolation-filters:linearRGB;solid-color:#000000;solid-opacity:1;fill:#050000;fill-opacity:1;fill-rule:nonzero;stroke:#60e017;stroke-width:0.07313691;stroke-linecap:round;stroke-linejoin:round;stroke-miterlimit:4;stroke-dasharray:none;stroke-dashoffset:0;stroke-opacity:1;color-rendering:auto;image-rendering:auto;shape-rendering:auto;text-rendering:auto;enable-background:accumulate"
       d="m 572.15938,-75.10873 c -43.1745,-6.0686 -78.6596,-11.2106 -78.8559,-11.427 -1.1413,-1.2574 15.794,-24.3543 26.3089,-35.8806 23.5187,-25.781 48.5079,-39.4624 74.1069,-40.5732 5.3786,-0.2334 11.3832,-0.054 13.9728,0.4171 4.4918,0.8173 41.8289,9.7635 44.189,10.588 1.1455,0.4003 1.2226,3.1901 1.2226,44.2526 0,41.2574 -0.072,43.8205 -1.2226,43.7412 -0.6725,-0.046 -36.5472,-5.0495 -79.7217,-11.1181 z"
       id="path5059"
       inkscape:connector-curvature="0" />
    <path
       style="color:#000000;clip-rule:nonzero;display:inline;overflow:visible;visibility:visible;opacity:1;isolation:auto;mix-blend-mode:normal;color-interpolation:sRGB;color-interpolation-filters:linearRGB;solid-color:#000000;solid-opacity:1;fill:#050000;fill-opacity:1;fill-rule:nonzero;stroke:#60e017;stroke-width:0.07313691;stroke-linecap:round;stroke-linejoin:round;stroke-miterlimit:4;stroke-dasharray:none;stroke-dashoffset:0;stroke-opacity:1;color-rendering:auto;image-rendering:auto;shape-rendering:auto;text-rendering:auto;enable-background:accumulate"
       d="m 858.50378,-35.44373 c -68.9732,-9.6636 -125.4845,-17.5961 -125.5805,-17.6279 -0.096,-0.032 -0.1747,-18.1083 -0.1747,-40.1697 l 0,-40.1119 1.572,0.4205 c 3.0716,0.8214 250.4861,59.0193 250.9072,59.0193 0.2356,0 0.4284,12.6435 0.4284,28.0968 0,22.0054 -0.1894,28.0802 -0.8733,28.02 -0.4803,-0.043 -57.3059,-7.9835 -126.2791,-17.6471 z"
       id="path5061"
       inkscape:connector-curvature="0" />
    <path
       style="color:#000000;clip-rule:nonzero;display:inline;overflow:visible;visibility:visible;opacity:1;isolation:auto;mix-blend-mode:normal;color-interpolation:sRGB;color-interpolation-filters:linearRGB;solid-color:#000000;solid-opacity:1;fill:#050000;fill-opacity:1;fill-rule:nonzero;stroke:#60e017;stroke-width:0.07313691;stroke-linecap:round;stroke-linejoin:round;stroke-miterlimit:4;stroke-dasharray:none;stroke-dashoffset:0;stroke-opacity:1;color-rendering:auto;image-rendering:auto;shape-rendering:auto;text-rendering:auto;enable-background:accumulate"
       d="m 1441.5186,24.92767 c -48.0573,-14.428 -88.1977,-26.3615004 -581.96692,-173.0152 -63.4015,-18.8309 -139.955,-41.5818 -170.1187,-50.5575 -61.6876,-18.3564 -59.7415,-17.8101 -70.2133,-19.7081 -10.7729,-1.9527 -38.3949,-1.9691 -50.3021,-0.03 -24.1442,3.932 -46.0955,11.8229 -68.1056,24.4822 -9.4888,5.4574 -24.1093,15.6279 -31.6679,22.0289 -6.1755,5.2297 -5.5024,3.3791 1.048,-2.8814 13.8672,-13.2536 27.312,-23.1108 43.533,-31.9173 21.4125,-11.6248 41.7014,-18.0547 64.6242,-20.481 15.747,-1.6666 41.2703,0.1553 55.667,3.9753 3.0113,0.7987 269.0791,82.1551 607.34202,185.7086 67.0519,20.5268 145.9632,44.6438996 175.3586,53.5935 29.3952,8.9494 54.2318,16.5725 55.1924,16.94 1.4126,0.5402 1.4794,0.6682 0.3493,0.6696 -0.7684,8e-4 -14.6015,-3.9627 -30.74,-8.8078 z"
       id="path5063"
       inkscape:connector-curvature="0" />
    <path
       style="color:#000000;clip-rule:nonzero;display:inline;overflow:visible;visibility:visible;opacity:1;isolation:auto;mix-blend-mode:normal;color-interpolation:sRGB;color-interpolation-filters:linearRGB;solid-color:#000000;solid-opacity:1;fill:#050000;fill-opacity:1;fill-rule:nonzero;stroke:#60e017;stroke-width:0.07313691;stroke-linecap:round;stroke-linejoin:round;stroke-miterlimit:4;stroke-dasharray:none;stroke-dashoffset:0;stroke-opacity:1;color-rendering:auto;image-rendering:auto;shape-rendering:auto;text-rendering:auto;enable-background:accumulate"
       d="m 267.10538,-30.36103 c -12.5577,-0.9864 -11.525,-1.53 4.6246,-2.4341 l 8.8165,-0.4937 19.0976,-21.0527 c 10.5037,-11.5789 18.9311,-21.236 18.7276,-21.4603 -0.2035,-0.2242 -6.308,-0.039 -13.5655,0.4114 l -13.1954,0.8191 -19.112,16.9551 c -10.5116,9.3253 -19.2099,16.8343 -19.3297,16.6867 -0.1197,-0.1482 7.5751,-8.6735 17.0997,-18.9466 l 17.3174,-18.6782 21.608,0.2036 21.608,0.2035 -24.6071,24.248 c -16.7416,16.4973 -25.1352,24.2749 -26.2593,24.3322 -0.9087,0.046 -6.6824,-0.3112 -12.8304,-0.794 z"
       id="path5065"
       inkscape:connector-curvature="0" />
    <path
       style="color:#000000;clip-rule:nonzero;display:inline;overflow:visible;visibility:visible;opacity:1;isolation:auto;mix-blend-mode:normal;color-interpolation:sRGB;color-interpolation-filters:linearRGB;solid-color:#000000;solid-opacity:1;fill:#050000;fill-opacity:1;fill-rule:nonzero;stroke:#60e017;stroke-width:0.07313691;stroke-linecap:round;stroke-linejoin:round;stroke-miterlimit:4;stroke-dasharray:none;stroke-dashoffset:0;stroke-opacity:1;color-rendering:auto;image-rendering:auto;shape-rendering:auto;text-rendering:auto;enable-background:accumulate"
       d="m 280.72878,91.19177 c 13.6215,-2.4187 31.2808,-6.6573 43.0647,-10.3365 20.0378,-6.2564 32.5996,-11.4988 68.3683,-28.5319 31.3868,-14.9465 50.1999,-21.5564 76.5011,-26.8782 16.0984,-3.2575 43.533,-6.8564 45.537,-5.9736 0.5074,0.2234 -0.079,0.4337 -1.302,0.4671 -4.6561,0.1267 -27.6365,4.8254 -39.7309,8.123 -6.9368,1.8912 -18.2548,5.4912 -25.151,7.9998 -11.7055,4.2582 -19.2097,7.4919 -61.7926,26.628 -36.057,16.2033 -66.16,24.9108 -101.021,29.221 -14.0789,1.7409 -16.3081,1.3826 -4.4736,-0.7187 z"
       id="path5069"
       inkscape:connector-curvature="0" />
    <path
       style="color:#000000;clip-rule:nonzero;display:inline;overflow:visible;visibility:visible;opacity:1;isolation:auto;mix-blend-mode:normal;color-interpolation:sRGB;color-interpolation-filters:linearRGB;solid-color:#000000;solid-opacity:1;fill:#000000;fill-opacity:1;fill-rule:nonzero;stroke:#000000;stroke-width:0.07313691;stroke-linecap:round;stroke-linejoin:round;stroke-miterlimit:4;stroke-dasharray:none;stroke-dashoffset:0;stroke-opacity:1;color-rendering:auto;image-rendering:auto;shape-rendering:auto;text-rendering:auto;enable-background:accumulate"
       d="m 506.07968,107.58267 c -3.0192,-4.7494 1.0702,-12.4876 4.5285,-8.5691 1.9336,2.1908 2.0804,7.0784 0.2725,9.0705 -1.5499,1.7076 -3.5281,1.5011 -4.801,-0.5014 z"
       id="path5071"
       inkscape:connector-curvature="0" />
    <path
       style="color:#000000;clip-rule:nonzero;display:inline;overflow:visible;visibility:visible;opacity:1;isolation:auto;mix-blend-mode:normal;color-interpolation:sRGB;color-interpolation-filters:linearRGB;solid-color:#000000;solid-opacity:1;fill:#000000;fill-opacity:1;fill-rule:nonzero;stroke:#000000;stroke-width:0.07313691;stroke-linecap:round;stroke-linejoin:round;stroke-miterlimit:4;stroke-dasharray:none;stroke-dashoffset:0;stroke-opacity:1;color-rendering:auto;image-rendering:auto;shape-rendering:auto;text-rendering:auto;enable-background:accumulate"
       d="m 494.07318,126.03627 c -6.4221,-4.7369 -10.169,-16.6098 -8.6179,-27.308 0.9589,-6.6133 2.6186,-10.7168 6.0093,-14.8568 3.0253,-3.6938 6.0845,-5.4025 9.4879,-5.2995 l 2.293,0.07 -2.2975,0.73 c -2.769,0.8798 -7.2769,5.6735 -9.1062,9.6836 -3.5964,7.8836 -3.8112,19.7307 -0.5023,27.7019 2.2496,5.4194 4.7027,8.4292 8.4128,10.3218 l 2.7946,1.4255 -2.541,0.018 c -1.7233,0.018 -3.6323,-0.7881 -5.9327,-2.4849 z"
       id="path5073"
       inkscape:connector-curvature="0" />
    <path
       style="color:#000000;clip-rule:nonzero;display:inline;overflow:visible;visibility:visible;opacity:1;isolation:auto;mix-blend-mode:normal;color-interpolation:sRGB;color-interpolation-filters:linearRGB;solid-color:#000000;solid-opacity:1;fill:#050000;fill-opacity:1;fill-rule:nonzero;stroke:#60e017;stroke-width:0.07313691;stroke-linecap:round;stroke-linejoin:round;stroke-miterlimit:4;stroke-dasharray:none;stroke-dashoffset:0;stroke-opacity:1;color-rendering:auto;image-rendering:auto;shape-rendering:auto;text-rendering:auto;enable-background:accumulate"
       d="m 1252.6778,19.61997 c -15.8687,-2.2308 -29.0008,-4.2199 -29.1824,-4.42 -0.1815,-0.2 -0.2451,-7.6320004 -0.1413,-16.5156004 l 0.1888,-16.1518996 20.6099,4.8628 c 11.3355,2.6743996 25.2472,5.9586996 30.9148,7.2984996 l 10.3049,2.4359 0,13.3593004 0,13.3592 -1.9212,-0.086 c -1.0567,-0.046 -14.9048,-1.9112 -30.7735,-4.1422 z"
       id="path5075"
       inkscape:connector-curvature="0" />
    <path
       style="color:#000000;clip-rule:nonzero;display:inline;overflow:visible;visibility:visible;opacity:1;isolation:auto;mix-blend-mode:normal;color-interpolation:sRGB;color-interpolation-filters:linearRGB;solid-color:#000000;solid-opacity:1;fill:#050000;fill-opacity:1;fill-rule:nonzero;stroke:#60e017;stroke-width:0.07313691;stroke-linecap:round;stroke-linejoin:round;stroke-miterlimit:4;stroke-dasharray:none;stroke-dashoffset:0;stroke-opacity:1;color-rendering:auto;image-rendering:auto;shape-rendering:auto;text-rendering:auto;enable-background:accumulate"
       d="m 1121.5416,1.1074696 c -37.2724,-5.2231 -68.4754,-9.5176 -69.34,-9.5433 l -1.5719,-0.046 0,-25.0694996 c 0,-23.5156 0.076,-25.0448 1.2226,-24.6684 0.6724,0.2206 23.7013,5.652 51.1754,12.0697 27.474,6.4174 58.2839,13.6235 68.4666,16.0133 l 18.514,4.3452 0.1873,18.2769996 c 0.1031,10.0525 -0.054,18.2417004 -0.3493,18.1981004 -0.2952,-0.043 -31.0323,-4.3523004 -68.3047,-9.5755004 z"
       id="path5077"
       inkscape:connector-curvature="0" />
    <path
       style="color:#000000;clip-rule:nonzero;display:inline;overflow:visible;visibility:visible;opacity:1;isolation:auto;mix-blend-mode:normal;color-interpolation:sRGB;color-interpolation-filters:linearRGB;solid-color:#000000;solid-opacity:1;fill:#050000;fill-opacity:1;fill-rule:nonzero;stroke:#60e017;stroke-width:0.07313691;stroke-linecap:round;stroke-linejoin:round;stroke-miterlimit:4;stroke-dasharray:none;stroke-dashoffset:0;stroke-opacity:1;color-rendering:auto;image-rendering:auto;shape-rendering:auto;text-rendering:auto;enable-background:accumulate"
       d="m 1386.4719,38.08607 c -0.3842,-0.1464 -3.9212,-0.6779 -7.8597,-1.1805 l -7.161,-0.9141 0,-9.6179 c 0,-7.3735 0.2037,-9.5338 0.8733,-9.2574 0.4803,0.1982 4.8817,1.3274 9.7809,2.5095 l 8.9077,2.149 0,8.3498 0,8.3495 -1.9213,-0.061 c -1.0567,-0.034 -2.2356,-0.1806 -2.6199,-0.3272 z"
       id="path5079"
       inkscape:connector-curvature="0" />
    <path
       style="color:#000000;clip-rule:nonzero;display:inline;overflow:visible;visibility:visible;opacity:1;isolation:auto;mix-blend-mode:normal;color-interpolation:sRGB;color-interpolation-filters:linearRGB;solid-color:#000000;solid-opacity:1;fill:#050000;fill-opacity:1;fill-rule:nonzero;stroke:#60e017;stroke-width:0.07313691;stroke-linecap:round;stroke-linejoin:round;stroke-miterlimit:4;stroke-dasharray:none;stroke-dashoffset:0;stroke-opacity:1;color-rendering:auto;image-rendering:auto;shape-rendering:auto;text-rendering:auto;enable-background:accumulate"
       d="m 1328.1355,29.97217 c -10.567,-1.6167 -19.2912,-2.9632 -19.3872,-2.9921 -0.096,-0.029 -0.1747,-5.6355 -0.1747,-12.4589 0,-11.9604004 0.049,-12.3920004 1.3751,-12.0101004 0.7563,0.218 9.716,2.4235 19.9105,4.901 l 18.5356,4.5046004 6e-4,10.5845 c 4e-4,5.8215 -0.2351,10.5454 -0.5233,10.4975 -0.2882,-0.048 -9.1697,-1.4097 -19.7366,-3.0265 z"
       id="path5081"
       inkscape:connector-curvature="0" />
  </g>
</svg>
