<?xml version="1.0" encoding="UTF-8" standalone="no"?>
<!-- Created with Inkscape (http://www.inkscape.org/) -->

<svg
   xmlns:dc="http://purl.org/dc/elements/1.1/"
   xmlns:cc="http://creativecommons.org/ns#"
   xmlns:rdf="http://www.w3.org/1999/02/22-rdf-syntax-ns#"
   xmlns:svg="http://www.w3.org/2000/svg"
   xmlns="http://www.w3.org/2000/svg"
   xmlns:sodipodi="http://sodipodi.sourceforge.net/DTD/sodipodi-0.dtd"
   xmlns:inkscape="http://www.inkscape.org/namespaces/inkscape"
   width="1080"
   height="1080"
   viewBox="0 0 1080 1080"
   id="svg4406"
   version="1.1"
   inkscape:version="0.91 r13725"
   sodipodi:docname="vlak4.svg"
   inkscape:export-filename="/Users/zdenek/dev/ste/ios/ste/gfx/icon167.png"
   inkscape:export-xdpi="13.92"
   inkscape:export-ydpi="13.92">
  <defs
     id="defs4408">
    <clipPath
       clipPathUnits="userSpaceOnUse"
       id="clipPath4891">
      <path
         d="m 7876.65,3628.11 -5370.44,-49.42 c 0,0 -101.65,-114.34 -226.97,-144.11 l -13.7,-79.62 -1751.829,-231.44 7362.939,504.59 z"
         id="path4893"
         inkscape:connector-curvature="0" />
    </clipPath>
    <linearGradient
       x1="0"
       y1="0"
       x2="1"
       y2="0"
       gradientUnits="userSpaceOnUse"
       gradientTransform="matrix(7362.94,0,0,-7362.94,513.711,3375.81)"
       spreadMethod="pad"
       id="linearGradient4895">
      <stop
         style="stop-opacity:1;stop-color:#182a47"
         offset="0"
         id="stop4897" />
      <stop
         style="stop-opacity:1;stop-color:#2b54aa"
         offset="0.206061"
         id="stop4899" />
      <stop
         style="stop-opacity:1;stop-color:#447ec9"
         offset="0.393939"
         id="stop4901" />
      <stop
         style="stop-opacity:1;stop-color:#65bee7"
         offset="0.539394"
         id="stop4903" />
      <stop
         style="stop-opacity:1;stop-color:#7dd5ee"
         offset="0.666667"
         id="stop4905" />
      <stop
         style="stop-opacity:1;stop-color:#a0e0f4"
         offset="0.830303"
         id="stop4907" />
      <stop
         style="stop-opacity:1;stop-color:#cfeff6"
         offset="1"
         id="stop4909" />
    </linearGradient>
    <clipPath
       clipPathUnits="userSpaceOnUse"
       id="clipPath4865">
      <path
         d="m 1474.5,4827.63 c 0,0 -472.42,-409.31 -610.266,-835.38 0,0 -118.722,-354.03 285.426,-354.03 0,0 -218.972,-41.51 -301.297,125.32 0,0 82.235,-289.02 425.287,-289.02 l -139.38,-11.76 -2.95,-54.88 -971.715,-92.18 969.995,60.13 1051.11,5.49 28.2,75.18 c 0,0 141.5,28.22 269.95,172.33 l 5397.79,-0.72 -5069.48,1472.85 c 0,0 -831.4,163.25 -1332.67,-273.33 z"
         id="path4867"
         inkscape:connector-curvature="0" />
    </clipPath>
    <linearGradient
       x1="0"
       y1="0"
       x2="1"
       y2="0"
       gradientUnits="userSpaceOnUse"
       gradientTransform="matrix(7717.05,0,0,-7717.05,159.604,4223.27)"
       spreadMethod="pad"
       id="linearGradient4869">
      <stop
         style="stop-opacity:1;stop-color:#182a47"
         offset="0"
         id="stop4871" />
      <stop
         style="stop-opacity:1;stop-color:#2b54aa"
         offset="0.206061"
         id="stop4873" />
      <stop
         style="stop-opacity:1;stop-color:#447ec9"
         offset="0.393939"
         id="stop4875" />
      <stop
         style="stop-opacity:1;stop-color:#65bee7"
         offset="0.539394"
         id="stop4877" />
      <stop
         style="stop-opacity:1;stop-color:#7dd5ee"
         offset="0.666667"
         id="stop4879" />
      <stop
         style="stop-opacity:1;stop-color:#a0e0f4"
         offset="0.830303"
         id="stop4881" />
      <stop
         style="stop-opacity:1;stop-color:#cfeff6"
         offset="1"
         id="stop4883" />
    </linearGradient>
  </defs>
  <sodipodi:namedview
     id="base"
     pagecolor="#ffffff"
     bordercolor="#666666"
     borderopacity="1.0"
     inkscape:pageopacity="0.0"
     inkscape:pageshadow="2"
     inkscape:zoom="0.49497475"
     inkscape:cx="1003.4304"
     inkscape:cy="522.85694"
     inkscape:document-units="px"
     inkscape:current-layer="layer1"
     showgrid="false"
     units="px"
     inkscape:window-width="1920"
     inkscape:window-height="986"
     inkscape:window-x="0"
     inkscape:window-y="1"
     inkscape:window-maximized="1"
     fit-margin-right="840" />
  <metadata
     id="metadata4411">
    <rdf:RDF>
      <cc:Work
         rdf:about="">
        <dc:format>image/svg+xml</dc:format>
        <dc:type
           rdf:resource="http://purl.org/dc/dcmitype/StillImage" />
        <dc:title></dc:title>
      </cc:Work>
    </rdf:RDF>
  </metadata>
  <g
     inkscape:groupmode="layer"
     id="layer2"
     inkscape:label="backround"
     style="display:inline">
    <rect
       style="color:#000000;clip-rule:nonzero;display:inline;overflow:visible;visibility:visible;opacity:1;isolation:auto;mix-blend-mode:normal;color-interpolation:sRGB;color-interpolation-filters:linearRGB;solid-color:#000000;solid-opacity:1;fill:#000000;fill-opacity:1;fill-rule:nonzero;stroke:none;stroke-width:0.043;stroke-linecap:round;stroke-linejoin:round;stroke-miterlimit:4;stroke-dasharray:none;stroke-dashoffset:0;stroke-opacity:1;color-rendering:auto;image-rendering:auto;shape-rendering:auto;text-rendering:auto;enable-background:accumulate"
       id="rect5131"
       width="1078.9604"
       height="1081.4285"
       x="-6.5394811e-06"
       y="3.271248e-06"
       clip-path="none" />
    <flowRoot
       xml:space="preserve"
       id="flowRoot5244"
       style="font-style:normal;font-weight:normal;font-size:40px;line-height:125%;font-family:Sans;letter-spacing:0px;word-spacing:0px;fill:#000000;fill-opacity:1;stroke:none;stroke-width:1px;stroke-linecap:butt;stroke-linejoin:miter;stroke-opacity:1"><flowRegion
         id="flowRegion5246"><rect
           id="rect5248"
           width="721.42859"
           height="251.42857"
           x="1108.5714"
           y="160" /></flowRegion><flowPara
         id="flowPara5250" /></flowRoot>    <g
       transform="matrix(1.3372685,0,0,1.4123072,-6.0261262,-380.6613)"
       style="font-style:normal;font-weight:normal;font-size:40px;line-height:125%;font-family:Sans;letter-spacing:0px;word-spacing:0px;fill:#000000;fill-opacity:1;stroke:none;stroke-width:1px;stroke-linecap:butt;stroke-linejoin:miter;stroke-opacity:1"
       id="flowRoot6171">
      <path
         d="m 89.898828,960.34687 q 4.9,1.05001 10.500002,1.75 4.9,0.7 10.15,1.40001 5.6,0.34999 11.2,0.34999 9.8,0 18.9,-2.09999 9.45,-2.45001 16.8,-7.70001 7.35,-5.25 11.55,-13.29999 4.55,-8.40001 4.55,-20.30001 0,-10.15 -5.25,-19.25 -4.9,-9.1 -12.95,-17.5 -7.7,-8.4 -16.8,-16.1 -8.75,-7.69999 -16.8,-15.4 -7.7,-8.04999 -12.95,-15.75 -4.9,-8.04999 -4.9,-16.44999 0,-12.6 8.05,-19.25 8.05,-7 25.9,-7 2.8,0 5.6,0.34999 3.15,0 5.95,0.35 2.8,0.35 5.6,0.35 l 0,-9.1 q -2.45,0 -5.25,-0.35 -2.45,-0.34999 -5.6,-0.34999 -2.8,-0.35 -5.95,-0.35 -18.9,0 -31.15,8.74999 -12.250002,8.4 -12.250002,26.60001 0,9.79999 4.9,18.54999 5.250002,8.4 12.950002,16.8 8.05,8.05001 16.8,15.75 9.1,7.7 16.8,15.75 8.05,7.7 12.95,16.1 5.25,8.4 5.25,17.5 0,16.80001 -11.55,25.55001 -11.2,8.75 -31.15,8.75 -11.9,0 -21.7,-1.75 -5.250002,-0.70001 -10.150002,-1.75 l 0,9.09999 z m -29.4,-42 q 7.7,2.45 16.1,3.85 7,1.75 15.75,2.80001 9.100002,1.04999 18.200002,1.04999 16.1,0 16.1,-11.89999 0,-4.55001 -4.9,-9.10001 -4.9,-4.89999 -12.6,-10.5 -7.35,-5.95 -16.100002,-12.95 -8.4,-7 -16.1,-16.09999 -7.35,-9.1 -12.25,-20.30001 -4.9,-11.54999 -4.9,-26.25 0,-16.44999 5.95,-29.05 5.95,-12.6 16.45,-20.99999 10.5,-8.4 24.500002,-12.60001 14.35,-4.54999 30.45,-4.54999 8.4,0 16.8,1.04999 8.4,0.70001 15.05,1.4 7.7,1.05001 15.05,2.1 l 0,65.45001 q -2.8,-0.35 -6.3,-0.70001 -2.8,-0.35 -6.3,-0.7 -3.5,-0.34999 -7.35,-0.34999 -2.1,0 -5.25,0.34999 -3.15,0 -5.95,0.7 -2.8,0.70001 -4.9,2.45001 -2.1,1.75 -2.1,4.9 0,2.79999 4.55,7 4.9,4.19999 11.55,9.79999 7,5.6 15.05,12.95001 8.4,7.35 15.05,16.79999 7,9.45001 11.55,21.35 4.9,11.9 4.9,26.60001 0,15.39999 -4.9,29.04999 -4.9,13.30001 -15.4,23.45001 -10.15,9.79999 -26.25,15.39999 -16.1,5.95001 -38.15,5.95001 -13.3,0 -24.850002,-1.40001 -11.2,-1.05 -19.95,-2.8 -10.15,-1.75 -18.55,-4.2 l 0,-70 z"
         style="font-style:normal;font-variant:normal;font-weight:normal;font-stretch:normal;font-size:350px;font-family:Phosphate;-inkscape-font-specification:Phosphate;fill:#f50f0f;fill-opacity:1"
         id="path6184" />
      <path
         d="m 222.27539,932.34687 74.9,0 0,58.45 -74.9,0 0,-58.45 z m 53.9,33.25 0,-8.05 -32.9,0 0,8.05 32.9,0 z"
         style="font-style:normal;font-variant:normal;font-weight:normal;font-stretch:normal;font-size:350px;font-family:Phosphate;-inkscape-font-specification:Phosphate;fill:#f50f0f;fill-opacity:1"
         id="path6186" />
      <path
         d="m 324.55195,818.59687 -43.05,0 0,-61.25 163.1,0 0,61.25 -43.05,0 0,172.2 -77,0 0,-172.2 z m 43.05,144.2 0,-169.04999 50.05,0 0,-8.40001 -109.2,0 0,8.40001 50.05,0 0,169.04999 9.1,0 z"
         style="font-style:normal;font-variant:normal;font-weight:normal;font-stretch:normal;font-size:350px;font-family:Phosphate;-inkscape-font-specification:Phosphate;fill:#381ace;fill-opacity:1"
         id="path6188" />
      <path
         d="m 428.7207,932.34687 74.9,0 0,58.45 -74.9,0 0,-58.45 z m 53.9,33.25 0,-8.05 -32.9,0 0,8.05 32.9,0 z"
         style="font-style:normal;font-variant:normal;font-weight:normal;font-stretch:normal;font-size:350px;font-family:Phosphate;-inkscape-font-specification:Phosphate;fill:#381ace;fill-opacity:1"
         id="path6190" />
      <path
         d="m 526.17383,757.34687 137.55,0 0,61.25 -63,0 0,25.90001 61.95,0 0,58.09999 -61.95,0 0,26.95 65.45,0 0,61.25 -140,0 0,-233.45 z m 114.1,205.45 0,-8.39999 -70,0 0,-76.65 66.5,0 0,-8.40001 -66.5,0 0,-75.59999 70,0 0,-8.40001 -79.1,0 0,177.45 79.1,0 z"
         style="font-style:normal;font-variant:normal;font-weight:normal;font-stretch:normal;font-size:350px;font-family:Phosphate;-inkscape-font-specification:Phosphate;fill:#edf117;fill-opacity:1"
         id="path6192" />
      <path
         d="m 685.75195,932.34687 74.9,0 0,58.45 -74.9,0 0,-58.45 z m 53.9,33.25 0,-8.05 -32.9,0 0,8.05 32.9,0 z"
         style="font-style:normal;font-variant:normal;font-weight:normal;font-stretch:normal;font-size:350px;font-family:Phosphate;-inkscape-font-specification:Phosphate;fill:#edf117;fill-opacity:1"
         id="path6194" />
    </g>
  </g>
  <g
     inkscape:label="Vrstva 1"
     inkscape:groupmode="layer"
     id="layer1"
     transform="translate(0,27.637839)"
     style="display:inline">
    <g
       style="display:inline;stroke:#000000;stroke-opacity:1"
       id="g4861"
       transform="matrix(0.13917015,0,0,-0.2231699,-37.204637,1248.7857)">
      <g
         style="stroke:#000000;stroke-opacity:1"
         clip-path="url(#clipPath4865)"
         id="g4863">
        <path
           sodipodi:nodetypes="ccsccccccccccccc"
           inkscape:connector-curvature="0"
           id="path4885"
           style="fill:url(#linearGradient4869);fill-opacity:1;fill-rule:nonzero;stroke:#000000;stroke-opacity:1"
           d="m 1474.5,4827.63 c 0,0 -472.42,-409.31 -610.266,-835.38 0,0 -29.0776,-86.7096 -9.46497,-174.3045 20.01719,-89.4017 90.75407,-179.7255 294.89097,-179.7255 0,0 -218.972,-41.51 -301.297,125.32 0,0 82.235,-289.02 425.287,-289.02 l -139.38,-11.76 -2.95,-54.88 -971.715,-92.18 969.995,60.13 1051.11,5.49 28.2,75.18 c 0,0 141.5,28.22 269.95,172.33 l 5397.79,-0.72 -5069.48,1472.85 c 0,0 -831.4,163.25 -1332.67,-273.33" />
      </g>
    </g>
    <g
       style="display:inline;stroke:#000000;stroke-opacity:1"
       id="g4887"
       transform="matrix(0.13917015,0,0,-0.2231699,-37.204637,1248.7857)">
      <g
         style="stroke:#000000;stroke-opacity:1"
         clip-path="url(#clipPath4891)"
         id="g4889">
        <path
           inkscape:connector-curvature="0"
           id="path4911"
           style="fill:url(#linearGradient4895);fill-opacity:1;fill-rule:nonzero;stroke:#000000;stroke-opacity:1"
           d="m 7876.65,3628.11 -5370.44,-49.42 c 0,0 -101.65,-114.34 -226.97,-144.11 l -13.7,-79.62 -1751.829,-231.44 7362.939,504.59" />
      </g>
    </g>
    <path
       inkscape:connector-curvature="0"
       id="path4965"
       style="display:inline;fill:#edecec;fill-opacity:1;fill-rule:nonzero;stroke:#000000;stroke-width:0.17623445;stroke-opacity:1"
       d="m 311.85497,135.93102 c 0,0 -42.70296,48.33646 -65.86784,99.80604 0,0 -72.00802,28.64395 -116.94326,13.87671 0,0 70.4354,-175.302106 182.8111,-113.68275" />
    <path
       inkscape:connector-curvature="0"
       id="path4967"
       style="display:inline;fill:#000000;fill-opacity:1;fill-rule:nonzero;stroke:#000000;stroke-width:0.17623445;stroke-opacity:1"
       d="m 151.14547,344.79359 29.54722,-46.71179 30.65639,0 -34.65894,49.79367 -22.98672,-2.42808 22.21155,-2.24955 26.34351,-42.12556 -18.33705,1.4283 -32.77596,42.29301" />
    <path
       inkscape:connector-curvature="0"
       id="path4969"
       style="display:inline;fill:#050000;fill-opacity:1;fill-rule:nonzero;stroke:#000000;stroke-width:0.17623445;stroke-opacity:1"
       d="m 107.54624,343.11982 9.58327,-45.03802 -14.34707,0 -11.306877,43.94216 12.826627,0.70076 -9.357116,-3.57733 9.357116,-38.20454 8.96255,0.39064 -5.7185,41.78633" />
    <path
       inkscape:connector-curvature="0"
       id="path4971"
       style="display:inline;fill:#000000;fill-opacity:1;fill-rule:nonzero;stroke:#000000;stroke-width:0.17623445;stroke-opacity:1"
       d="m 85.485816,391.9494 c 0,0 0.134865,9.97569 3.92238,16.26461 0,0 71.580774,11.15172 116.708084,-12.97062 0,0 70.30598,-37.75589 127.20569,-43.52261 0,0 51.12278,-2.97048 88.28676,3.81836 107.09561,9.03623 637.38117,83.56159 637.38117,83.56159 L 384.00913,327.0739 c 0,0 -56.24561,-12.06011 -131.78439,24.64688 0,0 -62.13112,41.42695 -97.44832,43.52261 0,0 -61.407446,0.74984 -69.290604,-3.29399" />
    <path
       inkscape:connector-curvature="0"
       id="path4973"
       style="display:inline;fill:#000000;fill-opacity:1;fill-rule:nonzero;stroke:#000000;stroke-width:0.17623445;stroke-opacity:1"
       d="m 296.86775,216.46197 c 0,0 48.26837,-91.96172 125.18076,-61.75558 L 1058.9899,439.10073 421.72424,163.46804 c 0,0 -61.13605,-33.84595 -124.85649,52.99393" />
    <path
       inkscape:connector-curvature="0"
       id="path4975"
       style="display:inline;fill:#edecec;fill-opacity:1;fill-rule:nonzero;stroke:#000000;stroke-width:0.17623445;stroke-opacity:1"
       d="m 866.00967,373.98422 -43.14275,-14.82974 0,33.34392 43.14275,8.73701 0,-27.25119" />
    <path
       inkscape:connector-curvature="0"
       id="path4977"
       style="display:inline;fill:#edecec;fill-opacity:1;fill-rule:nonzero;stroke:#000000;stroke-width:0.17623445;stroke-opacity:1"
       d="m 800.59966,351.06913 -96.02744,-32.79937 0,50.1352 96.02744,19.32652 0,-36.66235" />
    <path
       inkscape:connector-curvature="0"
       id="path4979"
       style="display:inline;fill:#edecec;fill-opacity:1;fill-rule:nonzero;stroke:#000000;stroke-width:0.17623445;stroke-opacity:1"
       d="m 486.07513,324.18822 173.96269,35.21407 0,-56.40842 -173.96269,-59.7583 0,80.95265" />
    <path
       inkscape:connector-curvature="0"
       id="path4981"
       style="display:inline;fill:#edecec;fill-opacity:1;fill-rule:nonzero;stroke:#000000;stroke-width:0.17623445;stroke-opacity:1"
       d="m 938.37817,398.69573 -13.917,-4.94312 0,19.13227 13.917,2.9146 0,-17.10375" />
    <path
       inkscape:connector-curvature="0"
       id="path4983"
       style="display:inline;fill:#edecec;fill-opacity:1;fill-rule:nonzero;stroke:#000000;stroke-width:0.17623445;stroke-opacity:1"
       d="m 909.15241,388.80929 -27.83399,-9.88195 0,25.22052 27.83399,5.82688 0,-21.16545" />
    <path
       inkscape:connector-curvature="0"
       id="path4985"
       style="display:inline;fill:#edecec;fill-opacity:1;fill-rule:nonzero;stroke:#000000;stroke-width:0.17623445;stroke-opacity:1"
       d="m 431.79877,224.81512 -26.83758,-9.43562 c 0,0 -42.49978,-22.54675 -83.70249,75.51177 l 110.54007,22.43983 0,-88.51598" />
    <path
       inkscape:connector-curvature="0"
       id="path4987"
       style="display:inline;fill:#edecec;fill-opacity:1;fill-rule:nonzero;stroke:#000000;stroke-width:0.17623445;stroke-opacity:1"
       d="m 949.51172,402.28876 0,15.62636 109.47818,21.18561 -109.47818,-36.81197" />
    <path
       inkscape:connector-curvature="0"
       id="path4989"
       style="display:inline;fill:#f0eedd;fill-opacity:1;fill-rule:nonzero;stroke:#000000;stroke-width:0.17623445;stroke-opacity:1"
       d="m 335.38169,480.54106 c 0,3.40558 -1.21496,6.16628 -2.71243,6.16628 -1.49887,0 -2.71382,-2.7607 -2.71382,-6.16628 0,-3.40557 1.21495,-6.16609 2.71382,-6.16609 1.49747,0 2.71243,2.76052 2.71243,6.16609" />
    <path
       inkscape:connector-curvature="0"
       id="path4991"
       style="display:inline;fill:#f0eedd;fill-opacity:1;fill-rule:nonzero;stroke:#000000;stroke-width:0.17623445;stroke-opacity:1"
       d="m 330.05287,505.18348 c -5.9871,0 -10.83995,-11.03352 -10.83995,-24.64242 0,-13.6089 4.85285,-24.63796 10.83995,-24.63796 0.10998,0 0.21711,0.0286 0.32704,0.0339 -0.93939,-0.57577 -1.92332,-0.91499 -2.94344,-0.91499 -6.20003,0 -11.22686,11.4263 -11.22686,25.51957 0,14.09541 5.02683,25.51938 11.22686,25.51938 1.02012,0 2.00405,-0.33475 2.94344,-0.91499 -0.10998,0 -0.21711,0.0375 -0.32704,0.0375" />
    <path
       inkscape:connector-curvature="0"
       id="path4993"
       style="display:inline;fill:#000000;fill-opacity:0;fill-rule:nonzero;stroke:#000000;stroke-width:0.17623445;stroke-opacity:1"
       d="m 157.44848,471.80405 c 96.58966,-16.78238 91.83282,-71.31618 193.18209,-77.31052 -87.94162,11.13171 -99.05993,71.01714 -193.18209,77.31052" />
    <path
       style="color:#000000;clip-rule:nonzero;display:inline;overflow:visible;visibility:visible;opacity:1;isolation:auto;mix-blend-mode:normal;color-interpolation:sRGB;color-interpolation-filters:linearRGB;solid-color:#000000;solid-opacity:1;fill:#000000;fill-opacity:0;fill-rule:nonzero;stroke:#000000;stroke-width:0.0065308;stroke-linecap:round;stroke-linejoin:round;stroke-miterlimit:4;stroke-dasharray:none;stroke-dashoffset:0;stroke-opacity:1;color-rendering:auto;image-rendering:auto;shape-rendering:auto;text-rendering:auto;enable-background:accumulate"
       d="m 1308.5431,1068.6241 0,-129.22703 63.4593,0 63.4593,0 1.2944,2.55003 c 2.3336,4.59676 5.9165,10.22118 9.0909,14.27109 1.4917,1.90301 4.7998,5.4889 6.5925,7.14608 6.8114,6.29625 14.3594,10.33955 22.9539,12.29577 1.1537,0.26262 2.7693,0.53775 3.5901,0.61148 0.8414,0.075 1.3904,0.1946 1.2586,0.27262 -0.4913,0.29102 -4.0298,0.83252 -11.1781,1.71092 -1.6023,0.19674 -2.9391,0.39938 -2.9706,0.44991 -0.032,0.05 -0.1106,1.64075 -0.1757,3.53358 -0.1958,5.68762 -0.3888,7.729 -0.8056,8.51634 -0.1858,0.351 -0.5533,0.44099 -3.6229,0.88662 -3.858,0.56007 -19.1121,2.86549 -41.4129,6.25911 -8.3065,1.26403 -22.6003,3.42788 -31.7639,4.80868 -25.9539,3.9108 -35.5383,5.4225 -42.1321,6.6458 -1.4174,0.263 -4.3031,0.7393 -6.4127,1.0587 -6.0193,0.9109 -8.2102,1.2939 -7.4316,1.2993 0.3956,0 1.2503,-0.052 1.8994,-0.1197 0.6491,-0.07 1.2051,-0.061 1.2357,0.02 0.031,0.078 0.5608,0.1446 1.1785,0.1446 0.8239,0 1.1696,-0.075 1.2978,-0.2804 0.195,-0.3132 2.5109,-0.584 10.75,-1.2575 15.3864,-1.2576 58.8899,-5.4715 102.6034,-9.9391 l 12.4059,-1.26793 12.7056,-0.15175 c 6.988,-0.0839 16.6296,-0.20514 21.4256,-0.26959 l 8.7201,-0.11783 0,14.5155 0,14.5153 -0.4495,0.1143 c -0.2472,0.062 -18.8695,4.0124 -41.3829,8.7766 -68.8552,14.5707 -80.0577,16.9692 -80.9285,17.3273 -0.2854,0.1179 -1.1662,0.3692 -1.9573,0.5597 -1.7004,0.4094 -1.3231,0.4655 1.3784,0.2046 1.0878,-0.1053 3.4071,-0.2835 5.1541,-0.3969 3.5809,-0.2322 9.5512,-0.8189 18.4591,-1.8139 14.3789,-1.6063 24.0899,-2.6845 35.5995,-3.9528 6.7573,-0.7446 15.7921,-1.7416 20.0772,-2.2154 4.2851,-0.4739 15.6662,-1.7243 25.2912,-2.7789 9.6251,-1.0545 17.7833,-1.9654 18.1294,-2.0241 l 0.6293,-0.1071 0,78.3267 0,78.327 -99.0075,0 -99.0074,0 0,-129.227 z"
       id="path5106"
       inkscape:connector-curvature="0" />
    <path
       style="color:#000000;clip-rule:nonzero;display:inline;overflow:visible;visibility:visible;opacity:1;isolation:auto;mix-blend-mode:normal;color-interpolation:sRGB;color-interpolation-filters:linearRGB;solid-color:#000000;solid-opacity:1;fill:#000000;fill-opacity:0;fill-rule:nonzero;stroke:#000000;stroke-width:0.02612316;stroke-linecap:round;stroke-linejoin:round;stroke-miterlimit:4;stroke-dasharray:none;stroke-dashoffset:0;stroke-opacity:1;color-rendering:auto;image-rendering:auto;shape-rendering:auto;text-rendering:auto;enable-background:accumulate"
       d="m 1046.7533,436.78834 c -2.1095,-0.38421 -23.2535,-4.49233 -46.98647,-9.12908 -23.73305,-4.63676 -44.33761,-8.63561 -45.78797,-8.88609 -4.58881,-0.79271 -4.31513,-0.22817 -4.31513,-8.90073 0,-6.97434 0.0788,-7.6592 0.83904,-7.28767 0.75311,0.36797 19.89776,6.77616 80.90803,27.08177 18.7293,6.2334 23.268,7.98608 20.3768,7.86897 -0.6591,-0.0268 -2.9247,-0.36297 -5.0343,-0.74717 z"
       id="path5108"
       inkscape:connector-curvature="0" />
    <path
       style="color:#000000;clip-rule:nonzero;display:inline;overflow:visible;visibility:visible;opacity:1;isolation:auto;mix-blend-mode:normal;color-interpolation:sRGB;color-interpolation-filters:linearRGB;solid-color:#000000;solid-opacity:1;fill:#000000;fill-opacity:0;fill-rule:nonzero;stroke:#000000;stroke-width:0.02612316;stroke-linecap:round;stroke-linejoin:round;stroke-miterlimit:4;stroke-dasharray:none;stroke-dashoffset:0;stroke-opacity:1;color-rendering:auto;image-rendering:auto;shape-rendering:auto;text-rendering:auto;enable-background:accumulate"
       d="m 1022.7806,432.77931 c -15.0309,-2.59233 -27.55605,-4.95133 -27.83371,-5.24234 -0.27767,-0.29084 -8.58421,-2.1287 -18.45908,-4.08385 -9.87473,-1.95514 -20.00379,-3.97902 -22.50895,-4.49731 l -4.55484,-0.94232 -0.13664,-7.86753 c -0.0998,-5.74101 0.0192,-7.86755 0.44052,-7.86755 0.3174,0 6.85151,2.1053 14.5203,4.67836 13.67694,4.58908 30.01262,9.94748 30.32577,9.94748 0.0872,0 0.15853,-1.1944 0.15853,-2.65429 0,-2.54807 0.0528,-2.6268 1.31853,-1.97015 0.72518,0.37619 13.61647,5.95114 28.64737,12.38861 15.031,6.43748 27.5339,12.00048 27.7844,12.36219 0.6715,0.96944 0.064,0.88232 -29.7022,-4.2513 z"
       id="path5110"
       inkscape:connector-curvature="0" />
    <path
       style="color:#000000;clip-rule:nonzero;display:inline;overflow:visible;visibility:visible;opacity:1;isolation:auto;mix-blend-mode:normal;color-interpolation:sRGB;color-interpolation-filters:linearRGB;solid-color:#000000;solid-opacity:1;fill:#000000;fill-opacity:0;fill-rule:nonzero;stroke:#000000;stroke-width:0.02612316;stroke-linecap:round;stroke-linejoin:round;stroke-miterlimit:4;stroke-dasharray:none;stroke-dashoffset:0;stroke-opacity:1;color-rendering:auto;image-rendering:auto;shape-rendering:auto;text-rendering:auto;enable-background:accumulate"
       d="m 1046.7533,436.78834 c -2.1095,-0.38421 -23.2535,-4.49233 -46.98647,-9.12908 -23.73305,-4.63676 -44.33761,-8.63561 -45.78797,-8.88609 -4.58881,-0.79271 -4.31513,-0.22817 -4.31513,-8.90073 0,-6.97434 0.0788,-7.6592 0.83904,-7.28767 0.75311,0.36797 19.89776,6.77616 80.90803,27.08177 18.7293,6.2334 23.268,7.98608 20.3768,7.86897 -0.6591,-0.0268 -2.9247,-0.36297 -5.0343,-0.74717 z"
       id="path5112"
       inkscape:connector-curvature="0" />
    <path
       style="color:#000000;clip-rule:nonzero;display:inline;overflow:visible;visibility:visible;opacity:1;isolation:auto;mix-blend-mode:normal;color-interpolation:sRGB;color-interpolation-filters:linearRGB;solid-color:#000000;solid-opacity:1;fill:#000000;fill-opacity:1;fill-rule:nonzero;stroke:#000000;stroke-width:0.02612316;stroke-linecap:round;stroke-linejoin:round;stroke-miterlimit:4;stroke-dasharray:none;stroke-dashoffset:0;stroke-opacity:1;color-rendering:auto;image-rendering:auto;shape-rendering:auto;text-rendering:auto;enable-background:accumulate"
       d="m 1046.7533,436.78834 c -2.1095,-0.38421 -23.2535,-4.49233 -46.98647,-9.12908 -23.73305,-4.63676 -44.33761,-8.63561 -45.78797,-8.88609 -4.58881,-0.79271 -4.31513,-0.22817 -4.31513,-8.90073 0,-6.97434 0.0788,-7.6592 0.83904,-7.28767 0.75311,0.36797 19.89776,6.77616 80.90803,27.08177 18.7293,6.2334 23.268,7.98608 20.3768,7.86897 -0.6591,-0.0268 -2.9247,-0.36297 -5.0343,-0.74717 z"
       id="path5114"
       inkscape:connector-curvature="0" />
    <g
       style="display:inline"
       transform="matrix(1.1307352,-0.12281764,-0.09295813,-1.6055004,-253.09092,653.83104)"
       id="g4256">
      <path
         inkscape:connector-curvature="0"
         id="path4258"
         style="fill:#3667b8;fill-opacity:1;fill-rule:nonzero;stroke:none;stroke-width:0.10006095;stroke-opacity:1"
         d="m 282.6879,28.7012 c 0,-0.6383 0.0971,-1.1793 0.29736,-1.6262 0.19824,-0.4461 0.46957,-0.7859 0.81199,-1.0109 0.34442,-0.2282 0.72188,-0.3399 1.13138,-0.3399 0.4125,0 0.78896,0.1059 1.13238,0.3207 0.34041,0.2192 0.61474,0.5473 0.81999,0.9903 0.20025,0.4457 0.30237,1.0007 0.30237,1.666 0,0.6258 -0.10212,1.1629 -0.30237,1.6148 -0.20525,0.45 -0.48058,0.7942 -0.828,1.0309 -0.34943,0.239 -0.72989,0.3562 -1.1424,0.3562 -0.43152,0 -0.81599,-0.1191 -1.1544,-0.364 -0.33942,-0.2469 -0.60274,-0.595 -0.78796,-1.052 -0.18823,-0.4539 -0.28034,-0.982 -0.28034,-1.5859 m 4.62563,-3.4492 0,0.2332 c -0.31438,-0.3641 -0.62576,-0.6571 -0.93414,-0.884 -0.30737,-0.2282 -0.63978,-0.3992 -0.99921,-0.518 -0.36044,-0.118 -0.75092,-0.1762 -1.17644,-0.1762 -0.56268,0 -1.08332,0.12 -1.5649,0.3582 -0.47758,0.2399 -0.89309,0.5789 -1.24252,1.0188 -0.35343,0.441 -0.61675,0.9629 -0.79797,1.5601 -0.18122,0.595 -0.27233,1.2391 -0.27233,1.9348 0,1.468 0.36144,2.6133 1.07931,3.4332 0.71588,0.8199 1.66203,1.2309 2.83346,1.2309 0.67782,0 1.24952,-0.1168 1.71508,-0.3489 0.46457,-0.2339 0.91712,-0.589 1.35966,-1.073 l 0,3.4687 c 0,0.4832 0.0981,0.8473 0.28935,1.0942 0.19124,0.2469 0.46557,0.3711 0.822,0.3711 0.35544,0 0.63077,-0.116 0.82501,-0.3422 0.19123,-0.2238 0.28835,-0.5598 0.28835,-1.0027 l 0,-10.3582 c 0,-0.4469 -0.10513,-0.7829 -0.31138,-1.0071 -0.20625,-0.225 -0.47458,-0.3379 -0.80198,-0.3379 -0.32239,0 -0.58771,0.1149 -0.79597,0.3489 -0.21025,0.2312 -0.31538,0.5671 -0.31538,0.9961" />
      <path
         inkscape:connector-curvature="0"
         id="path4260"
         style="fill:#3667b8;fill-opacity:1;fill-rule:nonzero;stroke:none;stroke-width:0.10006095;stroke-opacity:1"
         d="m 293.86151,29.4398 4.26319,0 c -0.0561,0.8043 -0.27434,1.4043 -0.65079,1.8024 -0.37646,0.4 -0.86906,0.6008 -1.48381,0.6008 -0.58672,0 -1.0683,-0.202 -1.44376,-0.6078 -0.37546,-0.4032 -0.60474,-1.0043 -0.68483,-1.7954 m 4.6006,-1.332 -4.6006,0 c 0.005,-0.5348 0.11313,-1.0047 0.32239,-1.4117 0.21126,-0.4063 0.48859,-0.7152 0.83602,-0.9199 0.34842,-0.2071 0.73089,-0.3102 1.1504,-0.3102 0.28234,0 0.53765,0.0352 0.77194,0.0961 0.23128,0.066 0.45655,0.175 0.67582,0.3121 0.21827,0.1418 0.41751,0.293 0.60374,0.4528 0.18222,0.1582 0.42051,0.3761 0.71387,0.6519 0.12014,0.1031 0.29235,0.159 0.51663,0.159 0.24129,0 0.43553,-0.0699 0.58371,-0.2008 0.15218,-0.1308 0.22727,-0.3172 0.22727,-0.5582 0,-0.2117 -0.0851,-0.4609 -0.2493,-0.7457 -0.16921,-0.282 -0.41951,-0.5582 -0.75592,-0.8184 -0.33441,-0.2578 -0.75592,-0.4769 -1.26654,-0.65 -0.50762,-0.1707 -1.09233,-0.2578 -1.75314,-0.2578 -1.51084,0 -2.68527,0.4309 -3.52329,1.291 -0.83902,0.8622 -1.25753,2.0282 -1.25753,3.5032 0,0.6937 0.10412,1.341 0.31038,1.934 0.20725,0.5918 0.50661,1.1019 0.9041,1.525 0.39748,0.423 0.88508,0.75 1.46478,0.98 0.58071,0.2227 1.22349,0.3368 1.93035,0.3368 0.91912,0 1.70708,-0.1938 2.36388,-0.5809 0.6588,-0.3879 1.1504,-0.8879 1.4788,-1.5012 0.3264,-0.6148 0.4906,-1.241 0.4906,-1.8758 0,-0.5902 -0.17121,-0.975 -0.50962,-1.1519 -0.33741,-0.1731 -0.81399,-0.2594 -1.42874,-0.2594" />
      <path
         inkscape:connector-curvature="0"
         id="path4262"
         style="fill:#3667b8;fill-opacity:1;fill-rule:nonzero;stroke:none;stroke-width:0.10006095;stroke-opacity:1"
         d="m 309.95411,26.9789 c 0,-0.6457 -0.15719,-1.2019 -0.47358,-1.6641 -0.31438,-0.4609 -0.78095,-0.8089 -1.3967,-1.0507 -0.61875,-0.2371 -1.37267,-0.3559 -2.25274,-0.3559 -0.84804,0 -1.57292,0.1297 -2.17365,0.3867 -0.60574,0.2582 -1.04828,0.5821 -1.33663,0.9711 -0.28535,0.3828 -0.42952,0.7738 -0.42952,1.1621 0,0.259 0.0911,0.4809 0.27333,0.6641 0.18523,0.1828 0.41651,0.2769 0.69885,0.2769 0.2483,0 0.43653,-0.0621 0.56869,-0.182 0.13317,-0.1211 0.26132,-0.2891 0.38047,-0.507 0.24029,-0.4199 0.52964,-0.7321 0.86405,-0.9379 0.33841,-0.2063 0.79697,-0.3109 1.37668,-0.3109 0.46957,0 0.85804,0.1046 1.15841,0.3156 0.30036,0.2082 0.45055,0.448 0.45055,0.7172 0,0.4148 -0.1582,0.716 -0.47058,0.905 -0.31338,0.1872 -0.827,0.3688 -1.54388,0.5399 -0.81099,0.2031 -1.46779,0.4121 -1.97841,0.632 -0.50561,0.2231 -0.91311,0.5129 -1.21748,0.875 -0.30537,0.3602 -0.45556,0.8059 -0.45556,1.3352 0,0.466 0.13817,0.9136 0.41952,1.334 0.28034,0.4168 0.69885,0.75 1.24351,1.0019 0.54967,0.25 1.21348,0.3738 1.98842,0.3738 0.60674,0 1.15241,-0.0629 1.64,-0.1898 0.48459,-0.1289 0.88908,-0.2961 1.21648,-0.509 0.3234,-0.2152 0.5697,-0.4449 0.7399,-0.7051 0.16921,-0.2609 0.25431,-0.5109 0.25431,-0.757 0,-0.2691 -0.0891,-0.4918 -0.27333,-0.659 -0.17722,-0.1758 -0.43653,-0.259 -0.76894,-0.259 -0.24229,0 -0.44754,0.0668 -0.61575,0.2032 -0.1692,0.139 -0.36344,0.3468 -0.58271,0.6179 -0.17821,0.2321 -0.38447,0.4168 -0.62976,0.5539 -0.2423,0.1371 -0.5677,0.2059 -0.9802,0.2059 -0.42752,0 -0.77895,-0.091 -1.06129,-0.2738 -0.28134,-0.1801 -0.42151,-0.4032 -0.42151,-0.6719 0,-0.2492 0.10412,-0.45 0.31037,-0.6082 0.20626,-0.157 0.48459,-0.286 0.83602,-0.3918 0.34743,-0.1024 0.83101,-0.2301 1.44576,-0.377 0.73189,-0.1793 1.32662,-0.3902 1.79018,-0.6363 0.46056,-0.2488 0.81099,-0.5387 1.04928,-0.875 0.23929,-0.334 0.35744,-0.718 0.35744,-1.15" />
      <path
         inkscape:connector-curvature="0"
         id="path4264"
         style="fill:#3667b8;fill-opacity:1;fill-rule:nonzero;stroke:none;stroke-width:0.10006095;stroke-opacity:1"
         d="m 314.2984,32.1281 0,-6.791 c 0,-0.4723 -0.11414,-0.8262 -0.33841,-1.068 -0.22428,-0.241 -0.50662,-0.3621 -0.85104,-0.3621 -0.34542,0 -0.62776,0.125 -0.84002,0.3711 -0.21727,0.2469 -0.3234,0.6 -0.3234,1.059 l 0,6.7199 c 0,0.4649 0.10613,0.816 0.3234,1.05 0.21226,0.2352 0.4946,0.3539 0.84002,0.3539 0.34442,0 0.62676,-0.1187 0.85104,-0.3539 0.22427,-0.234 0.33841,-0.564 0.33841,-0.9789 m -1.16342,2.4239 c -0.3284,0 -0.60774,0.1011 -0.84102,0.3019 -0.23229,0.2 -0.34843,0.484 -0.34843,0.85 0,0.3332 0.11815,0.609 0.35844,0.8231 0.23629,0.2152 0.51262,0.3222 0.83101,0.3222 0.30137,0 0.5727,-0.0953 0.80799,-0.2902 0.23628,-0.1969 0.35543,-0.482 0.35543,-0.8551 0,-0.3578 -0.11614,-0.643 -0.34442,-0.8469 -0.23128,-0.2039 -0.50462,-0.305 -0.819,-0.305" />
      <path
         inkscape:connector-curvature="0"
         id="path4266"
         style="fill:#3667b8;fill-opacity:1;fill-rule:nonzero;stroke:none;stroke-width:0.10006095;stroke-opacity:1"
         d="m 318.55959,28.7629 c 0,-0.9539 0.20925,-1.6758 0.62576,-2.1598 0.41751,-0.4902 0.95717,-0.7332 1.61497,-0.7332 0.39047,0 0.76092,0.1043 1.10735,0.3141 0.34742,0.209 0.63177,0.525 0.85003,0.9469 0.21727,0.4222 0.3284,0.932 0.3284,1.5371 0,0.957 -0.21326,1.7019 -0.63477,2.2379 -0.42151,0.532 -0.97819,0.798 -1.66803,0.798 -0.67182,0 -1.20948,-0.2527 -1.61397,-0.7668 -0.40649,-0.509 -0.60974,-1.2351 -0.60974,-2.1742 m 6.8153,2.975 0,-6.8199 c 0,-0.7828 -0.0821,-1.452 -0.2473,-2.016 -0.16821,-0.5641 -0.43553,-1.027 -0.80298,-1.393 -0.36645,-0.3668 -0.84903,-0.641 -1.44376,-0.8211 -0.59472,-0.1727 -1.33362,-0.2617 -2.2157,-0.2617 -0.81098,0 -1.53487,0.1109 -2.17264,0.3367 -0.63878,0.2281 -1.12637,0.5191 -1.4738,0.8773 -0.34442,0.3598 -0.51462,0.7278 -0.51462,1.1078 0,0.2852 0.0971,0.5192 0.29335,0.7008 0.19324,0.1801 0.42852,0.2723 0.70586,0.2723 0.34042,0 0.64379,-0.1539 0.9021,-0.4559 0.12716,-0.1574 0.25731,-0.3132 0.39248,-0.4703 0.13516,-0.157 0.28735,-0.2929 0.44754,-0.4047 0.1632,-0.1121 0.36044,-0.1953 0.59072,-0.25 0.22828,-0.0543 0.49461,-0.0832 0.79197,-0.0832 0.60774,0 1.08332,0.0832 1.41973,0.2551 0.33641,0.168 0.56869,0.4059 0.70586,0.709 0.13516,0.307 0.21326,0.6301 0.23528,0.9801 0.025,0.3429 0.041,0.9 0.0541,1.6718 -0.36344,-0.5058 -0.78195,-0.8898 -1.25653,-1.1539 -0.47258,-0.2632 -1.03726,-0.3949 -1.69206,-0.3949 -0.78396,0 -1.4728,0.1996 -2.06352,0.602 -0.59071,0.4008 -1.04026,0.9617 -1.35665,1.6867 -0.31438,0.7242 -0.47357,1.5582 -0.47357,2.5051 0,0.7039 0.0961,1.3402 0.28935,1.909 0.19223,0.5679 0.46757,1.0472 0.823,1.4382 0.35643,0.3918 0.76693,0.686 1.2325,0.8809 0.46357,0.1961 0.97619,0.2961 1.53287,0.2961 0.66381,0 1.24251,-0.1274 1.73311,-0.3832 0.48459,-0.2527 0.93814,-0.6559 1.36266,-1.2 l 0,0.318 c 0,0.4062 0.0991,0.7218 0.29936,0.9472 0.19925,0.2238 0.45756,0.3367 0.77395,0.3367 0.45355,0 0.75291,-0.15 0.9041,-0.4449 0.14818,-0.2941 0.22327,-0.7191 0.22327,-1.2781" />
      <path
         inkscape:connector-curvature="0"
         id="path4268"
         style="fill:#3667b8;fill-opacity:1;fill-rule:nonzero;stroke:none;stroke-width:0.10006095;stroke-opacity:1"
         d="m 329.89339,32.1609 0,-0.2839 c 0.41251,0.5449 0.86205,0.946 1.35365,1.2 0.4926,0.2531 1.05729,0.3839 1.69306,0.3839 0.62176,0 1.17443,-0.1347 1.66603,-0.407 0.48359,-0.268 0.84904,-0.65 1.09033,-1.1437 0.15719,-0.2872 0.25631,-0.5961 0.30137,-0.9282 0.046,-0.3359 0.0691,-0.7578 0.0691,-1.275 l 0,-4.3699 c 0,-0.4711 -0.10813,-0.8262 -0.32139,-1.068 -0.21426,-0.2402 -0.49861,-0.3609 -0.83902,-0.3609 -0.35343,0 -0.63678,0.1238 -0.85404,0.3699 -0.21927,0.2469 -0.3264,0.6 -0.3264,1.059 l 0,3.9149 c 0,0.7742 -0.10813,1.366 -0.32339,1.7789 -0.21827,0.4089 -0.64479,0.614 -1.28857,0.614 -0.42152,0 -0.80098,-0.1258 -1.1454,-0.375 -0.34642,-0.2469 -0.59973,-0.591 -0.76192,-1.0277 -0.11014,-0.3512 -0.17021,-1.0063 -0.17021,-1.9633 l 0,-2.9418 c 0,-0.4781 -0.11014,-0.8312 -0.33141,-1.073 -0.22127,-0.2371 -0.50862,-0.3559 -0.85804,-0.3559 -0.33841,0 -0.61475,0.1238 -0.83502,0.3699 -0.21726,0.2469 -0.32539,0.6 -0.32539,1.059 l 0,6.791 c 0,0.4457 0.0961,0.7789 0.29135,1.0008 0.19424,0.2203 0.46156,0.332 0.80198,0.332 0.20725,0 0.39348,-0.0507 0.55968,-0.1461 0.1642,-0.0988 0.29936,-0.2468 0.40049,-0.4386 0.10012,-0.1973 0.15318,-0.4313 0.15318,-0.7153" />
      <path
         inkscape:connector-curvature="0"
         id="path4270"
         style="fill:#3667b8;fill-opacity:1;fill-rule:nonzero;stroke:none;stroke-width:0.10006095;stroke-opacity:1"
         d="m 340.37516,29.4398 4.26419,0 c -0.0601,0.8043 -0.27333,1.4043 -0.65079,1.8024 -0.37345,0.4 -0.87206,0.6008 -1.48481,0.6008 -0.58671,0 -1.0673,-0.202 -1.44476,-0.6078 -0.37545,-0.4032 -0.60373,-1.0043 -0.68383,-1.7954 m 4.6006,-1.332 -4.6006,0 c 0.006,-0.5348 0.11314,-1.0047 0.32239,-1.4117 0.20926,-0.4063 0.4906,-0.7152 0.83502,-0.9199 0.34842,-0.2071 0.73289,-0.3102 1.1524,-0.3102 0.28035,0 0.53866,0.0352 0.76994,0.0961 0.23128,0.066 0.45756,0.175 0.67783,0.3121 0.21726,0.1418 0.41951,0.293 0.60273,0.4528 0.18322,0.1582 0.42051,0.3761 0.71387,0.6519 0.12115,0.1031 0.29336,0.159 0.51563,0.159 0.2433,0 0.43653,-0.0699 0.58771,-0.2008 0.14819,-0.1308 0.22428,-0.3172 0.22428,-0.5582 0,-0.2117 -0.0821,-0.4609 -0.25031,-0.7457 -0.1662,-0.282 -0.41851,-0.5582 -0.75492,-0.8184 -0.3354,-0.2578 -0.75792,-0.4769 -1.26554,-0.65 -0.50962,-0.1707 -1.09433,-0.2578 -1.75213,-0.2578 -1.51284,0 -2.68627,0.4309 -3.52329,1.291 -0.84203,0.8622 -1.26154,2.0282 -1.26154,3.5032 0,0.6937 0.10613,1.341 0.31138,1.934 0.20725,0.5918 0.50862,1.1019 0.9071,1.525 0.39549,0.423 0.88208,0.75 1.46279,0.98 0.5807,0.2227 1.22349,0.3368 1.93035,0.3368 0.91912,0 1.70708,-0.1938 2.36588,-0.5809 0.6558,-0.3879 1.1484,-0.8879 1.4778,-1.5012 0.3274,-0.6148 0.4896,-1.241 0.4896,-1.8758 0,-0.5902 -0.17221,-0.975 -0.50662,-1.1519 -0.34042,-0.1731 -0.816,-0.2594 -1.43175,-0.2594" />
      <path
         inkscape:connector-curvature="0"
         id="path4272"
         style="fill:#3667b8;fill-opacity:1;fill-rule:nonzero;stroke:none;stroke-width:0.10006095;stroke-opacity:1"
         d="m 350.71576,28.7012 c 0,-0.6383 0.0961,-1.1793 0.29536,-1.6262 0.19924,-0.4461 0.46656,-0.7859 0.81599,-1.0109 0.34342,-0.2282 0.71887,-0.3399 1.12637,-0.3399 0.41551,0 0.79197,0.1059 1.13538,0.3207 0.33842,0.2192 0.61275,0.5473 0.816,0.9903 0.20525,0.4457 0.30837,1.0007 0.30837,1.666 0,0.6258 -0.10312,1.1629 -0.30837,1.6148 -0.20325,0.45 -0.47758,0.7942 -0.82801,1.0309 -0.34642,0.239 -0.72689,0.3562 -1.14039,0.3562 -0.42952,0 -0.81599,-0.1191 -1.15541,-0.364 -0.34041,-0.2469 -0.59973,-0.595 -0.78696,-1.052 -0.18722,-0.4539 -0.27833,-0.982 -0.27833,-1.5859 m 4.62463,-3.4492 0,0.2332 c -0.31639,-0.3641 -0.62777,-0.6571 -0.93614,-0.884 -0.30537,-0.2282 -0.64178,-0.3992 -0.99722,-0.518 -0.36044,-0.118 -0.75291,-0.1762 -1.17743,-0.1762 -0.56369,0 -1.08232,0.12 -1.5629,0.3582 -0.47859,0.2399 -0.89509,0.5789 -1.24552,1.0188 -0.34943,0.441 -0.61475,0.9629 -0.79597,1.5601 -0.18122,0.595 -0.27233,1.2391 -0.27233,1.9348 0,1.468 0.36044,2.6133 1.07631,3.4332 0.71787,0.8199 1.66403,1.2309 2.83545,1.2309 0.67883,0 1.24952,-0.1168 1.71309,-0.3489 0.46456,-0.2339 0.92012,-0.589 1.36266,-1.073 l 0,3.4687 c 0,0.4832 0.0961,0.8473 0.28935,1.0942 0.19324,0.2469 0.46557,0.3711 0.823,0.3711 0.35443,0 0.62577,-0.116 0.822,-0.3422 0.19324,-0.2238 0.28735,-0.5598 0.28735,-1.0027 l 0,-10.3582 c 0,-0.4469 -0.10212,-0.7829 -0.30837,-1.0071 -0.20825,-0.225 -0.47458,-0.3379 -0.80098,-0.3379 -0.32239,0 -0.58871,0.1149 -0.79797,0.3489 -0.20925,0.2312 -0.31438,0.5671 -0.31438,0.9961" />
      <path
         inkscape:connector-curvature="0"
         id="path4274"
         style="fill:#3667b8;fill-opacity:1;fill-rule:nonzero;stroke:none;stroke-width:0.10006095;stroke-opacity:1"
         d="m 366.61812,28.634 c 0,-0.9379 0.21326,-1.6551 0.64079,-2.1551 0.43052,-0.5047 0.9892,-0.7547 1.68405,-0.7547 0.59272,0 1.10234,0.2547 1.52986,0.7719 0.42752,0.5109 0.64078,1.2469 0.64078,2.2051 0,0.6199 -0.0881,1.1519 -0.26733,1.6 -0.17621,0.45 -0.42952,0.7918 -0.75792,1.0379 -0.32439,0.2449 -0.70786,0.3648 -1.14539,0.3648 -0.44955,0 -0.84503,-0.1199 -1.19746,-0.3648 -0.34943,-0.2461 -0.62476,-0.5969 -0.82701,-1.061 -0.20024,-0.4601 -0.30037,-1.009 -0.30037,-1.6441 m -0.11213,6.9762 0,-3.5891 c 0.44254,0.4609 0.89409,0.8129 1.35164,1.0559 0.45956,0.2441 1.02726,0.3652 1.70909,0.3652 0.77794,0 1.46278,-0.184 2.05149,-0.5551 0.58972,-0.3691 1.04628,-0.907 1.36867,-1.6082 0.3264,-0.7008 0.4876,-1.5359 0.4876,-2.5008 0,-0.7133 -0.0891,-1.3621 -0.27033,-1.9582 -0.18223,-0.5937 -0.44454,-1.107 -0.78696,-1.5418 -0.34542,-0.434 -0.76193,-0.7722 -1.25253,-1.014 -0.4936,-0.2379 -1.03526,-0.3559 -1.62698,-0.3559 -0.36144,0 -0.70286,0.0438 -1.01924,0.1297 -0.31839,0.0863 -0.59072,0.198 -0.81499,0.3391 -0.22328,0.141 -0.41651,0.2851 -0.5747,0.4351 -0.15719,0.1481 -0.36244,0.3719 -0.62276,0.6719 l 0,-0.232 c 0,-0.4438 -0.10513,-0.777 -0.32039,-1.0059 -0.21126,-0.225 -0.48059,-0.3379 -0.80999,-0.3379 -0.3314,0 -0.59773,0.1129 -0.79697,0.3379 -0.19624,0.2289 -0.29636,0.5621 -0.29636,1.0059 l 0,10.2562 c 0,0.4727 0.0961,0.8359 0.29035,1.082 0.19324,0.2407 0.46056,0.3649 0.80298,0.3649 0.36244,0 0.64379,-0.116 0.83802,-0.3512 0.19624,-0.232 0.29236,-0.5641 0.29236,-0.9937" />
      <path
         inkscape:connector-curvature="0"
         id="path4276"
         style="fill:#3667b8;fill-opacity:1;fill-rule:nonzero;stroke:none;stroke-width:0.10006095;stroke-opacity:1"
         d="m 377.30214,23.6148 0.21326,0.5274 -2.89353,7.2789 c -0.17921,0.418 -0.26832,0.7219 -0.26832,0.9109 0,0.2 0.0541,0.3891 0.15418,0.5602 0.10513,0.1726 0.24831,0.3098 0.42652,0.4117 0.18122,0.102 0.37146,0.157 0.56569,0.157 0.33942,0 0.59573,-0.1078 0.76594,-0.3207 0.17221,-0.2191 0.32639,-0.5242 0.45755,-0.9281 l 1.99143,-5.784 1.8863,5.3789 c 0.14918,0.4379 0.28434,0.775 0.40249,1.0262 0.12315,0.2449 0.2503,0.4109 0.38747,0.4969 0.13316,0.0859 0.32439,0.1308 0.56969,0.1308 0.17722,0 0.34943,-0.0488 0.51363,-0.1429 0.1632,-0.0938 0.28835,-0.2231 0.37746,-0.3809 0.0881,-0.1652 0.13516,-0.332 0.13516,-0.5101 -0.024,-0.109 -0.0591,-0.2629 -0.11113,-0.4641 -0.0531,-0.202 -0.11614,-0.4039 -0.19023,-0.6117 l -3.06574,-8.018 c -0.26632,-0.709 -0.52264,-1.2594 -0.77895,-1.6602 -0.2503,-0.4019 -0.58571,-0.7101 -1.00122,-0.9261 -0.4165,-0.216 -0.97919,-0.3219 -1.68605,-0.3219 -0.68784,0 -1.20647,0.073 -1.54989,0.2219 -0.34442,0.148 -0.51663,0.4211 -0.51663,0.816 0,0.2691 0.0821,0.4793 0.2473,0.625 0.1622,0.1473 0.40349,0.2223 0.72689,0.2223 0.12515,0 0.2483,-0.0211 0.36945,-0.0543 0.15018,-0.0368 0.27934,-0.052 0.38947,-0.052 0.26933,0 0.47859,0.0422 0.63678,0.1231 0.15419,0.08 0.29536,0.2171 0.41751,0.4179 0.12315,0.1961 0.26532,0.4871 0.42752,0.8699" />
      <path
         inkscape:connector-curvature="0"
         id="path4278"
         style="fill:#3667b8;fill-opacity:1;fill-rule:nonzero;stroke:none;stroke-width:0.10006095;stroke-opacity:1"
         d="m 420.82515,33.2551 0.56269,0 0,0.7031 c 0,0.7348 0.0901,1.3199 0.28134,1.752 0.18122,0.432 0.50061,0.7507 0.94415,0.9457 0.44554,0.198 1.05528,0.2992 1.83023,0.2992 1.37267,0 2.06051,-0.336 2.06051,-1.0082 0,-0.2199 -0.0721,-0.4059 -0.21627,-0.561 -0.14217,-0.1539 -0.31338,-0.2308 -0.50862,-0.2308 -0.0961,0 -0.2503,0.016 -0.47558,0.0508 -0.22227,0.0363 -0.4105,0.0523 -0.56769,0.0523 -0.42451,0 -0.69685,-0.1242 -0.81399,-0.3742 -0.12415,-0.25 -0.18022,-0.609 -0.18022,-1.0719 l 0,-0.557 0.5717,0 c 0.89809,0 1.34464,-0.2742 1.34464,-0.8102 0,-0.3859 -0.11615,-0.6308 -0.35744,-0.732 -0.23829,-0.1027 -0.56469,-0.1539 -0.9872,-0.1539 l -0.5717,0 0,-6.2219 c 0,-0.4652 -0.11514,-0.8191 -0.33741,-1.0652 -0.22027,-0.243 -0.50862,-0.3637 -0.85704,-0.3637 -0.33041,0 -0.60674,0.1207 -0.83001,0.3637 -0.22328,0.2461 -0.3294,0.6 -0.3294,1.0652 l 0,6.2219 -0.64779,0 c -0.34843,0 -0.61976,0.0762 -0.80999,0.2371 -0.19123,0.1559 -0.28635,0.3609 -0.28635,0.6148 0,0.559 0.39448,0.8442 1.18144,0.8442" />
      <path
         inkscape:connector-curvature="0"
         id="path4280"
         style="fill:#3667b8;fill-opacity:1;fill-rule:nonzero;stroke:none;stroke-width:0.10006095;stroke-opacity:1"
         d="m 429.22538,27.2992 0,-1.9621 c 0,-0.4793 -0.11013,-0.8312 -0.3334,-1.073 -0.22928,-0.2379 -0.50963,-0.3559 -0.85605,-0.3559 -0.3344,0 -0.61575,0.1199 -0.83501,0.3609 -0.21727,0.2418 -0.3284,0.5969 -0.3284,1.068 l 0,6.5399 c 0,1.055 0.38446,1.5839 1.14639,1.5839 0.39048,0 0.67382,-0.1238 0.84603,-0.3699 0.17121,-0.2469 0.26332,-0.6121 0.28335,-1.0961 0.28534,0.484 0.57069,0.8492 0.86505,1.0961 0.29836,0.2461 0.69485,0.3699 1.18645,0.3699 0.49159,0 0.97318,-0.1238 1.43675,-0.3699 0.46857,-0.2469 0.69985,-0.5758 0.69985,-0.984 0,-0.2871 -0.0981,-0.5211 -0.30037,-0.7101 -0.19524,-0.1828 -0.4095,-0.2758 -0.63978,-0.2758 -0.0831,0 -0.29436,0.0508 -0.62676,0.1578 -0.3284,0.1082 -0.61875,0.159 -0.87206,0.159 -0.34542,0 -0.62677,-0.091 -0.84403,-0.2731 -0.21426,-0.1789 -0.39048,-0.4468 -0.50762,-0.8058 -0.12315,-0.3539 -0.20525,-0.7781 -0.25431,-1.2668 -0.043,-0.4891 -0.0661,-1.0902 -0.0661,-1.793" />
      <path
         inkscape:connector-curvature="0"
         id="path4282"
         style="fill:#3667b8;fill-opacity:1;fill-rule:nonzero;stroke:none;stroke-width:0.10006095;stroke-opacity:1"
         d="m 436.14381,29.4398 4.26619,0 c -0.0581,0.8043 -0.27233,1.4043 -0.65179,1.8024 -0.37746,0.4 -0.87106,0.6008 -1.48581,0.6008 -0.58471,0 -1.0683,-0.202 -1.44376,-0.6078 -0.37345,-0.4032 -0.60473,-1.0043 -0.68483,-1.7954 m 4.6016,-1.332 -4.6016,0 c 0.007,-0.5348 0.11113,-1.0047 0.32339,-1.4117 0.20826,-0.4063 0.48659,-0.7152 0.83502,-0.9199 0.34942,-0.2071 0.73389,-0.3102 1.1514,-0.3102 0.28034,0 0.54066,0.0352 0.77194,0.0961 0.23128,0.066 0.45556,0.175 0.67382,0.3121 0.21927,0.1418 0.42152,0.293 0.60674,0.4528 0.18122,0.1582 0.41951,0.3761 0.71087,0.6519 0.12114,0.1031 0.29736,0.159 0.52263,0.159 0.23629,0 0.43053,-0.0699 0.57871,-0.2008 0.15218,-0.1308 0.22627,-0.3172 0.22627,-0.5582 0,-0.2117 -0.0821,-0.4609 -0.2483,-0.7457 -0.1692,-0.282 -0.41751,-0.5582 -0.75091,-0.8184 -0.33841,-0.2578 -0.75893,-0.4769 -1.27155,-0.65 -0.50662,-0.1707 -1.09233,-0.2578 -1.75214,-0.2578 -1.51184,0 -2.68427,0.4309 -3.52329,1.291 -0.83702,0.8622 -1.25853,2.0282 -1.25853,3.5032 0,0.6937 0.10413,1.341 0.31038,1.934 0.20725,0.5918 0.50862,1.1019 0.9021,1.525 0.39948,0.423 0.88808,0.75 1.46879,0.98 0.5787,0.2227 1.22248,0.3368 1.93035,0.3368 0.91611,0 1.70407,-0.1938 2.36187,-0.5809 0.65981,-0.3879 1.15441,-0.8879 1.47881,-1.5012 0.32539,-0.6148 0.49059,-1.241 0.49059,-1.8758 0,-0.5902 -0.1672,-0.975 -0.50762,-1.1519 -0.34041,-0.1731 -0.81699,-0.2594 -1.42974,-0.2594" />
      <path
         inkscape:connector-curvature="0"
         id="path4284"
         style="fill:#3667b8;fill-opacity:1;fill-rule:nonzero;stroke:none;stroke-width:0.10006095;stroke-opacity:1"
         d="m 446.63058,29.4398 4.26419,0 c -0.0601,0.8043 -0.27733,1.4043 -0.65079,1.8024 -0.37846,0.4 -0.87106,0.6008 -1.48481,0.6008 -0.58771,0 -1.0683,-0.202 -1.44676,-0.6078 -0.37546,-0.4032 -0.60473,-1.0043 -0.68183,-1.7954 m 4.5996,-1.332 -4.5996,0 c 0.003,-0.5348 0.11214,-1.0047 0.32239,-1.4117 0.20926,-0.4063 0.4866,-0.7152 0.83402,-0.9199 0.34842,-0.2071 0.73189,-0.3102 1.1514,-0.3102 0.28034,0 0.53866,0.0352 0.76794,0.0961 0.23328,0.066 0.46056,0.175 0.67882,0.3121 0.21927,0.1418 0.41952,0.293 0.60174,0.4528 0.18622,0.1582 0.42451,0.3761 0.71687,0.6519 0.12015,0.1031 0.29136,0.159 0.51763,0.159 0.24029,0 0.43253,-0.0699 0.58371,-0.2008 0.15018,-0.1308 0.22528,-0.3172 0.22528,-0.5582 0,-0.2117 -0.0841,-0.4609 -0.25031,-0.7457 -0.1652,-0.282 -0.41851,-0.5582 -0.75392,-0.8184 -0.33541,-0.2578 -0.75692,-0.4769 -1.26454,-0.65 -0.51062,-0.1707 -1.09333,-0.2578 -1.75513,-0.2578 -1.50884,0 -2.68427,0.4309 -3.5243,1.291 -0.83802,0.8622 -1.25553,2.0282 -1.25553,3.5032 0,0.6937 0.10413,1.341 0.30838,1.934 0.20725,0.5918 0.50962,1.1019 0.9031,1.525 0.39848,0.423 0.88708,0.75 1.46679,0.98 0.5797,0.2227 1.22449,0.3368 1.92834,0.3368 0.92313,0 1.70909,-0.1938 2.36589,-0.5809 0.6578,-0.3879 1.1504,-0.8879 1.4778,-1.5012 0.3304,-0.6148 0.49159,-1.241 0.49159,-1.8758 0,-0.5902 -0.1682,-0.975 -0.50962,-1.1519 -0.33641,-0.1731 -0.81299,-0.2594 -1.42874,-0.2594" />
      <path
         inkscape:connector-curvature="0"
         id="path4286"
         style="fill:#3667b8;fill-opacity:1;fill-rule:nonzero;stroke:none;stroke-width:0.10006095;stroke-opacity:1"
         d="m 461.69693,28.7281 c 0,0.6188 -0.0931,1.1508 -0.28535,1.593 -0.18822,0.4461 -0.45255,0.7891 -0.78796,1.0258 -0.3354,0.239 -0.70485,0.357 -1.11335,0.357 -0.65079,0 -1.19646,-0.2527 -1.643,-0.7668 -0.44254,-0.509 -0.66782,-1.2601 -0.66782,-2.2531 0,-0.9348 0.22027,-1.6621 0.66381,-2.182 0.44454,-0.5211 0.99221,-0.7778 1.64701,-0.7778 0.38847,0 0.75392,0.1129 1.08232,0.3399 0.33641,0.2257 0.60173,0.566 0.80197,1.0179 0.20225,0.4539 0.30237,1.002 0.30237,1.6461 m -4.61061,3.4141 0,-0.2832 c 0.44654,0.5441 0.9041,0.9473 1.38168,1.2 0.47558,0.2558 1.01624,0.3832 1.61797,0.3832 0.72388,0 1.39069,-0.184 1.99643,-0.5582 0.61175,-0.377 1.09333,-0.918 1.44777,-1.636 0.35242,-0.7148 0.52964,-1.564 0.52964,-2.5468 0,-0.7211 -0.10413,-1.384 -0.30938,-1.9922 -0.20224,-0.6039 -0.48158,-1.1129 -0.84102,-1.5219 -0.35243,-0.4121 -0.77094,-0.7269 -1.25853,-0.95 -0.4856,-0.218 -1.00723,-0.3289 -1.56491,-0.3289 -0.67182,0 -1.2345,0.1359 -1.69306,0.4047 -0.45556,0.268 -0.89109,0.6633 -1.30659,1.1883 l 0,-3.5282 c 0,-1.0351 -0.37446,-1.5468 -1.12638,-1.5468 -0.44354,0 -0.73389,0.132 -0.87807,0.3988 -0.14417,0.2672 -0.21626,0.6531 -0.21626,1.1648 l 0,10.1383 c 0,0.4457 0.10012,0.7789 0.29236,1.0008 0.19423,0.2203 0.45956,0.332 0.80197,0.332 0.33041,0 0.60574,-0.1129 0.814,-0.3429 0.21025,-0.227 0.31238,-0.5532 0.31238,-0.9758" />
      <path
         inkscape:connector-curvature="0"
         id="path4288"
         style="fill:#3667b8;fill-opacity:1;fill-rule:nonzero;stroke:none;stroke-width:0.10006095;stroke-opacity:1"
         d="m 468.29397,32.1281 0,-6.791 c 0,-0.4723 -0.10813,-0.8262 -0.33741,-1.068 -0.21927,-0.241 -0.50262,-0.3621 -0.84904,-0.3621 -0.34642,0 -0.62276,0.125 -0.83902,0.3711 -0.21726,0.2469 -0.32239,0.6 -0.32239,1.059 l 0,6.7199 c 0,0.4649 0.10513,0.816 0.32239,1.05 0.21626,0.2352 0.4926,0.3539 0.83902,0.3539 0.34642,0 0.62977,-0.1187 0.84904,-0.3539 0.22928,-0.234 0.33741,-0.564 0.33741,-0.9789 m -1.15741,2.4239 c -0.3284,0 -0.60974,0.1011 -0.84103,0.3019 -0.23128,0.2 -0.34942,0.484 -0.34942,0.85 0,0.3332 0.11814,0.609 0.35543,0.8231 0.23629,0.2152 0.51663,0.3222 0.83502,0.3222 0.30237,0 0.56869,-0.0953 0.80598,-0.2902 0.23729,-0.1969 0.35143,-0.482 0.35143,-0.8551 0,-0.3578 -0.11014,-0.643 -0.34042,-0.8469 -0.23028,-0.2039 -0.50361,-0.305 -0.81699,-0.305" />
      <path
         inkscape:connector-curvature="0"
         id="path4290"
         style="fill:#3667b8;fill-opacity:1;fill-rule:nonzero;stroke:none;stroke-width:0.10006095;stroke-opacity:1"
         d="m 476.58306,24.9859 -2.07452,3.4082 -1.27456,-1.2062 0,-1.8699 c 0,-0.4532 -0.12014,-0.7989 -0.35743,-1.045 -0.24029,-0.2441 -0.51463,-0.366 -0.822,-0.366 -0.36244,0 -0.64579,0.1219 -0.85604,0.3629 -0.20525,0.241 -0.30738,0.5949 -0.30738,1.066 l 0,10.018 c 0,0.5203 0.0951,0.9199 0.30137,1.191 0.20024,0.2731 0.48859,0.4102 0.86205,0.4102 0.36244,0 0.64679,-0.1242 0.85904,-0.3711 0.21326,-0.2469 0.32039,-0.6121 0.32039,-1.0942 l 0,-5.6957 2.64423,2.7688 c 0.3284,0.3473 0.5747,0.5793 0.74891,0.709 0.17321,0.1261 0.38046,0.189 0.63077,0.189 0.28935,0 0.53565,-0.0929 0.72988,-0.282 0.19524,-0.1859 0.29637,-0.4199 0.29637,-0.7 0,-0.3457 -0.3214,-0.8047 -0.95817,-1.3758 l -1.24952,-1.1461 2.41294,-3.7859 c 0.17921,-0.277 0.30437,-0.4961 0.38146,-0.6402 0.0771,-0.145 0.11714,-0.2879 0.11714,-0.4168 0,-0.3762 -0.10312,-0.6672 -0.30837,-0.884 -0.20225,-0.2141 -0.47358,-0.3231 -0.80098,-0.3231 -0.28735,0 -0.50962,0.0758 -0.66381,0.2352 -0.15719,0.1527 -0.36644,0.4348 -0.63177,0.8437" />
      <path
         inkscape:connector-curvature="0"
         id="path4292"
         style="fill:#3667b8;fill-opacity:1;fill-rule:nonzero;stroke:none;stroke-width:0.10006095;stroke-opacity:1"
         d="m 482.40215,23.907 c -0.35944,0 -0.66581,0.1141 -0.92212,0.3461 -0.25832,0.2289 -0.38948,0.552 -0.38948,0.9641 0,0.3508 0.12416,0.6508 0.36845,0.9039 0.25031,0.2519 0.55568,0.3758 0.91712,0.3758 0.36044,0 0.66581,-0.1227 0.92513,-0.3727 0.25331,-0.25 0.38146,-0.5512 0.38146,-0.907 0,-0.409 -0.12815,-0.7301 -0.38146,-0.9602 -0.25932,-0.2359 -0.55668,-0.35 -0.8991,-0.35" />
      <path
         inkscape:connector-curvature="0"
         id="path4294"
         style="fill:#3667b8;fill-opacity:1;fill-rule:nonzero;stroke:none;stroke-width:0.10006095;stroke-opacity:1"
         d="m 494.79925,26.818 c 0,-0.293 -0.0911,-0.6071 -0.26532,-0.9399 -0.17421,-0.332 -0.44154,-0.6492 -0.79898,-0.95 -0.36144,-0.3019 -0.81499,-0.5429 -1.35565,-0.7281 -0.54967,-0.1828 -1.16241,-0.2711 -1.85025,-0.2711 -1.44776,0 -2.58315,0.418 -3.40014,1.2652 -0.81299,0.8469 -1.22049,1.9821 -1.22049,3.4039 0,0.9641 0.18222,1.8141 0.55868,2.5551 0.37045,0.7418 0.91311,1.3149 1.61998,1.7149 0.70385,0.405 1.55088,0.609 2.53308,0.609 0.60774,0 1.16342,-0.0891 1.67404,-0.2661 0.50762,-0.18 0.94115,-0.407 1.28957,-0.689 0.35443,-0.2821 0.62676,-0.5809 0.81499,-0.9 0.18323,-0.3168 0.27934,-0.6149 0.27934,-0.893 0,-0.2789 -0.10813,-0.518 -0.31838,-0.7109 -0.20726,-0.1969 -0.46157,-0.291 -0.75893,-0.291 -0.19624,0 -0.36244,0.048 -0.48859,0.148 -0.12716,0.1031 -0.27434,0.2641 -0.43553,0.484 -0.28235,0.4371 -0.58572,0.7672 -0.8981,0.9859 -0.31338,0.216 -0.71187,0.325 -1.19245,0.325 -0.69385,0 -1.25853,-0.273 -1.68305,-0.8129 -0.42251,-0.541 -0.63678,-1.2832 -0.63678,-2.223 0,-0.443 0.0541,-0.8508 0.1642,-1.2192 0.11014,-0.3699 0.26833,-0.6859 0.47258,-0.9457 0.20525,-0.2632 0.45756,-0.4582 0.74991,-0.5949 0.29436,-0.1351 0.61575,-0.2 0.96718,-0.2 0.46857,0 0.87206,0.1059 1.20947,0.3238 0.33541,0.22 0.62977,0.5512 0.89309,0.9989 0.14318,0.2621 0.29937,0.4722 0.46557,0.6179 0.1672,0.1504 0.36945,0.2262 0.60774,0.2262 0.28835,0 0.52964,-0.1101 0.71787,-0.3258 0.18823,-0.2203 0.28535,-0.4531 0.28535,-0.6972" />
      <path
         inkscape:connector-curvature="0"
         id="path4296"
         style="fill:#3667b8;fill-opacity:1;fill-rule:nonzero;stroke:none;stroke-width:0.10006095;stroke-opacity:1"
         d="m 503.2936,28.684 c 0,0.9582 -0.21426,1.7051 -0.63478,2.2359 -0.42051,0.5352 -0.9882,0.8012 -1.70207,0.8012 -0.45956,0 -0.86505,-0.1172 -1.21548,-0.357 -0.34642,-0.2379 -0.62076,-0.5903 -0.80798,-1.0539 -0.19324,-0.461 -0.28635,-1.0051 -0.28635,-1.6262 0,-0.6141 0.0931,-1.15 0.27934,-1.609 0.18723,-0.459 0.45555,-0.8109 0.80398,-1.0539 0.34542,-0.2449 0.75291,-0.3652 1.22649,-0.3652 0.71387,0 1.28156,0.2671 1.70207,0.8043 0.42052,0.5359 0.63478,1.2777 0.63478,2.2238 m 2.35887,0 c 0,-0.6988 -0.11113,-1.3449 -0.3274,-1.936 -0.21927,-0.5929 -0.53565,-1.0992 -0.94815,-1.5199 -0.41251,-0.425 -0.90911,-0.7519 -1.48181,-0.982 -0.5727,-0.225 -1.22149,-0.3391 -1.93836,-0.3391 -0.71187,0 -1.35064,0.1149 -1.92234,0.345 -0.56469,0.23 -1.05829,0.557 -1.4758,0.9839 -0.4145,0.4289 -0.73189,0.934 -0.94715,1.5153 -0.21426,0.582 -0.32139,1.2297 -0.32139,1.9328 0,0.7109 0.10713,1.3609 0.32439,1.957 0.21727,0.5879 0.53165,1.0918 0.93915,1.5102 0.40749,0.4168 0.89909,0.741 1.4808,0.9668 0.58271,0.2312 1.22049,0.3429 1.92234,0.3429 0.71387,0 1.35966,-0.116 1.93836,-0.3468 0.57871,-0.227 1.07531,-0.5551 1.48982,-0.9821 0.4155,-0.4211 0.73089,-0.9289 0.94415,-1.514 0.21226,-0.5848 0.32339,-1.2278 0.32339,-1.934" />
      <path
         inkscape:connector-curvature="0"
         id="path4298"
         style="fill:#3667b8;fill-opacity:1;fill-rule:nonzero;stroke:none;stroke-width:0.10006095;stroke-opacity:1"
         d="m 515.33026,28.5109 0,-3.1207 c 0,-0.4953 -0.11514,-0.8652 -0.33741,-1.1121 -0.22528,-0.2461 -0.52264,-0.3711 -0.88909,-0.3711 -0.35343,0 -0.64278,0.125 -0.86605,0.3711 -0.21927,0.2469 -0.3304,0.6168 -0.3304,1.1121 l 0,3.743 c 0,0.5898 -0.021,1.0469 -0.0621,1.377 -0.037,0.3257 -0.14718,0.5918 -0.32439,0.8019 -0.17922,0.209 -0.46157,0.3129 -0.84603,0.3129 -0.76894,0 -1.27756,-0.2641 -1.51785,-0.7891 -0.2453,-0.5277 -0.37045,-1.2859 -0.37045,-2.273 l 0,-3.1727 c 0,-0.4914 -0.11014,-0.8593 -0.32941,-1.105 -0.22327,-0.2532 -0.51262,-0.3782 -0.87706,-0.3782 -0.35143,0 -0.64779,0.125 -0.87407,0.3782 -0.22727,0.2457 -0.33841,0.6136 -0.33841,1.105 l 0,6.7168 c 0,0.441 0.0991,0.7801 0.30437,1.0071 0.20325,0.2308 0.47258,0.3468 0.80698,0.3468 0.3234,0 0.59072,-0.1078 0.80699,-0.3207 0.21326,-0.2183 0.32039,-0.514 0.32039,-0.8941 l 0,-0.225 c 0.40749,0.4859 0.84603,0.848 1.30959,1.0758 0.46657,0.2281 0.9832,0.3453 1.55189,0.3453 0.59072,0 1.09934,-0.1172 1.52286,-0.3512 0.42752,-0.2371 0.77694,-0.591 1.05228,-1.0699 0.39748,0.4848 0.82,0.8379 1.27355,1.073 0.45355,0.2309 0.95917,0.3481 1.51284,0.3481 0.63978,0 1.19546,-0.1242 1.65702,-0.3774 0.46857,-0.2546 0.81399,-0.6117 1.04427,-1.0847 0.20125,-0.4238 0.30237,-1.0922 0.30237,-2.0039 l 0,-4.586 c 0,-0.4953 -0.11314,-0.8652 -0.33841,-1.1121 -0.22227,-0.2461 -0.51663,-0.3711 -0.88508,-0.3711 -0.35343,0 -0.64679,0.125 -0.87607,0.3782 -0.22627,0.2457 -0.33941,0.6136 -0.33941,1.105 l 0,3.9477 c 0,0.5043 -0.021,0.9101 -0.0621,1.2152 -0.0491,0.3008 -0.16219,0.5571 -0.35142,0.7641 -0.18623,0.2058 -0.47658,0.3078 -0.86105,0.3078 -0.30938,0 -0.60374,-0.0898 -0.88508,-0.275 -0.27433,-0.184 -0.4936,-0.4289 -0.64879,-0.7379 -0.17121,-0.3961 -0.25531,-1.0961 -0.25531,-2.1012" />
      <path
         inkscape:connector-curvature="0"
         id="path4300"
         style="fill:#3667b8;fill-opacity:1;fill-rule:nonzero;stroke:none;stroke-width:0.10006095;stroke-opacity:1"
         d="m 402.29558,39.518 c -0.0511,0.1492 -0.10413,0.2992 -0.15319,0.45 0.79297,0.0711 1.32362,1.0172 0.93715,1.7172 -0.35243,0.791 -1.57092,0.8886 -2.04249,0.164 -0.50362,-0.6402 -0.11014,-1.6543 0.6598,-1.8582 0.0461,-0.1629 0.0921,-0.325 0.14217,-0.4879 -1.18344,-0.0742 -2.39291,-0.339 -3.38512,-1.0133 0.10012,-0.2886 0.20425,-0.5769 0.30437,-0.8636 2.00344,0.8769 4.25619,0.684 6.36876,0.475 0.0701,0.2777 0.13917,0.557 0.20825,0.8359 -0.95316,0.4301 -2.00344,0.5891 -3.0397,0.5809" />
      <path
         inkscape:connector-curvature="0"
         id="path4302"
         style="fill:#3667b8;fill-opacity:1;fill-rule:nonzero;stroke:none;stroke-width:0.10006095;stroke-opacity:1"
         d="m 414.2161,36.284 c -0.31939,-0.161 -0.37746,-0.5391 -0.36244,-0.8621 -0.34943,-0.341 -0.18523,-0.8578 -0.22427,-1.2887 -0.0791,-0.2402 -0.36745,-0.266 -0.5667,-0.3602 -0.27934,0.4219 -0.5747,0.8301 -0.94214,1.1739 l 0.001,0.0203 c -0.4055,0.3789 -0.84002,0.718 -1.30159,1.0187 -0.37245,-0.3949 -0.75992,-0.7839 -1.11736,-1.198 0.70586,-0.777 1.35766,-1.6047 1.93536,-2.4848 0.39448,-0.666 0.71687,-1.3742 0.99421,-2.098 0.59573,0.3008 1.18444,0.6219 1.78117,0.9328 -0.31438,0.7281 -0.67582,1.4359 -1.05729,2.132 0.26332,0.1403 0.61775,0.2801 0.65981,0.6231 0.032,0.3808 -0.0561,0.7922 0.17721,1.1261 0.45656,-0.3019 1.15641,0.0391 1.16242,0.5989 0.0641,0.5742 -0.66581,0.9949 -1.13939,0.666" />
      <path
         inkscape:connector-curvature="0"
         id="path4304"
         style="fill:#3667b8;fill-opacity:1;fill-rule:nonzero;stroke:none;stroke-width:0.10006095;stroke-opacity:1"
         d="m 409.5404,31.466 c -0.14217,-0.9668 -1.0703,-1.7871 -2.0585,-1.7238 -0.5757,-0.0492 -1.12838,0.223 -1.51685,0.6269 -0.27834,0.3461 -0.50762,0.7481 -0.54867,1.202 -0.13016,0.9828 0.55868,1.9937 1.52486,2.232 0.42151,0.118 0.86405,0.052 1.28356,-0.0461 0.90711,-0.3199 1.50283,-1.3422 1.3156,-2.291 m -8.71361,-2.0398 c -0.38547,-0.566 -0.94615,-1.0043 -1.58893,-1.2512 -1.20848,-0.448 -2.68127,-0.143 -3.54933,0.8211 -0.60674,0.6641 -0.96818,1.5648 -0.9021,2.4699 0.0451,1.134 0.74591,2.1852 1.74012,2.7192 0.75893,0.4109 1.67404,0.4808 2.49905,0.2507 0.34842,-0.0867 0.66781,-0.25 0.96517,-0.448 0.61075,-0.434 1.07331,-1.0731 1.27456,-1.7957 0.28134,-0.9223 0.10312,-1.9641 -0.43854,-2.766 m 10.16338,2.5398 c -0.77594,1.2852 -1.61597,2.5621 -2.75936,3.557 -1.31961,1.1602 -3.03269,1.943 -4.81186,1.934 -2.24874,0.0282 -4.52351,-0.3379 -6.59203,-1.2379 -1.95038,-0.8562 -3.64744,-2.38 -4.50649,-4.3531 -0.82701,-1.7719 -0.81699,-3.814 -0.44354,-5.7 2.06752,-0.5172 4.16908,-0.9769 6.30468,-1.0781 2.10256,-0.0649 4.22014,-0.1149 6.31169,0.1801 2.86949,0.3761 5.68292,1.2871 8.18797,2.75 0,0 -0.34242,1.8871 -1.69106,3.948" />
      <path
         inkscape:connector-curvature="0"
         id="path4306"
         style="fill:#3667b8;fill-opacity:1;fill-rule:nonzero;stroke:none;stroke-width:0.10006095;stroke-opacity:1"
         d="m 392.34846,34.8402 c -0.84102,-0.505 -1.52986,-1.223 -2.10756,-2.0062 -0.16821,0.309 -0.21927,0.6812 -0.43854,0.9609 -0.12315,0.166 -0.34942,0.0981 -0.52363,0.1012 -0.22328,-0.025 -0.44054,0.0371 -0.64779,0.1 0.24129,0.348 0.18022,0.8769 -0.19925,1.1 -0.40148,0.2898 -1.02424,0.041 -1.13037,-0.4391 -0.16821,-0.5238 0.38847,-1.05 0.9041,-0.9121 0.27133,-0.4 0.76793,-0.3367 1.18644,-0.3527 0.18923,-0.3274 0.33241,-0.6852 0.5747,-0.984 -0.44954,-0.8871 -0.70385,-1.8801 -0.72388,-2.8762 0.5767,-0.239 1.15441,-0.4851 1.73311,-0.7257 0.029,0.6269 0.10313,1.2507 0.20125,1.8707 0.19223,1.3441 0.97218,2.516 1.89531,3.4832 -0.22728,0.2386 -0.48159,0.45 -0.72389,0.68" />
      <path
         inkscape:connector-curvature="0"
         id="path4308"
         style="fill:#3667b8;fill-opacity:1;fill-rule:nonzero;stroke:none;stroke-width:0.10006095;stroke-opacity:1"
         d="m 405.86593,24.6781 c -2.1346,-0.4652 -4.33028,-0.6 -6.50993,-0.5039 -1.47179,0.0727 -2.94659,0.211 -4.38334,0.5278 -1.02124,0.2082 -2.02046,0.5011 -3.02168,0.7871 0.15719,-1.2821 0.67682,-2.5071 1.41773,-3.5602 0.87406,-1.225 2.03848,-2.3527 3.49425,-2.8039 1.13238,-0.3039 2.48603,-0.693 4.81487,-0.6539 1.92634,0.0359 3.81965,0.2809 5.51071,0.9949 1.08833,0.4699 2.11257,1.107 2.98764,1.9059 0.75992,0.7152 1.35665,1.607 1.76215,2.564 0.40048,0.9043 0.75992,2.5231 0.71887,3.3551 -2.08153,-1.1832 -4.41738,-2.216 -6.79127,-2.6129" />
    </g>
    <path
       style="display:inline;fill:#000000;fill-opacity:1;stroke:none;stroke-width:1px;stroke-linecap:butt;stroke-linejoin:miter;stroke-opacity:1"
       d="m 881.92398,441.13782 c 0.0522,-0.2628 0.0124,-0.72396 -0.0877,-1.02461 -0.16608,-0.49812 -0.38184,-0.55418 -2.42494,-0.6313 -1.2335,-0.0464 32.35061,-0.0839 74.63134,-0.0821 42.2808,0 75.08152,0.0339 72.89052,0.0732 -2.1909,0.0375 -33.65669,0.49579 -69.92398,1.01729 -36.26736,0.5215 -68.01934,0.9882 -70.56011,1.03676 -4.34244,0.0839 -4.61386,0.0607 -4.52506,-0.38921 z"
       id="path4310"
       inkscape:connector-curvature="0" />
    <path
       style="color:#000000;clip-rule:nonzero;display:inline;overflow:visible;visibility:visible;opacity:1;isolation:auto;mix-blend-mode:normal;color-interpolation:sRGB;color-interpolation-filters:linearRGB;solid-color:#000000;solid-opacity:1;fill:#000000;fill-opacity:1;fill-rule:nonzero;stroke:#000000;stroke-width:0.06058774;stroke-linecap:round;stroke-linejoin:round;stroke-miterlimit:4;stroke-dasharray:none;stroke-dashoffset:0;stroke-opacity:1;color-rendering:auto;image-rendering:auto;shape-rendering:auto;text-rendering:auto;enable-background:accumulate"
       d="m 147.69375,252.97703 c -5.82889,-0.58542 -17.49373,-2.90835 -17.93949,-3.5725 -0.63537,-0.94678 9.0911,-20.61983 17.17812,-34.74488 17.56344,-30.67695 39.35058,-56.37593 60.75199,-71.65987 31.55461,-22.53479 64.77075,-25.78611 98.46928,-9.63844 2.24147,1.07408 4.2469,2.21511 4.45654,2.53576 0.20963,0.32065 -1.30065,2.60466 -3.35619,5.0756 -24.51842,29.47449 -48.82467,66.62639 -60.33794,92.22612 -1.12214,2.49504 -1.68681,2.75498 -16.03685,7.38424 -29.98534,9.67308 -62.31454,14.48998 -83.18546,12.39397 z"
       id="path5057"
       inkscape:connector-curvature="0" />
    <path
       style="color:#000000;clip-rule:nonzero;display:inline;overflow:visible;visibility:visible;opacity:1;isolation:auto;mix-blend-mode:normal;color-interpolation:sRGB;color-interpolation-filters:linearRGB;solid-color:#000000;solid-opacity:1;fill:#050000;fill-opacity:1;fill-rule:nonzero;stroke:#60e017;stroke-width:0.06058774;stroke-linecap:round;stroke-linejoin:round;stroke-miterlimit:4;stroke-dasharray:none;stroke-dashoffset:0;stroke-opacity:1;color-rendering:auto;image-rendering:auto;shape-rendering:auto;text-rendering:auto;enable-background:accumulate"
       d="m 376.22128,301.7959 c -29.62933,-6.06862 -53.98171,-11.21064 -54.1164,-11.42702 -0.78326,-1.25743 10.83895,-24.35445 18.05498,-35.88072 16.14019,-25.78112 33.28948,-39.46251 50.85734,-40.57336 3.69114,-0.23335 7.8119,-0.0536 9.58911,0.41706 3.08257,0.81733 28.70585,9.76358 30.32554,10.58806 0.78615,0.40028 0.83904,3.1901 0.83904,44.25282 0,41.25751 -0.0491,43.82057 -0.83904,43.7413 -0.46148,-0.0464 -25.08123,-5.04953 -54.71057,-11.11814 z"
       id="path5059"
       inkscape:connector-curvature="0" />
    <path
       style="color:#000000;clip-rule:nonzero;display:inline;overflow:visible;visibility:visible;opacity:1;isolation:auto;mix-blend-mode:normal;color-interpolation:sRGB;color-interpolation-filters:linearRGB;solid-color:#000000;solid-opacity:1;fill:#050000;fill-opacity:1;fill-rule:nonzero;stroke:#60e017;stroke-width:0.06058774;stroke-linecap:round;stroke-linejoin:round;stroke-miterlimit:4;stroke-dasharray:none;stroke-dashoffset:0;stroke-opacity:1;color-rendering:auto;image-rendering:auto;shape-rendering:auto;text-rendering:auto;enable-background:accumulate"
       d="m 572.7307,341.46104 c -47.33421,-9.66362 -86.11614,-17.59615 -86.18206,-17.62792 -0.0659,-0.0321 -0.11986,-18.10837 -0.11986,-40.16986 l 0,-40.11204 1.07876,0.42045 c 2.10795,0.82145 171.90103,59.01952 172.19002,59.01952 0.16169,0 0.29397,12.64355 0.29397,28.09691 0,22.00544 -0.12995,28.08031 -0.59931,28.02014 -0.32963,-0.0428 -39.32731,-7.98359 -86.66152,-17.6472 z"
       id="path5061"
       inkscape:connector-curvature="0" />
    <path
       style="color:#000000;clip-rule:nonzero;display:inline;overflow:visible;visibility:visible;opacity:1;isolation:auto;mix-blend-mode:normal;color-interpolation:sRGB;color-interpolation-filters:linearRGB;solid-color:#000000;solid-opacity:1;fill:#050000;fill-opacity:1;fill-rule:nonzero;stroke:#60e017;stroke-width:0.06058774;stroke-linecap:round;stroke-linejoin:round;stroke-miterlimit:4;stroke-dasharray:none;stroke-dashoffset:0;stroke-opacity:1;color-rendering:auto;image-rendering:auto;shape-rendering:auto;text-rendering:auto;enable-background:accumulate"
       d="m 972.83604,401.83261 c -32.98027,-14.42803 -60.5274,-26.36154 -399.38617,-173.01577 -43.51055,-18.83091 -96.04684,-41.58192 -116.74732,-50.55763 -42.3343,-18.35653 -40.99873,-17.81022 -48.18523,-19.70822 -7.39311,-1.95265 -26.34925,-1.96908 -34.52077,-0.0303 -16.56947,3.93207 -31.63394,11.82299 -46.73881,24.48226 -6.51187,5.45749 -16.54552,15.62796 -21.73272,22.02902 -4.23805,5.22967 -3.77616,3.37915 0.71916,-2.88139 9.51666,-13.25362 18.74345,-23.11094 29.87542,-31.91741 14.69471,-11.62482 28.61837,-18.0548 44.3496,-20.4811 10.80667,-1.66664 28.32255,0.15532 38.20259,3.97528 2.06653,0.79877 184.66079,82.15545 416.80032,185.70933 46.01568,20.52681 100.1701,44.64397 120.34327,53.59362 20.17304,8.94947 37.21764,16.57261 37.87687,16.94003 0.96942,0.54025 1.01527,0.66826 0.23971,0.66969 -0.52733,7.1e-4 -10.02056,-3.96279 -21.09592,-8.8079 z"
       id="path5063"
       inkscape:connector-curvature="0" />
    <path
       style="color:#000000;clip-rule:nonzero;display:inline;overflow:visible;visibility:visible;opacity:1;isolation:auto;mix-blend-mode:normal;color-interpolation:sRGB;color-interpolation-filters:linearRGB;solid-color:#000000;solid-opacity:1;fill:#050000;fill-opacity:1;fill-rule:nonzero;stroke:#60e017;stroke-width:0.06058774;stroke-linecap:round;stroke-linejoin:round;stroke-miterlimit:4;stroke-dasharray:none;stroke-dashoffset:0;stroke-opacity:1;color-rendering:auto;image-rendering:auto;shape-rendering:auto;text-rendering:auto;enable-background:accumulate"
       d="m 166.87196,346.54378 c -8.61791,-0.98641 -7.90924,-1.53006 3.17376,-2.43416 l 6.05049,-0.49365 13.1061,-21.05278 c 7.20837,-11.57895 12.99183,-21.23613 12.85218,-21.46038 -0.13967,-0.22424 -4.32898,-0.0393 -9.30958,0.41136 l -9.05563,0.81912 -13.11595,16.9552 c -7.21377,9.32528 -13.18319,16.83433 -13.26538,16.68668 -0.0822,-0.14819 5.19855,-8.67346 11.73497,-18.9466 l 11.8844,-18.67824 14.82892,0.20353 14.82892,0.20353 -16.88709,24.24804 c -11.48928,16.49743 -17.24953,24.27498 -18.02096,24.33229 -0.62363,0.0464 -4.58595,-0.31118 -8.80515,-0.79394 z"
       id="path5065"
       inkscape:connector-curvature="0" />
    <path
       style="color:#000000;clip-rule:nonzero;display:inline;overflow:visible;visibility:visible;opacity:1;isolation:auto;mix-blend-mode:normal;color-interpolation:sRGB;color-interpolation-filters:linearRGB;solid-color:#000000;solid-opacity:1;fill:#050000;fill-opacity:1;fill-rule:nonzero;stroke:#60e017;stroke-width:0.06058774;stroke-linecap:round;stroke-linejoin:round;stroke-miterlimit:4;stroke-dasharray:none;stroke-dashoffset:0;stroke-opacity:1;color-rendering:auto;image-rendering:auto;shape-rendering:auto;text-rendering:auto;enable-background:accumulate"
       d="m 176.22133,468.09694 c 9.348,-2.41863 21.46704,-6.65726 29.554,-10.33653 13.75133,-6.25643 22.37212,-11.49878 46.91908,-28.532 21.53977,-14.94649 34.45062,-21.55643 52.50034,-26.87823 11.04789,-3.25756 29.87541,-6.85649 31.2507,-5.97363 0.34818,0.22335 -0.0539,0.43366 -0.89351,0.46705 -3.1954,0.12676 -18.9661,4.82547 -27.26612,8.12302 -4.76056,1.89124 -12.52775,5.49124 -17.26038,7.99985 -8.03313,4.25825 -13.18301,7.49189 -42.40639,26.62809 -24.74484,16.20338 -45.40357,24.91094 -69.32767,29.22116 -9.66191,1.7409 -11.19173,1.38258 -3.07005,-0.71878 z"
       id="path5069"
       inkscape:connector-curvature="0" />
    <path
       style="color:#000000;clip-rule:nonzero;display:inline;overflow:visible;visibility:visible;opacity:1;isolation:auto;mix-blend-mode:normal;color-interpolation:sRGB;color-interpolation-filters:linearRGB;solid-color:#000000;solid-opacity:1;fill:#000000;fill-opacity:1;fill-rule:nonzero;stroke:#000000;stroke-width:0.06058774;stroke-linecap:round;stroke-linejoin:round;stroke-miterlimit:4;stroke-dasharray:none;stroke-dashoffset:0;stroke-opacity:1;color-rendering:auto;image-rendering:auto;shape-rendering:auto;text-rendering:auto;enable-background:accumulate"
       d="m 330.87279,484.48796 c -2.07199,-4.74943 0.73446,-12.4877 3.10778,-8.5692 1.32699,2.19082 1.42773,7.07843 0.18697,9.07053 -1.06364,1.70769 -2.4212,1.50113 -3.29475,-0.50133 z"
       id="path5071"
       inkscape:connector-curvature="0" />
    <path
       style="color:#000000;clip-rule:nonzero;display:inline;overflow:visible;visibility:visible;opacity:1;isolation:auto;mix-blend-mode:normal;color-interpolation:sRGB;color-interpolation-filters:linearRGB;solid-color:#000000;solid-opacity:1;fill:#000000;fill-opacity:1;fill-rule:nonzero;stroke:#000000;stroke-width:0.06058774;stroke-linecap:round;stroke-linejoin:round;stroke-miterlimit:4;stroke-dasharray:none;stroke-dashoffset:0;stroke-opacity:1;color-rendering:auto;image-rendering:auto;shape-rendering:auto;text-rendering:auto;enable-background:accumulate"
       d="m 322.63307,502.94161 c -4.4073,-4.73692 -6.97863,-16.60991 -5.91415,-27.30815 0.65803,-6.61332 1.79706,-10.71679 4.12396,-14.85686 2.07616,-3.69373 4.1756,-5.4025 6.51127,-5.29949 l 1.57363,0.0696 -1.57674,0.73003 c -1.90028,0.87984 -4.9939,5.67352 -6.24928,9.68363 -2.46809,7.8836 -2.61552,19.73072 -0.34475,27.70198 1.54383,5.41945 3.22732,8.42922 5.7735,10.32188 l 1.91782,1.42543 -1.74378,0.0178 c -1.18268,0.0179 -2.49276,-0.78805 -4.07148,-2.48486 z"
       id="path5073"
       inkscape:connector-curvature="0" />
    <path
       style="color:#000000;clip-rule:nonzero;display:inline;overflow:visible;visibility:visible;opacity:1;isolation:auto;mix-blend-mode:normal;color-interpolation:sRGB;color-interpolation-filters:linearRGB;solid-color:#000000;solid-opacity:1;fill:#050000;fill-opacity:1;fill-rule:nonzero;stroke:#60e017;stroke-width:0.06058774;stroke-linecap:round;stroke-linejoin:round;stroke-miterlimit:4;stroke-dasharray:none;stroke-dashoffset:0;stroke-opacity:1;color-rendering:auto;image-rendering:auto;shape-rendering:auto;text-rendering:auto;enable-background:accumulate"
       d="m 843.24034,396.52491 c -10.89021,-2.23081 -19.90237,-4.21987 -20.027,-4.42 -0.12455,-0.19997 -0.1682,-7.63207 -0.097,-16.51565 l 0.12957,-16.15198 14.14395,4.86279 c 7.77921,2.67447 17.32639,5.95881 21.21589,7.29855 l 7.07194,2.43594 0,13.35931 0,13.35931 -1.31846,-0.0857 c -0.72519,-0.0464 -10.22872,-1.91122 -21.11892,-4.14221 z"
       id="path5075"
       inkscape:connector-curvature="0" />
    <path
       style="color:#000000;clip-rule:nonzero;display:inline;overflow:visible;visibility:visible;opacity:1;isolation:auto;mix-blend-mode:normal;color-interpolation:sRGB;color-interpolation-filters:linearRGB;solid-color:#000000;solid-opacity:1;fill:#050000;fill-opacity:1;fill-rule:nonzero;stroke:#60e017;stroke-width:0.06058774;stroke-linecap:round;stroke-linejoin:round;stroke-miterlimit:4;stroke-dasharray:none;stroke-dashoffset:0;stroke-opacity:1;color-rendering:auto;image-rendering:auto;shape-rendering:auto;text-rendering:auto;enable-background:accumulate"
       d="m 753.24555,378.01235 c -25.57891,-5.22307 -46.99258,-9.51759 -47.58593,-9.5433 l -1.07875,-0.0464 0,-25.06964 c 0,-23.51568 0.0522,-25.04485 0.83903,-24.66849 0.46145,0.22068 16.26549,5.65208 35.12013,12.06974 18.85457,6.41748 39.99846,13.62354 46.98654,16.01342 l 12.7056,4.34521 0.12853,18.27708 c 0.0708,10.05246 -0.0371,18.24173 -0.23971,18.19816 -0.20259,-0.0428 -21.29652,-4.35234 -46.87544,-9.57558 z"
       id="path5077"
       inkscape:connector-curvature="0" />
    <path
       style="color:#000000;clip-rule:nonzero;display:inline;overflow:visible;visibility:visible;opacity:1;isolation:auto;mix-blend-mode:normal;color-interpolation:sRGB;color-interpolation-filters:linearRGB;solid-color:#000000;solid-opacity:1;fill:#050000;fill-opacity:1;fill-rule:nonzero;stroke:#60e017;stroke-width:0.06058774;stroke-linecap:round;stroke-linejoin:round;stroke-miterlimit:4;stroke-dasharray:none;stroke-dashoffset:0;stroke-opacity:1;color-rendering:auto;image-rendering:auto;shape-rendering:auto;text-rendering:auto;enable-background:accumulate"
       d="m 935.05916,414.99106 c -0.26366,-0.1464 -2.691,-0.6779 -5.39387,-1.18048 l -4.91438,-0.9141 0,-9.61792 c 0,-7.37352 0.13979,-9.53381 0.59932,-9.25744 0.32962,0.19818 3.35016,1.32742 6.71233,2.50951 l 6.11309,2.14903 0,8.34977 0,8.3496 -1.31853,-0.0607 c -0.72518,-0.0339 -1.53423,-0.18067 -1.79796,-0.32725 z"
       id="path5079"
       inkscape:connector-curvature="0" />
    <path
       style="color:#000000;clip-rule:nonzero;display:inline;overflow:visible;visibility:visible;opacity:1;isolation:auto;mix-blend-mode:normal;color-interpolation:sRGB;color-interpolation-filters:linearRGB;solid-color:#000000;solid-opacity:1;fill:#050000;fill-opacity:1;fill-rule:nonzero;stroke:#60e017;stroke-width:0.06058774;stroke-linecap:round;stroke-linejoin:round;stroke-miterlimit:4;stroke-dasharray:none;stroke-dashoffset:0;stroke-opacity:1;color-rendering:auto;image-rendering:auto;shape-rendering:auto;text-rendering:auto;enable-background:accumulate"
       d="m 895.02466,406.87714 c -7.25181,-1.61665 -13.23896,-2.96316 -13.30484,-2.99208 -0.0659,-0.0286 -0.11989,-5.63549 -0.11989,-12.45895 0,-11.96049 0.0336,-12.39201 0.94369,-12.01012 0.51902,0.21799 6.66779,2.42345 13.66397,4.90099 l 12.72041,4.50463 4.2e-4,10.58451 c 2.7e-4,5.82152 -0.16135,10.54542 -0.35913,10.49757 -0.19778,-0.0482 -6.29288,-1.40973 -13.54463,-3.02655 z"
       id="path5081"
       inkscape:connector-curvature="0" />
  </g>
</svg>
