<?xml version="1.0" encoding="UTF-8" standalone="no"?>
<!-- Created with Inkscape (http://www.inkscape.org/) -->

<svg
   xmlns:dc="http://purl.org/dc/elements/1.1/"
   xmlns:cc="http://creativecommons.org/ns#"
   xmlns:rdf="http://www.w3.org/1999/02/22-rdf-syntax-ns#"
   xmlns:svg="http://www.w3.org/2000/svg"
   xmlns="http://www.w3.org/2000/svg"
   xmlns:sodipodi="http://sodipodi.sourceforge.net/DTD/sodipodi-0.dtd"
   xmlns:inkscape="http://www.inkscape.org/namespaces/inkscape"
   id="svg4847"
   version="1.1"
   inkscape:version="0.91 r13725"
   xml:space="preserve"
   width="1443.9456"
   height="1158.5797"
   viewBox="0 0 1443.9456 1158.5797"
   sodipodi:docname="vlak.svg"><metadata
     id="metadata4853"><rdf:RDF><cc:Work
         rdf:about=""><dc:format>image/svg+xml</dc:format><dc:type
           rdf:resource="http://purl.org/dc/dcmitype/StillImage" /><dc:title></dc:title></cc:Work></rdf:RDF></metadata><defs
     id="defs4851"><clipPath
       clipPathUnits="userSpaceOnUse"
       id="clipPath4865"><path
         d="m 1474.5,4827.63 c 0,0 -472.42,-409.31 -610.266,-835.38 0,0 -118.722,-354.03 285.426,-354.03 0,0 -218.972,-41.51 -301.297,125.32 0,0 82.235,-289.02 425.287,-289.02 l -139.38,-11.76 -2.95,-54.88 -971.715,-92.18 969.995,60.13 1051.11,5.49 28.2,75.18 c 0,0 141.5,28.22 269.95,172.33 l 5397.79,-0.72 -5069.48,1472.85 c 0,0 -831.4,163.25 -1332.67,-273.33 z"
         id="path4867"
         inkscape:connector-curvature="0" /></clipPath><linearGradient
       x1="0"
       y1="0"
       x2="1"
       y2="0"
       gradientUnits="userSpaceOnUse"
       gradientTransform="matrix(7717.05,0,0,-7717.05,159.604,4223.27)"
       spreadMethod="pad"
       id="linearGradient4869"><stop
         style="stop-opacity:1;stop-color:#182a47"
         offset="0"
         id="stop4871" /><stop
         style="stop-opacity:1;stop-color:#2b54aa"
         offset="0.206061"
         id="stop4873" /><stop
         style="stop-opacity:1;stop-color:#447ec9"
         offset="0.393939"
         id="stop4875" /><stop
         style="stop-opacity:1;stop-color:#65bee7"
         offset="0.539394"
         id="stop4877" /><stop
         style="stop-opacity:1;stop-color:#7dd5ee"
         offset="0.666667"
         id="stop4879" /><stop
         style="stop-opacity:1;stop-color:#a0e0f4"
         offset="0.830303"
         id="stop4881" /><stop
         style="stop-opacity:1;stop-color:#cfeff6"
         offset="1"
         id="stop4883" /></linearGradient><clipPath
       clipPathUnits="userSpaceOnUse"
       id="clipPath4891"><path
         d="m 7876.65,3628.11 -5370.44,-49.42 c 0,0 -101.65,-114.34 -226.97,-144.11 l -13.7,-79.62 -1751.829,-231.44 7362.939,504.59 z"
         id="path4893"
         inkscape:connector-curvature="0" /></clipPath><linearGradient
       x1="0"
       y1="0"
       x2="1"
       y2="0"
       gradientUnits="userSpaceOnUse"
       gradientTransform="matrix(7362.94,0,0,-7362.94,513.711,3375.81)"
       spreadMethod="pad"
       id="linearGradient4895"><stop
         style="stop-opacity:1;stop-color:#182a47"
         offset="0"
         id="stop4897" /><stop
         style="stop-opacity:1;stop-color:#2b54aa"
         offset="0.206061"
         id="stop4899" /><stop
         style="stop-opacity:1;stop-color:#447ec9"
         offset="0.393939"
         id="stop4901" /><stop
         style="stop-opacity:1;stop-color:#65bee7"
         offset="0.539394"
         id="stop4903" /><stop
         style="stop-opacity:1;stop-color:#7dd5ee"
         offset="0.666667"
         id="stop4905" /><stop
         style="stop-opacity:1;stop-color:#a0e0f4"
         offset="0.830303"
         id="stop4907" /><stop
         style="stop-opacity:1;stop-color:#cfeff6"
         offset="1"
         id="stop4909" /></linearGradient></defs><sodipodi:namedview
     pagecolor="#ffffff"
     bordercolor="#666666"
     borderopacity="1"
     objecttolerance="10"
     gridtolerance="10"
     guidetolerance="10"
     inkscape:pageopacity="0"
     inkscape:pageshadow="2"
     inkscape:window-width="1920"
     inkscape:window-height="986"
     id="namedview4849"
     showgrid="false"
     inkscape:zoom="1.1596551"
     inkscape:cx="427.09762"
     inkscape:cy="469.12627"
     inkscape:window-x="0"
     inkscape:window-y="1"
     inkscape:window-maximized="1"
     inkscape:current-layer="g4855"
     fit-margin-top="0"
     fit-margin-left="0"
     fit-margin-right="0"
     fit-margin-bottom="0"
     inkscape:snap-grids="false" /><g
     id="g4855"
     inkscape:groupmode="layer"
     inkscape:label="ink_ext_XXXXXX"
     transform="matrix(1.25,0,0,-1.25,24.411743,1010.9971)"
     style="display:inline"><path
       inkscape:connector-curvature="0"
       id="path4859"
       style="fill:#edecec;fill-opacity:1;fill-rule:nonzero;stroke:#000000;stroke-width:0.10006095;stroke-opacity:1"
       d="M -0.97560976,0 799.99999,0 l 0,800 -800.97559976,0 0,-800 z" /><g
       style="stroke:#000000;stroke-opacity:1"
       id="g4861"
       transform="matrix(0.10012195,0,0,0.1,-0.97560976,0)"><g
         style="stroke:#000000;stroke-opacity:1"
         clip-path="url(#clipPath4865)"
         id="g4863"><path
           sodipodi:nodetypes="ccsccccccccccccc"
           inkscape:connector-curvature="0"
           id="path4885"
           style="fill:url(#linearGradient4869);fill-opacity:1;fill-rule:nonzero;stroke:#000000;stroke-opacity:1"
           d="m 1474.5,4827.63 c 0,0 -472.42,-409.31 -610.266,-835.38 0,0 -29.0776,-86.7096 -9.46497,-174.3045 20.01719,-89.4017 90.75407,-179.7255 294.89097,-179.7255 0,0 -218.972,-41.51 -301.297,125.32 0,0 82.235,-289.02 425.287,-289.02 l -139.38,-11.76 -2.95,-54.88 -971.715,-92.18 969.995,60.13 1051.11,5.49 28.2,75.18 c 0,0 141.5,28.22 269.95,172.33 l 5397.79,-0.72 -5069.48,1472.85 c 0,0 -831.4,163.25 -1332.67,-273.33" /></g></g><g
       style="stroke:#000000;stroke-opacity:1"
       id="g4887"
       transform="matrix(0.10012195,0,0,0.1,-0.97560976,0)"><g
         style="stroke:#000000;stroke-opacity:1"
         clip-path="url(#clipPath4891)"
         id="g4889"><path
           inkscape:connector-curvature="0"
           id="path4911"
           style="fill:url(#linearGradient4895);fill-opacity:1;fill-rule:nonzero;stroke:#000000;stroke-opacity:1"
           d="m 7876.65,3628.11 -5370.44,-49.42 c 0,0 -101.65,-114.34 -226.97,-144.11 l -13.7,-79.62 -1751.829,-231.44 7362.939,504.59" /></g></g><path
       inkscape:connector-curvature="0"
       id="path4913"
       style="fill:#454955;fill-opacity:1;fill-rule:nonzero;stroke:#000000;stroke-width:0.10006095;stroke-opacity:1"
       d="m 282.6879,28.7012 c 0,-0.6383 0.0971,-1.1793 0.29736,-1.6262 0.19824,-0.4461 0.46957,-0.7859 0.81199,-1.0109 0.34442,-0.2282 0.72188,-0.3399 1.13138,-0.3399 0.4125,0 0.78896,0.1059 1.13238,0.3207 0.34041,0.2192 0.61474,0.5473 0.81999,0.9903 0.20025,0.4457 0.30237,1.0007 0.30237,1.666 0,0.6258 -0.10212,1.1629 -0.30237,1.6148 -0.20525,0.45 -0.48058,0.7942 -0.828,1.0309 -0.34943,0.239 -0.72989,0.3562 -1.1424,0.3562 -0.43152,0 -0.81599,-0.1191 -1.1544,-0.364 -0.33942,-0.2469 -0.60274,-0.595 -0.78796,-1.052 -0.18823,-0.4539 -0.28034,-0.982 -0.28034,-1.5859 m 4.62563,-3.4492 0,0.2332 c -0.31438,-0.3641 -0.62576,-0.6571 -0.93414,-0.884 -0.30737,-0.2282 -0.63978,-0.3992 -0.99921,-0.518 -0.36044,-0.118 -0.75092,-0.1762 -1.17644,-0.1762 -0.56268,0 -1.08332,0.12 -1.5649,0.3582 -0.47758,0.2399 -0.89309,0.5789 -1.24252,1.0188 -0.35343,0.441 -0.61675,0.9629 -0.79797,1.5601 -0.18122,0.595 -0.27233,1.2391 -0.27233,1.9348 0,1.468 0.36144,2.6133 1.07931,3.4332 0.71588,0.8199 1.66203,1.2309 2.83346,1.2309 0.67782,0 1.24952,-0.1168 1.71508,-0.3489 0.46457,-0.2339 0.91712,-0.589 1.35966,-1.073 l 0,3.4687 c 0,0.4832 0.0981,0.8473 0.28935,1.0942 0.19124,0.2469 0.46557,0.3711 0.822,0.3711 0.35544,0 0.63077,-0.116 0.82501,-0.3422 0.19123,-0.2238 0.28835,-0.5598 0.28835,-1.0027 l 0,-10.3582 c 0,-0.4469 -0.10513,-0.7829 -0.31138,-1.0071 -0.20625,-0.225 -0.47458,-0.3379 -0.80198,-0.3379 -0.32239,0 -0.58771,0.1149 -0.79597,0.3489 -0.21025,0.2312 -0.31538,0.5671 -0.31538,0.9961" /><path
       inkscape:connector-curvature="0"
       id="path4915"
       style="fill:#454955;fill-opacity:1;fill-rule:nonzero;stroke:#000000;stroke-width:0.10006095;stroke-opacity:1"
       d="m 293.86151,29.4398 4.26319,0 c -0.0561,0.8043 -0.27434,1.4043 -0.65079,1.8024 -0.37646,0.4 -0.86906,0.6008 -1.48381,0.6008 -0.58672,0 -1.0683,-0.202 -1.44376,-0.6078 -0.37546,-0.4032 -0.60474,-1.0043 -0.68483,-1.7954 m 4.6006,-1.332 -4.6006,0 c 0.005,-0.5348 0.11313,-1.0047 0.32239,-1.4117 0.21126,-0.4063 0.48859,-0.7152 0.83602,-0.9199 0.34842,-0.2071 0.73089,-0.3102 1.1504,-0.3102 0.28234,0 0.53765,0.0352 0.77194,0.0961 0.23128,0.066 0.45655,0.175 0.67582,0.3121 0.21827,0.1418 0.41751,0.293 0.60374,0.4528 0.18222,0.1582 0.42051,0.3761 0.71387,0.6519 0.12014,0.1031 0.29235,0.159 0.51663,0.159 0.24129,0 0.43553,-0.0699 0.58371,-0.2008 0.15218,-0.1308 0.22727,-0.3172 0.22727,-0.5582 0,-0.2117 -0.0851,-0.4609 -0.2493,-0.7457 -0.16921,-0.282 -0.41951,-0.5582 -0.75592,-0.8184 -0.33441,-0.2578 -0.75592,-0.4769 -1.26654,-0.65 -0.50762,-0.1707 -1.09233,-0.2578 -1.75314,-0.2578 -1.51084,0 -2.68527,0.4309 -3.52329,1.291 -0.83902,0.8622 -1.25753,2.0282 -1.25753,3.5032 0,0.6937 0.10412,1.341 0.31038,1.934 0.20725,0.5918 0.50661,1.1019 0.9041,1.525 0.39748,0.423 0.88508,0.75 1.46478,0.98 0.58071,0.2227 1.22349,0.3368 1.93035,0.3368 0.91912,0 1.70708,-0.1938 2.36388,-0.5809 0.6588,-0.3879 1.1504,-0.8879 1.4788,-1.5012 0.3264,-0.6148 0.4906,-1.241 0.4906,-1.8758 0,-0.5902 -0.17121,-0.975 -0.50962,-1.1519 -0.33741,-0.1731 -0.81399,-0.2594 -1.42874,-0.2594" /><path
       inkscape:connector-curvature="0"
       id="path4917"
       style="fill:#454955;fill-opacity:1;fill-rule:nonzero;stroke:#000000;stroke-width:0.10006095;stroke-opacity:1"
       d="m 309.95411,26.9789 c 0,-0.6457 -0.15719,-1.2019 -0.47358,-1.6641 -0.31438,-0.4609 -0.78095,-0.8089 -1.3967,-1.0507 -0.61875,-0.2371 -1.37267,-0.3559 -2.25274,-0.3559 -0.84804,0 -1.57292,0.1297 -2.17365,0.3867 -0.60574,0.2582 -1.04828,0.5821 -1.33663,0.9711 -0.28535,0.3828 -0.42952,0.7738 -0.42952,1.1621 0,0.259 0.0911,0.4809 0.27333,0.6641 0.18523,0.1828 0.41651,0.2769 0.69885,0.2769 0.2483,0 0.43653,-0.0621 0.56869,-0.182 0.13317,-0.1211 0.26132,-0.2891 0.38047,-0.507 0.24029,-0.4199 0.52964,-0.7321 0.86405,-0.9379 0.33841,-0.2063 0.79697,-0.3109 1.37668,-0.3109 0.46957,0 0.85804,0.1046 1.15841,0.3156 0.30036,0.2082 0.45055,0.448 0.45055,0.7172 0,0.4148 -0.1582,0.716 -0.47058,0.905 -0.31338,0.1872 -0.827,0.3688 -1.54388,0.5399 -0.81099,0.2031 -1.46779,0.4121 -1.97841,0.632 -0.50561,0.2231 -0.91311,0.5129 -1.21748,0.875 -0.30537,0.3602 -0.45556,0.8059 -0.45556,1.3352 0,0.466 0.13817,0.9136 0.41952,1.334 0.28034,0.4168 0.69885,0.75 1.24351,1.0019 0.54967,0.25 1.21348,0.3738 1.98842,0.3738 0.60674,0 1.15241,-0.0629 1.64,-0.1898 0.48459,-0.1289 0.88908,-0.2961 1.21648,-0.509 0.3234,-0.2152 0.5697,-0.4449 0.7399,-0.7051 0.16921,-0.2609 0.25431,-0.5109 0.25431,-0.757 0,-0.2691 -0.0891,-0.4918 -0.27333,-0.659 -0.17722,-0.1758 -0.43653,-0.259 -0.76894,-0.259 -0.24229,0 -0.44754,0.0668 -0.61575,0.2032 -0.1692,0.139 -0.36344,0.3468 -0.58271,0.6179 -0.17821,0.2321 -0.38447,0.4168 -0.62976,0.5539 -0.2423,0.1371 -0.5677,0.2059 -0.9802,0.2059 -0.42752,0 -0.77895,-0.091 -1.06129,-0.2738 -0.28134,-0.1801 -0.42151,-0.4032 -0.42151,-0.6719 0,-0.2492 0.10412,-0.45 0.31037,-0.6082 0.20626,-0.157 0.48459,-0.286 0.83602,-0.3918 0.34743,-0.1024 0.83101,-0.2301 1.44576,-0.377 0.73189,-0.1793 1.32662,-0.3902 1.79018,-0.6363 0.46056,-0.2488 0.81099,-0.5387 1.04928,-0.875 0.23929,-0.334 0.35744,-0.718 0.35744,-1.15" /><path
       inkscape:connector-curvature="0"
       id="path4919"
       style="fill:#454955;fill-opacity:1;fill-rule:nonzero;stroke:#000000;stroke-width:0.10006095;stroke-opacity:1"
       d="m 314.2984,32.1281 0,-6.791 c 0,-0.4723 -0.11414,-0.8262 -0.33841,-1.068 -0.22428,-0.241 -0.50662,-0.3621 -0.85104,-0.3621 -0.34542,0 -0.62776,0.125 -0.84002,0.3711 -0.21727,0.2469 -0.3234,0.6 -0.3234,1.059 l 0,6.7199 c 0,0.4649 0.10613,0.816 0.3234,1.05 0.21226,0.2352 0.4946,0.3539 0.84002,0.3539 0.34442,0 0.62676,-0.1187 0.85104,-0.3539 0.22427,-0.234 0.33841,-0.564 0.33841,-0.9789 m -1.16342,2.4239 c -0.3284,0 -0.60774,0.1011 -0.84102,0.3019 -0.23229,0.2 -0.34843,0.484 -0.34843,0.85 0,0.3332 0.11815,0.609 0.35844,0.8231 0.23629,0.2152 0.51262,0.3222 0.83101,0.3222 0.30137,0 0.5727,-0.0953 0.80799,-0.2902 0.23628,-0.1969 0.35543,-0.482 0.35543,-0.8551 0,-0.3578 -0.11614,-0.643 -0.34442,-0.8469 -0.23128,-0.2039 -0.50462,-0.305 -0.819,-0.305" /><path
       inkscape:connector-curvature="0"
       id="path4921"
       style="fill:#454955;fill-opacity:1;fill-rule:nonzero;stroke:#000000;stroke-width:0.10006095;stroke-opacity:1"
       d="m 318.55959,28.7629 c 0,-0.9539 0.20925,-1.6758 0.62576,-2.1598 0.41751,-0.4902 0.95717,-0.7332 1.61497,-0.7332 0.39047,0 0.76092,0.1043 1.10735,0.3141 0.34742,0.209 0.63177,0.525 0.85003,0.9469 0.21727,0.4222 0.3284,0.932 0.3284,1.5371 0,0.957 -0.21326,1.7019 -0.63477,2.2379 -0.42151,0.532 -0.97819,0.798 -1.66803,0.798 -0.67182,0 -1.20948,-0.2527 -1.61397,-0.7668 -0.40649,-0.509 -0.60974,-1.2351 -0.60974,-2.1742 m 6.8153,2.975 0,-6.8199 c 0,-0.7828 -0.0821,-1.452 -0.2473,-2.016 -0.16821,-0.5641 -0.43553,-1.027 -0.80298,-1.393 -0.36645,-0.3668 -0.84903,-0.641 -1.44376,-0.8211 -0.59472,-0.1727 -1.33362,-0.2617 -2.2157,-0.2617 -0.81098,0 -1.53487,0.1109 -2.17264,0.3367 -0.63878,0.2281 -1.12637,0.5191 -1.4738,0.8773 -0.34442,0.3598 -0.51462,0.7278 -0.51462,1.1078 0,0.2852 0.0971,0.5192 0.29335,0.7008 0.19324,0.1801 0.42852,0.2723 0.70586,0.2723 0.34042,0 0.64379,-0.1539 0.9021,-0.4559 0.12716,-0.1574 0.25731,-0.3132 0.39248,-0.4703 0.13516,-0.157 0.28735,-0.2929 0.44754,-0.4047 0.1632,-0.1121 0.36044,-0.1953 0.59072,-0.25 0.22828,-0.0543 0.49461,-0.0832 0.79197,-0.0832 0.60774,0 1.08332,0.0832 1.41973,0.2551 0.33641,0.168 0.56869,0.4059 0.70586,0.709 0.13516,0.307 0.21326,0.6301 0.23528,0.9801 0.025,0.3429 0.041,0.9 0.0541,1.6718 -0.36344,-0.5058 -0.78195,-0.8898 -1.25653,-1.1539 -0.47258,-0.2632 -1.03726,-0.3949 -1.69206,-0.3949 -0.78396,0 -1.4728,0.1996 -2.06352,0.602 -0.59071,0.4008 -1.04026,0.9617 -1.35665,1.6867 -0.31438,0.7242 -0.47357,1.5582 -0.47357,2.5051 0,0.7039 0.0961,1.3402 0.28935,1.909 0.19223,0.5679 0.46757,1.0472 0.823,1.4382 0.35643,0.3918 0.76693,0.686 1.2325,0.8809 0.46357,0.1961 0.97619,0.2961 1.53287,0.2961 0.66381,0 1.24251,-0.1274 1.73311,-0.3832 0.48459,-0.2527 0.93814,-0.6559 1.36266,-1.2 l 0,0.318 c 0,0.4062 0.0991,0.7218 0.29936,0.9472 0.19925,0.2238 0.45756,0.3367 0.77395,0.3367 0.45355,0 0.75291,-0.15 0.9041,-0.4449 0.14818,-0.2941 0.22327,-0.7191 0.22327,-1.2781" /><path
       inkscape:connector-curvature="0"
       id="path4923"
       style="fill:#454955;fill-opacity:1;fill-rule:nonzero;stroke:#000000;stroke-width:0.10006095;stroke-opacity:1"
       d="m 329.89339,32.1609 0,-0.2839 c 0.41251,0.5449 0.86205,0.946 1.35365,1.2 0.4926,0.2531 1.05729,0.3839 1.69306,0.3839 0.62176,0 1.17443,-0.1347 1.66603,-0.407 0.48359,-0.268 0.84904,-0.65 1.09033,-1.1437 0.15719,-0.2872 0.25631,-0.5961 0.30137,-0.9282 0.046,-0.3359 0.0691,-0.7578 0.0691,-1.275 l 0,-4.3699 c 0,-0.4711 -0.10813,-0.8262 -0.32139,-1.068 -0.21426,-0.2402 -0.49861,-0.3609 -0.83902,-0.3609 -0.35343,0 -0.63678,0.1238 -0.85404,0.3699 -0.21927,0.2469 -0.3264,0.6 -0.3264,1.059 l 0,3.9149 c 0,0.7742 -0.10813,1.366 -0.32339,1.7789 -0.21827,0.4089 -0.64479,0.614 -1.28857,0.614 -0.42152,0 -0.80098,-0.1258 -1.1454,-0.375 -0.34642,-0.2469 -0.59973,-0.591 -0.76192,-1.0277 -0.11014,-0.3512 -0.17021,-1.0063 -0.17021,-1.9633 l 0,-2.9418 c 0,-0.4781 -0.11014,-0.8312 -0.33141,-1.073 -0.22127,-0.2371 -0.50862,-0.3559 -0.85804,-0.3559 -0.33841,0 -0.61475,0.1238 -0.83502,0.3699 -0.21726,0.2469 -0.32539,0.6 -0.32539,1.059 l 0,6.791 c 0,0.4457 0.0961,0.7789 0.29135,1.0008 0.19424,0.2203 0.46156,0.332 0.80198,0.332 0.20725,0 0.39348,-0.0507 0.55968,-0.1461 0.1642,-0.0988 0.29936,-0.2468 0.40049,-0.4386 0.10012,-0.1973 0.15318,-0.4313 0.15318,-0.7153" /><path
       inkscape:connector-curvature="0"
       id="path4925"
       style="fill:#454955;fill-opacity:1;fill-rule:nonzero;stroke:#000000;stroke-width:0.10006095;stroke-opacity:1"
       d="m 340.37516,29.4398 4.26419,0 c -0.0601,0.8043 -0.27333,1.4043 -0.65079,1.8024 -0.37345,0.4 -0.87206,0.6008 -1.48481,0.6008 -0.58671,0 -1.0673,-0.202 -1.44476,-0.6078 -0.37545,-0.4032 -0.60373,-1.0043 -0.68383,-1.7954 m 4.6006,-1.332 -4.6006,0 c 0.006,-0.5348 0.11314,-1.0047 0.32239,-1.4117 0.20926,-0.4063 0.4906,-0.7152 0.83502,-0.9199 0.34842,-0.2071 0.73289,-0.3102 1.1524,-0.3102 0.28035,0 0.53866,0.0352 0.76994,0.0961 0.23128,0.066 0.45756,0.175 0.67783,0.3121 0.21726,0.1418 0.41951,0.293 0.60273,0.4528 0.18322,0.1582 0.42051,0.3761 0.71387,0.6519 0.12115,0.1031 0.29336,0.159 0.51563,0.159 0.2433,0 0.43653,-0.0699 0.58771,-0.2008 0.14819,-0.1308 0.22428,-0.3172 0.22428,-0.5582 0,-0.2117 -0.0821,-0.4609 -0.25031,-0.7457 -0.1662,-0.282 -0.41851,-0.5582 -0.75492,-0.8184 -0.3354,-0.2578 -0.75792,-0.4769 -1.26554,-0.65 -0.50962,-0.1707 -1.09433,-0.2578 -1.75213,-0.2578 -1.51284,0 -2.68627,0.4309 -3.52329,1.291 -0.84203,0.8622 -1.26154,2.0282 -1.26154,3.5032 0,0.6937 0.10613,1.341 0.31138,1.934 0.20725,0.5918 0.50862,1.1019 0.9071,1.525 0.39549,0.423 0.88208,0.75 1.46279,0.98 0.5807,0.2227 1.22349,0.3368 1.93035,0.3368 0.91912,0 1.70708,-0.1938 2.36588,-0.5809 0.6558,-0.3879 1.1484,-0.8879 1.4778,-1.5012 0.3274,-0.6148 0.4896,-1.241 0.4896,-1.8758 0,-0.5902 -0.17221,-0.975 -0.50662,-1.1519 -0.34042,-0.1731 -0.816,-0.2594 -1.43175,-0.2594" /><path
       inkscape:connector-curvature="0"
       id="path4927"
       style="fill:#454955;fill-opacity:1;fill-rule:nonzero;stroke:#000000;stroke-width:0.10006095;stroke-opacity:1"
       d="m 350.71576,28.7012 c 0,-0.6383 0.0961,-1.1793 0.29536,-1.6262 0.19924,-0.4461 0.46656,-0.7859 0.81599,-1.0109 0.34342,-0.2282 0.71887,-0.3399 1.12637,-0.3399 0.41551,0 0.79197,0.1059 1.13538,0.3207 0.33842,0.2192 0.61275,0.5473 0.816,0.9903 0.20525,0.4457 0.30837,1.0007 0.30837,1.666 0,0.6258 -0.10312,1.1629 -0.30837,1.6148 -0.20325,0.45 -0.47758,0.7942 -0.82801,1.0309 -0.34642,0.239 -0.72689,0.3562 -1.14039,0.3562 -0.42952,0 -0.81599,-0.1191 -1.15541,-0.364 -0.34041,-0.2469 -0.59973,-0.595 -0.78696,-1.052 -0.18722,-0.4539 -0.27833,-0.982 -0.27833,-1.5859 m 4.62463,-3.4492 0,0.2332 c -0.31639,-0.3641 -0.62777,-0.6571 -0.93614,-0.884 -0.30537,-0.2282 -0.64178,-0.3992 -0.99722,-0.518 -0.36044,-0.118 -0.75291,-0.1762 -1.17743,-0.1762 -0.56369,0 -1.08232,0.12 -1.5629,0.3582 -0.47859,0.2399 -0.89509,0.5789 -1.24552,1.0188 -0.34943,0.441 -0.61475,0.9629 -0.79597,1.5601 -0.18122,0.595 -0.27233,1.2391 -0.27233,1.9348 0,1.468 0.36044,2.6133 1.07631,3.4332 0.71787,0.8199 1.66403,1.2309 2.83545,1.2309 0.67883,0 1.24952,-0.1168 1.71309,-0.3489 0.46456,-0.2339 0.92012,-0.589 1.36266,-1.073 l 0,3.4687 c 0,0.4832 0.0961,0.8473 0.28935,1.0942 0.19324,0.2469 0.46557,0.3711 0.823,0.3711 0.35443,0 0.62577,-0.116 0.822,-0.3422 0.19324,-0.2238 0.28735,-0.5598 0.28735,-1.0027 l 0,-10.3582 c 0,-0.4469 -0.10212,-0.7829 -0.30837,-1.0071 -0.20825,-0.225 -0.47458,-0.3379 -0.80098,-0.3379 -0.32239,0 -0.58871,0.1149 -0.79797,0.3489 -0.20925,0.2312 -0.31438,0.5671 -0.31438,0.9961" /><path
       inkscape:connector-curvature="0"
       id="path4929"
       style="fill:#454955;fill-opacity:1;fill-rule:nonzero;stroke:#000000;stroke-width:0.10006095;stroke-opacity:1"
       d="m 366.61812,28.634 c 0,-0.9379 0.21326,-1.6551 0.64079,-2.1551 0.43052,-0.5047 0.9892,-0.7547 1.68405,-0.7547 0.59272,0 1.10234,0.2547 1.52986,0.7719 0.42752,0.5109 0.64078,1.2469 0.64078,2.2051 0,0.6199 -0.0881,1.1519 -0.26733,1.6 -0.17621,0.45 -0.42952,0.7918 -0.75792,1.0379 -0.32439,0.2449 -0.70786,0.3648 -1.14539,0.3648 -0.44955,0 -0.84503,-0.1199 -1.19746,-0.3648 -0.34943,-0.2461 -0.62476,-0.5969 -0.82701,-1.061 -0.20024,-0.4601 -0.30037,-1.009 -0.30037,-1.6441 m -0.11213,6.9762 0,-3.5891 c 0.44254,0.4609 0.89409,0.8129 1.35164,1.0559 0.45956,0.2441 1.02726,0.3652 1.70909,0.3652 0.77794,0 1.46278,-0.184 2.05149,-0.5551 0.58972,-0.3691 1.04628,-0.907 1.36867,-1.6082 0.3264,-0.7008 0.4876,-1.5359 0.4876,-2.5008 0,-0.7133 -0.0891,-1.3621 -0.27033,-1.9582 -0.18223,-0.5937 -0.44454,-1.107 -0.78696,-1.5418 -0.34542,-0.434 -0.76193,-0.7722 -1.25253,-1.014 -0.4936,-0.2379 -1.03526,-0.3559 -1.62698,-0.3559 -0.36144,0 -0.70286,0.0438 -1.01924,0.1297 -0.31839,0.0863 -0.59072,0.198 -0.81499,0.3391 -0.22328,0.141 -0.41651,0.2851 -0.5747,0.4351 -0.15719,0.1481 -0.36244,0.3719 -0.62276,0.6719 l 0,-0.232 c 0,-0.4438 -0.10513,-0.777 -0.32039,-1.0059 -0.21126,-0.225 -0.48059,-0.3379 -0.80999,-0.3379 -0.3314,0 -0.59773,0.1129 -0.79697,0.3379 -0.19624,0.2289 -0.29636,0.5621 -0.29636,1.0059 l 0,10.2562 c 0,0.4727 0.0961,0.8359 0.29035,1.082 0.19324,0.2407 0.46056,0.3649 0.80298,0.3649 0.36244,0 0.64379,-0.116 0.83802,-0.3512 0.19624,-0.232 0.29236,-0.5641 0.29236,-0.9937" /><path
       inkscape:connector-curvature="0"
       id="path4931"
       style="fill:#454955;fill-opacity:1;fill-rule:nonzero;stroke:#000000;stroke-width:0.10006095;stroke-opacity:1"
       d="m 377.30214,23.6148 0.21326,0.5274 -2.89353,7.2789 c -0.17921,0.418 -0.26832,0.7219 -0.26832,0.9109 0,0.2 0.0541,0.3891 0.15418,0.5602 0.10513,0.1726 0.24831,0.3098 0.42652,0.4117 0.18122,0.102 0.37146,0.157 0.56569,0.157 0.33942,0 0.59573,-0.1078 0.76594,-0.3207 0.17221,-0.2191 0.32639,-0.5242 0.45755,-0.9281 l 1.99143,-5.784 1.8863,5.3789 c 0.14918,0.4379 0.28434,0.775 0.40249,1.0262 0.12315,0.2449 0.2503,0.4109 0.38747,0.4969 0.13316,0.0859 0.32439,0.1308 0.56969,0.1308 0.17722,0 0.34943,-0.0488 0.51363,-0.1429 0.1632,-0.0938 0.28835,-0.2231 0.37746,-0.3809 0.0881,-0.1652 0.13516,-0.332 0.13516,-0.5101 -0.024,-0.109 -0.0591,-0.2629 -0.11113,-0.4641 -0.0531,-0.202 -0.11614,-0.4039 -0.19023,-0.6117 l -3.06574,-8.018 c -0.26632,-0.709 -0.52264,-1.2594 -0.77895,-1.6602 -0.2503,-0.4019 -0.58571,-0.7101 -1.00122,-0.9261 -0.4165,-0.216 -0.97919,-0.3219 -1.68605,-0.3219 -0.68784,0 -1.20647,0.073 -1.54989,0.2219 -0.34442,0.148 -0.51663,0.4211 -0.51663,0.816 0,0.2691 0.0821,0.4793 0.2473,0.625 0.1622,0.1473 0.40349,0.2223 0.72689,0.2223 0.12515,0 0.2483,-0.0211 0.36945,-0.0543 0.15018,-0.0368 0.27934,-0.052 0.38947,-0.052 0.26933,0 0.47859,0.0422 0.63678,0.1231 0.15419,0.08 0.29536,0.2171 0.41751,0.4179 0.12315,0.1961 0.26532,0.4871 0.42752,0.8699" /><path
       inkscape:connector-curvature="0"
       id="path4933"
       style="fill:#454955;fill-opacity:1;fill-rule:nonzero;stroke:#000000;stroke-width:0.10006095;stroke-opacity:1"
       d="m 420.82515,33.2551 0.56269,0 0,0.7031 c 0,0.7348 0.0901,1.3199 0.28134,1.752 0.18122,0.432 0.50061,0.7507 0.94415,0.9457 0.44554,0.198 1.05528,0.2992 1.83023,0.2992 1.37267,0 2.06051,-0.336 2.06051,-1.0082 0,-0.2199 -0.0721,-0.4059 -0.21627,-0.561 -0.14217,-0.1539 -0.31338,-0.2308 -0.50862,-0.2308 -0.0961,0 -0.2503,0.016 -0.47558,0.0508 -0.22227,0.0363 -0.4105,0.0523 -0.56769,0.0523 -0.42451,0 -0.69685,-0.1242 -0.81399,-0.3742 -0.12415,-0.25 -0.18022,-0.609 -0.18022,-1.0719 l 0,-0.557 0.5717,0 c 0.89809,0 1.34464,-0.2742 1.34464,-0.8102 0,-0.3859 -0.11615,-0.6308 -0.35744,-0.732 -0.23829,-0.1027 -0.56469,-0.1539 -0.9872,-0.1539 l -0.5717,0 0,-6.2219 c 0,-0.4652 -0.11514,-0.8191 -0.33741,-1.0652 -0.22027,-0.243 -0.50862,-0.3637 -0.85704,-0.3637 -0.33041,0 -0.60674,0.1207 -0.83001,0.3637 -0.22328,0.2461 -0.3294,0.6 -0.3294,1.0652 l 0,6.2219 -0.64779,0 c -0.34843,0 -0.61976,0.0762 -0.80999,0.2371 -0.19123,0.1559 -0.28635,0.3609 -0.28635,0.6148 0,0.559 0.39448,0.8442 1.18144,0.8442" /><path
       inkscape:connector-curvature="0"
       id="path4935"
       style="fill:#454955;fill-opacity:1;fill-rule:nonzero;stroke:#000000;stroke-width:0.10006095;stroke-opacity:1"
       d="m 429.22538,27.2992 0,-1.9621 c 0,-0.4793 -0.11013,-0.8312 -0.3334,-1.073 -0.22928,-0.2379 -0.50963,-0.3559 -0.85605,-0.3559 -0.3344,0 -0.61575,0.1199 -0.83501,0.3609 -0.21727,0.2418 -0.3284,0.5969 -0.3284,1.068 l 0,6.5399 c 0,1.055 0.38446,1.5839 1.14639,1.5839 0.39048,0 0.67382,-0.1238 0.84603,-0.3699 0.17121,-0.2469 0.26332,-0.6121 0.28335,-1.0961 0.28534,0.484 0.57069,0.8492 0.86505,1.0961 0.29836,0.2461 0.69485,0.3699 1.18645,0.3699 0.49159,0 0.97318,-0.1238 1.43675,-0.3699 0.46857,-0.2469 0.69985,-0.5758 0.69985,-0.984 0,-0.2871 -0.0981,-0.5211 -0.30037,-0.7101 -0.19524,-0.1828 -0.4095,-0.2758 -0.63978,-0.2758 -0.0831,0 -0.29436,0.0508 -0.62676,0.1578 -0.3284,0.1082 -0.61875,0.159 -0.87206,0.159 -0.34542,0 -0.62677,-0.091 -0.84403,-0.2731 -0.21426,-0.1789 -0.39048,-0.4468 -0.50762,-0.8058 -0.12315,-0.3539 -0.20525,-0.7781 -0.25431,-1.2668 -0.043,-0.4891 -0.0661,-1.0902 -0.0661,-1.793" /><path
       inkscape:connector-curvature="0"
       id="path4937"
       style="fill:#454955;fill-opacity:1;fill-rule:nonzero;stroke:#000000;stroke-width:0.10006095;stroke-opacity:1"
       d="m 436.14381,29.4398 4.26619,0 c -0.0581,0.8043 -0.27233,1.4043 -0.65179,1.8024 -0.37746,0.4 -0.87106,0.6008 -1.48581,0.6008 -0.58471,0 -1.0683,-0.202 -1.44376,-0.6078 -0.37345,-0.4032 -0.60473,-1.0043 -0.68483,-1.7954 m 4.6016,-1.332 -4.6016,0 c 0.007,-0.5348 0.11113,-1.0047 0.32339,-1.4117 0.20826,-0.4063 0.48659,-0.7152 0.83502,-0.9199 0.34942,-0.2071 0.73389,-0.3102 1.1514,-0.3102 0.28034,0 0.54066,0.0352 0.77194,0.0961 0.23128,0.066 0.45556,0.175 0.67382,0.3121 0.21927,0.1418 0.42152,0.293 0.60674,0.4528 0.18122,0.1582 0.41951,0.3761 0.71087,0.6519 0.12114,0.1031 0.29736,0.159 0.52263,0.159 0.23629,0 0.43053,-0.0699 0.57871,-0.2008 0.15218,-0.1308 0.22627,-0.3172 0.22627,-0.5582 0,-0.2117 -0.0821,-0.4609 -0.2483,-0.7457 -0.1692,-0.282 -0.41751,-0.5582 -0.75091,-0.8184 -0.33841,-0.2578 -0.75893,-0.4769 -1.27155,-0.65 -0.50662,-0.1707 -1.09233,-0.2578 -1.75214,-0.2578 -1.51184,0 -2.68427,0.4309 -3.52329,1.291 -0.83702,0.8622 -1.25853,2.0282 -1.25853,3.5032 0,0.6937 0.10413,1.341 0.31038,1.934 0.20725,0.5918 0.50862,1.1019 0.9021,1.525 0.39948,0.423 0.88808,0.75 1.46879,0.98 0.5787,0.2227 1.22248,0.3368 1.93035,0.3368 0.91611,0 1.70407,-0.1938 2.36187,-0.5809 0.65981,-0.3879 1.15441,-0.8879 1.47881,-1.5012 0.32539,-0.6148 0.49059,-1.241 0.49059,-1.8758 0,-0.5902 -0.1672,-0.975 -0.50762,-1.1519 -0.34041,-0.1731 -0.81699,-0.2594 -1.42974,-0.2594" /><path
       inkscape:connector-curvature="0"
       id="path4939"
       style="fill:#454955;fill-opacity:1;fill-rule:nonzero;stroke:#000000;stroke-width:0.10006095;stroke-opacity:1"
       d="m 446.63058,29.4398 4.26419,0 c -0.0601,0.8043 -0.27733,1.4043 -0.65079,1.8024 -0.37846,0.4 -0.87106,0.6008 -1.48481,0.6008 -0.58771,0 -1.0683,-0.202 -1.44676,-0.6078 -0.37546,-0.4032 -0.60473,-1.0043 -0.68183,-1.7954 m 4.5996,-1.332 -4.5996,0 c 0.003,-0.5348 0.11214,-1.0047 0.32239,-1.4117 0.20926,-0.4063 0.4866,-0.7152 0.83402,-0.9199 0.34842,-0.2071 0.73189,-0.3102 1.1514,-0.3102 0.28034,0 0.53866,0.0352 0.76794,0.0961 0.23328,0.066 0.46056,0.175 0.67882,0.3121 0.21927,0.1418 0.41952,0.293 0.60174,0.4528 0.18622,0.1582 0.42451,0.3761 0.71687,0.6519 0.12015,0.1031 0.29136,0.159 0.51763,0.159 0.24029,0 0.43253,-0.0699 0.58371,-0.2008 0.15018,-0.1308 0.22528,-0.3172 0.22528,-0.5582 0,-0.2117 -0.0841,-0.4609 -0.25031,-0.7457 -0.1652,-0.282 -0.41851,-0.5582 -0.75392,-0.8184 -0.33541,-0.2578 -0.75692,-0.4769 -1.26454,-0.65 -0.51062,-0.1707 -1.09333,-0.2578 -1.75513,-0.2578 -1.50884,0 -2.68427,0.4309 -3.5243,1.291 -0.83802,0.8622 -1.25553,2.0282 -1.25553,3.5032 0,0.6937 0.10413,1.341 0.30838,1.934 0.20725,0.5918 0.50962,1.1019 0.9031,1.525 0.39848,0.423 0.88708,0.75 1.46679,0.98 0.5797,0.2227 1.22449,0.3368 1.92834,0.3368 0.92313,0 1.70909,-0.1938 2.36589,-0.5809 0.6578,-0.3879 1.1504,-0.8879 1.4778,-1.5012 0.3304,-0.6148 0.49159,-1.241 0.49159,-1.8758 0,-0.5902 -0.1682,-0.975 -0.50962,-1.1519 -0.33641,-0.1731 -0.81299,-0.2594 -1.42874,-0.2594" /><path
       inkscape:connector-curvature="0"
       id="path4941"
       style="fill:#454955;fill-opacity:1;fill-rule:nonzero;stroke:#000000;stroke-width:0.10006095;stroke-opacity:1"
       d="m 461.69693,28.7281 c 0,0.6188 -0.0931,1.1508 -0.28535,1.593 -0.18822,0.4461 -0.45255,0.7891 -0.78796,1.0258 -0.3354,0.239 -0.70485,0.357 -1.11335,0.357 -0.65079,0 -1.19646,-0.2527 -1.643,-0.7668 -0.44254,-0.509 -0.66782,-1.2601 -0.66782,-2.2531 0,-0.9348 0.22027,-1.6621 0.66381,-2.182 0.44454,-0.5211 0.99221,-0.7778 1.64701,-0.7778 0.38847,0 0.75392,0.1129 1.08232,0.3399 0.33641,0.2257 0.60173,0.566 0.80197,1.0179 0.20225,0.4539 0.30237,1.002 0.30237,1.6461 m -4.61061,3.4141 0,-0.2832 c 0.44654,0.5441 0.9041,0.9473 1.38168,1.2 0.47558,0.2558 1.01624,0.3832 1.61797,0.3832 0.72388,0 1.39069,-0.184 1.99643,-0.5582 0.61175,-0.377 1.09333,-0.918 1.44777,-1.636 0.35242,-0.7148 0.52964,-1.564 0.52964,-2.5468 0,-0.7211 -0.10413,-1.384 -0.30938,-1.9922 -0.20224,-0.6039 -0.48158,-1.1129 -0.84102,-1.5219 -0.35243,-0.4121 -0.77094,-0.7269 -1.25853,-0.95 -0.4856,-0.218 -1.00723,-0.3289 -1.56491,-0.3289 -0.67182,0 -1.2345,0.1359 -1.69306,0.4047 -0.45556,0.268 -0.89109,0.6633 -1.30659,1.1883 l 0,-3.5282 c 0,-1.0351 -0.37446,-1.5468 -1.12638,-1.5468 -0.44354,0 -0.73389,0.132 -0.87807,0.3988 -0.14417,0.2672 -0.21626,0.6531 -0.21626,1.1648 l 0,10.1383 c 0,0.4457 0.10012,0.7789 0.29236,1.0008 0.19423,0.2203 0.45956,0.332 0.80197,0.332 0.33041,0 0.60574,-0.1129 0.814,-0.3429 0.21025,-0.227 0.31238,-0.5532 0.31238,-0.9758" /><path
       inkscape:connector-curvature="0"
       id="path4943"
       style="fill:#454955;fill-opacity:1;fill-rule:nonzero;stroke:#000000;stroke-width:0.10006095;stroke-opacity:1"
       d="m 468.29397,32.1281 0,-6.791 c 0,-0.4723 -0.10813,-0.8262 -0.33741,-1.068 -0.21927,-0.241 -0.50262,-0.3621 -0.84904,-0.3621 -0.34642,0 -0.62276,0.125 -0.83902,0.3711 -0.21726,0.2469 -0.32239,0.6 -0.32239,1.059 l 0,6.7199 c 0,0.4649 0.10513,0.816 0.32239,1.05 0.21626,0.2352 0.4926,0.3539 0.83902,0.3539 0.34642,0 0.62977,-0.1187 0.84904,-0.3539 0.22928,-0.234 0.33741,-0.564 0.33741,-0.9789 m -1.15741,2.4239 c -0.3284,0 -0.60974,0.1011 -0.84103,0.3019 -0.23128,0.2 -0.34942,0.484 -0.34942,0.85 0,0.3332 0.11814,0.609 0.35543,0.8231 0.23629,0.2152 0.51663,0.3222 0.83502,0.3222 0.30237,0 0.56869,-0.0953 0.80598,-0.2902 0.23729,-0.1969 0.35143,-0.482 0.35143,-0.8551 0,-0.3578 -0.11014,-0.643 -0.34042,-0.8469 -0.23028,-0.2039 -0.50361,-0.305 -0.81699,-0.305" /><path
       inkscape:connector-curvature="0"
       id="path4945"
       style="fill:#454955;fill-opacity:1;fill-rule:nonzero;stroke:#000000;stroke-width:0.10006095;stroke-opacity:1"
       d="m 476.58306,24.9859 -2.07452,3.4082 -1.27456,-1.2062 0,-1.8699 c 0,-0.4532 -0.12014,-0.7989 -0.35743,-1.045 -0.24029,-0.2441 -0.51463,-0.366 -0.822,-0.366 -0.36244,0 -0.64579,0.1219 -0.85604,0.3629 -0.20525,0.241 -0.30738,0.5949 -0.30738,1.066 l 0,10.018 c 0,0.5203 0.0951,0.9199 0.30137,1.191 0.20024,0.2731 0.48859,0.4102 0.86205,0.4102 0.36244,0 0.64679,-0.1242 0.85904,-0.3711 0.21326,-0.2469 0.32039,-0.6121 0.32039,-1.0942 l 0,-5.6957 2.64423,2.7688 c 0.3284,0.3473 0.5747,0.5793 0.74891,0.709 0.17321,0.1261 0.38046,0.189 0.63077,0.189 0.28935,0 0.53565,-0.0929 0.72988,-0.282 0.19524,-0.1859 0.29637,-0.4199 0.29637,-0.7 0,-0.3457 -0.3214,-0.8047 -0.95817,-1.3758 l -1.24952,-1.1461 2.41294,-3.7859 c 0.17921,-0.277 0.30437,-0.4961 0.38146,-0.6402 0.0771,-0.145 0.11714,-0.2879 0.11714,-0.4168 0,-0.3762 -0.10312,-0.6672 -0.30837,-0.884 -0.20225,-0.2141 -0.47358,-0.3231 -0.80098,-0.3231 -0.28735,0 -0.50962,0.0758 -0.66381,0.2352 -0.15719,0.1527 -0.36644,0.4348 -0.63177,0.8437" /><path
       inkscape:connector-curvature="0"
       id="path4947"
       style="fill:#454955;fill-opacity:1;fill-rule:nonzero;stroke:#000000;stroke-width:0.10006095;stroke-opacity:1"
       d="m 482.40215,23.907 c -0.35944,0 -0.66581,0.1141 -0.92212,0.3461 -0.25832,0.2289 -0.38948,0.552 -0.38948,0.9641 0,0.3508 0.12416,0.6508 0.36845,0.9039 0.25031,0.2519 0.55568,0.3758 0.91712,0.3758 0.36044,0 0.66581,-0.1227 0.92513,-0.3727 0.25331,-0.25 0.38146,-0.5512 0.38146,-0.907 0,-0.409 -0.12815,-0.7301 -0.38146,-0.9602 -0.25932,-0.2359 -0.55668,-0.35 -0.8991,-0.35" /><path
       inkscape:connector-curvature="0"
       id="path4949"
       style="fill:#454955;fill-opacity:1;fill-rule:nonzero;stroke:#000000;stroke-width:0.10006095;stroke-opacity:1"
       d="m 494.79925,26.818 c 0,-0.293 -0.0911,-0.6071 -0.26532,-0.9399 -0.17421,-0.332 -0.44154,-0.6492 -0.79898,-0.95 -0.36144,-0.3019 -0.81499,-0.5429 -1.35565,-0.7281 -0.54967,-0.1828 -1.16241,-0.2711 -1.85025,-0.2711 -1.44776,0 -2.58315,0.418 -3.40014,1.2652 -0.81299,0.8469 -1.22049,1.9821 -1.22049,3.4039 0,0.9641 0.18222,1.8141 0.55868,2.5551 0.37045,0.7418 0.91311,1.3149 1.61998,1.7149 0.70385,0.405 1.55088,0.609 2.53308,0.609 0.60774,0 1.16342,-0.0891 1.67404,-0.2661 0.50762,-0.18 0.94115,-0.407 1.28957,-0.689 0.35443,-0.2821 0.62676,-0.5809 0.81499,-0.9 0.18323,-0.3168 0.27934,-0.6149 0.27934,-0.893 0,-0.2789 -0.10813,-0.518 -0.31838,-0.7109 -0.20726,-0.1969 -0.46157,-0.291 -0.75893,-0.291 -0.19624,0 -0.36244,0.048 -0.48859,0.148 -0.12716,0.1031 -0.27434,0.2641 -0.43553,0.484 -0.28235,0.4371 -0.58572,0.7672 -0.8981,0.9859 -0.31338,0.216 -0.71187,0.325 -1.19245,0.325 -0.69385,0 -1.25853,-0.273 -1.68305,-0.8129 -0.42251,-0.541 -0.63678,-1.2832 -0.63678,-2.223 0,-0.443 0.0541,-0.8508 0.1642,-1.2192 0.11014,-0.3699 0.26833,-0.6859 0.47258,-0.9457 0.20525,-0.2632 0.45756,-0.4582 0.74991,-0.5949 0.29436,-0.1351 0.61575,-0.2 0.96718,-0.2 0.46857,0 0.87206,0.1059 1.20947,0.3238 0.33541,0.22 0.62977,0.5512 0.89309,0.9989 0.14318,0.2621 0.29937,0.4722 0.46557,0.6179 0.1672,0.1504 0.36945,0.2262 0.60774,0.2262 0.28835,0 0.52964,-0.1101 0.71787,-0.3258 0.18823,-0.2203 0.28535,-0.4531 0.28535,-0.6972" /><path
       inkscape:connector-curvature="0"
       id="path4951"
       style="fill:#454955;fill-opacity:1;fill-rule:nonzero;stroke:#000000;stroke-width:0.10006095;stroke-opacity:1"
       d="m 503.2936,28.684 c 0,0.9582 -0.21426,1.7051 -0.63478,2.2359 -0.42051,0.5352 -0.9882,0.8012 -1.70207,0.8012 -0.45956,0 -0.86505,-0.1172 -1.21548,-0.357 -0.34642,-0.2379 -0.62076,-0.5903 -0.80798,-1.0539 -0.19324,-0.461 -0.28635,-1.0051 -0.28635,-1.6262 0,-0.6141 0.0931,-1.15 0.27934,-1.609 0.18723,-0.459 0.45555,-0.8109 0.80398,-1.0539 0.34542,-0.2449 0.75291,-0.3652 1.22649,-0.3652 0.71387,0 1.28156,0.2671 1.70207,0.8043 0.42052,0.5359 0.63478,1.2777 0.63478,2.2238 m 2.35887,0 c 0,-0.6988 -0.11113,-1.3449 -0.3274,-1.936 -0.21927,-0.5929 -0.53565,-1.0992 -0.94815,-1.5199 -0.41251,-0.425 -0.90911,-0.7519 -1.48181,-0.982 -0.5727,-0.225 -1.22149,-0.3391 -1.93836,-0.3391 -0.71187,0 -1.35064,0.1149 -1.92234,0.345 -0.56469,0.23 -1.05829,0.557 -1.4758,0.9839 -0.4145,0.4289 -0.73189,0.934 -0.94715,1.5153 -0.21426,0.582 -0.32139,1.2297 -0.32139,1.9328 0,0.7109 0.10713,1.3609 0.32439,1.957 0.21727,0.5879 0.53165,1.0918 0.93915,1.5102 0.40749,0.4168 0.89909,0.741 1.4808,0.9668 0.58271,0.2312 1.22049,0.3429 1.92234,0.3429 0.71387,0 1.35966,-0.116 1.93836,-0.3468 0.57871,-0.227 1.07531,-0.5551 1.48982,-0.9821 0.4155,-0.4211 0.73089,-0.9289 0.94415,-1.514 0.21226,-0.5848 0.32339,-1.2278 0.32339,-1.934" /><path
       inkscape:connector-curvature="0"
       id="path4953"
       style="fill:#454955;fill-opacity:1;fill-rule:nonzero;stroke:#000000;stroke-width:0.10006095;stroke-opacity:1"
       d="m 515.33026,28.5109 0,-3.1207 c 0,-0.4953 -0.11514,-0.8652 -0.33741,-1.1121 -0.22528,-0.2461 -0.52264,-0.3711 -0.88909,-0.3711 -0.35343,0 -0.64278,0.125 -0.86605,0.3711 -0.21927,0.2469 -0.3304,0.6168 -0.3304,1.1121 l 0,3.743 c 0,0.5898 -0.021,1.0469 -0.0621,1.377 -0.037,0.3257 -0.14718,0.5918 -0.32439,0.8019 -0.17922,0.209 -0.46157,0.3129 -0.84603,0.3129 -0.76894,0 -1.27756,-0.2641 -1.51785,-0.7891 -0.2453,-0.5277 -0.37045,-1.2859 -0.37045,-2.273 l 0,-3.1727 c 0,-0.4914 -0.11014,-0.8593 -0.32941,-1.105 -0.22327,-0.2532 -0.51262,-0.3782 -0.87706,-0.3782 -0.35143,0 -0.64779,0.125 -0.87407,0.3782 -0.22727,0.2457 -0.33841,0.6136 -0.33841,1.105 l 0,6.7168 c 0,0.441 0.0991,0.7801 0.30437,1.0071 0.20325,0.2308 0.47258,0.3468 0.80698,0.3468 0.3234,0 0.59072,-0.1078 0.80699,-0.3207 0.21326,-0.2183 0.32039,-0.514 0.32039,-0.8941 l 0,-0.225 c 0.40749,0.4859 0.84603,0.848 1.30959,1.0758 0.46657,0.2281 0.9832,0.3453 1.55189,0.3453 0.59072,0 1.09934,-0.1172 1.52286,-0.3512 0.42752,-0.2371 0.77694,-0.591 1.05228,-1.0699 0.39748,0.4848 0.82,0.8379 1.27355,1.073 0.45355,0.2309 0.95917,0.3481 1.51284,0.3481 0.63978,0 1.19546,-0.1242 1.65702,-0.3774 0.46857,-0.2546 0.81399,-0.6117 1.04427,-1.0847 0.20125,-0.4238 0.30237,-1.0922 0.30237,-2.0039 l 0,-4.586 c 0,-0.4953 -0.11314,-0.8652 -0.33841,-1.1121 -0.22227,-0.2461 -0.51663,-0.3711 -0.88508,-0.3711 -0.35343,0 -0.64679,0.125 -0.87607,0.3782 -0.22627,0.2457 -0.33941,0.6136 -0.33941,1.105 l 0,3.9477 c 0,0.5043 -0.021,0.9101 -0.0621,1.2152 -0.0491,0.3008 -0.16219,0.5571 -0.35142,0.7641 -0.18623,0.2058 -0.47658,0.3078 -0.86105,0.3078 -0.30938,0 -0.60374,-0.0898 -0.88508,-0.275 -0.27433,-0.184 -0.4936,-0.4289 -0.64879,-0.7379 -0.17121,-0.3961 -0.25531,-1.0961 -0.25531,-2.1012" /><path
       inkscape:connector-curvature="0"
       id="path4955"
       style="fill:#454955;fill-opacity:1;fill-rule:nonzero;stroke:#000000;stroke-width:0.10006095;stroke-opacity:1"
       d="m 402.29558,39.518 c -0.0511,0.1492 -0.10413,0.2992 -0.15319,0.45 0.79297,0.0711 1.32362,1.0172 0.93715,1.7172 -0.35243,0.791 -1.57092,0.8886 -2.04249,0.164 -0.50362,-0.6402 -0.11014,-1.6543 0.6598,-1.8582 0.0461,-0.1629 0.0921,-0.325 0.14217,-0.4879 -1.18344,-0.0742 -2.39291,-0.339 -3.38512,-1.0133 0.10012,-0.2886 0.20425,-0.5769 0.30437,-0.8636 2.00344,0.8769 4.25619,0.684 6.36876,0.475 0.0701,0.2777 0.13917,0.557 0.20825,0.8359 -0.95316,0.4301 -2.00344,0.5891 -3.0397,0.5809" /><path
       inkscape:connector-curvature="0"
       id="path4957"
       style="fill:#454955;fill-opacity:1;fill-rule:nonzero;stroke:#000000;stroke-width:0.10006095;stroke-opacity:1"
       d="m 414.2161,36.284 c -0.31939,-0.161 -0.37746,-0.5391 -0.36244,-0.8621 -0.34943,-0.341 -0.18523,-0.8578 -0.22427,-1.2887 -0.0791,-0.2402 -0.36745,-0.266 -0.5667,-0.3602 -0.27934,0.4219 -0.5747,0.8301 -0.94214,1.1739 l 0.001,0.0203 c -0.4055,0.3789 -0.84002,0.718 -1.30159,1.0187 -0.37245,-0.3949 -0.75992,-0.7839 -1.11736,-1.198 0.70586,-0.777 1.35766,-1.6047 1.93536,-2.4848 0.39448,-0.666 0.71687,-1.3742 0.99421,-2.098 0.59573,0.3008 1.18444,0.6219 1.78117,0.9328 -0.31438,0.7281 -0.67582,1.4359 -1.05729,2.132 0.26332,0.1403 0.61775,0.2801 0.65981,0.6231 0.032,0.3808 -0.0561,0.7922 0.17721,1.1261 0.45656,-0.3019 1.15641,0.0391 1.16242,0.5989 0.0641,0.5742 -0.66581,0.9949 -1.13939,0.666" /><path
       inkscape:connector-curvature="0"
       id="path4959"
       style="fill:#454955;fill-opacity:1;fill-rule:nonzero;stroke:#000000;stroke-width:0.10006095;stroke-opacity:1"
       d="m 409.5404,31.466 c -0.14217,-0.9668 -1.0703,-1.7871 -2.0585,-1.7238 -0.5757,-0.0492 -1.12838,0.223 -1.51685,0.6269 -0.27834,0.3461 -0.50762,0.7481 -0.54867,1.202 -0.13016,0.9828 0.55868,1.9937 1.52486,2.232 0.42151,0.118 0.86405,0.052 1.28356,-0.0461 0.90711,-0.3199 1.50283,-1.3422 1.3156,-2.291 m -8.71361,-2.0398 c -0.38547,-0.566 -0.94615,-1.0043 -1.58893,-1.2512 -1.20848,-0.448 -2.68127,-0.143 -3.54933,0.8211 -0.60674,0.6641 -0.96818,1.5648 -0.9021,2.4699 0.0451,1.134 0.74591,2.1852 1.74012,2.7192 0.75893,0.4109 1.67404,0.4808 2.49905,0.2507 0.34842,-0.0867 0.66781,-0.25 0.96517,-0.448 0.61075,-0.434 1.07331,-1.0731 1.27456,-1.7957 0.28134,-0.9223 0.10312,-1.9641 -0.43854,-2.766 m 10.16338,2.5398 c -0.77594,1.2852 -1.61597,2.5621 -2.75936,3.557 -1.31961,1.1602 -3.03269,1.943 -4.81186,1.934 -2.24874,0.0282 -4.52351,-0.3379 -6.59203,-1.2379 -1.95038,-0.8562 -3.64744,-2.38 -4.50649,-4.3531 -0.82701,-1.7719 -0.81699,-3.814 -0.44354,-5.7 2.06752,-0.5172 4.16908,-0.9769 6.30468,-1.0781 2.10256,-0.0649 4.22014,-0.1149 6.31169,0.1801 2.86949,0.3761 5.68292,1.2871 8.18797,2.75 0,0 -0.34242,1.8871 -1.69106,3.948" /><path
       inkscape:connector-curvature="0"
       id="path4961"
       style="fill:#454955;fill-opacity:1;fill-rule:nonzero;stroke:#000000;stroke-width:0.10006095;stroke-opacity:1"
       d="m 392.34846,34.8402 c -0.84102,-0.505 -1.52986,-1.223 -2.10756,-2.0062 -0.16821,0.309 -0.21927,0.6812 -0.43854,0.9609 -0.12315,0.166 -0.34942,0.0981 -0.52363,0.1012 -0.22328,-0.025 -0.44054,0.0371 -0.64779,0.1 0.24129,0.348 0.18022,0.8769 -0.19925,1.1 -0.40148,0.2898 -1.02424,0.041 -1.13037,-0.4391 -0.16821,-0.5238 0.38847,-1.05 0.9041,-0.9121 0.27133,-0.4 0.76793,-0.3367 1.18644,-0.3527 0.18923,-0.3274 0.33241,-0.6852 0.5747,-0.984 -0.44954,-0.8871 -0.70385,-1.8801 -0.72388,-2.8762 0.5767,-0.239 1.15441,-0.4851 1.73311,-0.7257 0.029,0.6269 0.10313,1.2507 0.20125,1.8707 0.19223,1.3441 0.97218,2.516 1.89531,3.4832 -0.22728,0.2386 -0.48159,0.45 -0.72389,0.68" /><path
       inkscape:connector-curvature="0"
       id="path4963"
       style="fill:#454955;fill-opacity:1;fill-rule:nonzero;stroke:#000000;stroke-width:0.10006095;stroke-opacity:1"
       d="m 405.86593,24.6781 c -2.1346,-0.4652 -4.33028,-0.6 -6.50993,-0.5039 -1.47179,0.0727 -2.94659,0.211 -4.38334,0.5278 -1.02124,0.2082 -2.02046,0.5011 -3.02168,0.7871 0.15719,-1.2821 0.67682,-2.5071 1.41773,-3.5602 0.87406,-1.225 2.03848,-2.3527 3.49425,-2.8039 1.13238,-0.3039 2.48603,-0.693 4.81487,-0.6539 1.92634,0.0359 3.81965,0.2809 5.51071,0.9949 1.08833,0.4699 2.11257,1.107 2.98764,1.9059 0.75992,0.7152 1.35665,1.607 1.76215,2.564 0.40048,0.9043 0.75992,2.5231 0.71887,3.3551 -2.08153,-1.1832 -4.41738,-2.216 -6.79127,-2.6129" /><path
       inkscape:connector-curvature="0"
       id="path4965"
       style="fill:#edecec;fill-opacity:1;fill-rule:nonzero;stroke:#000000;stroke-width:0.10006095;stroke-opacity:1"
       d="m 250.14526,498.658 c 0,0 -30.72142,-21.659 -47.38672,-44.722 0,0 -51.8041,-12.835 -84.13147,-6.218 0,0 50.67272,78.551 131.51819,50.94" /><path
       inkscape:connector-curvature="0"
       id="path4967"
       style="fill:#000000;fill-opacity:1;fill-rule:nonzero;stroke:#000000;stroke-width:0.10006095;stroke-opacity:1"
       d="m 134.52743,405.069 21.2569,20.931 22.05486,0 -24.93437,-22.312 -16.53714,1.088 15.97946,1.008 18.95208,18.876 -13.19206,-0.64 -23.57973,-18.951" /><path
       inkscape:connector-curvature="0"
       id="path4969"
       style="fill:#050000;fill-opacity:1;fill-rule:nonzero;stroke:#000000;stroke-width:0.10006095;stroke-opacity:1"
       d="m 103.16123,405.819 6.8944,20.181 -10.321574,0 -8.134408,-19.69 9.227742,-0.314 -6.731702,1.603 6.731702,17.119 6.44785,-0.175 -4.11401,-18.724" /><path
       inkscape:connector-curvature="0"
       id="path4971"
       style="fill:#000000;fill-opacity:1;fill-rule:nonzero;stroke:#000000;stroke-width:0.10006095;stroke-opacity:1"
       d="m 87.2905,383.939 c 0,0 0.09702,-4.47 2.821837,-7.288 0,0 51.496723,-4.997 83.962263,5.812 0,0 50.57961,16.918 91.51447,19.502 0,0 36.7788,1.331 63.51536,-1.711 77.04685,-4.049 458.54552,-37.443 458.54552,-37.443 l -485.59546,50.198 c 0,0 -40.46429,5.404 -94.80848,-11.044 0,0 -44.69845,-18.563 -70.10639,-19.502 0,0 -44.177813,-0.336 -49.84912,1.476" /><path
       inkscape:connector-curvature="0"
       id="path4973"
       style="fill:#000000;fill-opacity:1;fill-rule:nonzero;stroke:#000000;stroke-width:0.10006095;stroke-opacity:1"
       d="m 239.36313,462.573 c 0,0 34.72529,41.207 90.05769,27.672 L 787.64995,362.811 329.18753,486.319 c 0,0 -43.98257,15.166 -89.8244,-23.746" /><path
       inkscape:connector-curvature="0"
       id="path4975"
       style="fill:#edecec;fill-opacity:1;fill-rule:nonzero;stroke:#000000;stroke-width:0.10006095;stroke-opacity:1"
       d="m 648.81585,391.989 -31.03781,6.645 0,-14.941 31.03781,-3.915 0,12.211" /><path
       inkscape:connector-curvature="0"
       id="path4977"
       style="fill:#edecec;fill-opacity:1;fill-rule:nonzero;stroke:#000000;stroke-width:0.10006095;stroke-opacity:1"
       d="m 601.75853,402.257 -69.08415,14.697 0,-22.465 69.08415,-8.66 0,16.428" /><path
       inkscape:connector-curvature="0"
       id="path4979"
       style="fill:#edecec;fill-opacity:1;fill-rule:nonzero;stroke:#000000;stroke-width:0.10006095;stroke-opacity:1"
       d="m 375.48292,414.302 125.15244,-15.779 0,25.276 -125.15244,26.777 0,-36.274" /><path
       inkscape:connector-curvature="0"
       id="path4981"
       style="fill:#edecec;fill-opacity:1;fill-rule:nonzero;stroke:#000000;stroke-width:0.10006095;stroke-opacity:1"
       d="m 700.87926,380.916 -10.0122,2.215 0,-8.573 10.0122,-1.306 0,7.664" /><path
       inkscape:connector-curvature="0"
       id="path4983"
       style="fill:#edecec;fill-opacity:1;fill-rule:nonzero;stroke:#000000;stroke-width:0.10006095;stroke-opacity:1"
       d="m 679.85365,385.346 -20.02439,4.428 0,-11.301 20.02439,-2.611 0,9.484" /><path
       inkscape:connector-curvature="0"
       id="path4985"
       style="fill:#edecec;fill-opacity:1;fill-rule:nonzero;stroke:#000000;stroke-width:0.10006095;stroke-opacity:1"
       d="m 336.43536,458.83 -19.30752,4.228 c 0,0 -30.57524,10.103 -60.21734,-33.836 l 79.52486,-10.055 0,39.663" /><path
       inkscape:connector-curvature="0"
       id="path4987"
       style="fill:#edecec;fill-opacity:1;fill-rule:nonzero;stroke:#000000;stroke-width:0.10006095;stroke-opacity:1"
       d="m 708.88902,379.306 0,-7.002 78.76093,-9.493 -78.76093,16.495" /><path
       inkscape:connector-curvature="0"
       id="path4989"
       style="fill:#f0eedd;fill-opacity:1;fill-rule:nonzero;stroke:#000000;stroke-width:0.10006095;stroke-opacity:1"
       d="m 267.07087,344.242 c 0,-1.526 -0.87406,-2.763 -1.95137,-2.763 -1.07832,0 -1.95238,1.237 -1.95238,2.763 0,1.526 0.87406,2.763 1.95238,2.763 1.07731,0 1.95137,-1.237 1.95137,-2.763" /><path
       inkscape:connector-curvature="0"
       id="path4991"
       style="fill:#f0eedd;fill-opacity:1;fill-rule:nonzero;stroke:#000000;stroke-width:0.10006095;stroke-opacity:1"
       d="m 263.23721,333.2 c -4.30725,0 -7.7985,4.944 -7.7985,11.042 0,6.098 3.49125,11.04 7.7985,11.04 0.0791,0 0.15619,-0.013 0.23528,-0.015 -0.67582,0.258 -1.38368,0.41 -2.11758,0.41 -4.46043,0 -8.07684,-5.12 -8.07684,-11.435 0,-6.316 3.61641,-11.435 8.07684,-11.435 0.7339,0 1.44176,0.15 2.11758,0.41 -0.0791,-0.003 -0.15619,-0.017 -0.23528,-0.017" /><path
       inkscape:connector-curvature="0"
       id="path4993"
       style="fill:#000000;fill-opacity:0;fill-rule:nonzero;stroke:#000000;stroke-width:0.10006095;stroke-opacity:1"
       d="m 139.06196,348.157 c 69.48864,7.52 66.06647,31.956 138.97928,34.642 -63.26706,-4.988 -71.26581,-31.822 -138.97928,-34.642" /><path
       style="color:#000000;clip-rule:nonzero;display:inline;overflow:visible;visibility:visible;opacity:1;isolation:auto;mix-blend-mode:normal;color-interpolation:sRGB;color-interpolation-filters:linearRGB;solid-color:#000000;solid-opacity:1;fill:#000000;fill-opacity:0;fill-rule:nonzero;stroke:#000000;stroke-width:0.004635;stroke-linecap:round;stroke-linejoin:round;stroke-miterlimit:4;stroke-dasharray:none;stroke-dashoffset:0;stroke-opacity:1;color-rendering:auto;image-rendering:auto;shape-rendering:auto;text-rendering:auto;enable-background:accumulate"
       d="m -1.0176106,617.32205 0,-72.38143 57.0674466,0 57.067444,0 1.16408,1.42823 c 2.09855,2.57476 5.32052,5.72508 8.17524,7.99344 1.34142,1.06589 4.31632,3.07436 5.92849,4.00257 6.12528,3.52662 12.91306,5.79132 20.64191,6.88705 1.03748,0.14709 2.4903,0.30122 3.22848,0.34251 0.75661,0.0423 1.25037,0.10894 1.1318,0.15268 -0.4418,0.16299 -3.62389,0.46633 -10.05218,0.95827 -1.44092,0.11027 -2.64305,0.22368 -2.67138,0.25202 -0.0283,0.0283 -0.0995,0.91898 -0.15804,1.9792 -0.17603,3.18572 -0.34967,4.32915 -0.72441,4.77011 -0.16709,0.19661 -0.49762,0.24699 -3.25799,0.49657 -3.46945,0.31369 -17.18707,1.60502 -37.241674,3.50581 -7.469893,0.708 -20.32393,1.92004 -28.564527,2.69343 -23.339747,2.19044 -31.958739,3.03723 -37.88842,3.72242 -1.274624,0.14728 -3.869685,0.4141 -5.766801,0.59292 -5.413026,0.51024 -7.383207,0.72478 -6.683021,0.72773 0.355709,0.002 1.124334,-0.0288 1.708054,-0.0673 0.583721,-0.0385 1.083769,-0.0337 1.111216,0.0108 0.02745,0.0445 0.504383,0.0808 1.059856,0.0808 0.740859,0 1.051804,-0.0419 1.167034,-0.15708 0.175413,-0.17542 2.258045,-0.32715 9.667266,-0.70431 13.836643,-0.70435 52.958284,-3.06474 92.268817,-5.56702 l 11.15633,-0.71014 11.42581,-0.0854 c 6.2842,-0.047 14.95461,-0.11494 19.26758,-0.15101 l 7.84177,-0.0656 0,8.13023 0,8.13022 -0.40421,0.0642 c -0.22232,0.0353 -16.96895,2.24745 -37.21473,4.9159 -61.919842,8.16119 -71.993963,9.50463 -72.777071,9.70519 -0.256678,0.0657 -1.048758,0.20681 -1.760176,0.3135 -1.529074,0.22932 -1.189798,0.2607 1.239593,0.11467 0.9782,-0.0588 3.063949,-0.15884 4.634998,-0.22231 3.220137,-0.1301 8.589128,-0.45873 16.599763,-1.01607 12.930653,-0.89965 21.663513,-1.50359 32.013833,-2.21399 6.07669,-0.41707 14.20142,-0.97546 18.05493,-1.24086 3.85352,-0.2654 14.08824,-0.96581 22.74383,-1.55648 8.65559,-0.59067 15.9921,-1.10085 16.30334,-1.13374 l 0.5659,-0.0598 0,43.87174 0,43.87175 -89.035089,0 -89.0350916,0 0,-72.38144 z"
       id="path5106"
       inkscape:connector-curvature="0"
       transform="matrix(0.8,0,0,-0.8,0,800)" /><path
       style="color:#000000;clip-rule:nonzero;display:inline;overflow:visible;visibility:visible;opacity:1;isolation:auto;mix-blend-mode:normal;color-interpolation:sRGB;color-interpolation-filters:linearRGB;solid-color:#000000;solid-opacity:1;fill:#000000;fill-opacity:0;fill-rule:nonzero;stroke:#000000;stroke-width:0.01853999;stroke-linecap:round;stroke-linejoin:round;stroke-miterlimit:4;stroke-dasharray:none;stroke-dashoffset:0;stroke-opacity:1;color-rendering:auto;image-rendering:auto;shape-rendering:auto;text-rendering:auto;enable-background:accumulate"
       d="m 973.5584,545.19109 c -1.89711,-0.21519 -20.91139,-2.51618 -42.25394,-5.1133 -21.34255,-2.59712 -39.87177,-4.83686 -41.17604,-4.97719 -4.12661,-0.444 -3.88046,-0.12777 -3.88046,-4.98541 0,-3.90638 0.0709,-4.29004 0.75453,-4.08192 0.67725,0.20617 17.89357,3.79544 72.75871,15.16878 16.84284,3.49146 20.9243,4.47317 18.32441,4.40753 -0.59285,-0.015 -2.63009,-0.20329 -4.52721,-0.41849 z"
       id="path5108"
       inkscape:connector-curvature="0"
       transform="matrix(0.8,0,0,-0.8,0,800)" /><path
       style="color:#000000;clip-rule:nonzero;display:inline;overflow:visible;visibility:visible;opacity:1;isolation:auto;mix-blend-mode:normal;color-interpolation:sRGB;color-interpolation-filters:linearRGB;solid-color:#000000;solid-opacity:1;fill:#000000;fill-opacity:0;fill-rule:nonzero;stroke:#000000;stroke-width:0.01853999;stroke-linecap:round;stroke-linejoin:round;stroke-miterlimit:4;stroke-dasharray:none;stroke-dashoffset:0;stroke-opacity:1;color-rendering:auto;image-rendering:auto;shape-rendering:auto;text-rendering:auto;enable-background:accumulate"
       d="m 952.00027,542.94564 c -13.51695,-1.45201 -24.78056,-2.77335 -25.03025,-2.93632 -0.24968,-0.16296 -7.71957,-1.1923 -16.59976,-2.28742 -8.88018,-1.09512 -17.98901,-2.22866 -20.24184,-2.51897 l -4.09604,-0.52783 -0.12288,-4.40672 c -0.0897,-3.21558 0.0174,-4.40671 0.39612,-4.40671 0.28545,0 6.16144,1.17918 13.05776,2.6204 12.29938,2.57038 26.98968,5.57169 27.27129,5.57169 0.0784,0 0.14258,-0.66899 0.14258,-1.48664 0,-1.42723 0.0474,-1.47133 1.1857,-1.10351 0.65213,0.21073 12.24502,3.33325 25.76197,6.93895 13.51695,3.6057 24.76059,6.72159 24.98588,6.9242 0.60376,0.54302 0.0567,0.49425 -26.71053,-2.38112 z"
       id="path5110"
       inkscape:connector-curvature="0"
       transform="matrix(0.8,0,0,-0.8,0,800)" /><path
       style="color:#000000;clip-rule:nonzero;display:inline;overflow:visible;visibility:visible;opacity:1;isolation:auto;mix-blend-mode:normal;color-interpolation:sRGB;color-interpolation-filters:linearRGB;solid-color:#000000;solid-opacity:1;fill:#000000;fill-opacity:0;fill-rule:nonzero;stroke:#000000;stroke-width:0.01853999;stroke-linecap:round;stroke-linejoin:round;stroke-miterlimit:4;stroke-dasharray:none;stroke-dashoffset:0;stroke-opacity:1;color-rendering:auto;image-rendering:auto;shape-rendering:auto;text-rendering:auto;enable-background:accumulate"
       d="m 973.5584,545.19109 c -1.89711,-0.21519 -20.91139,-2.51618 -42.25394,-5.1133 -21.34255,-2.59712 -39.87177,-4.83686 -41.17604,-4.97719 -4.12661,-0.444 -3.88046,-0.12777 -3.88046,-4.98541 0,-3.90638 0.0709,-4.29004 0.75453,-4.08192 0.67725,0.20617 17.89357,3.79544 72.75871,15.16878 16.84284,3.49146 20.9243,4.47317 18.32441,4.40753 -0.59285,-0.015 -2.63009,-0.20329 -4.52721,-0.41849 z"
       id="path5112"
       inkscape:connector-curvature="0"
       transform="matrix(0.8,0,0,-0.8,0,800)" /><path
       style="color:#000000;clip-rule:nonzero;display:inline;overflow:visible;visibility:visible;opacity:1;isolation:auto;mix-blend-mode:normal;color-interpolation:sRGB;color-interpolation-filters:linearRGB;solid-color:#000000;solid-opacity:1;fill:#000000;fill-opacity:1;fill-rule:nonzero;stroke:#000000;stroke-width:0.01853999;stroke-linecap:round;stroke-linejoin:round;stroke-miterlimit:4;stroke-dasharray:none;stroke-dashoffset:0;stroke-opacity:1;color-rendering:auto;image-rendering:auto;shape-rendering:auto;text-rendering:auto;enable-background:accumulate"
       d="m 973.5584,545.19109 c -1.89711,-0.21519 -20.91139,-2.51618 -42.25394,-5.1133 -21.34255,-2.59712 -39.87177,-4.83686 -41.17604,-4.97719 -4.12661,-0.444 -3.88046,-0.12777 -3.88046,-4.98541 0,-3.90638 0.0709,-4.29004 0.75453,-4.08192 0.67725,0.20617 17.89357,3.79544 72.75871,15.16878 16.84284,3.49146 20.9243,4.47317 18.32441,4.40753 -0.59285,-0.015 -2.63009,-0.20329 -4.52721,-0.41849 z"
       id="path5114"
       inkscape:connector-curvature="0"
       transform="matrix(0.8,0,0,-0.8,0,800)" /><path
       style="fill:#000000;fill-opacity:1;stroke:#000000;stroke-width:1px;stroke-linecap:butt;stroke-linejoin:miter;stroke-opacity:1"
       d="m 335.65323,749.21215 0,-157.79733 0.97011,-0.19308 c 0.82683,-0.16457 35.49471,-2.60326 44.51755,-3.13156 1.65998,-0.0972 21.35333,-1.4468 43.76301,-2.99913 22.40968,-1.55233 42.20005,-2.91101 43.97859,-3.0193 1.77855,-0.10829 11.57672,-0.77951 21.77372,-1.4916 10.197,-0.71209 19.99517,-1.39089 21.77371,-1.50843 1.77855,-0.11755 31.36709,-2.14724 65.75231,-4.51041 34.38522,-2.36318 63.97376,-4.39378 65.75231,-4.51245 1.77854,-0.11866 5.75602,-0.4024 8.83883,-0.63052 3.08282,-0.22813 8.70949,-0.62057 12.50372,-0.87209 3.79423,-0.25153 26.59196,-1.82502 50.66161,-3.49664 24.06966,-1.67163 44.05405,-3.04415 44.40976,-3.05006 0.35571,-0.006 3.16905,-0.20373 6.25186,-0.4396 3.08281,-0.23588 5.89615,-0.4299 6.25186,-0.43116 0.35571,-10e-4 3.16904,-0.19529 6.25186,-0.43117 3.08281,-0.23587 5.89615,-0.43275 6.25185,-0.4375 0.35571,-0.005 8.79572,-0.57118 18.75558,-1.25874 9.95986,-0.68756 19.66102,-1.35058 21.55813,-1.47339 1.89712,-0.12281 7.42678,-0.50774 12.28814,-0.85542 4.86136,-0.34767 10.39102,-0.73282 12.28814,-0.85588 1.89711,-0.12307 6.06861,-0.40888 9.26999,-0.63514 3.20139,-0.22625 8.82806,-0.61478 12.50372,-0.86339 14.41567,-0.97503 43.88874,-3.02169 46.13441,-3.20366 1.30426,-0.10568 4.1176,-0.30699 6.25186,-0.44733 2.13425,-0.14036 13.48461,-0.93522 25.22301,-1.76637 11.73841,-0.83116 24.12002,-1.6787 27.51469,-1.88345 5.88136,-0.35471 7.40341,-0.62381 6.06991,-1.07313 -0.83236,-0.28046 -14.00886,-4.06349 -16.12251,-4.62884 -0.94856,-0.25372 -2.1127,-0.63131 -2.58697,-0.83909 -0.47428,-0.20778 -2.02647,-0.65998 -3.44931,-1.0049 -1.42283,-0.34491 -4.62422,-1.22431 -7.11418,-1.95423 -2.48996,-0.72992 -5.88537,-1.71872 -7.54535,-2.19734 -1.65997,-0.47862 -4.57032,-1.33703 -6.46744,-1.90758 -3.77233,-1.13452 -28.52844,-8.30394 -30.61255,-8.86546 -1.45582,-0.39224 -9.7607,-2.79269 -15.30627,-4.42413 -2.01569,-0.59299 -12.10489,-3.53103 -22.42046,-6.52898 -10.31557,-2.99796 -22.44202,-6.5363 -26.94767,-7.86299 -4.50565,-1.32669 -8.77416,-2.55987 -9.48558,-2.74041 -0.71141,-0.18054 -3.9128,-1.10674 -7.11418,-2.05823 -7.44398,-2.21243 -31.2846,-9.13097 -32.98394,-9.57192 -0.71142,-0.18459 -4.39786,-1.24938 -8.1921,-2.36619 -3.79423,-1.11681 -7.48067,-2.18415 -8.19209,-2.37188 -0.71141,-0.18772 -3.23372,-0.9287 -5.60511,-1.64661 -4.67195,-1.41438 -26.34749,-7.72348 -28.45674,-8.2829 -0.71142,-0.18868 -4.39786,-1.24882 -8.19209,-2.35586 -3.79423,-1.10704 -7.77171,-2.25846 -8.83883,-2.5587 -4.21235,-1.18517 -33.49363,-9.73269 -34.7086,-10.1318 -0.71142,-0.2337 -2.36061,-0.70844 -3.66488,-1.05497 -1.30427,-0.34653 -4.40864,-1.226 -6.8986,-1.95439 -2.48997,-0.72839 -5.98239,-1.73504 -7.76093,-2.237 -1.77855,-0.50196 -4.00981,-1.17005 -4.95837,-1.48465 -0.94856,-0.31459 -8.51547,-2.52524 -16.81535,-4.91254 -8.29988,-2.3873 -17.32196,-5.0006 -20.04906,-5.80733 -2.7271,-0.80673 -6.51056,-1.89118 -8.40767,-2.40988 -1.89712,-0.5187 -4.2254,-1.2096 -5.17396,-1.53534 -0.94855,-0.32573 -2.79177,-0.87457 -4.09604,-1.21965 -1.30427,-0.34507 -4.31163,-1.2093 -6.68302,-1.9205 -4.41365,-1.32371 -26.12671,-7.64628 -28.45674,-8.28625 -0.71142,-0.1954 -2.74866,-0.77211 -4.52721,-1.28158 -1.77854,-0.50947 -4.49487,-1.28664 -6.03627,-1.72705 -1.54141,-0.44042 -4.16072,-1.19873 -5.8207,-1.68515 -1.65998,-0.48642 -4.27929,-1.25062 -5.8207,-1.69822 -9.61657,-2.79251 -34.87438,-10.15607 -37.94231,-11.06154 -3.84545,-1.13496 -7.40761,-2.16422 -12.61579,-3.64526 -1.71691,-0.48823 -4.67383,-1.34704 -6.57095,-1.90846 -1.89712,-0.56143 -4.90448,-1.43453 -6.68302,-1.94023 -3.28127,-0.93299 -6.84057,-1.97011 -14.22837,-4.14593 -2.25282,-0.66349 -5.26018,-1.53548 -6.68302,-1.93776 -1.42284,-0.40228 -4.04215,-1.17494 -5.8207,-1.71704 -1.77854,-0.54209 -3.81579,-1.13346 -4.5272,-1.31415 -0.71142,-0.18068 -3.71878,-1.04552 -6.68303,-1.92186 -2.96424,-0.87634 -5.9716,-1.75309 -6.68302,-1.94833 -0.71142,-0.19524 -2.94268,-0.83585 -4.95837,-1.42357 -2.01568,-0.58772 -7.44833,-2.15117 -12.07255,-3.47433 -4.62422,-1.32316 -9.95986,-2.88913 -11.85698,-3.47993 -1.89711,-0.5908 -6.16562,-1.82963 -9.48558,-2.75295 -3.31995,-0.92332 -10.49881,-2.97818 -15.95301,-4.56635 -41.99227,-12.22743 -49.0895,-14.09385 -55.96087,-14.71651 l -3.324,-0.30122 0,-16.10913 0,-16.10913 331.77967,0 331.77968,0 0,289.52574 0,289.52573 -331.77968,0 -331.77967,0 0,-157.79732 z"
       id="path5116"
       inkscape:connector-curvature="0"
       transform="matrix(0.8,0,0,-0.8,0,800)" /><path
       style="fill:#000000;fill-opacity:1;stroke:#000000;stroke-width:1px;stroke-linecap:butt;stroke-linejoin:miter;stroke-opacity:1"
       d="m -0.92725477,617.48374 0,-289.52574 168.15344477,0 168.15344,0 0,16.0121 0,16.01209 -3.98826,-0.29054 c -16.3359,-1.19005 -36.13385,-1.48248 -46.28737,-0.68369 -41.14123,3.23662 -74.30337,14.96085 -98.98315,34.99473 -6.80138,5.52104 -27.75141,26.59659 -35.76462,35.9789 -21.81349,25.54045 -36.06792,48.56052 -43.08461,69.57916 -3.59969,10.78292 -3.29666,22.12057 0.80007,29.93458 3.70963,7.07565 14.0642,14.01314 20.95927,14.74087 l 12.87208,1.35857 -7.29463,0.1333 c -3.20964,0.0587 -9.60698,-0.7202 -12.93303,-2.06187 -1.98872,-0.80222 -4.01134,-1.90981 -4.24848,-1.96562 -0.23714,-0.0558 -0.52818,-0.20485 -0.64675,-0.3312 -0.11857,-0.12635 -1.23182,-0.87264 -2.47389,-1.65842 -2.30683,-1.45937 -5.60516,-4.78791 -7.75223,-7.82325 -0.65983,-0.9328 -1.3404,-1.70014 -1.51239,-1.70521 -0.41624,-0.0122 0.14574,1.40851 2.06324,5.21615 8.37652,16.63356 22.94926,27.14877 41.36573,29.84817 l 8.94346,0.78436 -8.94346,0.0833 c -2.14048,0.0199 -4.78071,0.40614 -5.88101,0.5372 l -2.00054,0.23827 -0.29958,3.19691 c -0.16477,1.7583 -0.0906,3.45576 -0.30107,3.58581 -0.47499,0.29356 -7.78312,0.93583 -15.44733,1.57605 -4.11622,0.34385 -47.859382,4.43942 -55.404401,5.18739 -3.557092,0.35263 -7.631579,0.73855 -9.054416,0.8576 -3.255498,0.27239 -26.798932,2.63481 -33.415107,3.35297 -3.816342,0.41425 -4.632162,0.60649 -3.542066,0.83462 0.778968,0.16301 2.331153,0.11826 3.449302,-0.0995 1.118148,-0.21773 4.846333,-0.51633 8.284855,-0.66356 3.438522,-0.14723 17.311181,-0.93616 30.828131,-1.75317 13.51695,-0.81702 26.322481,-1.58528 28.456736,-1.70725 2.134256,-0.12198 6.887826,-0.433 10.563486,-0.69116 3.67566,-0.25816 6.97406,-0.46999 7.32977,-0.47073 0.3557,-8.6e-4 6.46744,-0.36757 13.58162,-0.81518 10.13335,-0.63756 20.77916,-0.86787 49.15254,-1.06334 19.91972,-0.13723 41.74733,-0.30899 48.5058,-0.3817 6.75848,-0.0727 20.45599,-0.15522 30.43891,-0.18338 l 18.15077,-0.0512 1.79819,-4.69142 1.79818,-4.69142 3.98058,-1.3779 c 8.8069,-3.04856 18.20016,-9.04168 26.29944,-16.77969 l 3.38698,-3.2359 257.67965,0.0958 c 141.72377,0.0527 257.77039,0.18656 257.88128,0.29748 0.11094,0.11091 0.12082,0.27849 0.022,0.3724 -0.16651,0.15824 -17.02239,0.35378 -78.43569,0.90991 -13.16124,0.11918 -34.40678,0.31322 -47.21231,0.4312 -12.80553,0.11797 -35.1182,0.31302 -49.58371,0.43344 -29.84478,0.24843 -63.87679,0.55098 -96.36485,0.8567 -12.21269,0.11492 -34.23432,0.31161 -48.93697,0.43708 -14.70264,0.12548 -34.97807,0.31598 -45.0565,0.42334 -10.07842,0.10736 -32.68213,0.30759 -50.23045,0.44495 -17.54832,0.13737 -36.95064,0.32934 -43.11627,0.42662 -6.16562,0.0973 -19.45621,0.20742 -29.53464,0.24475 -10.07843,0.0373 -19.6097,0.19005 -21.18061,0.33935 -2.66707,0.25347 -3.01369,0.4142 -5.23441,2.42726 -8.07386,7.31887 -15.61325,12.08725 -23.16018,14.64798 l -2.79406,0.94805 -0.87894,4.49012 c -0.48342,2.46957 -1.01472,4.70427 -1.18066,4.96599 -0.16594,0.26173 -2.10252,0.70794 -4.30351,0.99159 -2.20099,0.28364 -6.03904,0.79066 -8.52901,1.12672 -2.48996,0.33605 -9.95985,1.30627 -16.59976,2.15604 -6.6399,0.84978 -13.3337,1.7446 -14.87511,1.98851 -1.54141,0.2439 -3.67566,0.53698 -4.74279,0.65128 -1.06713,0.11429 -7.76093,0.9861 -14.87511,1.93736 -7.11419,0.95125 -14.48707,1.91247 -16.38418,2.13604 -1.89712,0.22357 -5.58356,0.70654 -8.19209,1.07326 -2.60854,0.36672 -5.48912,0.74704 -6.40131,0.84515 -2.45255,0.26379 -33.52215,4.35981 -44.47589,5.86342 -5.21707,0.71614 -10.16466,1.38647 -10.99465,1.48962 -17.88228,2.22244 -63.367859,8.32161 -65.536724,8.78783 -2.784021,0.59845 8.129374,0.17364 23.067203,-0.8979 6.639905,-0.47631 13.527731,-0.94517 15.306271,-1.04191 1.77855,-0.0967 4.49487,-0.31317 6.03628,-0.48093 1.54141,-0.16776 2.969,-0.26413 3.17242,-0.21415 0.20343,0.05 3.11377,-0.12518 6.46744,-0.38923 3.35367,-0.26406 7.45574,-0.55582 9.11572,-0.64836 1.65997,-0.0925 5.83147,-0.3724 9.27,-0.6219 14.68991,-1.06592 31.7548,-2.25768 32.55278,-2.2734 0.47428,-0.009 3.09359,-0.17759 5.82069,-0.37388 2.72711,-0.19629 6.70458,-0.47105 8.83884,-0.61058 2.13425,-0.13954 12.32047,-0.83911 22.63604,-1.5546 10.31556,-0.71549 20.21075,-1.38917 21.98929,-1.49707 1.77855,-0.1079 11.57672,-0.78651 21.77372,-1.508 10.197,-0.72151 20.09218,-1.39785 21.9893,-1.50299 1.89711,-0.10514 11.79229,-0.78453 21.98929,-1.50976 10.197,-0.72524 20.18919,-1.40078 22.20488,-1.50122 2.01568,-0.10044 5.79914,-0.37483 8.40767,-0.60975 2.60854,-0.23493 5.6644,-0.4278 6.79081,-0.42861 l 2.04807,-10e-4 0,157.80554 0,157.80553 -168.15344,0 -168.15344477,0 0,-289.52573 z"
       id="path5118"
       inkscape:connector-curvature="0"
       sodipodi:nodetypes="ccccccssssssscsscssscsscsscssssssccsssscsssscccsscscssssssssssssscscssssssssssssscscscscssssssssscccccccc"
       transform="matrix(0.8,0,0,-0.8,0,800)" /></g><path
     style="color:#000000;clip-rule:nonzero;display:inline;overflow:visible;visibility:visible;opacity:1;isolation:auto;mix-blend-mode:normal;color-interpolation:sRGB;color-interpolation-filters:linearRGB;solid-color:#000000;solid-opacity:1;fill:#000000;fill-opacity:1;fill-rule:nonzero;stroke:#000000;stroke-width:0.043;stroke-linecap:round;stroke-linejoin:round;stroke-miterlimit:4;stroke-dasharray:none;stroke-dashoffset:0;stroke-opacity:1;color-rendering:auto;image-rendering:auto;shape-rendering:auto;text-rendering:auto;enable-background:accumulate"
     d="m 189.46699,453.2334 c -5.24179,-0.32787 -15.7317,-1.62902 -16.13256,-2.00105 -0.57138,-0.53029 8.17541,-11.54935 15.44787,-19.46096 15.79439,-17.18248 35.38705,-31.57675 54.63284,-40.13746 28.37632,-12.62207 58.24681,-14.44317 88.55111,-5.39864 2.01569,0.6016 3.81913,1.24073 4.00765,1.4203 0.18852,0.17956 -1.16964,1.45889 -3.01814,2.84294 -22.04883,16.50894 -43.90688,37.31814 -54.26049,51.65684 -1.00911,1.39752 -1.5169,1.54315 -14.42156,4.13605 -26.96511,5.41802 -56.038,8.11596 -74.80672,6.94198 z"
     id="path5057"
     inkscape:connector-curvature="0" /><path
     style="color:#000000;clip-rule:nonzero;display:inline;overflow:visible;visibility:visible;opacity:1;isolation:auto;mix-blend-mode:normal;color-interpolation:sRGB;color-interpolation-filters:linearRGB;solid-color:#000000;solid-opacity:1;fill:#050000;fill-opacity:1;fill-rule:nonzero;stroke:#60e017;stroke-width:0.043;stroke-linecap:round;stroke-linejoin:round;stroke-miterlimit:4;stroke-dasharray:none;stroke-dashoffset:0;stroke-opacity:1;color-rendering:auto;image-rendering:auto;shape-rendering:auto;text-rendering:auto;enable-background:accumulate"
     d="m 394.97641,480.57738 c -26.64496,-3.39907 -48.54448,-6.27923 -48.6656,-6.40035 -0.70437,-0.70437 9.74721,-13.6412 16.23642,-20.09723 14.51449,-14.44026 29.93645,-22.10341 45.73481,-22.72556 3.31935,-0.13072 7.02505,-0.0303 8.62326,0.23359 2.77208,0.45778 25.81449,5.46871 27.27104,5.93051 0.70697,0.22414 0.75453,1.78672 0.75453,24.78644 0,23.10886 -0.0442,24.54445 -0.75453,24.49998 -0.415,-0.026 -22.55496,-2.8283 -49.19993,-6.22738 z"
     id="path5059"
     inkscape:connector-curvature="0" /><path
     style="color:#000000;clip-rule:nonzero;display:inline;overflow:visible;visibility:visible;opacity:1;isolation:auto;mix-blend-mode:normal;color-interpolation:sRGB;color-interpolation-filters:linearRGB;solid-color:#000000;solid-opacity:1;fill:#050000;fill-opacity:1;fill-rule:nonzero;stroke:#60e017;stroke-width:0.043;stroke-linecap:round;stroke-linejoin:round;stroke-miterlimit:4;stroke-dasharray:none;stroke-dashoffset:0;stroke-opacity:1;color-rendering:auto;image-rendering:auto;shape-rendering:auto;text-rendering:auto;enable-background:accumulate"
     d="m 571.6927,502.79431 c -42.56654,-5.41269 -77.44221,-9.85583 -77.50149,-9.87365 -0.0593,-0.0178 -0.10779,-10.14262 -0.10779,-22.49958 l 0,-22.4672 0.97011,0.23549 c 1.89563,0.46016 154.58654,33.05752 154.84637,33.05752 0.14542,0 0.2644,7.08184 0.2644,15.73743 0,12.3255 -0.11685,15.7281 -0.53895,15.69435 -0.29642,-0.0237 -35.36612,-4.47166 -77.93265,-9.88436 z"
     id="path5061"
     inkscape:connector-curvature="0" /><path
     style="color:#000000;clip-rule:nonzero;display:inline;overflow:visible;visibility:visible;opacity:1;isolation:auto;mix-blend-mode:normal;color-interpolation:sRGB;color-interpolation-filters:linearRGB;solid-color:#000000;solid-opacity:1;fill:#050000;fill-opacity:1;fill-rule:nonzero;stroke:#60e017;stroke-width:0.043;stroke-linecap:round;stroke-linejoin:round;stroke-miterlimit:4;stroke-dasharray:none;stroke-dashoffset:0;stroke-opacity:1;color-rendering:auto;image-rendering:auto;shape-rendering:auto;text-rendering:auto;enable-background:accumulate"
     d="m 931.49795,536.60912 c -29.6583,-8.08132 -54.4308,-14.76543 -359.15851,-96.90812 -39.12801,-10.54739 -86.37266,-23.29046 -104.98811,-28.31794 -38.07024,-10.28163 -36.8692,-9.97567 -43.33185,-11.0388 -6.64845,-1.09369 -23.69526,-1.10283 -31.04371,-0.0167 -14.90054,2.20248 -28.44766,6.62228 -42.03112,13.71282 -5.85597,3.05681 -14.87899,8.75337 -19.54372,12.33867 -3.81118,2.92926 -3.39581,1.89277 0.64673,-1.61383 8.5581,-7.4235 16.85554,-12.94477 26.86626,-17.87731 13.21461,-6.51118 25.73582,-10.11273 39.88255,-11.47167 9.71818,-0.93354 25.4698,0.0873 34.35468,2.22653 1.85839,0.44744 166.06112,46.0162 374.81869,104.01788 41.38084,11.49735 90.08066,25.00562 108.22183,30.0184 18.14117,5.01277 33.469,9.28251 34.06185,9.48831 0.87177,0.30261 0.91299,0.37435 0.21558,0.37509 -0.47427,4.3e-4 -9.0113,-2.21951 -18.97115,-4.93338 z"
     id="path5063"
     inkscape:connector-curvature="0" /><path
     style="color:#000000;clip-rule:nonzero;display:inline;overflow:visible;visibility:visible;opacity:1;isolation:auto;mix-blend-mode:normal;color-interpolation:sRGB;color-interpolation-filters:linearRGB;solid-color:#000000;solid-opacity:1;fill:#050000;fill-opacity:1;fill-rule:nonzero;stroke:#60e017;stroke-width:0.043;stroke-linecap:round;stroke-linejoin:round;stroke-miterlimit:4;stroke-dasharray:none;stroke-dashoffset:0;stroke-opacity:1;color-rendering:auto;image-rendering:auto;shape-rendering:auto;text-rendering:auto;enable-background:accumulate"
     d="m 206.7135,505.64115 c -7.74989,-0.5525 -7.11259,-0.85694 2.85408,-1.36339 l 5.44107,-0.27648 11.78601,-11.79186 c 6.48231,-6.48552 11.68325,-11.89462 11.55766,-12.02022 -0.1256,-0.12559 -3.89295,-0.0219 -8.37188,0.23041 l -8.14353,0.45877 -11.79486,9.49679 c -6.48717,5.22324 -11.85533,9.42915 -11.92924,9.34646 -0.0739,-0.0827 4.67493,-4.85818 10.55298,-10.61222 l 10.68736,-10.4619 13.3353,0.11399 13.3353,0.11399 -15.18616,13.58163 c -10.33204,9.24036 -15.5121,13.59668 -16.20583,13.62873 -0.56081,0.0259 -4.12403,-0.17421 -7.91826,-0.4447 z"
     id="path5065"
     inkscape:connector-curvature="0" /><path
     style="color:#000000;clip-rule:nonzero;display:inline;overflow:visible;visibility:visible;opacity:1;isolation:auto;mix-blend-mode:normal;color-interpolation:sRGB;color-interpolation-filters:linearRGB;solid-color:#000000;solid-opacity:1;fill:#050000;fill-opacity:1;fill-rule:nonzero;stroke:#60e017;stroke-width:0.043;stroke-linecap:round;stroke-linejoin:round;stroke-miterlimit:4;stroke-dasharray:none;stroke-dashoffset:0;stroke-opacity:1;color-rendering:auto;image-rendering:auto;shape-rendering:auto;text-rendering:auto;enable-background:accumulate"
     d="m 215.12117,573.72452 c 8.40643,-1.35471 19.3048,-3.72884 26.57721,-5.78964 12.36625,-3.50425 20.11872,-6.44057 42.19323,-15.98108 19.3702,-8.37172 30.98063,-12.074 47.21232,-15.05485 9.9351,-1.82452 26.86625,-3.84031 28.10302,-3.34588 0.31311,0.12517 -0.0485,0.2429 -0.80352,0.26162 -2.87354,0.0712 -17.05577,2.70283 -24.51978,4.54976 -4.28106,1.05933 -11.2659,3.07572 -15.52185,4.48087 -7.22401,2.38507 -11.85517,4.19632 -38.13507,14.91466 -22.25245,9.07573 -40.83036,13.95293 -62.34474,16.36716 -8.68873,0.97501 -10.06446,0.77438 -2.76082,-0.40262 z"
     id="path5069"
     inkscape:connector-curvature="0" /><path
     style="color:#000000;clip-rule:nonzero;display:inline;overflow:visible;visibility:visible;opacity:1;isolation:auto;mix-blend-mode:normal;color-interpolation:sRGB;color-interpolation-filters:linearRGB;solid-color:#000000;solid-opacity:1;fill:#000000;fill-opacity:1;fill-rule:nonzero;stroke:#000000;stroke-width:0.043;stroke-linecap:round;stroke-linejoin:round;stroke-miterlimit:4;stroke-dasharray:none;stroke-dashoffset:0;stroke-opacity:1;color-rendering:auto;image-rendering:auto;shape-rendering:auto;text-rendering:auto;enable-background:accumulate"
     d="m 354.19558,582.90534 c -1.86329,-2.66021 0.66048,-6.99458 2.79476,-4.79978 1.19333,1.22716 1.28392,3.96471 0.16813,5.0805 -0.9565,0.9565 -2.17732,0.84084 -2.96289,-0.28072 z"
     id="path5071"
     inkscape:connector-curvature="0" /><path
     style="color:#000000;clip-rule:nonzero;display:inline;overflow:visible;visibility:visible;opacity:1;isolation:auto;mix-blend-mode:normal;color-interpolation:sRGB;color-interpolation-filters:linearRGB;solid-color:#000000;solid-opacity:1;fill:#000000;fill-opacity:1;fill-rule:nonzero;stroke:#000000;stroke-width:0.043;stroke-linecap:round;stroke-linejoin:round;stroke-miterlimit:4;stroke-dasharray:none;stroke-dashoffset:0;stroke-opacity:1;color-rendering:auto;image-rendering:auto;shape-rendering:auto;text-rendering:auto;enable-background:accumulate"
     d="m 346.7858,593.24139 c -3.96339,-2.65319 -6.27572,-9.30335 -5.31846,-15.2956 0.59176,-3.70424 1.61606,-6.00259 3.70858,-8.32145 1.86704,-2.06898 3.75502,-3.02608 5.85543,-2.96836 l 1.41513,0.0389 -1.41792,0.40891 c -1.70888,0.49283 -4.4909,3.17785 -5.61984,5.42391 -2.21949,4.41572 -2.35207,11.05141 -0.31002,15.51621 1.38833,3.03546 2.90225,4.72124 5.19197,5.78134 l 1.72465,0.79849 -1.56814,0.009 c -1.06355,0.006 -2.24167,-0.44142 -3.66138,-1.39181 z"
     id="path5073"
     inkscape:connector-curvature="0" /><path
     style="color:#000000;clip-rule:nonzero;display:inline;overflow:visible;visibility:visible;opacity:1;isolation:auto;mix-blend-mode:normal;color-interpolation:sRGB;color-interpolation-filters:linearRGB;solid-color:#000000;solid-opacity:1;fill:#050000;fill-opacity:1;fill-rule:nonzero;stroke:#60e017;stroke-width:0.043;stroke-linecap:round;stroke-linejoin:round;stroke-miterlimit:4;stroke-dasharray:none;stroke-dashoffset:0;stroke-opacity:1;color-rendering:auto;image-rendering:auto;shape-rendering:auto;text-rendering:auto;enable-background:accumulate"
     d="m 814.95563,533.63622 c -9.79333,-1.24957 -17.89774,-2.36363 -18.0098,-2.47569 -0.11205,-0.11205 -0.15129,-4.27483 -0.0872,-9.25063 l 0.11655,-9.04689 12.7193,2.72364 c 6.99562,1.498 15.58114,3.33762 19.07895,4.08805 l 6.35965,1.36441 0,7.48272 0,7.48271 -1.1857,-0.0482 c -0.65213,-0.0265 -9.19842,-1.07057 -18.99176,-2.32014 z"
     id="path5075"
     inkscape:connector-curvature="0" /><path
     style="color:#000000;clip-rule:nonzero;display:inline;overflow:visible;visibility:visible;opacity:1;isolation:auto;mix-blend-mode:normal;color-interpolation:sRGB;color-interpolation-filters:linearRGB;solid-color:#000000;solid-opacity:1;fill:#050000;fill-opacity:1;fill-rule:nonzero;stroke:#60e017;stroke-width:0.043;stroke-linecap:round;stroke-linejoin:round;stroke-miterlimit:4;stroke-dasharray:none;stroke-dashoffset:0;stroke-opacity:1;color-rendering:auto;image-rendering:auto;shape-rendering:auto;text-rendering:auto;enable-background:accumulate"
     d="m 734.02544,523.26711 c -23.00253,-2.92556 -42.25933,-5.33094 -42.79289,-5.3453 l -0.97012,-0.0261 0,-14.04184 c 0,-13.17137 0.0468,-14.02791 0.75454,-13.81707 0.41499,0.12362 14.62719,3.16578 31.58266,6.76035 16.95547,3.59458 35.96975,7.63079 42.25394,8.96937 l 11.42581,2.43377 0.1156,10.23725 c 0.0636,5.63048 -0.0335,10.21733 -0.21558,10.193 -0.18215,-0.0243 -19.15143,-2.43788 -42.15396,-5.36343 z"
     id="path5077"
     inkscape:connector-curvature="0" /><path
     style="color:#000000;clip-rule:nonzero;display:inline;overflow:visible;visibility:visible;opacity:1;isolation:auto;mix-blend-mode:normal;color-interpolation:sRGB;color-interpolation-filters:linearRGB;solid-color:#000000;solid-opacity:1;fill:#050000;fill-opacity:1;fill-rule:nonzero;stroke:#60e017;stroke-width:0.043;stroke-linecap:round;stroke-linejoin:round;stroke-miterlimit:4;stroke-dasharray:none;stroke-dashoffset:0;stroke-opacity:1;color-rendering:auto;image-rendering:auto;shape-rendering:auto;text-rendering:auto;enable-background:accumulate"
     d="m 897.52613,543.97926 c -0.23714,-0.0821 -2.4199,-0.37965 -4.85058,-0.6612 l -4.41941,-0.51192 0,-5.38716 c 0,-4.12998 0.12577,-5.34003 0.53895,-5.18523 0.29642,0.11106 3.01275,0.74359 6.03628,1.40562 l 5.49732,1.20369 0,4.67679 0,4.67679 -1.1857,-0.034 c -0.65213,-0.0187 -1.37972,-0.10122 -1.61686,-0.18334 z"
     id="path5079"
     inkscape:connector-curvature="0" /><path
     style="color:#000000;clip-rule:nonzero;display:inline;overflow:visible;visibility:visible;opacity:1;isolation:auto;mix-blend-mode:normal;color-interpolation:sRGB;color-interpolation-filters:linearRGB;solid-color:#000000;solid-opacity:1;fill:#050000;fill-opacity:1;fill-rule:nonzero;stroke:#60e017;stroke-width:0.043;stroke-linecap:round;stroke-linejoin:round;stroke-miterlimit:4;stroke-dasharray:none;stroke-dashoffset:0;stroke-opacity:1;color-rendering:auto;image-rendering:auto;shape-rendering:auto;text-rendering:auto;enable-background:accumulate"
     d="m 861.52405,539.43464 c -6.52134,-0.90556 -11.90548,-1.65974 -11.96476,-1.67596 -0.0593,-0.0162 -0.1078,-3.15648 -0.1078,-6.97837 0,-6.69923 0.0305,-6.94092 0.84863,-6.72697 0.46674,0.12205 5.99623,1.35733 12.28774,2.74505 l 11.43912,2.52313 3.9e-4,5.92849 c 2.2e-4,3.26067 -0.14512,5.90658 -0.32298,5.8798 -0.17785,-0.0268 -5.65901,-0.7896 -12.18034,-1.69517 z"
     id="path5081"
     inkscape:connector-curvature="0" /></svg>